<svg xmlns="http://www.w3.org/2000/svg" version="1.1" width="288" height="183">
<path d="M 0.585449 9.672363 L 0.585449 8.404785 Q 1.074219 8.839844 1.595215 9.057373 Q 2.116211 9.274902 2.674805 9.274902 Q 3.442871 9.274902 3.746338 8.874756 Q 4.049805 8.474609 4.049805 7.384277 L 4.049805 2.894043 L 2.003418 2.894043 L 2.003418 1.980957 L 5.134766 1.980957 L 5.134766 7.384277 Q 5.134766 8.898926 4.568115 9.527344 Q 4.001465 10.155762 2.674805 10.155762 Q 2.159180 10.155762 1.648926 10.037598 Q 1.138672 9.919434 0.585449 9.672363 Z " fill="rgb(0, 0, 0)" fill-opacity="1.000000" />
<path d="M 3.985352 14.594238 L 3.985352 25.594238 L 3.061523 25.594238 L 3.061523 14.594238 Z " fill="rgb(0, 0, 0)" fill-opacity="1.000000" />
<path d="M 3.985352 27.594238 L 3.985352 38.594238 L 3.061523 38.594238 L 3.061523 27.594238 Z " fill="rgb(0, 0, 0)" fill-opacity="1.000000" />
<path d="M 3.985352 40.594238 L 3.985352 51.594238 L 3.061523 51.594238 L 3.061523 40.594238 Z " fill="rgb(0, 0, 0)" fill-opacity="1.000000" />
<path d="M 3.985352 53.594238 L 3.985352 64.594238 L 3.061523 64.594238 L 3.061523 53.594238 Z " fill="rgb(0, 0, 0)" fill-opacity="1.000000" />
<path d="M 3.985352 66.594238 L 3.985352 77.594238 L 3.061523 77.594238 L 3.061523 66.594238 Z " fill="rgb(0, 0, 0)" fill-opacity="1.000000" />
<path d="M 3.985352 79.594238 L 3.985352 90.594238 L 3.061523 90.594238 L 3.061523 79.594238 Z " fill="rgb(0, 0, 0)" fill-opacity="1.000000" />
<path d="M 3.985352 92.594238 L 3.985352 103.594238 L 3.061523 103.594238 L 3.061523 92.594238 Z " fill="rgb(0, 0, 0)" fill-opacity="1.000000" />
<path d="M 3.985352 105.594238 L 3.985352 116.594238 L 3.061523 116.594238 L 3.061523 105.594238 Z " fill="rgb(0, 0, 0)" fill-opacity="1.000000" />
<path d="M 3.985352 118.594238 L 3.985352 129.594238 L 3.061523 129.594238 L 3.061523 118.594238 Z " fill="rgb(0, 0, 0)" fill-opacity="1.000000" />
<path d="M 3.985352 131.594238 L 3.985352 142.594238 L 3.061523 142.594238 L 3.061523 131.594238 Z " fill="rgb(0, 0, 0)" fill-opacity="1.000000" />
<path d="M 3.985352 144.594238 L 3.985352 155.594238 L 3.061523 155.594238 L 3.061523 144.594238 Z " fill="rgb(0, 0, 0)" fill-opacity="1.000000" />
<path d="M 3.985352 157.594238 L 3.985352 168.594238 L 3.061523 168.594238 L 3.061523 157.594238 Z " fill="rgb(0, 0, 0)" fill-opacity="1.000000" />
<path d="M 3.867188 172.672852 L 3.867188 175.052246 L 6.257324 175.052246 L 6.257324 175.959961 L 3.867188 175.959961 L 3.867188 178.339355 L 2.964844 178.339355 L 2.964844 175.959961 L 0.580078 175.959961 L 0.580078 175.052246 L 2.964844 175.052246 L 2.964844 172.672852 Z " fill="rgb(0, 0, 0)" fill-opacity="1.000000" />
<path d="M 7.547852 175.111328 L 13.241211 175.111328 L 13.241211 176.019043 L 7.547852 176.019043 Z " fill="rgb(0, 0, 0)" fill-opacity="1.000000" />
<path d="M 14.547852 175.111328 L 20.241211 175.111328 L 20.241211 176.019043 L 14.547852 176.019043 Z " fill="rgb(0, 0, 0)" fill-opacity="1.000000" />
<path d="M 21.547852 175.111328 L 27.241211 175.111328 L 27.241211 176.019043 L 21.547852 176.019043 Z " fill="rgb(0, 0, 0)" fill-opacity="1.000000" />
<path d="M 28.547852 175.111328 L 34.241211 175.111328 L 34.241211 176.019043 L 28.547852 176.019043 Z " fill="rgb(0, 0, 0)" fill-opacity="1.000000" />
<path d="M 35.547852 175.111328 L 41.241211 175.111328 L 41.241211 176.019043 L 35.547852 176.019043 Z " fill="rgb(0, 0, 0)" fill-opacity="1.000000" />
<path d="M 42.547852 175.111328 L 48.241211 175.111328 L 48.241211 176.019043 L 42.547852 176.019043 Z " fill="rgb(0, 0, 0)" fill-opacity="1.000000" />
<path d="M 49.547852 175.111328 L 55.241211 175.111328 L 55.241211 176.019043 L 49.547852 176.019043 Z " fill="rgb(0, 0, 0)" fill-opacity="1.000000" />
<path d="M 56.547852 175.111328 L 62.241211 175.111328 L 62.241211 176.019043 L 56.547852 176.019043 Z " fill="rgb(0, 0, 0)" fill-opacity="1.000000" />
<path d="M 63.547852 175.111328 L 69.241211 175.111328 L 69.241211 176.019043 L 63.547852 176.019043 Z " fill="rgb(0, 0, 0)" fill-opacity="1.000000" />
<path d="M 70.547852 175.111328 L 76.241211 175.111328 L 76.241211 176.019043 L 70.547852 176.019043 Z " fill="rgb(0, 0, 0)" fill-opacity="1.000000" />
<path d="M 77.547852 175.111328 L 83.241211 175.111328 L 83.241211 176.019043 L 77.547852 176.019043 Z " fill="rgb(0, 0, 0)" fill-opacity="1.000000" />
<path d="M 84.547852 175.111328 L 90.241211 175.111328 L 90.241211 176.019043 L 84.547852 176.019043 Z " fill="rgb(0, 0, 0)" fill-opacity="1.000000" />
<path d="M 91.547852 175.111328 L 97.241211 175.111328 L 97.241211 176.019043 L 91.547852 176.019043 Z " fill="rgb(0, 0, 0)" fill-opacity="1.000000" />
<path d="M 98.547852 175.111328 L 104.241211 175.111328 L 104.241211 176.019043 L 98.547852 176.019043 Z " fill="rgb(0, 0, 0)" fill-opacity="1.000000" />
<path d="M 105.547852 175.111328 L 111.241211 175.111328 L 111.241211 176.019043 L 105.547852 176.019043 Z " fill="rgb(0, 0, 0)" fill-opacity="1.000000" />
<path d="M 112.547852 175.111328 L 118.241211 175.111328 L 118.241211 176.019043 L 112.547852 176.019043 Z " fill="rgb(0, 0, 0)" fill-opacity="1.000000" />
<path d="M 119.547852 175.111328 L 125.241211 175.111328 L 125.241211 176.019043 L 119.547852 176.019043 Z " fill="rgb(0, 0, 0)" fill-opacity="1.000000" />
<path d="M 126.547852 175.111328 L 132.241211 175.111328 L 132.241211 176.019043 L 126.547852 176.019043 Z " fill="rgb(0, 0, 0)" fill-opacity="1.000000" />
<path d="M 133.547852 175.111328 L 139.241211 175.111328 L 139.241211 176.019043 L 133.547852 176.019043 Z " fill="rgb(0, 0, 0)" fill-opacity="1.000000" />
<path d="M 140.547852 175.111328 L 146.241211 175.111328 L 146.241211 176.019043 L 140.547852 176.019043 Z " fill="rgb(0, 0, 0)" fill-opacity="1.000000" />
<path d="M 147.547852 175.111328 L 153.241211 175.111328 L 153.241211 176.019043 L 147.547852 176.019043 Z " fill="rgb(0, 0, 0)" fill-opacity="1.000000" />
<path d="M 154.547852 175.111328 L 160.241211 175.111328 L 160.241211 176.019043 L 154.547852 176.019043 Z " fill="rgb(0, 0, 0)" fill-opacity="1.000000" />
<path d="M 161.547852 175.111328 L 167.241211 175.111328 L 167.241211 176.019043 L 161.547852 176.019043 Z " fill="rgb(0, 0, 0)" fill-opacity="1.000000" />
<path d="M 168.547852 175.111328 L 174.241211 175.111328 L 174.241211 176.019043 L 168.547852 176.019043 Z " fill="rgb(0, 0, 0)" fill-opacity="1.000000" />
<path d="M 175.547852 175.111328 L 181.241211 175.111328 L 181.241211 176.019043 L 175.547852 176.019043 Z " fill="rgb(0, 0, 0)" fill-opacity="1.000000" />
<path d="M 182.547852 175.111328 L 188.241211 175.111328 L 188.241211 176.019043 L 182.547852 176.019043 Z " fill="rgb(0, 0, 0)" fill-opacity="1.000000" />
<path d="M 189.547852 175.111328 L 195.241211 175.111328 L 195.241211 176.019043 L 189.547852 176.019043 Z " fill="rgb(0, 0, 0)" fill-opacity="1.000000" />
<path d="M 196.547852 175.111328 L 202.241211 175.111328 L 202.241211 176.019043 L 196.547852 176.019043 Z " fill="rgb(0, 0, 0)" fill-opacity="1.000000" />
<path d="M 203.547852 175.111328 L 209.241211 175.111328 L 209.241211 176.019043 L 203.547852 176.019043 Z " fill="rgb(0, 0, 0)" fill-opacity="1.000000" />
<path d="M 210.547852 175.111328 L 216.241211 175.111328 L 216.241211 176.019043 L 210.547852 176.019043 Z " fill="rgb(0, 0, 0)" fill-opacity="1.000000" />
<path d="M 217.547852 175.111328 L 223.241211 175.111328 L 223.241211 176.019043 L 217.547852 176.019043 Z " fill="rgb(0, 0, 0)" fill-opacity="1.000000" />
<path d="M 224.547852 175.111328 L 230.241211 175.111328 L 230.241211 176.019043 L 224.547852 176.019043 Z " fill="rgb(0, 0, 0)" fill-opacity="1.000000" />
<path d="M 231.547852 175.111328 L 237.241211 175.111328 L 237.241211 176.019043 L 231.547852 176.019043 Z " fill="rgb(0, 0, 0)" fill-opacity="1.000000" />
<path d="M 238.547852 175.111328 L 244.241211 175.111328 L 244.241211 176.019043 L 238.547852 176.019043 Z " fill="rgb(0, 0, 0)" fill-opacity="1.000000" />
<path d="M 245.547852 175.111328 L 251.241211 175.111328 L 251.241211 176.019043 L 245.547852 176.019043 Z " fill="rgb(0, 0, 0)" fill-opacity="1.000000" />
<path d="M 252.547852 175.111328 L 258.241211 175.111328 L 258.241211 176.019043 L 252.547852 176.019043 Z " fill="rgb(0, 0, 0)" fill-opacity="1.000000" />
<path d="M 259.547852 175.111328 L 265.241211 175.111328 L 265.241211 176.019043 L 259.547852 176.019043 Z " fill="rgb(0, 0, 0)" fill-opacity="1.000000" />
<path d="M 266.547852 175.111328 L 272.241211 175.111328 L 272.241211 176.019043 L 266.547852 176.019043 Z " fill="rgb(0, 0, 0)" fill-opacity="1.000000" />
<path d="M 273.547852 175.111328 L 279.241211 175.111328 L 279.241211 176.019043 L 273.547852 176.019043 Z " fill="rgb(0, 0, 0)" fill-opacity="1.000000" />
<path d="M 283.867188 172.672852 L 283.867188 175.052246 L 286.257324 175.052246 L 286.257324 175.959961 L 283.867188 175.959961 L 283.867188 178.339355 L 282.964844 178.339355 L 282.964844 175.959961 L 280.580078 175.959961 L 280.580078 175.052246 L 282.964844 175.052246 L 282.964844 172.672852 Z " fill="rgb(0, 0, 0)" fill-opacity="1.000000" />
<path d="M 24.867188 29.672852 L 24.867188 32.052246 L 27.257324 32.052246 L 27.257324 32.959961 L 24.867188 32.959961 L 24.867188 35.339355 L 23.964844 35.339355 L 23.964844 32.959961 L 21.580078 32.959961 L 21.580078 32.052246 L 23.964844 32.052246 L 23.964844 29.672852 Z " fill="rgb(0, 0, 0)" fill-opacity="1.000000" />
<path d="M 24.985352 40.594238 L 24.985352 51.594238 L 24.061523 51.594238 L 24.061523 40.594238 Z " fill="rgb(0, 0, 0)" fill-opacity="1.000000" />
<path d="M 24.985352 53.594238 L 24.985352 64.594238 L 24.061523 64.594238 L 24.061523 53.594238 Z " fill="rgb(0, 0, 0)" fill-opacity="1.000000" />
<path d="M 24.985352 66.594238 L 24.985352 77.594238 L 24.061523 77.594238 L 24.061523 66.594238 Z " fill="rgb(0, 0, 0)" fill-opacity="1.000000" />
<path d="M 24.867188 81.672852 L 24.867188 84.052246 L 27.257324 84.052246 L 27.257324 84.959961 L 24.867188 84.959961 L 24.867188 87.339355 L 23.964844 87.339355 L 23.964844 84.959961 L 21.580078 84.959961 L 21.580078 84.052246 L 23.964844 84.052246 L 23.964844 81.672852 Z " fill="rgb(0, 0, 0)" fill-opacity="1.000000" />
<path d="M 24.867188 94.672852 L 24.867188 97.052246 L 27.257324 97.052246 L 27.257324 97.959961 L 24.867188 97.959961 L 24.867188 100.339355 L 23.964844 100.339355 L 23.964844 97.959961 L 21.580078 97.959961 L 21.580078 97.052246 L 23.964844 97.052246 L 23.964844 94.672852 Z " fill="rgb(0, 0, 0)" fill-opacity="1.000000" />
<path d="M 24.985352 105.594238 L 24.985352 116.594238 L 24.061523 116.594238 L 24.061523 105.594238 Z " fill="rgb(0, 0, 0)" fill-opacity="1.000000" />
<path d="M 24.985352 118.594238 L 24.985352 129.594238 L 24.061523 129.594238 L 24.061523 118.594238 Z " fill="rgb(0, 0, 0)" fill-opacity="1.000000" />
<path d="M 24.985352 131.594238 L 24.985352 142.594238 L 24.061523 142.594238 L 24.061523 131.594238 Z " fill="rgb(0, 0, 0)" fill-opacity="1.000000" />
<path d="M 24.867188 146.672852 L 24.867188 149.052246 L 27.257324 149.052246 L 27.257324 149.959961 L 24.867188 149.959961 L 24.867188 152.339355 L 23.964844 152.339355 L 23.964844 149.959961 L 21.580078 149.959961 L 21.580078 149.052246 L 23.964844 149.052246 L 23.964844 146.672852 Z " fill="rgb(0, 0, 0)" fill-opacity="1.000000" />
<path d="M 283.985352 157.594238 L 283.985352 168.594238 L 283.061523 168.594238 L 283.061523 157.594238 Z " fill="rgb(0, 0, 0)" fill-opacity="1.000000" />
<path d="M 28.547852 149.111328 L 34.241211 149.111328 L 34.241211 150.019043 L 28.547852 150.019043 Z " fill="rgb(0, 0, 0)" fill-opacity="1.000000" />
<path d="M 35.547852 149.111328 L 41.241211 149.111328 L 41.241211 150.019043 L 35.547852 150.019043 Z " fill="rgb(0, 0, 0)" fill-opacity="1.000000" />
<path d="M 42.547852 149.111328 L 48.241211 149.111328 L 48.241211 150.019043 L 42.547852 150.019043 Z " fill="rgb(0, 0, 0)" fill-opacity="1.000000" />
<path d="M 49.547852 149.111328 L 55.241211 149.111328 L 55.241211 150.019043 L 49.547852 150.019043 Z " fill="rgb(0, 0, 0)" fill-opacity="1.000000" />
<path d="M 56.547852 149.111328 L 62.241211 149.111328 L 62.241211 150.019043 L 56.547852 150.019043 Z " fill="rgb(0, 0, 0)" fill-opacity="1.000000" />
<path d="M 63.547852 149.111328 L 69.241211 149.111328 L 69.241211 150.019043 L 63.547852 150.019043 Z " fill="rgb(0, 0, 0)" fill-opacity="1.000000" />
<path d="M 70.547852 149.111328 L 76.241211 149.111328 L 76.241211 150.019043 L 70.547852 150.019043 Z " fill="rgb(0, 0, 0)" fill-opacity="1.000000" />
<path d="M 77.547852 149.111328 L 83.241211 149.111328 L 83.241211 150.019043 L 77.547852 150.019043 Z " fill="rgb(0, 0, 0)" fill-opacity="1.000000" />
<path d="M 84.547852 149.111328 L 90.241211 149.111328 L 90.241211 150.019043 L 84.547852 150.019043 Z " fill="rgb(0, 0, 0)" fill-opacity="1.000000" />
<path d="M 91.547852 149.111328 L 97.241211 149.111328 L 97.241211 150.019043 L 91.547852 150.019043 Z " fill="rgb(0, 0, 0)" fill-opacity="1.000000" />
<path d="M 98.547852 149.111328 L 104.241211 149.111328 L 104.241211 150.019043 L 98.547852 150.019043 Z " fill="rgb(0, 0, 0)" fill-opacity="1.000000" />
<path d="M 105.547852 149.111328 L 111.241211 149.111328 L 111.241211 150.019043 L 105.547852 150.019043 Z " fill="rgb(0, 0, 0)" fill-opacity="1.000000" />
<path d="M 112.547852 149.111328 L 118.241211 149.111328 L 118.241211 150.019043 L 112.547852 150.019043 Z " fill="rgb(0, 0, 0)" fill-opacity="1.000000" />
<path d="M 119.547852 149.111328 L 125.241211 149.111328 L 125.241211 150.019043 L 119.547852 150.019043 Z " fill="rgb(0, 0, 0)" fill-opacity="1.000000" />
<path d="M 126.547852 149.111328 L 132.241211 149.111328 L 132.241211 150.019043 L 126.547852 150.019043 Z " fill="rgb(0, 0, 0)" fill-opacity="1.000000" />
<path d="M 133.547852 149.111328 L 139.241211 149.111328 L 139.241211 150.019043 L 133.547852 150.019043 Z " fill="rgb(0, 0, 0)" fill-opacity="1.000000" />
<path d="M 140.547852 149.111328 L 146.241211 149.111328 L 146.241211 150.019043 L 140.547852 150.019043 Z " fill="rgb(0, 0, 0)" fill-opacity="1.000000" />
<path d="M 147.547852 149.111328 L 153.241211 149.111328 L 153.241211 150.019043 L 147.547852 150.019043 Z " fill="rgb(0, 0, 0)" fill-opacity="1.000000" />
<path d="M 154.547852 149.111328 L 160.241211 149.111328 L 160.241211 150.019043 L 154.547852 150.019043 Z " fill="rgb(0, 0, 0)" fill-opacity="1.000000" />
<path d="M 161.547852 149.111328 L 167.241211 149.111328 L 167.241211 150.019043 L 161.547852 150.019043 Z " fill="rgb(0, 0, 0)" fill-opacity="1.000000" />
<path d="M 168.547852 149.111328 L 174.241211 149.111328 L 174.241211 150.019043 L 168.547852 150.019043 Z " fill="rgb(0, 0, 0)" fill-opacity="1.000000" />
<path d="M 175.547852 149.111328 L 181.241211 149.111328 L 181.241211 150.019043 L 175.547852 150.019043 Z " fill="rgb(0, 0, 0)" fill-opacity="1.000000" />
<path d="M 182.547852 149.111328 L 188.241211 149.111328 L 188.241211 150.019043 L 182.547852 150.019043 Z " fill="rgb(0, 0, 0)" fill-opacity="1.000000" />
<path d="M 189.547852 149.111328 L 195.241211 149.111328 L 195.241211 150.019043 L 189.547852 150.019043 Z " fill="rgb(0, 0, 0)" fill-opacity="1.000000" />
<path d="M 196.547852 149.111328 L 202.241211 149.111328 L 202.241211 150.019043 L 196.547852 150.019043 Z " fill="rgb(0, 0, 0)" fill-opacity="1.000000" />
<path d="M 203.547852 149.111328 L 209.241211 149.111328 L 209.241211 150.019043 L 203.547852 150.019043 Z " fill="rgb(0, 0, 0)" fill-opacity="1.000000" />
<path d="M 210.547852 149.111328 L 216.241211 149.111328 L 216.241211 150.019043 L 210.547852 150.019043 Z " fill="rgb(0, 0, 0)" fill-opacity="1.000000" />
<path d="M 217.547852 149.111328 L 223.241211 149.111328 L 223.241211 150.019043 L 217.547852 150.019043 Z " fill="rgb(0, 0, 0)" fill-opacity="1.000000" />
<path d="M 224.547852 149.111328 L 230.241211 149.111328 L 230.241211 150.019043 L 224.547852 150.019043 Z " fill="rgb(0, 0, 0)" fill-opacity="1.000000" />
<path d="M 231.547852 149.111328 L 237.241211 149.111328 L 237.241211 150.019043 L 231.547852 150.019043 Z " fill="rgb(0, 0, 0)" fill-opacity="1.000000" />
<path d="M 238.547852 149.111328 L 244.241211 149.111328 L 244.241211 150.019043 L 238.547852 150.019043 Z " fill="rgb(0, 0, 0)" fill-opacity="1.000000" />
<path d="M 245.547852 149.111328 L 251.241211 149.111328 L 251.241211 150.019043 L 245.547852 150.019043 Z " fill="rgb(0, 0, 0)" fill-opacity="1.000000" />
<path d="M 255.867188 146.672852 L 255.867188 149.052246 L 258.257324 149.052246 L 258.257324 149.959961 L 255.867188 149.959961 L 255.867188 152.339355 L 254.964844 152.339355 L 254.964844 149.959961 L 252.580078 149.959961 L 252.580078 149.052246 L 254.964844 149.052246 L 254.964844 146.672852 Z " fill="rgb(0, 0, 0)" fill-opacity="1.000000" />
<path d="M 283.985352 144.594238 L 283.985352 155.594238 L 283.061523 155.594238 L 283.061523 144.594238 Z " fill="rgb(0, 0, 0)" fill-opacity="1.000000" />
<path d="M 89.929688 126.339355 Q 89.494629 126.742188 88.949463 126.948975 Q 88.404297 127.155762 87.770508 127.155762 Q 86.245117 127.155762 85.396484 126.062744 Q 84.547852 124.969727 84.547852 122.998535 Q 84.547852 121.032715 85.407227 119.934326 Q 86.266602 118.835938 87.797363 118.835938 Q 88.302246 118.835938 88.764160 118.978271 Q 89.226074 119.120605 89.655762 119.410645 L 89.655762 120.522461 Q 89.220703 120.108887 88.764160 119.912842 Q 88.307617 119.716797 87.797363 119.716797 Q 86.739258 119.716797 86.210205 120.535889 Q 85.681152 121.354980 85.681152 122.998535 Q 85.681152 124.668945 86.194092 125.471924 Q 86.707031 126.274902 87.770508 126.274902 Q 88.130371 126.274902 88.401611 126.191650 Q 88.672852 126.108398 88.893066 125.931152 L 88.893066 123.777344 L 87.727539 123.777344 L 87.727539 122.885742 L 89.929688 122.885742 Z " fill="rgb(0, 0, 0)" fill-opacity="1.000000" />
<path d="M 255.985352 131.594238 L 255.985352 142.594238 L 255.061523 142.594238 L 255.061523 131.594238 Z " fill="rgb(0, 0, 0)" fill-opacity="1.000000" />
<path d="M 283.985352 131.594238 L 283.985352 142.594238 L 283.061523 142.594238 L 283.061523 131.594238 Z " fill="rgb(0, 0, 0)" fill-opacity="1.000000" />
<path d="M 97.203613 122.225098 Q 96.886719 121.978027 96.559082 121.865234 Q 96.231445 121.752441 95.839355 121.752441 Q 94.915527 121.752441 94.426758 122.332520 Q 93.937988 122.912598 93.937988 124.008301 L 93.937988 127.000000 L 92.944336 127.000000 L 92.944336 120.984375 L 93.937988 120.984375 L 93.937988 122.160645 Q 94.185059 121.521484 94.697998 121.180420 Q 95.210938 120.839355 95.914551 120.839355 Q 96.279785 120.839355 96.596680 120.930664 Q 96.913574 121.021973 97.203613 121.215332 Z " fill="rgb(0, 0, 0)" fill-opacity="1.000000" />
<path d="M 101.770508 123.976074 L 101.442871 123.976074 Q 100.578125 123.976074 100.140381 124.279541 Q 99.702637 124.583008 99.702637 125.184570 Q 99.702637 125.727051 100.030273 126.027832 Q 100.357910 126.328613 100.937988 126.328613 Q 101.754395 126.328613 102.221680 125.761963 Q 102.688965 125.195312 102.694336 124.196289 L 102.694336 123.976074 Z M 103.687988 123.567871 L 103.687988 127.000000 L 102.694336 127.000000 L 102.694336 126.108398 Q 102.377441 126.645508 101.896729 126.900635 Q 101.416016 127.155762 100.728516 127.155762 Q 99.810059 127.155762 99.262207 126.637451 Q 98.714355 126.119141 98.714355 125.249023 Q 98.714355 124.244629 99.388428 123.723633 Q 100.062500 123.202637 101.367676 123.202637 L 102.694336 123.202637 L 102.694336 123.046875 Q 102.688965 122.327148 102.329102 122.002197 Q 101.969238 121.677246 101.179688 121.677246 Q 100.674805 121.677246 100.159180 121.822266 Q 99.643555 121.967285 99.154785 122.246582 L 99.154785 121.258301 Q 99.702637 121.048828 100.204834 120.944092 Q 100.707031 120.839355 101.179688 120.839355 Q 101.926270 120.839355 102.455322 121.059570 Q 102.984375 121.279785 103.312012 121.720215 Q 103.516113 121.988770 103.602051 122.383545 Q 103.687988 122.778320 103.687988 123.567871 Z " fill="rgb(0, 0, 0)" fill-opacity="1.000000" />
<path d="M 107.014160 126.242676 L 107.014160 129.288086 L 106.020508 129.288086 L 106.020508 120.984375 L 107.014160 120.984375 L 107.014160 121.752441 Q 107.261230 121.306641 107.672119 121.072998 Q 108.083008 120.839355 108.620117 120.839355 Q 109.710449 120.839355 110.330811 121.682617 Q 110.951172 122.525879 110.951172 124.019043 Q 110.951172 125.485352 110.328125 126.320557 Q 109.705078 127.155762 108.620117 127.155762 Q 108.072266 127.155762 107.661377 126.922119 Q 107.250488 126.688477 107.014160 126.242676 Z M 109.914551 123.997559 Q 109.914551 122.848145 109.552002 122.262695 Q 109.189453 121.677246 108.475098 121.677246 Q 107.755371 121.677246 107.384766 122.265381 Q 107.014160 122.853516 107.014160 123.997559 Q 107.014160 125.136230 107.384766 125.727051 Q 107.755371 126.317871 108.475098 126.317871 Q 109.189453 126.317871 109.552002 125.732422 Q 109.914551 125.146973 109.914551 123.997559 Z " fill="rgb(0, 0, 0)" fill-opacity="1.000000" />
<path d="M 117.645020 123.272461 L 117.645020 127.000000 L 116.651367 127.000000 L 116.651367 123.272461 Q 116.651367 122.461426 116.366699 122.080078 Q 116.082031 121.698730 115.475098 121.698730 Q 114.782227 121.698730 114.408936 122.190186 Q 114.035645 122.681641 114.035645 123.600098 L 114.035645 127.000000 L 113.047363 127.000000 L 113.047363 118.642578 L 114.035645 118.642578 L 114.035645 121.886719 Q 114.298828 121.371094 114.750000 121.105225 Q 115.201172 120.839355 115.818848 120.839355 Q 116.737305 120.839355 117.191162 121.443604 Q 117.645020 122.047852 117.645020 123.272461 Z " fill="rgb(0, 0, 0)" fill-opacity="1.000000" />
<path d="M 122.518066 127.145020 Q 122.480469 127.145020 122.410645 127.150391 Q 122.340820 127.155762 122.297852 127.155762 Q 120.955078 127.155762 120.291748 126.124512 Q 119.628418 125.093262 119.628418 122.998535 Q 119.628418 120.898438 120.291748 119.867188 Q 120.955078 118.835938 122.308594 118.835938 Q 123.667480 118.835938 124.330811 119.867188 Q 124.994141 120.898438 124.994141 122.998535 Q 124.994141 124.577637 124.626221 125.541748 Q 124.258301 126.505859 123.511719 126.892578 L 124.585938 127.913086 L 123.774902 128.450195 Z M 123.860840 122.998535 Q 123.860840 121.231445 123.498291 120.474121 Q 123.135742 119.716797 122.308594 119.716797 Q 121.486816 119.716797 121.124268 120.474121 Q 120.761719 121.231445 120.761719 122.998535 Q 120.761719 124.760254 121.124268 125.517578 Q 121.486816 126.274902 122.308594 126.274902 Q 123.135742 126.274902 123.498291 125.520264 Q 123.860840 124.765625 123.860840 122.998535 Z " fill="rgb(0, 0, 0)" fill-opacity="1.000000" />
<path d="M 127.154785 118.980957 L 128.245117 118.980957 L 128.245117 126.086914 L 132.117676 126.086914 L 132.117676 127.000000 L 127.154785 127.000000 Z " fill="rgb(0, 0, 0)" fill-opacity="1.000000" />
<path d="M 145.709473 118.642578 L 145.709473 119.464355 L 144.586914 119.464355 Q 144.055176 119.464355 143.848389 119.681885 Q 143.641602 119.899414 143.641602 120.452637 L 143.641602 120.984375 L 145.709473 120.984375 L 145.709473 121.752441 L 143.641602 121.752441 L 143.641602 127.000000 L 142.653320 127.000000 L 142.653320 121.752441 L 141.047363 121.752441 L 141.047363 120.984375 L 142.653320 120.984375 L 142.653320 120.565430 Q 142.653320 119.577148 143.107178 119.109863 Q 143.561035 118.642578 144.522461 118.642578 Z " fill="rgb(0, 0, 0)" fill-opacity="1.000000" />
<path d="M 153.203613 122.225098 Q 152.886719 121.978027 152.559082 121.865234 Q 152.231445 121.752441 151.839355 121.752441 Q 150.915527 121.752441 150.426758 122.332520 Q 149.937988 122.912598 149.937988 124.008301 L 149.937988 127.000000 L 148.944336 127.000000 L 148.944336 120.984375 L 149.937988 120.984375 L 149.937988 122.160645 Q 150.185059 121.521484 150.697998 121.180420 Q 151.210938 120.839355 151.914551 120.839355 Q 152.279785 120.839355 152.596680 120.930664 Q 152.913574 121.021973 153.203613 121.215332 Z " fill="rgb(0, 0, 0)" fill-opacity="1.000000" />
<path d="M 157.770508 123.976074 L 157.442871 123.976074 Q 156.578125 123.976074 156.140381 124.279541 Q 155.702637 124.583008 155.702637 125.184570 Q 155.702637 125.727051 156.030273 126.027832 Q 156.357910 126.328613 156.937988 126.328613 Q 157.754395 126.328613 158.221680 125.761963 Q 158.688965 125.195312 158.694336 124.196289 L 158.694336 123.976074 Z M 159.687988 123.567871 L 159.687988 127.000000 L 158.694336 127.000000 L 158.694336 126.108398 Q 158.377441 126.645508 157.896729 126.900635 Q 157.416016 127.155762 156.728516 127.155762 Q 155.810059 127.155762 155.262207 126.637451 Q 154.714355 126.119141 154.714355 125.249023 Q 154.714355 124.244629 155.388428 123.723633 Q 156.062500 123.202637 157.367676 123.202637 L 158.694336 123.202637 L 158.694336 123.046875 Q 158.688965 122.327148 158.329102 122.002197 Q 157.969238 121.677246 157.179688 121.677246 Q 156.674805 121.677246 156.159180 121.822266 Q 155.643555 121.967285 155.154785 122.246582 L 155.154785 121.258301 Q 155.702637 121.048828 156.204834 120.944092 Q 156.707031 120.839355 157.179688 120.839355 Q 157.926270 120.839355 158.455322 121.059570 Q 158.984375 121.279785 159.312012 121.720215 Q 159.516113 121.988770 159.602051 122.383545 Q 159.687988 122.778320 159.687988 123.567871 Z " fill="rgb(0, 0, 0)" fill-opacity="1.000000" />
<path d="M 165.608398 123.943848 Q 165.608398 122.832031 165.245850 122.254639 Q 164.883301 121.677246 164.190430 121.677246 Q 163.465332 121.677246 163.083984 122.254639 Q 162.702637 122.832031 162.702637 123.943848 Q 162.702637 125.055664 163.086670 125.638428 Q 163.470703 126.221191 164.201172 126.221191 Q 164.883301 126.221191 165.245850 125.635742 Q 165.608398 125.050293 165.608398 123.943848 Z M 166.596680 126.613281 Q 166.596680 127.966797 165.957520 128.665039 Q 165.318359 129.363281 164.077637 129.363281 Q 163.669434 129.363281 163.223633 129.288086 Q 162.777832 129.212891 162.332031 129.067871 L 162.332031 128.090332 Q 162.858398 128.337402 163.288086 128.455566 Q 163.717773 128.573730 164.077637 128.573730 Q 164.877930 128.573730 165.243164 128.138672 Q 165.608398 127.703613 165.608398 126.758301 L 165.608398 126.715332 L 165.608398 126.043945 Q 165.372070 126.548828 164.963867 126.795898 Q 164.555664 127.042969 163.970215 127.042969 Q 162.917480 127.042969 162.289062 126.199707 Q 161.660645 125.356445 161.660645 123.943848 Q 161.660645 122.525879 162.289062 121.682617 Q 162.917480 120.839355 163.970215 120.839355 Q 164.550293 120.839355 164.953125 121.070312 Q 165.355957 121.301270 165.608398 121.784668 L 165.608398 121.005859 L 166.596680 121.005859 Z " fill="rgb(0, 0, 0)" fill-opacity="1.000000" />
<path d="M 171.630859 121.596680 Q 171.813477 121.209961 172.095459 121.024658 Q 172.377441 120.839355 172.774902 120.839355 Q 173.500000 120.839355 173.798096 121.400635 Q 174.096191 121.961914 174.096191 123.514160 L 174.096191 127.000000 L 173.193848 127.000000 L 173.193848 123.557129 Q 173.193848 122.284180 173.051514 121.975342 Q 172.909180 121.666504 172.533203 121.666504 Q 172.103516 121.666504 171.945068 121.996826 Q 171.786621 122.327148 171.786621 123.557129 L 171.786621 127.000000 L 170.884277 127.000000 L 170.884277 123.557129 Q 170.884277 122.268066 170.731201 121.967285 Q 170.578125 121.666504 170.180664 121.666504 Q 169.788574 121.666504 169.635498 121.996826 Q 169.482422 122.327148 169.482422 123.557129 L 169.482422 127.000000 L 168.585449 127.000000 L 168.585449 120.984375 L 169.482422 120.984375 L 169.482422 121.500000 Q 169.659668 121.177734 169.925537 121.008545 Q 170.191406 120.839355 170.529785 120.839355 Q 170.937988 120.839355 171.209229 121.027344 Q 171.480469 121.215332 171.630859 121.596680 Z " fill="rgb(0, 0, 0)" fill-opacity="1.000000" />
<path d="M 181.015625 123.498047 L 181.015625 123.981445 L 176.734863 123.981445 L 176.734863 124.013672 Q 176.691895 125.243652 177.204834 125.780762 Q 177.717773 126.317871 178.652344 126.317871 Q 179.125000 126.317871 179.640625 126.167480 Q 180.156250 126.017090 180.741699 125.710938 L 180.741699 126.693848 Q 180.177734 126.924805 179.654053 127.040283 Q 179.130371 127.155762 178.641602 127.155762 Q 177.239746 127.155762 176.450195 126.315186 Q 175.660645 125.474609 175.660645 123.997559 Q 175.660645 122.558105 176.434082 121.698730 Q 177.207520 120.839355 178.496582 120.839355 Q 179.645996 120.839355 180.309326 121.618164 Q 180.972656 122.396973 181.015625 123.498047 Z M 180.027344 123.208008 Q 179.962891 122.584961 179.573486 122.131104 Q 179.184082 121.677246 178.453613 121.677246 Q 177.739258 121.677246 177.277344 122.149902 Q 176.815430 122.622559 176.772461 123.213379 Z " fill="rgb(0, 0, 0)" fill-opacity="1.000000" />
<path d="M 187.645020 123.272461 L 187.645020 127.000000 L 186.651367 127.000000 L 186.651367 123.272461 Q 186.651367 122.461426 186.366699 122.080078 Q 186.082031 121.698730 185.475098 121.698730 Q 184.782227 121.698730 184.408936 122.190186 Q 184.035645 122.681641 184.035645 123.600098 L 184.035645 127.000000 L 183.047363 127.000000 L 183.047363 120.984375 L 184.035645 120.984375 L 184.035645 121.886719 Q 184.298828 121.371094 184.750000 121.105225 Q 185.201172 120.839355 185.818848 120.839355 Q 186.737305 120.839355 187.191162 121.443604 Q 187.645020 122.047852 187.645020 123.272461 Z " fill="rgb(0, 0, 0)" fill-opacity="1.000000" />
<path d="M 192.297852 119.276367 L 192.297852 120.984375 L 194.542969 120.984375 L 194.542969 121.752441 L 192.297852 121.752441 L 192.297852 125.018066 Q 192.297852 125.684082 192.550293 125.947266 Q 192.802734 126.210449 193.431152 126.210449 L 194.542969 126.210449 L 194.542969 127.000000 L 193.334473 127.000000 Q 192.222656 127.000000 191.766113 126.554199 Q 191.309570 126.108398 191.309570 125.018066 L 191.309570 121.752441 L 189.703613 121.752441 L 189.703613 120.984375 L 191.309570 120.984375 L 191.309570 119.276367 Z " fill="rgb(0, 0, 0)" fill-opacity="1.000000" />
<path d="M 255.985352 118.594238 L 255.985352 129.594238 L 255.061523 129.594238 L 255.061523 118.594238 Z " fill="rgb(0, 0, 0)" fill-opacity="1.000000" />
<path d="M 283.985352 118.594238 L 283.985352 129.594238 L 283.061523 129.594238 L 283.061523 118.594238 Z " fill="rgb(0, 0, 0)" fill-opacity="1.000000" />
<path d="M 255.985352 105.594238 L 255.985352 116.594238 L 255.061523 116.594238 L 255.061523 105.594238 Z " fill="rgb(0, 0, 0)" fill-opacity="1.000000" />
<path d="M 283.985352 105.594238 L 283.985352 116.594238 L 283.061523 116.594238 L 283.061523 105.594238 Z " fill="rgb(0, 0, 0)" fill-opacity="1.000000" />
<path d="M 28.547852 84.111328 L 34.241211 84.111328 L 34.241211 85.019043 L 28.547852 85.019043 Z " fill="rgb(0, 0, 0)" fill-opacity="1.000000" />
<path d="M 28.547852 97.111328 L 34.241211 97.111328 L 34.241211 98.019043 L 28.547852 98.019043 Z " fill="rgb(0, 0, 0)" fill-opacity="1.000000" />
<path d="M 35.547852 84.111328 L 41.241211 84.111328 L 41.241211 85.019043 L 35.547852 85.019043 Z " fill="rgb(0, 0, 0)" fill-opacity="1.000000" />
<path d="M 35.547852 97.111328 L 41.241211 97.111328 L 41.241211 98.019043 L 35.547852 98.019043 Z " fill="rgb(0, 0, 0)" fill-opacity="1.000000" />
<path d="M 42.547852 84.111328 L 48.241211 84.111328 L 48.241211 85.019043 L 42.547852 85.019043 Z " fill="rgb(0, 0, 0)" fill-opacity="1.000000" />
<path d="M 42.547852 97.111328 L 48.241211 97.111328 L 48.241211 98.019043 L 42.547852 98.019043 Z " fill="rgb(0, 0, 0)" fill-opacity="1.000000" />
<path d="M 49.547852 84.111328 L 55.241211 84.111328 L 55.241211 85.019043 L 49.547852 85.019043 Z " fill="rgb(0, 0, 0)" fill-opacity="1.000000" />
<path d="M 49.547852 97.111328 L 55.241211 97.111328 L 55.241211 98.019043 L 49.547852 98.019043 Z " fill="rgb(0, 0, 0)" fill-opacity="1.000000" />
<path d="M 56.547852 84.111328 L 62.241211 84.111328 L 62.241211 85.019043 L 56.547852 85.019043 Z " fill="rgb(0, 0, 0)" fill-opacity="1.000000" />
<path d="M 56.547852 97.111328 L 62.241211 97.111328 L 62.241211 98.019043 L 56.547852 98.019043 Z " fill="rgb(0, 0, 0)" fill-opacity="1.000000" />
<path d="M 63.547852 84.111328 L 69.241211 84.111328 L 69.241211 85.019043 L 63.547852 85.019043 Z " fill="rgb(0, 0, 0)" fill-opacity="1.000000" />
<path d="M 63.547852 97.111328 L 69.241211 97.111328 L 69.241211 98.019043 L 63.547852 98.019043 Z " fill="rgb(0, 0, 0)" fill-opacity="1.000000" />
<path d="M 70.547852 84.111328 L 76.241211 84.111328 L 76.241211 85.019043 L 70.547852 85.019043 Z " fill="rgb(0, 0, 0)" fill-opacity="1.000000" />
<path d="M 70.547852 97.111328 L 76.241211 97.111328 L 76.241211 98.019043 L 70.547852 98.019043 Z " fill="rgb(0, 0, 0)" fill-opacity="1.000000" />
<path d="M 77.547852 84.111328 L 83.241211 84.111328 L 83.241211 85.019043 L 77.547852 85.019043 Z " fill="rgb(0, 0, 0)" fill-opacity="1.000000" />
<path d="M 77.547852 97.111328 L 83.241211 97.111328 L 83.241211 98.019043 L 77.547852 98.019043 Z " fill="rgb(0, 0, 0)" fill-opacity="1.000000" />
<path d="M 84.547852 84.111328 L 90.241211 84.111328 L 90.241211 85.019043 L 84.547852 85.019043 Z " fill="rgb(0, 0, 0)" fill-opacity="1.000000" />
<path d="M 84.547852 97.111328 L 90.241211 97.111328 L 90.241211 98.019043 L 84.547852 98.019043 Z " fill="rgb(0, 0, 0)" fill-opacity="1.000000" />
<path d="M 91.547852 84.111328 L 97.241211 84.111328 L 97.241211 85.019043 L 91.547852 85.019043 Z " fill="rgb(0, 0, 0)" fill-opacity="1.000000" />
<path d="M 91.547852 97.111328 L 97.241211 97.111328 L 97.241211 98.019043 L 91.547852 98.019043 Z " fill="rgb(0, 0, 0)" fill-opacity="1.000000" />
<path d="M 98.547852 84.111328 L 104.241211 84.111328 L 104.241211 85.019043 L 98.547852 85.019043 Z " fill="rgb(0, 0, 0)" fill-opacity="1.000000" />
<path d="M 98.547852 97.111328 L 104.241211 97.111328 L 104.241211 98.019043 L 98.547852 98.019043 Z " fill="rgb(0, 0, 0)" fill-opacity="1.000000" />
<path d="M 105.547852 84.111328 L 111.241211 84.111328 L 111.241211 85.019043 L 105.547852 85.019043 Z " fill="rgb(0, 0, 0)" fill-opacity="1.000000" />
<path d="M 105.547852 97.111328 L 111.241211 97.111328 L 111.241211 98.019043 L 105.547852 98.019043 Z " fill="rgb(0, 0, 0)" fill-opacity="1.000000" />
<path d="M 112.547852 84.111328 L 118.241211 84.111328 L 118.241211 85.019043 L 112.547852 85.019043 Z " fill="rgb(0, 0, 0)" fill-opacity="1.000000" />
<path d="M 112.547852 97.111328 L 118.241211 97.111328 L 118.241211 98.019043 L 112.547852 98.019043 Z " fill="rgb(0, 0, 0)" fill-opacity="1.000000" />
<path d="M 119.547852 84.111328 L 125.241211 84.111328 L 125.241211 85.019043 L 119.547852 85.019043 Z " fill="rgb(0, 0, 0)" fill-opacity="1.000000" />
<path d="M 119.547852 97.111328 L 125.241211 97.111328 L 125.241211 98.019043 L 119.547852 98.019043 Z " fill="rgb(0, 0, 0)" fill-opacity="1.000000" />
<path d="M 126.547852 84.111328 L 132.241211 84.111328 L 132.241211 85.019043 L 126.547852 85.019043 Z " fill="rgb(0, 0, 0)" fill-opacity="1.000000" />
<path d="M 126.547852 97.111328 L 132.241211 97.111328 L 132.241211 98.019043 L 126.547852 98.019043 Z " fill="rgb(0, 0, 0)" fill-opacity="1.000000" />
<path d="M 133.547852 84.111328 L 139.241211 84.111328 L 139.241211 85.019043 L 133.547852 85.019043 Z " fill="rgb(0, 0, 0)" fill-opacity="1.000000" />
<path d="M 133.547852 97.111328 L 139.241211 97.111328 L 139.241211 98.019043 L 133.547852 98.019043 Z " fill="rgb(0, 0, 0)" fill-opacity="1.000000" />
<path d="M 140.547852 84.111328 L 146.241211 84.111328 L 146.241211 85.019043 L 140.547852 85.019043 Z " fill="rgb(0, 0, 0)" fill-opacity="1.000000" />
<path d="M 140.547852 97.111328 L 146.241211 97.111328 L 146.241211 98.019043 L 140.547852 98.019043 Z " fill="rgb(0, 0, 0)" fill-opacity="1.000000" />
<path d="M 147.547852 84.111328 L 153.241211 84.111328 L 153.241211 85.019043 L 147.547852 85.019043 Z " fill="rgb(0, 0, 0)" fill-opacity="1.000000" />
<path d="M 147.547852 97.111328 L 153.241211 97.111328 L 153.241211 98.019043 L 147.547852 98.019043 Z " fill="rgb(0, 0, 0)" fill-opacity="1.000000" />
<path d="M 154.547852 84.111328 L 160.241211 84.111328 L 160.241211 85.019043 L 154.547852 85.019043 Z " fill="rgb(0, 0, 0)" fill-opacity="1.000000" />
<path d="M 154.547852 97.111328 L 160.241211 97.111328 L 160.241211 98.019043 L 154.547852 98.019043 Z " fill="rgb(0, 0, 0)" fill-opacity="1.000000" />
<path d="M 161.547852 84.111328 L 167.241211 84.111328 L 167.241211 85.019043 L 161.547852 85.019043 Z " fill="rgb(0, 0, 0)" fill-opacity="1.000000" />
<path d="M 161.547852 97.111328 L 167.241211 97.111328 L 167.241211 98.019043 L 161.547852 98.019043 Z " fill="rgb(0, 0, 0)" fill-opacity="1.000000" />
<path d="M 168.547852 84.111328 L 174.241211 84.111328 L 174.241211 85.019043 L 168.547852 85.019043 Z " fill="rgb(0, 0, 0)" fill-opacity="1.000000" />
<path d="M 168.547852 97.111328 L 174.241211 97.111328 L 174.241211 98.019043 L 168.547852 98.019043 Z " fill="rgb(0, 0, 0)" fill-opacity="1.000000" />
<path d="M 175.547852 84.111328 L 181.241211 84.111328 L 181.241211 85.019043 L 175.547852 85.019043 Z " fill="rgb(0, 0, 0)" fill-opacity="1.000000" />
<path d="M 175.547852 97.111328 L 181.241211 97.111328 L 181.241211 98.019043 L 175.547852 98.019043 Z " fill="rgb(0, 0, 0)" fill-opacity="1.000000" />
<path d="M 182.547852 84.111328 L 188.241211 84.111328 L 188.241211 85.019043 L 182.547852 85.019043 Z " fill="rgb(0, 0, 0)" fill-opacity="1.000000" />
<path d="M 182.547852 97.111328 L 188.241211 97.111328 L 188.241211 98.019043 L 182.547852 98.019043 Z " fill="rgb(0, 0, 0)" fill-opacity="1.000000" />
<path d="M 189.547852 84.111328 L 195.241211 84.111328 L 195.241211 85.019043 L 189.547852 85.019043 Z " fill="rgb(0, 0, 0)" fill-opacity="1.000000" />
<path d="M 189.547852 97.111328 L 195.241211 97.111328 L 195.241211 98.019043 L 189.547852 98.019043 Z " fill="rgb(0, 0, 0)" fill-opacity="1.000000" />
<path d="M 196.547852 84.111328 L 202.241211 84.111328 L 202.241211 85.019043 L 196.547852 85.019043 Z " fill="rgb(0, 0, 0)" fill-opacity="1.000000" />
<path d="M 196.547852 97.111328 L 202.241211 97.111328 L 202.241211 98.019043 L 196.547852 98.019043 Z " fill="rgb(0, 0, 0)" fill-opacity="1.000000" />
<path d="M 203.547852 84.111328 L 209.241211 84.111328 L 209.241211 85.019043 L 203.547852 85.019043 Z " fill="rgb(0, 0, 0)" fill-opacity="1.000000" />
<path d="M 203.547852 97.111328 L 209.241211 97.111328 L 209.241211 98.019043 L 203.547852 98.019043 Z " fill="rgb(0, 0, 0)" fill-opacity="1.000000" />
<path d="M 210.547852 84.111328 L 216.241211 84.111328 L 216.241211 85.019043 L 210.547852 85.019043 Z " fill="rgb(0, 0, 0)" fill-opacity="1.000000" />
<path d="M 210.547852 97.111328 L 216.241211 97.111328 L 216.241211 98.019043 L 210.547852 98.019043 Z " fill="rgb(0, 0, 0)" fill-opacity="1.000000" />
<path d="M 217.547852 84.111328 L 223.241211 84.111328 L 223.241211 85.019043 L 217.547852 85.019043 Z " fill="rgb(0, 0, 0)" fill-opacity="1.000000" />
<path d="M 217.547852 97.111328 L 223.241211 97.111328 L 223.241211 98.019043 L 217.547852 98.019043 Z " fill="rgb(0, 0, 0)" fill-opacity="1.000000" />
<path d="M 224.547852 84.111328 L 230.241211 84.111328 L 230.241211 85.019043 L 224.547852 85.019043 Z " fill="rgb(0, 0, 0)" fill-opacity="1.000000" />
<path d="M 224.547852 97.111328 L 230.241211 97.111328 L 230.241211 98.019043 L 224.547852 98.019043 Z " fill="rgb(0, 0, 0)" fill-opacity="1.000000" />
<path d="M 231.547852 84.111328 L 237.241211 84.111328 L 237.241211 85.019043 L 231.547852 85.019043 Z " fill="rgb(0, 0, 0)" fill-opacity="1.000000" />
<path d="M 231.547852 97.111328 L 237.241211 97.111328 L 237.241211 98.019043 L 231.547852 98.019043 Z " fill="rgb(0, 0, 0)" fill-opacity="1.000000" />
<path d="M 238.547852 84.111328 L 244.241211 84.111328 L 244.241211 85.019043 L 238.547852 85.019043 Z " fill="rgb(0, 0, 0)" fill-opacity="1.000000" />
<path d="M 238.547852 97.111328 L 244.241211 97.111328 L 244.241211 98.019043 L 238.547852 98.019043 Z " fill="rgb(0, 0, 0)" fill-opacity="1.000000" />
<path d="M 245.547852 84.111328 L 251.241211 84.111328 L 251.241211 85.019043 L 245.547852 85.019043 Z " fill="rgb(0, 0, 0)" fill-opacity="1.000000" />
<path d="M 245.547852 97.111328 L 251.241211 97.111328 L 251.241211 98.019043 L 245.547852 98.019043 Z " fill="rgb(0, 0, 0)" fill-opacity="1.000000" />
<path d="M 255.867188 81.672852 L 255.867188 84.052246 L 258.257324 84.052246 L 258.257324 84.959961 L 255.867188 84.959961 L 255.867188 87.339355 L 254.964844 87.339355 L 254.964844 84.959961 L 252.580078 84.959961 L 252.580078 84.052246 L 254.964844 84.052246 L 254.964844 81.672852 Z " fill="rgb(0, 0, 0)" fill-opacity="1.000000" />
<path d="M 255.867188 94.672852 L 255.867188 97.052246 L 258.257324 97.052246 L 258.257324 97.959961 L 255.867188 97.959961 L 255.867188 100.339355 L 254.964844 100.339355 L 254.964844 97.959961 L 252.580078 97.959961 L 252.580078 97.052246 L 254.964844 97.052246 L 254.964844 94.672852 Z " fill="rgb(0, 0, 0)" fill-opacity="1.000000" />
<path d="M 283.985352 79.594238 L 283.985352 90.594238 L 283.061523 90.594238 L 283.061523 79.594238 Z " fill="rgb(0, 0, 0)" fill-opacity="1.000000" />
<path d="M 283.985352 92.594238 L 283.985352 103.594238 L 283.061523 103.594238 L 283.061523 92.594238 Z " fill="rgb(0, 0, 0)" fill-opacity="1.000000" />
<path d="M 88.082031 58.213379 Q 88.500977 58.320801 88.796387 58.618896 Q 89.091797 58.916992 89.532227 59.808594 L 90.622559 62.000000 L 89.457031 62.000000 L 88.500977 59.975098 Q 88.087402 59.110352 87.757080 58.860596 Q 87.426758 58.610840 86.895020 58.610840 L 85.858398 58.610840 L 85.858398 62.000000 L 84.768066 62.000000 L 84.768066 53.980957 L 87.002441 53.980957 Q 88.323730 53.980957 89.027344 54.577148 Q 89.730957 55.173340 89.730957 56.301270 Q 89.730957 57.096191 89.298584 57.598389 Q 88.866211 58.100586 88.082031 58.213379 Z M 85.858398 54.872559 L 85.858398 57.719238 L 87.045410 57.719238 Q 87.824219 57.719238 88.205566 57.370117 Q 88.586914 57.020996 88.586914 56.301270 Q 88.586914 55.608398 88.181396 55.240479 Q 87.775879 54.872559 87.002441 54.872559 Z " fill="rgb(0, 0, 0)" fill-opacity="1.000000" />
<path d="M 255.985352 66.594238 L 255.985352 77.594238 L 255.061523 77.594238 L 255.061523 66.594238 Z " fill="rgb(0, 0, 0)" fill-opacity="1.000000" />
<path d="M 283.985352 66.594238 L 283.985352 77.594238 L 283.061523 77.594238 L 283.061523 66.594238 Z " fill="rgb(0, 0, 0)" fill-opacity="1.000000" />
<path d="M 97.015625 58.498047 L 97.015625 58.981445 L 92.734863 58.981445 L 92.734863 59.013672 Q 92.691895 60.243652 93.204834 60.780762 Q 93.717773 61.317871 94.652344 61.317871 Q 95.125000 61.317871 95.640625 61.167480 Q 96.156250 61.017090 96.741699 60.710938 L 96.741699 61.693848 Q 96.177734 61.924805 95.654053 62.040283 Q 95.130371 62.155762 94.641602 62.155762 Q 93.239746 62.155762 92.450195 61.315186 Q 91.660645 60.474609 91.660645 58.997559 Q 91.660645 57.558105 92.434082 56.698730 Q 93.207520 55.839355 94.496582 55.839355 Q 95.645996 55.839355 96.309326 56.618164 Q 96.972656 57.396973 97.015625 58.498047 Z M 96.027344 58.208008 Q 95.962891 57.584961 95.573486 57.131104 Q 95.184082 56.677246 94.453613 56.677246 Q 93.739258 56.677246 93.277344 57.149902 Q 92.815430 57.622559 92.772461 58.213379 Z " fill="rgb(0, 0, 0)" fill-opacity="1.000000" />
<path d="M 101.770508 58.976074 L 101.442871 58.976074 Q 100.578125 58.976074 100.140381 59.279541 Q 99.702637 59.583008 99.702637 60.184570 Q 99.702637 60.727051 100.030273 61.027832 Q 100.357910 61.328613 100.937988 61.328613 Q 101.754395 61.328613 102.221680 60.761963 Q 102.688965 60.195312 102.694336 59.196289 L 102.694336 58.976074 Z M 103.687988 58.567871 L 103.687988 62.000000 L 102.694336 62.000000 L 102.694336 61.108398 Q 102.377441 61.645508 101.896729 61.900635 Q 101.416016 62.155762 100.728516 62.155762 Q 99.810059 62.155762 99.262207 61.637451 Q 98.714355 61.119141 98.714355 60.249023 Q 98.714355 59.244629 99.388428 58.723633 Q 100.062500 58.202637 101.367676 58.202637 L 102.694336 58.202637 L 102.694336 58.046875 Q 102.688965 57.327148 102.329102 57.002197 Q 101.969238 56.677246 101.179688 56.677246 Q 100.674805 56.677246 100.159180 56.822266 Q 99.643555 56.967285 99.154785 57.246582 L 99.154785 56.258301 Q 99.702637 56.048828 100.204834 55.944092 Q 100.707031 55.839355 101.179688 55.839355 Q 101.926270 55.839355 102.455322 56.059570 Q 102.984375 56.279785 103.312012 56.720215 Q 103.516113 56.988770 103.602051 57.383545 Q 103.687988 57.778320 103.687988 58.567871 Z " fill="rgb(0, 0, 0)" fill-opacity="1.000000" />
<path d="M 110.698730 61.693848 Q 110.301270 61.924805 109.879639 62.040283 Q 109.458008 62.155762 109.017578 62.155762 Q 107.621094 62.155762 106.834229 61.317871 Q 106.047363 60.479980 106.047363 58.997559 Q 106.047363 57.515137 106.834229 56.677246 Q 107.621094 55.839355 109.017578 55.839355 Q 109.452637 55.839355 109.866211 55.952148 Q 110.279785 56.064941 110.698730 56.301270 L 110.698730 57.337891 Q 110.306641 56.988770 109.911865 56.833008 Q 109.517090 56.677246 109.017578 56.677246 Q 108.088379 56.677246 107.588867 57.278809 Q 107.089355 57.880371 107.089355 58.997559 Q 107.089355 60.109375 107.591553 60.713623 Q 108.093750 61.317871 109.017578 61.317871 Q 109.533203 61.317871 109.941406 61.159424 Q 110.349609 61.000977 110.698730 60.667969 Z " fill="rgb(0, 0, 0)" fill-opacity="1.000000" />
<path d="M 115.297852 54.276367 L 115.297852 55.984375 L 117.542969 55.984375 L 117.542969 56.752441 L 115.297852 56.752441 L 115.297852 60.018066 Q 115.297852 60.684082 115.550293 60.947266 Q 115.802734 61.210449 116.431152 61.210449 L 117.542969 61.210449 L 117.542969 62.000000 L 116.334473 62.000000 Q 115.222656 62.000000 114.766113 61.554199 Q 114.309570 61.108398 114.309570 60.018066 L 114.309570 56.752441 L 112.703613 56.752441 L 112.703613 55.984375 L 114.309570 55.984375 L 114.309570 54.276367 Z " fill="rgb(0, 0, 0)" fill-opacity="1.000000" />
<path d="M 131.698730 61.693848 Q 131.301270 61.924805 130.879639 62.040283 Q 130.458008 62.155762 130.017578 62.155762 Q 128.621094 62.155762 127.834229 61.317871 Q 127.047363 60.479980 127.047363 58.997559 Q 127.047363 57.515137 127.834229 56.677246 Q 128.621094 55.839355 130.017578 55.839355 Q 130.452637 55.839355 130.866211 55.952148 Q 131.279785 56.064941 131.698730 56.301270 L 131.698730 57.337891 Q 131.306641 56.988770 130.911865 56.833008 Q 130.517090 56.677246 130.017578 56.677246 Q 129.088379 56.677246 128.588867 57.278809 Q 128.089355 57.880371 128.089355 58.997559 Q 128.089355 60.109375 128.591553 60.713623 Q 129.093750 61.317871 130.017578 61.317871 Q 130.533203 61.317871 130.941406 61.159424 Q 131.349609 61.000977 131.698730 60.667969 Z " fill="rgb(0, 0, 0)" fill-opacity="1.000000" />
<path d="M 136.308594 56.677246 Q 135.556641 56.677246 135.169922 57.262695 Q 134.783203 57.848145 134.783203 58.997559 Q 134.783203 60.141602 135.169922 60.729736 Q 135.556641 61.317871 136.308594 61.317871 Q 137.065918 61.317871 137.452637 60.729736 Q 137.839355 60.141602 137.839355 58.997559 Q 137.839355 57.848145 137.452637 57.262695 Q 137.065918 56.677246 136.308594 56.677246 Z M 136.308594 55.839355 Q 137.560059 55.839355 138.223389 56.650391 Q 138.886719 57.461426 138.886719 58.997559 Q 138.886719 60.539062 138.226074 61.347412 Q 137.565430 62.155762 136.308594 62.155762 Q 135.057129 62.155762 134.396484 61.347412 Q 133.735840 60.539062 133.735840 58.997559 Q 133.735840 57.461426 134.396484 56.650391 Q 135.057129 55.839355 136.308594 55.839355 Z " fill="rgb(0, 0, 0)" fill-opacity="1.000000" />
<path d="M 143.630859 56.596680 Q 143.813477 56.209961 144.095459 56.024658 Q 144.377441 55.839355 144.774902 55.839355 Q 145.500000 55.839355 145.798096 56.400635 Q 146.096191 56.961914 146.096191 58.514160 L 146.096191 62.000000 L 145.193848 62.000000 L 145.193848 58.557129 Q 145.193848 57.284180 145.051514 56.975342 Q 144.909180 56.666504 144.533203 56.666504 Q 144.103516 56.666504 143.945068 56.996826 Q 143.786621 57.327148 143.786621 58.557129 L 143.786621 62.000000 L 142.884277 62.000000 L 142.884277 58.557129 Q 142.884277 57.268066 142.731201 56.967285 Q 142.578125 56.666504 142.180664 56.666504 Q 141.788574 56.666504 141.635498 56.996826 Q 141.482422 57.327148 141.482422 58.557129 L 141.482422 62.000000 L 140.585449 62.000000 L 140.585449 55.984375 L 141.482422 55.984375 L 141.482422 56.500000 Q 141.659668 56.177734 141.925537 56.008545 Q 142.191406 55.839355 142.529785 55.839355 Q 142.937988 55.839355 143.209229 56.027344 Q 143.480469 56.215332 143.630859 56.596680 Z " fill="rgb(0, 0, 0)" fill-opacity="1.000000" />
<path d="M 149.014160 61.242676 L 149.014160 64.288086 L 148.020508 64.288086 L 148.020508 55.984375 L 149.014160 55.984375 L 149.014160 56.752441 Q 149.261230 56.306641 149.672119 56.072998 Q 150.083008 55.839355 150.620117 55.839355 Q 151.710449 55.839355 152.330811 56.682617 Q 152.951172 57.525879 152.951172 59.019043 Q 152.951172 60.485352 152.328125 61.320557 Q 151.705078 62.155762 150.620117 62.155762 Q 150.072266 62.155762 149.661377 61.922119 Q 149.250488 61.688477 149.014160 61.242676 Z M 151.914551 58.997559 Q 151.914551 57.848145 151.552002 57.262695 Q 151.189453 56.677246 150.475098 56.677246 Q 149.755371 56.677246 149.384766 57.265381 Q 149.014160 57.853516 149.014160 58.997559 Q 149.014160 60.136230 149.384766 60.727051 Q 149.755371 61.317871 150.475098 61.317871 Q 151.189453 61.317871 151.552002 60.732422 Q 151.914551 60.146973 151.914551 58.997559 Z " fill="rgb(0, 0, 0)" fill-opacity="1.000000" />
<path d="M 157.308594 56.677246 Q 156.556641 56.677246 156.169922 57.262695 Q 155.783203 57.848145 155.783203 58.997559 Q 155.783203 60.141602 156.169922 60.729736 Q 156.556641 61.317871 157.308594 61.317871 Q 158.065918 61.317871 158.452637 60.729736 Q 158.839355 60.141602 158.839355 58.997559 Q 158.839355 57.848145 158.452637 57.262695 Q 158.065918 56.677246 157.308594 56.677246 Z M 157.308594 55.839355 Q 158.560059 55.839355 159.223389 56.650391 Q 159.886719 57.461426 159.886719 58.997559 Q 159.886719 60.539062 159.226074 61.347412 Q 158.565430 62.155762 157.308594 62.155762 Q 156.057129 62.155762 155.396484 61.347412 Q 154.735840 60.539062 154.735840 58.997559 Q 154.735840 57.461426 155.396484 56.650391 Q 156.057129 55.839355 157.308594 55.839355 Z " fill="rgb(0, 0, 0)" fill-opacity="1.000000" />
<path d="M 166.645020 58.272461 L 166.645020 62.000000 L 165.651367 62.000000 L 165.651367 58.272461 Q 165.651367 57.461426 165.366699 57.080078 Q 165.082031 56.698730 164.475098 56.698730 Q 163.782227 56.698730 163.408936 57.190186 Q 163.035645 57.681641 163.035645 58.600098 L 163.035645 62.000000 L 162.047363 62.000000 L 162.047363 55.984375 L 163.035645 55.984375 L 163.035645 56.886719 Q 163.298828 56.371094 163.750000 56.105225 Q 164.201172 55.839355 164.818848 55.839355 Q 165.737305 55.839355 166.191162 56.443604 Q 166.645020 57.047852 166.645020 58.272461 Z " fill="rgb(0, 0, 0)" fill-opacity="1.000000" />
<path d="M 174.015625 58.498047 L 174.015625 58.981445 L 169.734863 58.981445 L 169.734863 59.013672 Q 169.691895 60.243652 170.204834 60.780762 Q 170.717773 61.317871 171.652344 61.317871 Q 172.125000 61.317871 172.640625 61.167480 Q 173.156250 61.017090 173.741699 60.710938 L 173.741699 61.693848 Q 173.177734 61.924805 172.654053 62.040283 Q 172.130371 62.155762 171.641602 62.155762 Q 170.239746 62.155762 169.450195 61.315186 Q 168.660645 60.474609 168.660645 58.997559 Q 168.660645 57.558105 169.434082 56.698730 Q 170.207520 55.839355 171.496582 55.839355 Q 172.645996 55.839355 173.309326 56.618164 Q 173.972656 57.396973 174.015625 58.498047 Z M 173.027344 58.208008 Q 172.962891 57.584961 172.573486 57.131104 Q 172.184082 56.677246 171.453613 56.677246 Q 170.739258 56.677246 170.277344 57.149902 Q 169.815430 57.622559 169.772461 58.213379 Z " fill="rgb(0, 0, 0)" fill-opacity="1.000000" />
<path d="M 180.645020 58.272461 L 180.645020 62.000000 L 179.651367 62.000000 L 179.651367 58.272461 Q 179.651367 57.461426 179.366699 57.080078 Q 179.082031 56.698730 178.475098 56.698730 Q 177.782227 56.698730 177.408936 57.190186 Q 177.035645 57.681641 177.035645 58.600098 L 177.035645 62.000000 L 176.047363 62.000000 L 176.047363 55.984375 L 177.035645 55.984375 L 177.035645 56.886719 Q 177.298828 56.371094 177.750000 56.105225 Q 178.201172 55.839355 178.818848 55.839355 Q 179.737305 55.839355 180.191162 56.443604 Q 180.645020 57.047852 180.645020 58.272461 Z " fill="rgb(0, 0, 0)" fill-opacity="1.000000" />
<path d="M 185.297852 54.276367 L 185.297852 55.984375 L 187.542969 55.984375 L 187.542969 56.752441 L 185.297852 56.752441 L 185.297852 60.018066 Q 185.297852 60.684082 185.550293 60.947266 Q 185.802734 61.210449 186.431152 61.210449 L 187.542969 61.210449 L 187.542969 62.000000 L 186.334473 62.000000 Q 185.222656 62.000000 184.766113 61.554199 Q 184.309570 61.108398 184.309570 60.018066 L 184.309570 56.752441 L 182.703613 56.752441 L 182.703613 55.984375 L 184.309570 55.984375 L 184.309570 54.276367 Z " fill="rgb(0, 0, 0)" fill-opacity="1.000000" />
<path d="M 255.985352 53.594238 L 255.985352 64.594238 L 255.061523 64.594238 L 255.061523 53.594238 Z " fill="rgb(0, 0, 0)" fill-opacity="1.000000" />
<path d="M 283.985352 53.594238 L 283.985352 64.594238 L 283.061523 64.594238 L 283.061523 53.594238 Z " fill="rgb(0, 0, 0)" fill-opacity="1.000000" />
<path d="M 255.985352 40.594238 L 255.985352 51.594238 L 255.061523 51.594238 L 255.061523 40.594238 Z " fill="rgb(0, 0, 0)" fill-opacity="1.000000" />
<path d="M 283.985352 40.594238 L 283.985352 51.594238 L 283.061523 51.594238 L 283.061523 40.594238 Z " fill="rgb(0, 0, 0)" fill-opacity="1.000000" />
<path d="M 28.547852 32.111328 L 34.241211 32.111328 L 34.241211 33.019043 L 28.547852 33.019043 Z " fill="rgb(0, 0, 0)" fill-opacity="1.000000" />
<path d="M 35.547852 32.111328 L 41.241211 32.111328 L 41.241211 33.019043 L 35.547852 33.019043 Z " fill="rgb(0, 0, 0)" fill-opacity="1.000000" />
<path d="M 42.547852 32.111328 L 48.241211 32.111328 L 48.241211 33.019043 L 42.547852 33.019043 Z " fill="rgb(0, 0, 0)" fill-opacity="1.000000" />
<path d="M 49.547852 32.111328 L 55.241211 32.111328 L 55.241211 33.019043 L 49.547852 33.019043 Z " fill="rgb(0, 0, 0)" fill-opacity="1.000000" />
<path d="M 56.547852 32.111328 L 62.241211 32.111328 L 62.241211 33.019043 L 56.547852 33.019043 Z " fill="rgb(0, 0, 0)" fill-opacity="1.000000" />
<path d="M 63.547852 32.111328 L 69.241211 32.111328 L 69.241211 33.019043 L 63.547852 33.019043 Z " fill="rgb(0, 0, 0)" fill-opacity="1.000000" />
<path d="M 70.547852 32.111328 L 76.241211 32.111328 L 76.241211 33.019043 L 70.547852 33.019043 Z " fill="rgb(0, 0, 0)" fill-opacity="1.000000" />
<path d="M 77.547852 32.111328 L 83.241211 32.111328 L 83.241211 33.019043 L 77.547852 33.019043 Z " fill="rgb(0, 0, 0)" fill-opacity="1.000000" />
<path d="M 84.547852 32.111328 L 90.241211 32.111328 L 90.241211 33.019043 L 84.547852 33.019043 Z " fill="rgb(0, 0, 0)" fill-opacity="1.000000" />
<path d="M 91.547852 32.111328 L 97.241211 32.111328 L 97.241211 33.019043 L 91.547852 33.019043 Z " fill="rgb(0, 0, 0)" fill-opacity="1.000000" />
<path d="M 98.547852 32.111328 L 104.241211 32.111328 L 104.241211 33.019043 L 98.547852 33.019043 Z " fill="rgb(0, 0, 0)" fill-opacity="1.000000" />
<path d="M 105.547852 32.111328 L 111.241211 32.111328 L 111.241211 33.019043 L 105.547852 33.019043 Z " fill="rgb(0, 0, 0)" fill-opacity="1.000000" />
<path d="M 112.547852 32.111328 L 118.241211 32.111328 L 118.241211 33.019043 L 112.547852 33.019043 Z " fill="rgb(0, 0, 0)" fill-opacity="1.000000" />
<path d="M 119.547852 32.111328 L 125.241211 32.111328 L 125.241211 33.019043 L 119.547852 33.019043 Z " fill="rgb(0, 0, 0)" fill-opacity="1.000000" />
<path d="M 126.547852 32.111328 L 132.241211 32.111328 L 132.241211 33.019043 L 126.547852 33.019043 Z " fill="rgb(0, 0, 0)" fill-opacity="1.000000" />
<path d="M 133.547852 32.111328 L 139.241211 32.111328 L 139.241211 33.019043 L 133.547852 33.019043 Z " fill="rgb(0, 0, 0)" fill-opacity="1.000000" />
<path d="M 140.547852 32.111328 L 146.241211 32.111328 L 146.241211 33.019043 L 140.547852 33.019043 Z " fill="rgb(0, 0, 0)" fill-opacity="1.000000" />
<path d="M 147.547852 32.111328 L 153.241211 32.111328 L 153.241211 33.019043 L 147.547852 33.019043 Z " fill="rgb(0, 0, 0)" fill-opacity="1.000000" />
<path d="M 154.547852 32.111328 L 160.241211 32.111328 L 160.241211 33.019043 L 154.547852 33.019043 Z " fill="rgb(0, 0, 0)" fill-opacity="1.000000" />
<path d="M 161.547852 32.111328 L 167.241211 32.111328 L 167.241211 33.019043 L 161.547852 33.019043 Z " fill="rgb(0, 0, 0)" fill-opacity="1.000000" />
<path d="M 168.547852 32.111328 L 174.241211 32.111328 L 174.241211 33.019043 L 168.547852 33.019043 Z " fill="rgb(0, 0, 0)" fill-opacity="1.000000" />
<path d="M 175.547852 32.111328 L 181.241211 32.111328 L 181.241211 33.019043 L 175.547852 33.019043 Z " fill="rgb(0, 0, 0)" fill-opacity="1.000000" />
<path d="M 182.547852 32.111328 L 188.241211 32.111328 L 188.241211 33.019043 L 182.547852 33.019043 Z " fill="rgb(0, 0, 0)" fill-opacity="1.000000" />
<path d="M 189.547852 32.111328 L 195.241211 32.111328 L 195.241211 33.019043 L 189.547852 33.019043 Z " fill="rgb(0, 0, 0)" fill-opacity="1.000000" />
<path d="M 196.547852 32.111328 L 202.241211 32.111328 L 202.241211 33.019043 L 196.547852 33.019043 Z " fill="rgb(0, 0, 0)" fill-opacity="1.000000" />
<path d="M 203.547852 32.111328 L 209.241211 32.111328 L 209.241211 33.019043 L 203.547852 33.019043 Z " fill="rgb(0, 0, 0)" fill-opacity="1.000000" />
<path d="M 210.547852 32.111328 L 216.241211 32.111328 L 216.241211 33.019043 L 210.547852 33.019043 Z " fill="rgb(0, 0, 0)" fill-opacity="1.000000" />
<path d="M 217.547852 32.111328 L 223.241211 32.111328 L 223.241211 33.019043 L 217.547852 33.019043 Z " fill="rgb(0, 0, 0)" fill-opacity="1.000000" />
<path d="M 224.547852 32.111328 L 230.241211 32.111328 L 230.241211 33.019043 L 224.547852 33.019043 Z " fill="rgb(0, 0, 0)" fill-opacity="1.000000" />
<path d="M 231.547852 32.111328 L 237.241211 32.111328 L 237.241211 33.019043 L 231.547852 33.019043 Z " fill="rgb(0, 0, 0)" fill-opacity="1.000000" />
<path d="M 238.547852 32.111328 L 244.241211 32.111328 L 244.241211 33.019043 L 238.547852 33.019043 Z " fill="rgb(0, 0, 0)" fill-opacity="1.000000" />
<path d="M 245.547852 32.111328 L 251.241211 32.111328 L 251.241211 33.019043 L 245.547852 33.019043 Z " fill="rgb(0, 0, 0)" fill-opacity="1.000000" />
<path d="M 255.867188 29.672852 L 255.867188 32.052246 L 258.257324 32.052246 L 258.257324 32.959961 L 255.867188 32.959961 L 255.867188 35.339355 L 254.964844 35.339355 L 254.964844 32.959961 L 252.580078 32.959961 L 252.580078 32.052246 L 254.964844 32.052246 L 254.964844 29.672852 Z " fill="rgb(0, 0, 0)" fill-opacity="1.000000" />
<path d="M 283.985352 27.594238 L 283.985352 38.594238 L 283.061523 38.594238 L 283.061523 27.594238 Z " fill="rgb(0, 0, 0)" fill-opacity="1.000000" />
<path d="M 283.985352 14.594238 L 283.985352 25.594238 L 283.061523 25.594238 L 283.061523 14.594238 Z " fill="rgb(0, 0, 0)" fill-opacity="1.000000" />
<path d="M 10.770508 6.976074 L 10.442871 6.976074 Q 9.578125 6.976074 9.140381 7.279541 Q 8.702637 7.583008 8.702637 8.184570 Q 8.702637 8.727051 9.030273 9.027832 Q 9.357910 9.328613 9.937988 9.328613 Q 10.754395 9.328613 11.221680 8.761963 Q 11.688965 8.195312 11.694336 7.196289 L 11.694336 6.976074 Z M 12.687988 6.567871 L 12.687988 10.000000 L 11.694336 10.000000 L 11.694336 9.108398 Q 11.377441 9.645508 10.896729 9.900635 Q 10.416016 10.155762 9.728516 10.155762 Q 8.810059 10.155762 8.262207 9.637451 Q 7.714355 9.119141 7.714355 8.249023 Q 7.714355 7.244629 8.388428 6.723633 Q 9.062500 6.202637 10.367676 6.202637 L 11.694336 6.202637 L 11.694336 6.046875 Q 11.688965 5.327148 11.329102 5.002197 Q 10.969238 4.677246 10.179688 4.677246 Q 9.674805 4.677246 9.159180 4.822266 Q 8.643555 4.967285 8.154785 5.246582 L 8.154785 4.258301 Q 8.702637 4.048828 9.204834 3.944092 Q 9.707031 3.839355 10.179688 3.839355 Q 10.926270 3.839355 11.455322 4.059570 Q 11.984375 4.279785 12.312012 4.720215 Q 12.516113 4.988770 12.602051 5.383545 Q 12.687988 5.778320 12.687988 6.567871 Z " fill="rgb(0, 0, 0)" fill-opacity="1.000000" />
<path d="M 14.537109 3.984375 L 15.562988 3.984375 L 17.308594 9.033203 L 19.059570 3.984375 L 20.085449 3.984375 L 17.947754 10.000000 L 16.674805 10.000000 Z " fill="rgb(0, 0, 0)" fill-opacity="1.000000" />
<path d="M 24.770508 6.976074 L 24.442871 6.976074 Q 23.578125 6.976074 23.140381 7.279541 Q 22.702637 7.583008 22.702637 8.184570 Q 22.702637 8.727051 23.030273 9.027832 Q 23.357910 9.328613 23.937988 9.328613 Q 24.754395 9.328613 25.221680 8.761963 Q 25.688965 8.195312 25.694336 7.196289 L 25.694336 6.976074 Z M 26.687988 6.567871 L 26.687988 10.000000 L 25.694336 10.000000 L 25.694336 9.108398 Q 25.377441 9.645508 24.896729 9.900635 Q 24.416016 10.155762 23.728516 10.155762 Q 22.810059 10.155762 22.262207 9.637451 Q 21.714355 9.119141 21.714355 8.249023 Q 21.714355 7.244629 22.388428 6.723633 Q 23.062500 6.202637 24.367676 6.202637 L 25.694336 6.202637 L 25.694336 6.046875 Q 25.688965 5.327148 25.329102 5.002197 Q 24.969238 4.677246 24.179688 4.677246 Q 23.674805 4.677246 23.159180 4.822266 Q 22.643555 4.967285 22.154785 5.246582 L 22.154785 4.258301 Q 22.702637 4.048828 23.204834 3.944092 Q 23.707031 3.839355 24.179688 3.839355 Q 24.926270 3.839355 25.455322 4.059570 Q 25.984375 4.279785 26.312012 4.720215 Q 26.516113 4.988770 26.602051 5.383545 Q 26.687988 5.778320 26.687988 6.567871 Z " fill="rgb(0, 0, 0)" fill-opacity="1.000000" />
<path d="M 33.435547 2.254883 L 33.435547 3.355957 Q 32.941406 3.039062 32.444580 2.877930 Q 31.947754 2.716797 31.442871 2.716797 Q 30.674805 2.716797 30.229004 3.073975 Q 29.783203 3.431152 29.783203 4.038086 Q 29.783203 4.569824 30.075928 4.849121 Q 30.368652 5.128418 31.168945 5.316406 L 31.738281 5.445312 Q 32.866211 5.708496 33.381836 6.272461 Q 33.897461 6.836426 33.897461 7.808594 Q 33.897461 8.952637 33.188477 9.554199 Q 32.479492 10.155762 31.125977 10.155762 Q 30.562012 10.155762 29.992676 10.034912 Q 29.423340 9.914062 28.848633 9.672363 L 28.848633 8.517578 Q 29.466309 8.909668 30.016846 9.092285 Q 30.567383 9.274902 31.125977 9.274902 Q 31.947754 9.274902 32.404297 8.906982 Q 32.860840 8.539062 32.860840 7.878418 Q 32.860840 7.276855 32.546631 6.959961 Q 32.232422 6.643066 31.453613 6.471191 L 30.873535 6.336914 Q 29.756348 6.084473 29.251465 5.574219 Q 28.746582 5.063965 28.746582 4.204590 Q 28.746582 3.130371 29.468994 2.483154 Q 30.191406 1.835938 31.389160 1.835938 Q 31.851074 1.835938 32.361328 1.940674 Q 32.871582 2.045410 33.435547 2.254883 Z " fill="rgb(0, 0, 0)" fill-opacity="1.000000" />
<path d="M 40.698730 9.693848 Q 40.301270 9.924805 39.879639 10.040283 Q 39.458008 10.155762 39.017578 10.155762 Q 37.621094 10.155762 36.834229 9.317871 Q 36.047363 8.479980 36.047363 6.997559 Q 36.047363 5.515137 36.834229 4.677246 Q 37.621094 3.839355 39.017578 3.839355 Q 39.452637 3.839355 39.866211 3.952148 Q 40.279785 4.064941 40.698730 4.301270 L 40.698730 5.337891 Q 40.306641 4.988770 39.911865 4.833008 Q 39.517090 4.677246 39.017578 4.677246 Q 38.088379 4.677246 37.588867 5.278809 Q 37.089355 5.880371 37.089355 6.997559 Q 37.089355 8.109375 37.591553 8.713623 Q 38.093750 9.317871 39.017578 9.317871 Q 39.533203 9.317871 39.941406 9.159424 Q 40.349609 9.000977 40.698730 8.667969 Z " fill="rgb(0, 0, 0)" fill-opacity="1.000000" />
<path d="M 48.203613 5.225098 Q 47.886719 4.978027 47.559082 4.865234 Q 47.231445 4.752441 46.839355 4.752441 Q 45.915527 4.752441 45.426758 5.332520 Q 44.937988 5.912598 44.937988 7.008301 L 44.937988 10.000000 L 43.944336 10.000000 L 43.944336 3.984375 L 44.937988 3.984375 L 44.937988 5.160645 Q 45.185059 4.521484 45.697998 4.180420 Q 46.210938 3.839355 46.914551 3.839355 Q 47.279785 3.839355 47.596680 3.930664 Q 47.913574 4.021973 48.203613 4.215332 Z " fill="rgb(0, 0, 0)" fill-opacity="1.000000" />
<path d="M 50.697266 4.005859 L 53.227051 4.005859 L 53.227051 9.231934 L 55.187500 9.231934 L 55.187500 10.000000 L 50.278320 10.000000 L 50.278320 9.231934 L 52.238770 9.231934 L 52.238770 4.773926 L 50.697266 4.773926 Z M 52.238770 1.669434 L 53.227051 1.669434 L 53.227051 2.915527 L 52.238770 2.915527 Z " fill="rgb(0, 0, 0)" fill-opacity="1.000000" />
<path d="M 58.014160 9.242676 L 58.014160 12.288086 L 57.020508 12.288086 L 57.020508 3.984375 L 58.014160 3.984375 L 58.014160 4.752441 Q 58.261230 4.306641 58.672119 4.072998 Q 59.083008 3.839355 59.620117 3.839355 Q 60.710449 3.839355 61.330811 4.682617 Q 61.951172 5.525879 61.951172 7.019043 Q 61.951172 8.485352 61.328125 9.320557 Q 60.705078 10.155762 59.620117 10.155762 Q 59.072266 10.155762 58.661377 9.922119 Q 58.250488 9.688477 58.014160 9.242676 Z M 60.914551 6.997559 Q 60.914551 5.848145 60.552002 5.262695 Q 60.189453 4.677246 59.475098 4.677246 Q 58.755371 4.677246 58.384766 5.265381 Q 58.014160 5.853516 58.014160 6.997559 Q 58.014160 8.136230 58.384766 8.727051 Q 58.755371 9.317871 59.475098 9.317871 Q 60.189453 9.317871 60.552002 8.732422 Q 60.914551 8.146973 60.914551 6.997559 Z " fill="rgb(0, 0, 0)" fill-opacity="1.000000" />
<path d="M 66.297852 2.276367 L 66.297852 3.984375 L 68.542969 3.984375 L 68.542969 4.752441 L 66.297852 4.752441 L 66.297852 8.018066 Q 66.297852 8.684082 66.550293 8.947266 Q 66.802734 9.210449 67.431152 9.210449 L 68.542969 9.210449 L 68.542969 10.000000 L 67.334473 10.000000 Q 66.222656 10.000000 65.766113 9.554199 Q 65.309570 9.108398 65.309570 8.018066 L 65.309570 4.752441 L 63.703613 4.752441 L 63.703613 3.984375 L 65.309570 3.984375 L 65.309570 2.276367 Z " fill="rgb(0, 0, 0)" fill-opacity="1.000000" />
<path d="M 80.630859 4.596680 Q 80.813477 4.209961 81.095459 4.024658 Q 81.377441 3.839355 81.774902 3.839355 Q 82.500000 3.839355 82.798096 4.400635 Q 83.096191 4.961914 83.096191 6.514160 L 83.096191 10.000000 L 82.193848 10.000000 L 82.193848 6.557129 Q 82.193848 5.284180 82.051514 4.975342 Q 81.909180 4.666504 81.533203 4.666504 Q 81.103516 4.666504 80.945068 4.996826 Q 80.786621 5.327148 80.786621 6.557129 L 80.786621 10.000000 L 79.884277 10.000000 L 79.884277 6.557129 Q 79.884277 5.268066 79.731201 4.967285 Q 79.578125 4.666504 79.180664 4.666504 Q 78.788574 4.666504 78.635498 4.996826 Q 78.482422 5.327148 78.482422 6.557129 L 78.482422 10.000000 L 77.585449 10.000000 L 77.585449 3.984375 L 78.482422 3.984375 L 78.482422 4.500000 Q 78.659668 4.177734 78.925537 4.008545 Q 79.191406 3.839355 79.529785 3.839355 Q 79.937988 3.839355 80.209229 4.027344 Q 80.480469 4.215332 80.630859 4.596680 Z " fill="rgb(0, 0, 0)" fill-opacity="1.000000" />
<path d="M 87.308594 4.677246 Q 86.556641 4.677246 86.169922 5.262695 Q 85.783203 5.848145 85.783203 6.997559 Q 85.783203 8.141602 86.169922 8.729736 Q 86.556641 9.317871 87.308594 9.317871 Q 88.065918 9.317871 88.452637 8.729736 Q 88.839355 8.141602 88.839355 6.997559 Q 88.839355 5.848145 88.452637 5.262695 Q 88.065918 4.677246 87.308594 4.677246 Z M 87.308594 3.839355 Q 88.560059 3.839355 89.223389 4.650391 Q 89.886719 5.461426 89.886719 6.997559 Q 89.886719 8.539062 89.226074 9.347412 Q 88.565430 10.155762 87.308594 10.155762 Q 86.057129 10.155762 85.396484 9.347412 Q 84.735840 8.539062 84.735840 6.997559 Q 84.735840 5.461426 85.396484 4.650391 Q 86.057129 3.839355 87.308594 3.839355 Z " fill="rgb(0, 0, 0)" fill-opacity="1.000000" />
<path d="M 95.608398 4.752441 L 95.608398 1.642578 L 96.596680 1.642578 L 96.596680 10.000000 L 95.608398 10.000000 L 95.608398 9.242676 Q 95.361328 9.688477 94.950439 9.922119 Q 94.539551 10.155762 94.002441 10.155762 Q 92.912109 10.155762 92.286377 9.309814 Q 91.660645 8.463867 91.660645 6.976074 Q 91.660645 5.509766 92.289062 4.674561 Q 92.917480 3.839355 94.002441 3.839355 Q 94.544922 3.839355 94.958496 4.072998 Q 95.372070 4.306641 95.608398 4.752441 Z M 92.702637 6.997559 Q 92.702637 8.146973 93.067871 8.732422 Q 93.433105 9.317871 94.147461 9.317871 Q 94.861816 9.317871 95.235107 8.727051 Q 95.608398 8.136230 95.608398 6.997559 Q 95.608398 5.853516 95.235107 5.265381 Q 94.861816 4.677246 94.147461 4.677246 Q 93.433105 4.677246 93.067871 5.262695 Q 92.702637 5.848145 92.702637 6.997559 Z " fill="rgb(0, 0, 0)" fill-opacity="1.000000" />
<path d="M 99.047363 7.722656 L 99.047363 3.995117 L 100.035645 3.995117 L 100.035645 7.722656 Q 100.035645 8.533691 100.322998 8.915039 Q 100.610352 9.296387 101.211914 9.296387 Q 101.910156 9.296387 102.280762 8.804932 Q 102.651367 8.313477 102.651367 7.395020 L 102.651367 3.995117 L 103.645020 3.995117 L 103.645020 10.000000 L 102.651367 10.000000 L 102.651367 9.097656 Q 102.388184 9.618652 101.934326 9.887207 Q 101.480469 10.155762 100.873535 10.155762 Q 99.949707 10.155762 99.498535 9.551514 Q 99.047363 8.947266 99.047363 7.722656 Z " fill="rgb(0, 0, 0)" fill-opacity="1.000000" />
<path d="M 108.861816 7.824707 Q 108.861816 8.490723 109.106201 8.829102 Q 109.350586 9.167480 109.828613 9.167480 L 110.983398 9.167480 L 110.983398 10.000000 L 109.731934 10.000000 Q 108.845703 10.000000 108.359619 9.433350 Q 107.873535 8.866699 107.873535 7.824707 L 107.873535 2.383789 L 106.289062 2.383789 L 106.289062 1.610352 L 108.861816 1.610352 Z " fill="rgb(0, 0, 0)" fill-opacity="1.000000" />
<path d="M 118.015625 6.498047 L 118.015625 6.981445 L 113.734863 6.981445 L 113.734863 7.013672 Q 113.691895 8.243652 114.204834 8.780762 Q 114.717773 9.317871 115.652344 9.317871 Q 116.125000 9.317871 116.640625 9.167480 Q 117.156250 9.017090 117.741699 8.710938 L 117.741699 9.693848 Q 117.177734 9.924805 116.654053 10.040283 Q 116.130371 10.155762 115.641602 10.155762 Q 114.239746 10.155762 113.450195 9.315186 Q 112.660645 8.474609 112.660645 6.997559 Q 112.660645 5.558105 113.434082 4.698730 Q 114.207520 3.839355 115.496582 3.839355 Q 116.645996 3.839355 117.309326 4.618164 Q 117.972656 5.396973 118.015625 6.498047 Z M 117.027344 6.208008 Q 116.962891 5.584961 116.573486 5.131104 Q 116.184082 4.677246 115.453613 4.677246 Q 114.739258 4.677246 114.277344 5.149902 Q 113.815430 5.622559 113.772461 6.213379 Z " fill="rgb(0, 0, 0)" fill-opacity="1.000000" />
<path d="M 119.547852 6.111328 L 125.241211 6.111328 L 125.241211 7.019043 L 119.547852 7.019043 Z " fill="rgb(0, 0, 0)" fill-opacity="1.000000" />
<path d="M 126.547852 6.111328 L 132.241211 6.111328 L 132.241211 7.019043 L 126.547852 7.019043 Z " fill="rgb(0, 0, 0)" fill-opacity="1.000000" />
<path d="M 133.547852 6.111328 L 139.241211 6.111328 L 139.241211 7.019043 L 133.547852 7.019043 Z " fill="rgb(0, 0, 0)" fill-opacity="1.000000" />
<path d="M 140.547852 6.111328 L 146.241211 6.111328 L 146.241211 7.019043 L 140.547852 7.019043 Z " fill="rgb(0, 0, 0)" fill-opacity="1.000000" />
<path d="M 147.547852 6.111328 L 153.241211 6.111328 L 153.241211 7.019043 L 147.547852 7.019043 Z " fill="rgb(0, 0, 0)" fill-opacity="1.000000" />
<path d="M 154.547852 6.111328 L 160.241211 6.111328 L 160.241211 7.019043 L 154.547852 7.019043 Z " fill="rgb(0, 0, 0)" fill-opacity="1.000000" />
<path d="M 161.547852 6.111328 L 167.241211 6.111328 L 167.241211 7.019043 L 161.547852 7.019043 Z " fill="rgb(0, 0, 0)" fill-opacity="1.000000" />
<path d="M 168.547852 6.111328 L 174.241211 6.111328 L 174.241211 7.019043 L 168.547852 7.019043 Z " fill="rgb(0, 0, 0)" fill-opacity="1.000000" />
<path d="M 175.547852 6.111328 L 181.241211 6.111328 L 181.241211 7.019043 L 175.547852 7.019043 Z " fill="rgb(0, 0, 0)" fill-opacity="1.000000" />
<path d="M 182.547852 6.111328 L 188.241211 6.111328 L 188.241211 7.019043 L 182.547852 7.019043 Z " fill="rgb(0, 0, 0)" fill-opacity="1.000000" />
<path d="M 189.547852 6.111328 L 195.241211 6.111328 L 195.241211 7.019043 L 189.547852 7.019043 Z " fill="rgb(0, 0, 0)" fill-opacity="1.000000" />
<path d="M 196.547852 6.111328 L 202.241211 6.111328 L 202.241211 7.019043 L 196.547852 7.019043 Z " fill="rgb(0, 0, 0)" fill-opacity="1.000000" />
<path d="M 203.547852 6.111328 L 209.241211 6.111328 L 209.241211 7.019043 L 203.547852 7.019043 Z " fill="rgb(0, 0, 0)" fill-opacity="1.000000" />
<path d="M 210.547852 6.111328 L 216.241211 6.111328 L 216.241211 7.019043 L 210.547852 7.019043 Z " fill="rgb(0, 0, 0)" fill-opacity="1.000000" />
<path d="M 217.547852 6.111328 L 223.241211 6.111328 L 223.241211 7.019043 L 217.547852 7.019043 Z " fill="rgb(0, 0, 0)" fill-opacity="1.000000" />
<path d="M 224.547852 6.111328 L 230.241211 6.111328 L 230.241211 7.019043 L 224.547852 7.019043 Z " fill="rgb(0, 0, 0)" fill-opacity="1.000000" />
<path d="M 231.547852 6.111328 L 237.241211 6.111328 L 237.241211 7.019043 L 231.547852 7.019043 Z " fill="rgb(0, 0, 0)" fill-opacity="1.000000" />
<path d="M 238.547852 6.111328 L 244.241211 6.111328 L 244.241211 7.019043 L 238.547852 7.019043 Z " fill="rgb(0, 0, 0)" fill-opacity="1.000000" />
<path d="M 245.547852 6.111328 L 251.241211 6.111328 L 251.241211 7.019043 L 245.547852 7.019043 Z " fill="rgb(0, 0, 0)" fill-opacity="1.000000" />
<path d="M 252.547852 6.111328 L 258.241211 6.111328 L 258.241211 7.019043 L 252.547852 7.019043 Z " fill="rgb(0, 0, 0)" fill-opacity="1.000000" />
<path d="M 259.547852 6.111328 L 265.241211 6.111328 L 265.241211 7.019043 L 259.547852 7.019043 Z " fill="rgb(0, 0, 0)" fill-opacity="1.000000" />
<path d="M 266.547852 6.111328 L 272.241211 6.111328 L 272.241211 7.019043 L 266.547852 7.019043 Z " fill="rgb(0, 0, 0)" fill-opacity="1.000000" />
<path d="M 273.547852 6.111328 L 279.241211 6.111328 L 279.241211 7.019043 L 273.547852 7.019043 Z " fill="rgb(0, 0, 0)" fill-opacity="1.000000" />
<path d="M 283.867188 3.672852 L 283.867188 6.052246 L 286.257324 6.052246 L 286.257324 6.959961 L 283.867188 6.959961 L 283.867188 9.339355 L 282.964844 9.339355 L 282.964844 6.959961 L 280.580078 6.959961 L 280.580078 6.052246 L 282.964844 6.052246 L 282.964844 3.672852 Z " fill="rgb(0, 0, 0)" fill-opacity="1.000000" />
</svg>