<svg xmlns="http://www.w3.org/2000/svg" version="1.1" width="421" height="183">
<path d="M 3.867188 3.672852 L 3.867188 6.052246 L 6.257324 6.052246 L 6.257324 6.959961 L 3.867188 6.959961 L 3.867188 9.339355 L 2.964844 9.339355 L 2.964844 6.959961 L 0.580078 6.959961 L 0.580078 6.052246 L 2.964844 6.052246 L 2.964844 3.672852 Z " fill="rgb(0, 0, 0)" fill-opacity="1.000000" />
<path d="M 3.985352 14.594238 L 3.985352 25.594238 L 3.061523 25.594238 L 3.061523 14.594238 Z " fill="rgb(0, 0, 0)" fill-opacity="1.000000" />
<path d="M 3.985352 27.594238 L 3.985352 38.594238 L 3.061523 38.594238 L 3.061523 27.594238 Z " fill="rgb(0, 0, 0)" fill-opacity="1.000000" />
<path d="M 3.985352 40.594238 L 3.985352 51.594238 L 3.061523 51.594238 L 3.061523 40.594238 Z " fill="rgb(0, 0, 0)" fill-opacity="1.000000" />
<path d="M 3.985352 53.594238 L 3.985352 64.594238 L 3.061523 64.594238 L 3.061523 53.594238 Z " fill="rgb(0, 0, 0)" fill-opacity="1.000000" />
<path d="M 3.985352 66.594238 L 3.985352 77.594238 L 3.061523 77.594238 L 3.061523 66.594238 Z " fill="rgb(0, 0, 0)" fill-opacity="1.000000" />
<path d="M 3.985352 79.594238 L 3.985352 90.594238 L 3.061523 90.594238 L 3.061523 79.594238 Z " fill="rgb(0, 0, 0)" fill-opacity="1.000000" />
<path d="M 3.985352 92.594238 L 3.985352 103.594238 L 3.061523 103.594238 L 3.061523 92.594238 Z " fill="rgb(0, 0, 0)" fill-opacity="1.000000" />
<path d="M 3.867188 107.672852 L 3.867188 110.052246 L 6.257324 110.052246 L 6.257324 110.959961 L 3.867188 110.959961 L 3.867188 113.339355 L 2.964844 113.339355 L 2.964844 110.959961 L 0.580078 110.959961 L 0.580078 110.052246 L 2.964844 110.052246 L 2.964844 107.672852 Z " fill="rgb(0, 0, 0)" fill-opacity="1.000000" />
<path d="M 10.867188 107.672852 L 10.867188 110.052246 L 13.257324 110.052246 L 13.257324 110.959961 L 10.867188 110.959961 L 10.867188 113.339355 L 9.964844 113.339355 L 9.964844 110.959961 L 7.580078 110.959961 L 7.580078 110.052246 L 9.964844 110.052246 L 9.964844 107.672852 Z " fill="rgb(0, 0, 0)" fill-opacity="1.000000" />
<path d="M 10.867188 120.672852 L 10.867188 123.052246 L 13.257324 123.052246 L 13.257324 123.959961 L 10.867188 123.959961 L 10.867188 126.339355 L 9.964844 126.339355 L 9.964844 123.959961 L 7.580078 123.959961 L 7.580078 123.052246 L 9.964844 123.052246 L 9.964844 120.672852 Z " fill="rgb(0, 0, 0)" fill-opacity="1.000000" />
<path d="M 17.867188 120.672852 L 17.867188 123.052246 L 20.257324 123.052246 L 20.257324 123.959961 L 17.867188 123.959961 L 17.867188 126.339355 L 16.964844 126.339355 L 16.964844 123.959961 L 14.580078 123.959961 L 14.580078 123.052246 L 16.964844 123.052246 L 16.964844 120.672852 Z " fill="rgb(0, 0, 0)" fill-opacity="1.000000" />
<path d="M 17.867188 133.672852 L 17.867188 136.052246 L 20.257324 136.052246 L 20.257324 136.959961 L 17.867188 136.959961 L 17.867188 139.339355 L 16.964844 139.339355 L 16.964844 136.959961 L 14.580078 136.959961 L 14.580078 136.052246 L 16.964844 136.052246 L 16.964844 133.672852 Z " fill="rgb(0, 0, 0)" fill-opacity="1.000000" />
<path d="M 24.867188 133.672852 L 24.867188 136.052246 L 27.257324 136.052246 L 27.257324 136.959961 L 24.867188 136.959961 L 24.867188 139.339355 L 23.964844 139.339355 L 23.964844 136.959961 L 21.580078 136.959961 L 21.580078 136.052246 L 23.964844 136.052246 L 23.964844 133.672852 Z " fill="rgb(0, 0, 0)" fill-opacity="1.000000" />
<path d="M 24.867188 146.672852 L 24.867188 149.052246 L 27.257324 149.052246 L 27.257324 149.959961 L 24.867188 149.959961 L 24.867188 152.339355 L 23.964844 152.339355 L 23.964844 149.959961 L 21.580078 149.959961 L 21.580078 149.052246 L 23.964844 149.052246 L 23.964844 146.672852 Z " fill="rgb(0, 0, 0)" fill-opacity="1.000000" />
<path d="M 178.867188 159.672852 L 178.867188 162.052246 L 181.257324 162.052246 L 181.257324 162.959961 L 178.867188 162.959961 L 178.867188 165.339355 L 177.964844 165.339355 L 177.964844 162.959961 L 175.580078 162.959961 L 175.580078 162.052246 L 177.964844 162.052246 L 177.964844 159.672852 Z " fill="rgb(0, 0, 0)" fill-opacity="1.000000" />
<path d="M 185.867188 159.672852 L 185.867188 162.052246 L 188.257324 162.052246 L 188.257324 162.959961 L 185.867188 162.959961 L 185.867188 165.339355 L 184.964844 165.339355 L 184.964844 162.959961 L 182.580078 162.959961 L 182.580078 162.052246 L 184.964844 162.052246 L 184.964844 159.672852 Z " fill="rgb(0, 0, 0)" fill-opacity="1.000000" />
<path d="M 185.867188 172.672852 L 185.867188 175.052246 L 188.257324 175.052246 L 188.257324 175.959961 L 185.867188 175.959961 L 185.867188 178.339355 L 184.964844 178.339355 L 184.964844 175.959961 L 182.580078 175.959961 L 182.580078 175.052246 L 184.964844 175.052246 L 184.964844 172.672852 Z " fill="rgb(0, 0, 0)" fill-opacity="1.000000" />
<path d="M 189.547852 175.111328 L 195.241211 175.111328 L 195.241211 176.019043 L 189.547852 176.019043 Z " fill="rgb(0, 0, 0)" fill-opacity="1.000000" />
<path d="M 196.547852 175.111328 L 202.241211 175.111328 L 202.241211 176.019043 L 196.547852 176.019043 Z " fill="rgb(0, 0, 0)" fill-opacity="1.000000" />
<path d="M 203.547852 175.111328 L 209.241211 175.111328 L 209.241211 176.019043 L 203.547852 176.019043 Z " fill="rgb(0, 0, 0)" fill-opacity="1.000000" />
<path d="M 210.547852 175.111328 L 216.241211 175.111328 L 216.241211 176.019043 L 210.547852 176.019043 Z " fill="rgb(0, 0, 0)" fill-opacity="1.000000" />
<path d="M 217.547852 175.111328 L 223.241211 175.111328 L 223.241211 176.019043 L 217.547852 176.019043 Z " fill="rgb(0, 0, 0)" fill-opacity="1.000000" />
<path d="M 224.547852 175.111328 L 230.241211 175.111328 L 230.241211 176.019043 L 224.547852 176.019043 Z " fill="rgb(0, 0, 0)" fill-opacity="1.000000" />
<path d="M 231.547852 175.111328 L 237.241211 175.111328 L 237.241211 176.019043 L 231.547852 176.019043 Z " fill="rgb(0, 0, 0)" fill-opacity="1.000000" />
<path d="M 238.547852 175.111328 L 244.241211 175.111328 L 244.241211 176.019043 L 238.547852 176.019043 Z " fill="rgb(0, 0, 0)" fill-opacity="1.000000" />
<path d="M 245.547852 175.111328 L 251.241211 175.111328 L 251.241211 176.019043 L 245.547852 176.019043 Z " fill="rgb(0, 0, 0)" fill-opacity="1.000000" />
<path d="M 252.547852 175.111328 L 258.241211 175.111328 L 258.241211 176.019043 L 252.547852 176.019043 Z " fill="rgb(0, 0, 0)" fill-opacity="1.000000" />
<path d="M 259.547852 175.111328 L 265.241211 175.111328 L 265.241211 176.019043 L 259.547852 176.019043 Z " fill="rgb(0, 0, 0)" fill-opacity="1.000000" />
<path d="M 266.547852 175.111328 L 272.241211 175.111328 L 272.241211 176.019043 L 266.547852 176.019043 Z " fill="rgb(0, 0, 0)" fill-opacity="1.000000" />
<path d="M 276.867188 172.672852 L 276.867188 175.052246 L 279.257324 175.052246 L 279.257324 175.959961 L 276.867188 175.959961 L 276.867188 178.339355 L 275.964844 178.339355 L 275.964844 175.959961 L 273.580078 175.959961 L 273.580078 175.052246 L 275.964844 175.052246 L 275.964844 172.672852 Z " fill="rgb(0, 0, 0)" fill-opacity="1.000000" />
<path d="M 196.252441 157.980957 L 202.370117 157.980957 L 202.370117 158.894043 L 199.861816 158.894043 L 199.861816 166.000000 L 198.771484 166.000000 L 198.771484 158.894043 L 196.252441 158.894043 Z " fill="rgb(0, 0, 0)" fill-opacity="1.000000" />
<path d="M 209.203613 161.225098 Q 208.886719 160.978027 208.559082 160.865234 Q 208.231445 160.752441 207.839355 160.752441 Q 206.915527 160.752441 206.426758 161.332520 Q 205.937988 161.912598 205.937988 163.008301 L 205.937988 166.000000 L 204.944336 166.000000 L 204.944336 159.984375 L 205.937988 159.984375 L 205.937988 161.160645 Q 206.185059 160.521484 206.697998 160.180420 Q 207.210938 159.839355 207.914551 159.839355 Q 208.279785 159.839355 208.596680 159.930664 Q 208.913574 160.021973 209.203613 160.215332 Z " fill="rgb(0, 0, 0)" fill-opacity="1.000000" />
<path d="M 213.770508 162.976074 L 213.442871 162.976074 Q 212.578125 162.976074 212.140381 163.279541 Q 211.702637 163.583008 211.702637 164.184570 Q 211.702637 164.727051 212.030273 165.027832 Q 212.357910 165.328613 212.937988 165.328613 Q 213.754395 165.328613 214.221680 164.761963 Q 214.688965 164.195312 214.694336 163.196289 L 214.694336 162.976074 Z M 215.687988 162.567871 L 215.687988 166.000000 L 214.694336 166.000000 L 214.694336 165.108398 Q 214.377441 165.645508 213.896729 165.900635 Q 213.416016 166.155762 212.728516 166.155762 Q 211.810059 166.155762 211.262207 165.637451 Q 210.714355 165.119141 210.714355 164.249023 Q 210.714355 163.244629 211.388428 162.723633 Q 212.062500 162.202637 213.367676 162.202637 L 214.694336 162.202637 L 214.694336 162.046875 Q 214.688965 161.327148 214.329102 161.002197 Q 213.969238 160.677246 213.179688 160.677246 Q 212.674805 160.677246 212.159180 160.822266 Q 211.643555 160.967285 211.154785 161.246582 L 211.154785 160.258301 Q 211.702637 160.048828 212.204834 159.944092 Q 212.707031 159.839355 213.179688 159.839355 Q 213.926270 159.839355 214.455322 160.059570 Q 214.984375 160.279785 215.312012 160.720215 Q 215.516113 160.988770 215.602051 161.383545 Q 215.687988 161.778320 215.687988 162.567871 Z " fill="rgb(0, 0, 0)" fill-opacity="1.000000" />
<path d="M 222.645020 162.272461 L 222.645020 166.000000 L 221.651367 166.000000 L 221.651367 162.272461 Q 221.651367 161.461426 221.366699 161.080078 Q 221.082031 160.698730 220.475098 160.698730 Q 219.782227 160.698730 219.408936 161.190186 Q 219.035645 161.681641 219.035645 162.600098 L 219.035645 166.000000 L 218.047363 166.000000 L 218.047363 159.984375 L 219.035645 159.984375 L 219.035645 160.886719 Q 219.298828 160.371094 219.750000 160.105225 Q 220.201172 159.839355 220.818848 159.839355 Q 221.737305 159.839355 222.191162 160.443604 Q 222.645020 161.047852 222.645020 162.272461 Z " fill="rgb(0, 0, 0)" fill-opacity="1.000000" />
<path d="M 229.226074 160.193848 L 229.226074 161.160645 Q 228.801758 160.913574 228.372070 160.790039 Q 227.942383 160.666504 227.496582 160.666504 Q 226.825195 160.666504 226.494873 160.884033 Q 226.164551 161.101562 226.164551 161.547363 Q 226.164551 161.950195 226.411621 162.148926 Q 226.658691 162.347656 227.641602 162.535645 L 228.039062 162.610840 Q 228.774902 162.750488 229.153564 163.169434 Q 229.532227 163.588379 229.532227 164.259766 Q 229.532227 165.151367 228.898438 165.653564 Q 228.264648 166.155762 227.136719 166.155762 Q 226.690918 166.155762 226.202148 166.061768 Q 225.713379 165.967773 225.144043 165.779785 L 225.144043 164.759277 Q 225.697266 165.043945 226.202148 165.186279 Q 226.707031 165.328613 227.158203 165.328613 Q 227.813477 165.328613 228.173340 165.062744 Q 228.533203 164.796875 228.533203 164.318848 Q 228.533203 163.631348 227.217285 163.368164 L 227.174316 163.357422 L 226.803711 163.282227 Q 225.949707 163.115723 225.557617 162.720947 Q 225.165527 162.326172 225.165527 161.644043 Q 225.165527 160.779297 225.750977 160.309326 Q 226.336426 159.839355 227.421387 159.839355 Q 227.904785 159.839355 228.350586 159.927979 Q 228.796387 160.016602 229.226074 160.193848 Z " fill="rgb(0, 0, 0)" fill-opacity="1.000000" />
<path d="M 236.709473 157.642578 L 236.709473 158.464355 L 235.586914 158.464355 Q 235.055176 158.464355 234.848389 158.681885 Q 234.641602 158.899414 234.641602 159.452637 L 234.641602 159.984375 L 236.709473 159.984375 L 236.709473 160.752441 L 234.641602 160.752441 L 234.641602 166.000000 L 233.653320 166.000000 L 233.653320 160.752441 L 232.047363 160.752441 L 232.047363 159.984375 L 233.653320 159.984375 L 233.653320 159.565430 Q 233.653320 158.577148 234.107178 158.109863 Q 234.561035 157.642578 235.522461 157.642578 Z " fill="rgb(0, 0, 0)" fill-opacity="1.000000" />
<path d="M 241.308594 160.677246 Q 240.556641 160.677246 240.169922 161.262695 Q 239.783203 161.848145 239.783203 162.997559 Q 239.783203 164.141602 240.169922 164.729736 Q 240.556641 165.317871 241.308594 165.317871 Q 242.065918 165.317871 242.452637 164.729736 Q 242.839355 164.141602 242.839355 162.997559 Q 242.839355 161.848145 242.452637 161.262695 Q 242.065918 160.677246 241.308594 160.677246 Z M 241.308594 159.839355 Q 242.560059 159.839355 243.223389 160.650391 Q 243.886719 161.461426 243.886719 162.997559 Q 243.886719 164.539062 243.226074 165.347412 Q 242.565430 166.155762 241.308594 166.155762 Q 240.057129 166.155762 239.396484 165.347412 Q 238.735840 164.539062 238.735840 162.997559 Q 238.735840 161.461426 239.396484 160.650391 Q 240.057129 159.839355 241.308594 159.839355 Z " fill="rgb(0, 0, 0)" fill-opacity="1.000000" />
<path d="M 251.203613 161.225098 Q 250.886719 160.978027 250.559082 160.865234 Q 250.231445 160.752441 249.839355 160.752441 Q 248.915527 160.752441 248.426758 161.332520 Q 247.937988 161.912598 247.937988 163.008301 L 247.937988 166.000000 L 246.944336 166.000000 L 246.944336 159.984375 L 247.937988 159.984375 L 247.937988 161.160645 Q 248.185059 160.521484 248.697998 160.180420 Q 249.210938 159.839355 249.914551 159.839355 Q 250.279785 159.839355 250.596680 159.930664 Q 250.913574 160.021973 251.203613 160.215332 Z " fill="rgb(0, 0, 0)" fill-opacity="1.000000" />
<path d="M 255.630859 160.596680 Q 255.813477 160.209961 256.095459 160.024658 Q 256.377441 159.839355 256.774902 159.839355 Q 257.500000 159.839355 257.798096 160.400635 Q 258.096191 160.961914 258.096191 162.514160 L 258.096191 166.000000 L 257.193848 166.000000 L 257.193848 162.557129 Q 257.193848 161.284180 257.051514 160.975342 Q 256.909180 160.666504 256.533203 160.666504 Q 256.103516 160.666504 255.945068 160.996826 Q 255.786621 161.327148 255.786621 162.557129 L 255.786621 166.000000 L 254.884277 166.000000 L 254.884277 162.557129 Q 254.884277 161.268066 254.731201 160.967285 Q 254.578125 160.666504 254.180664 160.666504 Q 253.788574 160.666504 253.635498 160.996826 Q 253.482422 161.327148 253.482422 162.557129 L 253.482422 166.000000 L 252.585449 166.000000 L 252.585449 159.984375 L 253.482422 159.984375 L 253.482422 160.500000 Q 253.659668 160.177734 253.925537 160.008545 Q 254.191406 159.839355 254.529785 159.839355 Q 254.937988 159.839355 255.209229 160.027344 Q 255.480469 160.215332 255.630859 160.596680 Z " fill="rgb(0, 0, 0)" fill-opacity="1.000000" />
<path d="M 264.226074 160.193848 L 264.226074 161.160645 Q 263.801758 160.913574 263.372070 160.790039 Q 262.942383 160.666504 262.496582 160.666504 Q 261.825195 160.666504 261.494873 160.884033 Q 261.164551 161.101562 261.164551 161.547363 Q 261.164551 161.950195 261.411621 162.148926 Q 261.658691 162.347656 262.641602 162.535645 L 263.039062 162.610840 Q 263.774902 162.750488 264.153564 163.169434 Q 264.532227 163.588379 264.532227 164.259766 Q 264.532227 165.151367 263.898438 165.653564 Q 263.264648 166.155762 262.136719 166.155762 Q 261.690918 166.155762 261.202148 166.061768 Q 260.713379 165.967773 260.144043 165.779785 L 260.144043 164.759277 Q 260.697266 165.043945 261.202148 165.186279 Q 261.707031 165.328613 262.158203 165.328613 Q 262.813477 165.328613 263.173340 165.062744 Q 263.533203 164.796875 263.533203 164.318848 Q 263.533203 163.631348 262.217285 163.368164 L 262.174316 163.357422 L 261.803711 163.282227 Q 260.949707 163.115723 260.557617 162.720947 Q 260.165527 162.326172 260.165527 161.644043 Q 260.165527 160.779297 260.750977 160.309326 Q 261.336426 159.839355 262.421387 159.839355 Q 262.904785 159.839355 263.350586 159.927979 Q 263.796387 160.016602 264.226074 160.193848 Z " fill="rgb(0, 0, 0)" fill-opacity="1.000000" />
<path d="M 276.985352 157.594238 L 276.985352 168.594238 L 276.061523 168.594238 L 276.061523 157.594238 Z " fill="rgb(0, 0, 0)" fill-opacity="1.000000" />
<path d="M 28.547852 149.111328 L 34.241211 149.111328 L 34.241211 150.019043 L 28.547852 150.019043 Z " fill="rgb(0, 0, 0)" fill-opacity="1.000000" />
<path d="M 35.547852 149.111328 L 41.241211 149.111328 L 41.241211 150.019043 L 35.547852 150.019043 Z " fill="rgb(0, 0, 0)" fill-opacity="1.000000" />
<path d="M 42.547852 149.111328 L 48.241211 149.111328 L 48.241211 150.019043 L 42.547852 150.019043 Z " fill="rgb(0, 0, 0)" fill-opacity="1.000000" />
<path d="M 49.547852 149.111328 L 55.241211 149.111328 L 55.241211 150.019043 L 49.547852 150.019043 Z " fill="rgb(0, 0, 0)" fill-opacity="1.000000" />
<path d="M 56.547852 149.111328 L 62.241211 149.111328 L 62.241211 150.019043 L 56.547852 150.019043 Z " fill="rgb(0, 0, 0)" fill-opacity="1.000000" />
<path d="M 63.547852 149.111328 L 69.241211 149.111328 L 69.241211 150.019043 L 63.547852 150.019043 Z " fill="rgb(0, 0, 0)" fill-opacity="1.000000" />
<path d="M 70.547852 149.111328 L 76.241211 149.111328 L 76.241211 150.019043 L 70.547852 150.019043 Z " fill="rgb(0, 0, 0)" fill-opacity="1.000000" />
<path d="M 77.547852 149.111328 L 83.241211 149.111328 L 83.241211 150.019043 L 77.547852 150.019043 Z " fill="rgb(0, 0, 0)" fill-opacity="1.000000" />
<path d="M 84.547852 149.111328 L 90.241211 149.111328 L 90.241211 150.019043 L 84.547852 150.019043 Z " fill="rgb(0, 0, 0)" fill-opacity="1.000000" />
<path d="M 91.547852 149.111328 L 97.241211 149.111328 L 97.241211 150.019043 L 91.547852 150.019043 Z " fill="rgb(0, 0, 0)" fill-opacity="1.000000" />
<path d="M 98.547852 149.111328 L 104.241211 149.111328 L 104.241211 150.019043 L 98.547852 150.019043 Z " fill="rgb(0, 0, 0)" fill-opacity="1.000000" />
<path d="M 108.867188 146.672852 L 108.867188 149.052246 L 111.257324 149.052246 L 111.257324 149.959961 L 108.867188 149.959961 L 108.867188 152.339355 L 107.964844 152.339355 L 107.964844 149.959961 L 105.580078 149.959961 L 105.580078 149.052246 L 107.964844 149.052246 L 107.964844 146.672852 Z " fill="rgb(0, 0, 0)" fill-opacity="1.000000" />
<path d="M 171.867188 146.672852 L 171.867188 149.052246 L 174.257324 149.052246 L 174.257324 149.959961 L 171.867188 149.959961 L 171.867188 152.339355 L 170.964844 152.339355 L 170.964844 149.959961 L 168.580078 149.959961 L 168.580078 149.052246 L 170.964844 149.052246 L 170.964844 146.672852 Z " fill="rgb(0, 0, 0)" fill-opacity="1.000000" />
<path d="M 178.867188 146.672852 L 178.867188 149.052246 L 181.257324 149.052246 L 181.257324 149.959961 L 178.867188 149.959961 L 178.867188 152.339355 L 177.964844 152.339355 L 177.964844 149.959961 L 175.580078 149.959961 L 175.580078 149.052246 L 177.964844 149.052246 L 177.964844 146.672852 Z " fill="rgb(0, 0, 0)" fill-opacity="1.000000" />
<path d="M 185.867188 146.672852 L 185.867188 149.052246 L 188.257324 149.052246 L 188.257324 149.959961 L 185.867188 149.959961 L 185.867188 152.339355 L 184.964844 152.339355 L 184.964844 149.959961 L 182.580078 149.959961 L 182.580078 149.052246 L 184.964844 149.052246 L 184.964844 146.672852 Z " fill="rgb(0, 0, 0)" fill-opacity="1.000000" />
<path d="M 189.547852 149.111328 L 195.241211 149.111328 L 195.241211 150.019043 L 189.547852 150.019043 Z " fill="rgb(0, 0, 0)" fill-opacity="1.000000" />
<path d="M 196.547852 149.111328 L 202.241211 149.111328 L 202.241211 150.019043 L 196.547852 150.019043 Z " fill="rgb(0, 0, 0)" fill-opacity="1.000000" />
<path d="M 203.547852 149.111328 L 209.241211 149.111328 L 209.241211 150.019043 L 203.547852 150.019043 Z " fill="rgb(0, 0, 0)" fill-opacity="1.000000" />
<path d="M 210.547852 149.111328 L 216.241211 149.111328 L 216.241211 150.019043 L 210.547852 150.019043 Z " fill="rgb(0, 0, 0)" fill-opacity="1.000000" />
<path d="M 217.547852 149.111328 L 223.241211 149.111328 L 223.241211 150.019043 L 217.547852 150.019043 Z " fill="rgb(0, 0, 0)" fill-opacity="1.000000" />
<path d="M 224.547852 149.111328 L 230.241211 149.111328 L 230.241211 150.019043 L 224.547852 150.019043 Z " fill="rgb(0, 0, 0)" fill-opacity="1.000000" />
<path d="M 231.547852 149.111328 L 237.241211 149.111328 L 237.241211 150.019043 L 231.547852 150.019043 Z " fill="rgb(0, 0, 0)" fill-opacity="1.000000" />
<path d="M 238.547852 149.111328 L 244.241211 149.111328 L 244.241211 150.019043 L 238.547852 150.019043 Z " fill="rgb(0, 0, 0)" fill-opacity="1.000000" />
<path d="M 245.547852 149.111328 L 251.241211 149.111328 L 251.241211 150.019043 L 245.547852 150.019043 Z " fill="rgb(0, 0, 0)" fill-opacity="1.000000" />
<path d="M 252.547852 149.111328 L 258.241211 149.111328 L 258.241211 150.019043 L 252.547852 150.019043 Z " fill="rgb(0, 0, 0)" fill-opacity="1.000000" />
<path d="M 259.547852 149.111328 L 265.241211 149.111328 L 265.241211 150.019043 L 259.547852 150.019043 Z " fill="rgb(0, 0, 0)" fill-opacity="1.000000" />
<path d="M 269.867188 146.672852 L 269.867188 149.052246 L 272.257324 149.052246 L 272.257324 149.959961 L 269.867188 149.959961 L 269.867188 152.339355 L 268.964844 152.339355 L 268.964844 149.959961 L 266.580078 149.959961 L 266.580078 149.052246 L 268.964844 149.052246 L 268.964844 146.672852 Z " fill="rgb(0, 0, 0)" fill-opacity="1.000000" />
<path d="M 276.867188 146.672852 L 276.867188 149.052246 L 279.257324 149.052246 L 279.257324 149.959961 L 276.867188 149.959961 L 276.867188 152.339355 L 275.964844 152.339355 L 275.964844 149.959961 L 273.580078 149.959961 L 273.580078 149.052246 L 275.964844 149.052246 L 275.964844 146.672852 Z " fill="rgb(0, 0, 0)" fill-opacity="1.000000" />
<path d="M 108.985352 131.594238 L 108.985352 142.594238 L 108.061523 142.594238 L 108.061523 131.594238 Z " fill="rgb(0, 0, 0)" fill-opacity="1.000000" />
<path d="M 164.867188 133.672852 L 164.867188 136.052246 L 167.257324 136.052246 L 167.257324 136.959961 L 164.867188 136.959961 L 164.867188 139.339355 L 163.964844 139.339355 L 163.964844 136.959961 L 161.580078 136.959961 L 161.580078 136.052246 L 163.964844 136.052246 L 163.964844 133.672852 Z " fill="rgb(0, 0, 0)" fill-opacity="1.000000" />
<path d="M 171.867188 133.672852 L 171.867188 136.052246 L 174.257324 136.052246 L 174.257324 136.959961 L 171.867188 136.959961 L 171.867188 139.339355 L 170.964844 139.339355 L 170.964844 136.959961 L 168.580078 136.959961 L 168.580078 136.052246 L 170.964844 136.052246 L 170.964844 133.672852 Z " fill="rgb(0, 0, 0)" fill-opacity="1.000000" />
<path d="M 178.867188 133.672852 L 178.867188 136.052246 L 181.257324 136.052246 L 181.257324 136.959961 L 178.867188 136.959961 L 178.867188 139.339355 L 177.964844 139.339355 L 177.964844 136.959961 L 175.580078 136.959961 L 175.580078 136.052246 L 177.964844 136.052246 L 177.964844 133.672852 Z " fill="rgb(0, 0, 0)" fill-opacity="1.000000" />
<path d="M 182.547852 136.111328 L 188.241211 136.111328 L 188.241211 137.019043 L 182.547852 137.019043 Z " fill="rgb(0, 0, 0)" fill-opacity="1.000000" />
<path d="M 189.547852 136.111328 L 195.241211 136.111328 L 195.241211 137.019043 L 189.547852 137.019043 Z " fill="rgb(0, 0, 0)" fill-opacity="1.000000" />
<path d="M 196.547852 136.111328 L 202.241211 136.111328 L 202.241211 137.019043 L 196.547852 137.019043 Z " fill="rgb(0, 0, 0)" fill-opacity="1.000000" />
<path d="M 203.547852 136.111328 L 209.241211 136.111328 L 209.241211 137.019043 L 203.547852 137.019043 Z " fill="rgb(0, 0, 0)" fill-opacity="1.000000" />
<path d="M 210.547852 136.111328 L 216.241211 136.111328 L 216.241211 137.019043 L 210.547852 137.019043 Z " fill="rgb(0, 0, 0)" fill-opacity="1.000000" />
<path d="M 217.547852 136.111328 L 223.241211 136.111328 L 223.241211 137.019043 L 217.547852 137.019043 Z " fill="rgb(0, 0, 0)" fill-opacity="1.000000" />
<path d="M 224.547852 136.111328 L 230.241211 136.111328 L 230.241211 137.019043 L 224.547852 137.019043 Z " fill="rgb(0, 0, 0)" fill-opacity="1.000000" />
<path d="M 231.547852 136.111328 L 237.241211 136.111328 L 237.241211 137.019043 L 231.547852 137.019043 Z " fill="rgb(0, 0, 0)" fill-opacity="1.000000" />
<path d="M 238.547852 136.111328 L 244.241211 136.111328 L 244.241211 137.019043 L 238.547852 137.019043 Z " fill="rgb(0, 0, 0)" fill-opacity="1.000000" />
<path d="M 245.547852 136.111328 L 251.241211 136.111328 L 251.241211 137.019043 L 245.547852 137.019043 Z " fill="rgb(0, 0, 0)" fill-opacity="1.000000" />
<path d="M 252.547852 136.111328 L 258.241211 136.111328 L 258.241211 137.019043 L 252.547852 137.019043 Z " fill="rgb(0, 0, 0)" fill-opacity="1.000000" />
<path d="M 262.867188 133.672852 L 262.867188 136.052246 L 265.257324 136.052246 L 265.257324 136.959961 L 262.867188 136.959961 L 262.867188 139.339355 L 261.964844 139.339355 L 261.964844 136.959961 L 259.580078 136.959961 L 259.580078 136.052246 L 261.964844 136.052246 L 261.964844 133.672852 Z " fill="rgb(0, 0, 0)" fill-opacity="1.000000" />
<path d="M 269.867188 133.672852 L 269.867188 136.052246 L 272.257324 136.052246 L 272.257324 136.959961 L 269.867188 136.959961 L 269.867188 139.339355 L 268.964844 139.339355 L 268.964844 136.959961 L 266.580078 136.959961 L 266.580078 136.052246 L 268.964844 136.052246 L 268.964844 133.672852 Z " fill="rgb(0, 0, 0)" fill-opacity="1.000000" />
<path d="M 24.985352 118.594238 L 24.985352 129.594238 L 24.061523 129.594238 L 24.061523 118.594238 Z " fill="rgb(0, 0, 0)" fill-opacity="1.000000" />
<path d="M 108.985352 118.594238 L 108.985352 129.594238 L 108.061523 129.594238 L 108.061523 118.594238 Z " fill="rgb(0, 0, 0)" fill-opacity="1.000000" />
<path d="M 164.985352 118.594238 L 164.985352 129.594238 L 164.061523 129.594238 L 164.061523 118.594238 Z " fill="rgb(0, 0, 0)" fill-opacity="1.000000" />
<path d="M 171.867188 120.672852 L 171.867188 123.052246 L 174.257324 123.052246 L 174.257324 123.959961 L 171.867188 123.959961 L 171.867188 126.339355 L 170.964844 126.339355 L 170.964844 123.959961 L 168.580078 123.959961 L 168.580078 123.052246 L 170.964844 123.052246 L 170.964844 120.672852 Z " fill="rgb(0, 0, 0)" fill-opacity="1.000000" />
<path d="M 175.547852 123.111328 L 181.241211 123.111328 L 181.241211 124.019043 L 175.547852 124.019043 Z " fill="rgb(0, 0, 0)" fill-opacity="1.000000" />
<path d="M 182.547852 123.111328 L 188.241211 123.111328 L 188.241211 124.019043 L 182.547852 124.019043 Z " fill="rgb(0, 0, 0)" fill-opacity="1.000000" />
<path d="M 189.547852 123.111328 L 195.241211 123.111328 L 195.241211 124.019043 L 189.547852 124.019043 Z " fill="rgb(0, 0, 0)" fill-opacity="1.000000" />
<path d="M 196.547852 123.111328 L 202.241211 123.111328 L 202.241211 124.019043 L 196.547852 124.019043 Z " fill="rgb(0, 0, 0)" fill-opacity="1.000000" />
<path d="M 203.547852 123.111328 L 209.241211 123.111328 L 209.241211 124.019043 L 203.547852 124.019043 Z " fill="rgb(0, 0, 0)" fill-opacity="1.000000" />
<path d="M 210.547852 123.111328 L 216.241211 123.111328 L 216.241211 124.019043 L 210.547852 124.019043 Z " fill="rgb(0, 0, 0)" fill-opacity="1.000000" />
<path d="M 217.547852 123.111328 L 223.241211 123.111328 L 223.241211 124.019043 L 217.547852 124.019043 Z " fill="rgb(0, 0, 0)" fill-opacity="1.000000" />
<path d="M 224.547852 123.111328 L 230.241211 123.111328 L 230.241211 124.019043 L 224.547852 124.019043 Z " fill="rgb(0, 0, 0)" fill-opacity="1.000000" />
<path d="M 231.547852 123.111328 L 237.241211 123.111328 L 237.241211 124.019043 L 231.547852 124.019043 Z " fill="rgb(0, 0, 0)" fill-opacity="1.000000" />
<path d="M 238.547852 123.111328 L 244.241211 123.111328 L 244.241211 124.019043 L 238.547852 124.019043 Z " fill="rgb(0, 0, 0)" fill-opacity="1.000000" />
<path d="M 245.547852 123.111328 L 251.241211 123.111328 L 251.241211 124.019043 L 245.547852 124.019043 Z " fill="rgb(0, 0, 0)" fill-opacity="1.000000" />
<path d="M 255.867188 120.672852 L 255.867188 123.052246 L 258.257324 123.052246 L 258.257324 123.959961 L 255.867188 123.959961 L 255.867188 126.339355 L 254.964844 126.339355 L 254.964844 123.959961 L 252.580078 123.959961 L 252.580078 123.052246 L 254.964844 123.052246 L 254.964844 120.672852 Z " fill="rgb(0, 0, 0)" fill-opacity="1.000000" />
<path d="M 262.867188 120.672852 L 262.867188 123.052246 L 265.257324 123.052246 L 265.257324 123.959961 L 262.867188 123.959961 L 262.867188 126.339355 L 261.964844 126.339355 L 261.964844 123.959961 L 259.580078 123.959961 L 259.580078 123.052246 L 261.964844 123.052246 L 261.964844 120.672852 Z " fill="rgb(0, 0, 0)" fill-opacity="1.000000" />
<path d="M 335.332520 122.321777 L 332.947754 123.610840 L 335.332520 124.905273 L 334.956543 125.560547 L 332.711426 124.212402 L 332.711426 126.715332 L 331.943359 126.715332 L 331.943359 124.212402 L 329.698242 125.560547 L 329.322266 124.905273 L 331.712402 123.610840 L 329.322266 122.321777 L 329.698242 121.661133 L 331.943359 123.009277 L 331.943359 120.506348 L 332.711426 120.506348 L 332.711426 123.009277 L 334.956543 121.661133 Z " fill="rgb(0, 0, 0)" fill-opacity="1.000000" />
<path d="M 363.332520 122.321777 L 360.947754 123.610840 L 363.332520 124.905273 L 362.956543 125.560547 L 360.711426 124.212402 L 360.711426 126.715332 L 359.943359 126.715332 L 359.943359 124.212402 L 357.698242 125.560547 L 357.322266 124.905273 L 359.712402 123.610840 L 357.322266 122.321777 L 357.698242 121.661133 L 359.943359 123.009277 L 359.943359 120.506348 L 360.711426 120.506348 L 360.711426 123.009277 L 362.956543 121.661133 Z " fill="rgb(0, 0, 0)" fill-opacity="1.000000" />
<path d="M 391.332520 122.321777 L 388.947754 123.610840 L 391.332520 124.905273 L 390.956543 125.560547 L 388.711426 124.212402 L 388.711426 126.715332 L 387.943359 126.715332 L 387.943359 124.212402 L 385.698242 125.560547 L 385.322266 124.905273 L 387.712402 123.610840 L 385.322266 122.321777 L 385.698242 121.661133 L 387.943359 123.009277 L 387.943359 120.506348 L 388.711426 120.506348 L 388.711426 123.009277 L 390.956543 121.661133 Z " fill="rgb(0, 0, 0)" fill-opacity="1.000000" />
<path d="M 392.547852 123.111328 L 398.241211 123.111328 L 398.241211 124.019043 L 392.547852 124.019043 Z " fill="rgb(0, 0, 0)" fill-opacity="1.000000" />
<path d="M 399.547852 123.111328 L 405.241211 123.111328 L 405.241211 124.019043 L 399.547852 124.019043 Z " fill="rgb(0, 0, 0)" fill-opacity="1.000000" />
<path d="M 406.547852 123.111328 L 412.241211 123.111328 L 412.241211 124.019043 L 406.547852 124.019043 Z " fill="rgb(0, 0, 0)" fill-opacity="1.000000" />
<path d="M 419.332520 122.321777 L 416.947754 123.610840 L 419.332520 124.905273 L 418.956543 125.560547 L 416.711426 124.212402 L 416.711426 126.715332 L 415.943359 126.715332 L 415.943359 124.212402 L 413.698242 125.560547 L 413.322266 124.905273 L 415.712402 123.610840 L 413.322266 122.321777 L 413.698242 121.661133 L 415.943359 123.009277 L 415.943359 120.506348 L 416.711426 120.506348 L 416.711426 123.009277 L 418.956543 121.661133 Z " fill="rgb(0, 0, 0)" fill-opacity="1.000000" />
<path d="M 17.985352 105.594238 L 17.985352 116.594238 L 17.061523 116.594238 L 17.061523 105.594238 Z " fill="rgb(0, 0, 0)" fill-opacity="1.000000" />
<path d="M 24.985352 105.594238 L 24.985352 116.594238 L 24.061523 116.594238 L 24.061523 105.594238 Z " fill="rgb(0, 0, 0)" fill-opacity="1.000000" />
<path d="M 108.985352 105.594238 L 108.985352 116.594238 L 108.061523 116.594238 L 108.061523 105.594238 Z " fill="rgb(0, 0, 0)" fill-opacity="1.000000" />
<path d="M 164.867188 107.672852 L 164.867188 110.052246 L 167.257324 110.052246 L 167.257324 110.959961 L 164.867188 110.959961 L 164.867188 113.339355 L 163.964844 113.339355 L 163.964844 110.959961 L 161.580078 110.959961 L 161.580078 110.052246 L 163.964844 110.052246 L 163.964844 107.672852 Z " fill="rgb(0, 0, 0)" fill-opacity="1.000000" />
<path d="M 168.547852 110.111328 L 174.241211 110.111328 L 174.241211 111.019043 L 168.547852 111.019043 Z " fill="rgb(0, 0, 0)" fill-opacity="1.000000" />
<path d="M 175.547852 110.111328 L 181.241211 110.111328 L 181.241211 111.019043 L 175.547852 111.019043 Z " fill="rgb(0, 0, 0)" fill-opacity="1.000000" />
<path d="M 182.547852 110.111328 L 188.241211 110.111328 L 188.241211 111.019043 L 182.547852 111.019043 Z " fill="rgb(0, 0, 0)" fill-opacity="1.000000" />
<path d="M 189.547852 110.111328 L 195.241211 110.111328 L 195.241211 111.019043 L 189.547852 111.019043 Z " fill="rgb(0, 0, 0)" fill-opacity="1.000000" />
<path d="M 196.547852 110.111328 L 202.241211 110.111328 L 202.241211 111.019043 L 196.547852 111.019043 Z " fill="rgb(0, 0, 0)" fill-opacity="1.000000" />
<path d="M 203.547852 110.111328 L 209.241211 110.111328 L 209.241211 111.019043 L 203.547852 111.019043 Z " fill="rgb(0, 0, 0)" fill-opacity="1.000000" />
<path d="M 210.547852 110.111328 L 216.241211 110.111328 L 216.241211 111.019043 L 210.547852 111.019043 Z " fill="rgb(0, 0, 0)" fill-opacity="1.000000" />
<path d="M 217.547852 110.111328 L 223.241211 110.111328 L 223.241211 111.019043 L 217.547852 111.019043 Z " fill="rgb(0, 0, 0)" fill-opacity="1.000000" />
<path d="M 224.547852 110.111328 L 230.241211 110.111328 L 230.241211 111.019043 L 224.547852 111.019043 Z " fill="rgb(0, 0, 0)" fill-opacity="1.000000" />
<path d="M 231.547852 110.111328 L 237.241211 110.111328 L 237.241211 111.019043 L 231.547852 111.019043 Z " fill="rgb(0, 0, 0)" fill-opacity="1.000000" />
<path d="M 238.547852 110.111328 L 244.241211 110.111328 L 244.241211 111.019043 L 238.547852 111.019043 Z " fill="rgb(0, 0, 0)" fill-opacity="1.000000" />
<path d="M 245.547852 110.111328 L 251.241211 110.111328 L 251.241211 111.019043 L 245.547852 111.019043 Z " fill="rgb(0, 0, 0)" fill-opacity="1.000000" />
<path d="M 255.867188 107.672852 L 255.867188 110.052246 L 258.257324 110.052246 L 258.257324 110.959961 L 255.867188 110.959961 L 255.867188 113.339355 L 254.964844 113.339355 L 254.964844 110.959961 L 252.580078 110.959961 L 252.580078 110.052246 L 254.964844 110.052246 L 254.964844 107.672852 Z " fill="rgb(0, 0, 0)" fill-opacity="1.000000" />
<path d="M 332.985352 105.594238 L 332.985352 116.594238 L 332.061523 116.594238 L 332.061523 105.594238 Z " fill="rgb(0, 0, 0)" fill-opacity="1.000000" />
<path d="M 360.985352 105.594238 L 360.985352 116.594238 L 360.061523 116.594238 L 360.061523 105.594238 Z " fill="rgb(0, 0, 0)" fill-opacity="1.000000" />
<path d="M 388.985352 105.594238 L 388.985352 116.594238 L 388.061523 116.594238 L 388.061523 105.594238 Z " fill="rgb(0, 0, 0)" fill-opacity="1.000000" />
<path d="M 10.867188 16.672852 L 10.867188 19.052246 L 13.257324 19.052246 L 13.257324 19.959961 L 10.867188 19.959961 L 10.867188 22.339355 L 9.964844 22.339355 L 9.964844 19.959961 L 7.580078 19.959961 L 7.580078 19.052246 L 9.964844 19.052246 L 9.964844 16.672852 Z " fill="rgb(0, 0, 0)" fill-opacity="1.000000" />
<path d="M 10.985352 27.594238 L 10.985352 38.594238 L 10.061523 38.594238 L 10.061523 27.594238 Z " fill="rgb(0, 0, 0)" fill-opacity="1.000000" />
<path d="M 10.985352 40.594238 L 10.985352 51.594238 L 10.061523 51.594238 L 10.061523 40.594238 Z " fill="rgb(0, 0, 0)" fill-opacity="1.000000" />
<path d="M 10.985352 53.594238 L 10.985352 64.594238 L 10.061523 64.594238 L 10.061523 53.594238 Z " fill="rgb(0, 0, 0)" fill-opacity="1.000000" />
<path d="M 10.985352 66.594238 L 10.985352 77.594238 L 10.061523 77.594238 L 10.061523 66.594238 Z " fill="rgb(0, 0, 0)" fill-opacity="1.000000" />
<path d="M 10.985352 79.594238 L 10.985352 90.594238 L 10.061523 90.594238 L 10.061523 79.594238 Z " fill="rgb(0, 0, 0)" fill-opacity="1.000000" />
<path d="M 10.985352 92.594238 L 10.985352 103.594238 L 10.061523 103.594238 L 10.061523 92.594238 Z " fill="rgb(0, 0, 0)" fill-opacity="1.000000" />
<path d="M 17.867188 29.672852 L 17.867188 32.052246 L 20.257324 32.052246 L 20.257324 32.959961 L 17.867188 32.959961 L 17.867188 35.339355 L 16.964844 35.339355 L 16.964844 32.959961 L 14.580078 32.959961 L 14.580078 32.052246 L 16.964844 32.052246 L 16.964844 29.672852 Z " fill="rgb(0, 0, 0)" fill-opacity="1.000000" />
<path d="M 17.985352 40.594238 L 17.985352 51.594238 L 17.061523 51.594238 L 17.061523 40.594238 Z " fill="rgb(0, 0, 0)" fill-opacity="1.000000" />
<path d="M 17.985352 53.594238 L 17.985352 64.594238 L 17.061523 64.594238 L 17.061523 53.594238 Z " fill="rgb(0, 0, 0)" fill-opacity="1.000000" />
<path d="M 17.985352 66.594238 L 17.985352 77.594238 L 17.061523 77.594238 L 17.061523 66.594238 Z " fill="rgb(0, 0, 0)" fill-opacity="1.000000" />
<path d="M 17.985352 79.594238 L 17.985352 90.594238 L 17.061523 90.594238 L 17.061523 79.594238 Z " fill="rgb(0, 0, 0)" fill-opacity="1.000000" />
<path d="M 17.985352 92.594238 L 17.985352 103.594238 L 17.061523 103.594238 L 17.061523 92.594238 Z " fill="rgb(0, 0, 0)" fill-opacity="1.000000" />
<path d="M 24.867188 42.672852 L 24.867188 45.052246 L 27.257324 45.052246 L 27.257324 45.959961 L 24.867188 45.959961 L 24.867188 48.339355 L 23.964844 48.339355 L 23.964844 45.959961 L 21.580078 45.959961 L 21.580078 45.052246 L 23.964844 45.052246 L 23.964844 42.672852 Z " fill="rgb(0, 0, 0)" fill-opacity="1.000000" />
<path d="M 24.985352 53.594238 L 24.985352 64.594238 L 24.061523 64.594238 L 24.061523 53.594238 Z " fill="rgb(0, 0, 0)" fill-opacity="1.000000" />
<path d="M 24.985352 66.594238 L 24.985352 77.594238 L 24.061523 77.594238 L 24.061523 66.594238 Z " fill="rgb(0, 0, 0)" fill-opacity="1.000000" />
<path d="M 24.985352 79.594238 L 24.985352 90.594238 L 24.061523 90.594238 L 24.061523 79.594238 Z " fill="rgb(0, 0, 0)" fill-opacity="1.000000" />
<path d="M 24.985352 92.594238 L 24.985352 103.594238 L 24.061523 103.594238 L 24.061523 92.594238 Z " fill="rgb(0, 0, 0)" fill-opacity="1.000000" />
<path d="M 37.341797 100.108398 Q 38.711426 100.108398 39.253906 99.434326 Q 39.796387 98.760254 39.796387 96.998535 Q 39.796387 95.220703 39.256592 94.546631 Q 38.716797 93.872559 37.341797 93.872559 L 36.826172 93.872559 L 36.826172 100.108398 Z M 37.363281 92.980957 Q 39.200195 92.980957 40.070312 93.958496 Q 40.940430 94.936035 40.940430 96.998535 Q 40.940430 99.050293 40.070312 100.025146 Q 39.200195 101.000000 37.363281 101.000000 L 35.735840 101.000000 L 35.735840 92.980957 Z " fill="rgb(0, 0, 0)" fill-opacity="1.000000" />
<path d="M 45.308594 95.677246 Q 44.556641 95.677246 44.169922 96.262695 Q 43.783203 96.848145 43.783203 97.997559 Q 43.783203 99.141602 44.169922 99.729736 Q 44.556641 100.317871 45.308594 100.317871 Q 46.065918 100.317871 46.452637 99.729736 Q 46.839355 99.141602 46.839355 97.997559 Q 46.839355 96.848145 46.452637 96.262695 Q 46.065918 95.677246 45.308594 95.677246 Z M 45.308594 94.839355 Q 46.560059 94.839355 47.223389 95.650391 Q 47.886719 96.461426 47.886719 97.997559 Q 47.886719 99.539062 47.226074 100.347412 Q 46.565430 101.155762 45.308594 101.155762 Q 44.057129 101.155762 43.396484 100.347412 Q 42.735840 99.539062 42.735840 97.997559 Q 42.735840 96.461426 43.396484 95.650391 Q 44.057129 94.839355 45.308594 94.839355 Z " fill="rgb(0, 0, 0)" fill-opacity="1.000000" />
<path d="M 54.698730 100.693848 Q 54.301270 100.924805 53.879639 101.040283 Q 53.458008 101.155762 53.017578 101.155762 Q 51.621094 101.155762 50.834229 100.317871 Q 50.047363 99.479980 50.047363 97.997559 Q 50.047363 96.515137 50.834229 95.677246 Q 51.621094 94.839355 53.017578 94.839355 Q 53.452637 94.839355 53.866211 94.952148 Q 54.279785 95.064941 54.698730 95.301270 L 54.698730 96.337891 Q 54.306641 95.988770 53.911865 95.833008 Q 53.517090 95.677246 53.017578 95.677246 Q 52.088379 95.677246 51.588867 96.278809 Q 51.089355 96.880371 51.089355 97.997559 Q 51.089355 99.109375 51.591553 99.713623 Q 52.093750 100.317871 53.017578 100.317871 Q 53.533203 100.317871 53.941406 100.159424 Q 54.349609 100.000977 54.698730 99.667969 Z " fill="rgb(0, 0, 0)" fill-opacity="1.000000" />
<path d="M 57.047363 98.722656 L 57.047363 94.995117 L 58.035645 94.995117 L 58.035645 98.722656 Q 58.035645 99.533691 58.322998 99.915039 Q 58.610352 100.296387 59.211914 100.296387 Q 59.910156 100.296387 60.280762 99.804932 Q 60.651367 99.313477 60.651367 98.395020 L 60.651367 94.995117 L 61.645020 94.995117 L 61.645020 101.000000 L 60.651367 101.000000 L 60.651367 100.097656 Q 60.388184 100.618652 59.934326 100.887207 Q 59.480469 101.155762 58.873535 101.155762 Q 57.949707 101.155762 57.498535 100.551514 Q 57.047363 99.947266 57.047363 98.722656 Z " fill="rgb(0, 0, 0)" fill-opacity="1.000000" />
<path d="M 66.630859 95.596680 Q 66.813477 95.209961 67.095459 95.024658 Q 67.377441 94.839355 67.774902 94.839355 Q 68.500000 94.839355 68.798096 95.400635 Q 69.096191 95.961914 69.096191 97.514160 L 69.096191 101.000000 L 68.193848 101.000000 L 68.193848 97.557129 Q 68.193848 96.284180 68.051514 95.975342 Q 67.909180 95.666504 67.533203 95.666504 Q 67.103516 95.666504 66.945068 95.996826 Q 66.786621 96.327148 66.786621 97.557129 L 66.786621 101.000000 L 65.884277 101.000000 L 65.884277 97.557129 Q 65.884277 96.268066 65.731201 95.967285 Q 65.578125 95.666504 65.180664 95.666504 Q 64.788574 95.666504 64.635498 95.996826 Q 64.482422 96.327148 64.482422 97.557129 L 64.482422 101.000000 L 63.585449 101.000000 L 63.585449 94.984375 L 64.482422 94.984375 L 64.482422 95.500000 Q 64.659668 95.177734 64.925537 95.008545 Q 65.191406 94.839355 65.529785 94.839355 Q 65.937988 94.839355 66.209229 95.027344 Q 66.480469 95.215332 66.630859 95.596680 Z " fill="rgb(0, 0, 0)" fill-opacity="1.000000" />
<path d="M 76.015625 97.498047 L 76.015625 97.981445 L 71.734863 97.981445 L 71.734863 98.013672 Q 71.691895 99.243652 72.204834 99.780762 Q 72.717773 100.317871 73.652344 100.317871 Q 74.125000 100.317871 74.640625 100.167480 Q 75.156250 100.017090 75.741699 99.710938 L 75.741699 100.693848 Q 75.177734 100.924805 74.654053 101.040283 Q 74.130371 101.155762 73.641602 101.155762 Q 72.239746 101.155762 71.450195 100.315186 Q 70.660645 99.474609 70.660645 97.997559 Q 70.660645 96.558105 71.434082 95.698730 Q 72.207520 94.839355 73.496582 94.839355 Q 74.645996 94.839355 75.309326 95.618164 Q 75.972656 96.396973 76.015625 97.498047 Z M 75.027344 97.208008 Q 74.962891 96.584961 74.573486 96.131104 Q 74.184082 95.677246 73.453613 95.677246 Q 72.739258 95.677246 72.277344 96.149902 Q 71.815430 96.622559 71.772461 97.213379 Z " fill="rgb(0, 0, 0)" fill-opacity="1.000000" />
<path d="M 82.645020 97.272461 L 82.645020 101.000000 L 81.651367 101.000000 L 81.651367 97.272461 Q 81.651367 96.461426 81.366699 96.080078 Q 81.082031 95.698730 80.475098 95.698730 Q 79.782227 95.698730 79.408936 96.190186 Q 79.035645 96.681641 79.035645 97.600098 L 79.035645 101.000000 L 78.047363 101.000000 L 78.047363 94.984375 L 79.035645 94.984375 L 79.035645 95.886719 Q 79.298828 95.371094 79.750000 95.105225 Q 80.201172 94.839355 80.818848 94.839355 Q 81.737305 94.839355 82.191162 95.443604 Q 82.645020 96.047852 82.645020 97.272461 Z " fill="rgb(0, 0, 0)" fill-opacity="1.000000" />
<path d="M 87.297852 93.276367 L 87.297852 94.984375 L 89.542969 94.984375 L 89.542969 95.752441 L 87.297852 95.752441 L 87.297852 99.018066 Q 87.297852 99.684082 87.550293 99.947266 Q 87.802734 100.210449 88.431152 100.210449 L 89.542969 100.210449 L 89.542969 101.000000 L 88.334473 101.000000 Q 87.222656 101.000000 86.766113 100.554199 Q 86.309570 100.108398 86.309570 99.018066 L 86.309570 95.752441 L 84.703613 95.752441 L 84.703613 94.984375 L 86.309570 94.984375 L 86.309570 93.276367 Z " fill="rgb(0, 0, 0)" fill-opacity="1.000000" />
<path d="M 96.226074 95.193848 L 96.226074 96.160645 Q 95.801758 95.913574 95.372070 95.790039 Q 94.942383 95.666504 94.496582 95.666504 Q 93.825195 95.666504 93.494873 95.884033 Q 93.164551 96.101562 93.164551 96.547363 Q 93.164551 96.950195 93.411621 97.148926 Q 93.658691 97.347656 94.641602 97.535645 L 95.039062 97.610840 Q 95.774902 97.750488 96.153564 98.169434 Q 96.532227 98.588379 96.532227 99.259766 Q 96.532227 100.151367 95.898438 100.653564 Q 95.264648 101.155762 94.136719 101.155762 Q 93.690918 101.155762 93.202148 101.061768 Q 92.713379 100.967773 92.144043 100.779785 L 92.144043 99.759277 Q 92.697266 100.043945 93.202148 100.186279 Q 93.707031 100.328613 94.158203 100.328613 Q 94.813477 100.328613 95.173340 100.062744 Q 95.533203 99.796875 95.533203 99.318848 Q 95.533203 98.631348 94.217285 98.368164 L 94.174316 98.357422 L 93.803711 98.282227 Q 92.949707 98.115723 92.557617 97.720947 Q 92.165527 97.326172 92.165527 96.644043 Q 92.165527 95.779297 92.750977 95.309326 Q 93.336426 94.839355 94.421387 94.839355 Q 94.904785 94.839355 95.350586 94.927979 Q 95.796387 95.016602 96.226074 95.193848 Z " fill="rgb(0, 0, 0)" fill-opacity="1.000000" />
<path d="M 108.985352 92.594238 L 108.985352 103.594238 L 108.061523 103.594238 L 108.061523 92.594238 Z " fill="rgb(0, 0, 0)" fill-opacity="1.000000" />
<path d="M 213.985352 92.594238 L 213.985352 103.594238 L 213.061523 103.594238 L 213.061523 92.594238 Z " fill="rgb(0, 0, 0)" fill-opacity="1.000000" />
<path d="M 307.332520 96.321777 L 304.947754 97.610840 L 307.332520 98.905273 L 306.956543 99.560547 L 304.711426 98.212402 L 304.711426 100.715332 L 303.943359 100.715332 L 303.943359 98.212402 L 301.698242 99.560547 L 301.322266 98.905273 L 303.712402 97.610840 L 301.322266 96.321777 L 301.698242 95.661133 L 303.943359 97.009277 L 303.943359 94.506348 L 304.711426 94.506348 L 304.711426 97.009277 L 306.956543 95.661133 Z " fill="rgb(0, 0, 0)" fill-opacity="1.000000" />
<path d="M 308.547852 97.111328 L 314.241211 97.111328 L 314.241211 98.019043 L 308.547852 98.019043 Z " fill="rgb(0, 0, 0)" fill-opacity="1.000000" />
<path d="M 315.547852 97.111328 L 321.241211 97.111328 L 321.241211 98.019043 L 315.547852 98.019043 Z " fill="rgb(0, 0, 0)" fill-opacity="1.000000" />
<path d="M 322.547852 97.111328 L 328.241211 97.111328 L 328.241211 98.019043 L 322.547852 98.019043 Z " fill="rgb(0, 0, 0)" fill-opacity="1.000000" />
<path d="M 335.332520 96.321777 L 332.947754 97.610840 L 335.332520 98.905273 L 334.956543 99.560547 L 332.711426 98.212402 L 332.711426 100.715332 L 331.943359 100.715332 L 331.943359 98.212402 L 329.698242 99.560547 L 329.322266 98.905273 L 331.712402 97.610840 L 329.322266 96.321777 L 329.698242 95.661133 L 331.943359 97.009277 L 331.943359 94.506348 L 332.711426 94.506348 L 332.711426 97.009277 L 334.956543 95.661133 Z " fill="rgb(0, 0, 0)" fill-opacity="1.000000" />
<path d="M 363.332520 96.321777 L 360.947754 97.610840 L 363.332520 98.905273 L 362.956543 99.560547 L 360.711426 98.212402 L 360.711426 100.715332 L 359.943359 100.715332 L 359.943359 98.212402 L 357.698242 99.560547 L 357.322266 98.905273 L 359.712402 97.610840 L 357.322266 96.321777 L 357.698242 95.661133 L 359.943359 97.009277 L 359.943359 94.506348 L 360.711426 94.506348 L 360.711426 97.009277 L 362.956543 95.661133 Z " fill="rgb(0, 0, 0)" fill-opacity="1.000000" />
<path d="M 391.332520 96.321777 L 388.947754 97.610840 L 391.332520 98.905273 L 390.956543 99.560547 L 388.711426 98.212402 L 388.711426 100.715332 L 387.943359 100.715332 L 387.943359 98.212402 L 385.698242 99.560547 L 385.322266 98.905273 L 387.712402 97.610840 L 385.322266 96.321777 L 385.698242 95.661133 L 387.943359 97.009277 L 387.943359 94.506348 L 388.711426 94.506348 L 388.711426 97.009277 L 390.956543 95.661133 Z " fill="rgb(0, 0, 0)" fill-opacity="1.000000" />
<path d="M 392.547852 97.111328 L 398.241211 97.111328 L 398.241211 98.019043 L 392.547852 98.019043 Z " fill="rgb(0, 0, 0)" fill-opacity="1.000000" />
<path d="M 399.547852 97.111328 L 405.241211 97.111328 L 405.241211 98.019043 L 399.547852 98.019043 Z " fill="rgb(0, 0, 0)" fill-opacity="1.000000" />
<path d="M 406.547852 97.111328 L 412.241211 97.111328 L 412.241211 98.019043 L 406.547852 98.019043 Z " fill="rgb(0, 0, 0)" fill-opacity="1.000000" />
<path d="M 419.332520 96.321777 L 416.947754 97.610840 L 419.332520 98.905273 L 418.956543 99.560547 L 416.711426 98.212402 L 416.711426 100.715332 L 415.943359 100.715332 L 415.943359 98.212402 L 413.698242 99.560547 L 413.322266 98.905273 L 415.712402 97.610840 L 413.322266 96.321777 L 413.698242 95.661133 L 415.943359 97.009277 L 415.943359 94.506348 L 416.711426 94.506348 L 416.711426 97.009277 L 418.956543 95.661133 Z " fill="rgb(0, 0, 0)" fill-opacity="1.000000" />
<path d="M 108.985352 53.594238 L 108.985352 64.594238 L 108.061523 64.594238 L 108.061523 53.594238 Z " fill="rgb(0, 0, 0)" fill-opacity="1.000000" />
<path d="M 108.985352 66.594238 L 108.985352 77.594238 L 108.061523 77.594238 L 108.061523 66.594238 Z " fill="rgb(0, 0, 0)" fill-opacity="1.000000" />
<path d="M 108.985352 79.594238 L 108.985352 90.594238 L 108.061523 90.594238 L 108.061523 79.594238 Z " fill="rgb(0, 0, 0)" fill-opacity="1.000000" />
<path d="M 171.867188 55.672852 L 171.867188 58.052246 L 174.257324 58.052246 L 174.257324 58.959961 L 171.867188 58.959961 L 171.867188 61.339355 L 170.964844 61.339355 L 170.964844 58.959961 L 168.580078 58.959961 L 168.580078 58.052246 L 170.964844 58.052246 L 170.964844 55.672852 Z " fill="rgb(0, 0, 0)" fill-opacity="1.000000" />
<path d="M 213.786621 67.007812 L 216.423828 70.208984 L 215.279785 70.203613 L 213.308594 68.092773 L 211.342773 70.203613 L 210.193359 70.208984 L 212.835938 67.007812 Z " fill="rgb(0, 0, 0)" fill-opacity="1.000000" />
<path d="M 213.985352 79.594238 L 213.985352 90.594238 L 213.061523 90.594238 L 213.061523 79.594238 Z " fill="rgb(0, 0, 0)" fill-opacity="1.000000" />
<path d="M 332.985352 79.594238 L 332.985352 90.594238 L 332.061523 90.594238 L 332.061523 79.594238 Z " fill="rgb(0, 0, 0)" fill-opacity="1.000000" />
<path d="M 360.985352 79.594238 L 360.985352 90.594238 L 360.061523 90.594238 L 360.061523 79.594238 Z " fill="rgb(0, 0, 0)" fill-opacity="1.000000" />
<path d="M 388.985352 79.594238 L 388.985352 90.594238 L 388.061523 90.594238 L 388.061523 79.594238 Z " fill="rgb(0, 0, 0)" fill-opacity="1.000000" />
<path d="M 335.332520 70.321777 L 332.947754 71.610840 L 335.332520 72.905273 L 334.956543 73.560547 L 332.711426 72.212402 L 332.711426 74.715332 L 331.943359 74.715332 L 331.943359 72.212402 L 329.698242 73.560547 L 329.322266 72.905273 L 331.712402 71.610840 L 329.322266 70.321777 L 329.698242 69.661133 L 331.943359 71.009277 L 331.943359 68.506348 L 332.711426 68.506348 L 332.711426 71.009277 L 334.956543 69.661133 Z " fill="rgb(0, 0, 0)" fill-opacity="1.000000" />
<path d="M 336.547852 71.111328 L 342.241211 71.111328 L 342.241211 72.019043 L 336.547852 72.019043 Z " fill="rgb(0, 0, 0)" fill-opacity="1.000000" />
<path d="M 343.547852 71.111328 L 349.241211 71.111328 L 349.241211 72.019043 L 343.547852 72.019043 Z " fill="rgb(0, 0, 0)" fill-opacity="1.000000" />
<path d="M 350.547852 71.111328 L 356.241211 71.111328 L 356.241211 72.019043 L 350.547852 72.019043 Z " fill="rgb(0, 0, 0)" fill-opacity="1.000000" />
<path d="M 363.332520 70.321777 L 360.947754 71.610840 L 363.332520 72.905273 L 362.956543 73.560547 L 360.711426 72.212402 L 360.711426 74.715332 L 359.943359 74.715332 L 359.943359 72.212402 L 357.698242 73.560547 L 357.322266 72.905273 L 359.712402 71.610840 L 357.322266 70.321777 L 357.698242 69.661133 L 359.943359 71.009277 L 359.943359 68.506348 L 360.711426 68.506348 L 360.711426 71.009277 L 362.956543 69.661133 Z " fill="rgb(0, 0, 0)" fill-opacity="1.000000" />
<path d="M 364.547852 71.111328 L 370.241211 71.111328 L 370.241211 72.019043 L 364.547852 72.019043 Z " fill="rgb(0, 0, 0)" fill-opacity="1.000000" />
<path d="M 371.547852 71.111328 L 377.241211 71.111328 L 377.241211 72.019043 L 371.547852 72.019043 Z " fill="rgb(0, 0, 0)" fill-opacity="1.000000" />
<path d="M 378.547852 71.111328 L 384.241211 71.111328 L 384.241211 72.019043 L 378.547852 72.019043 Z " fill="rgb(0, 0, 0)" fill-opacity="1.000000" />
<path d="M 391.332520 70.321777 L 388.947754 71.610840 L 391.332520 72.905273 L 390.956543 73.560547 L 388.711426 72.212402 L 388.711426 74.715332 L 387.943359 74.715332 L 387.943359 72.212402 L 385.698242 73.560547 L 385.322266 72.905273 L 387.712402 71.610840 L 385.322266 70.321777 L 385.698242 69.661133 L 387.943359 71.009277 L 387.943359 68.506348 L 388.711426 68.506348 L 388.711426 71.009277 L 390.956543 69.661133 Z " fill="rgb(0, 0, 0)" fill-opacity="1.000000" />
<path d="M 392.547852 71.111328 L 398.241211 71.111328 L 398.241211 72.019043 L 392.547852 72.019043 Z " fill="rgb(0, 0, 0)" fill-opacity="1.000000" />
<path d="M 399.547852 71.111328 L 405.241211 71.111328 L 405.241211 72.019043 L 399.547852 72.019043 Z " fill="rgb(0, 0, 0)" fill-opacity="1.000000" />
<path d="M 406.547852 71.111328 L 412.241211 71.111328 L 412.241211 72.019043 L 406.547852 72.019043 Z " fill="rgb(0, 0, 0)" fill-opacity="1.000000" />
<path d="M 419.332520 70.321777 L 416.947754 71.610840 L 419.332520 72.905273 L 418.956543 73.560547 L 416.711426 72.212402 L 416.711426 74.715332 L 415.943359 74.715332 L 415.943359 72.212402 L 413.698242 73.560547 L 413.322266 72.905273 L 415.712402 71.610840 L 413.322266 70.321777 L 413.698242 69.661133 L 415.943359 71.009277 L 415.943359 68.506348 L 416.711426 68.506348 L 416.711426 71.009277 L 418.956543 69.661133 Z " fill="rgb(0, 0, 0)" fill-opacity="1.000000" />
<path d="M 175.547852 58.111328 L 181.241211 58.111328 L 181.241211 59.019043 L 175.547852 59.019043 Z " fill="rgb(0, 0, 0)" fill-opacity="1.000000" />
<path d="M 182.547852 58.111328 L 188.241211 58.111328 L 188.241211 59.019043 L 182.547852 59.019043 Z " fill="rgb(0, 0, 0)" fill-opacity="1.000000" />
<path d="M 189.547852 58.111328 L 195.241211 58.111328 L 195.241211 59.019043 L 189.547852 59.019043 Z " fill="rgb(0, 0, 0)" fill-opacity="1.000000" />
<path d="M 196.547852 58.111328 L 202.241211 58.111328 L 202.241211 59.019043 L 196.547852 59.019043 Z " fill="rgb(0, 0, 0)" fill-opacity="1.000000" />
<path d="M 203.547852 58.111328 L 209.241211 58.111328 L 209.241211 59.019043 L 203.547852 59.019043 Z " fill="rgb(0, 0, 0)" fill-opacity="1.000000" />
<path d="M 210.547852 58.111328 L 216.241211 58.111328 L 216.241211 59.019043 L 210.547852 59.019043 Z " fill="rgb(0, 0, 0)" fill-opacity="1.000000" />
<path d="M 217.547852 58.111328 L 223.241211 58.111328 L 223.241211 59.019043 L 217.547852 59.019043 Z " fill="rgb(0, 0, 0)" fill-opacity="1.000000" />
<path d="M 224.547852 58.111328 L 230.241211 58.111328 L 230.241211 59.019043 L 224.547852 59.019043 Z " fill="rgb(0, 0, 0)" fill-opacity="1.000000" />
<path d="M 231.547852 58.111328 L 237.241211 58.111328 L 237.241211 59.019043 L 231.547852 59.019043 Z " fill="rgb(0, 0, 0)" fill-opacity="1.000000" />
<path d="M 238.547852 58.111328 L 244.241211 58.111328 L 244.241211 59.019043 L 238.547852 59.019043 Z " fill="rgb(0, 0, 0)" fill-opacity="1.000000" />
<path d="M 248.867188 55.672852 L 248.867188 58.052246 L 251.257324 58.052246 L 251.257324 58.959961 L 248.867188 58.959961 L 248.867188 61.339355 L 247.964844 61.339355 L 247.964844 58.959961 L 245.580078 58.959961 L 245.580078 58.052246 L 247.964844 58.052246 L 247.964844 55.672852 Z " fill="rgb(0, 0, 0)" fill-opacity="1.000000" />
<path d="M 360.985352 53.594238 L 360.985352 64.594238 L 360.061523 64.594238 L 360.061523 53.594238 Z " fill="rgb(0, 0, 0)" fill-opacity="1.000000" />
<path d="M 28.547852 45.111328 L 34.241211 45.111328 L 34.241211 46.019043 L 28.547852 46.019043 Z " fill="rgb(0, 0, 0)" fill-opacity="1.000000" />
<path d="M 35.547852 45.111328 L 41.241211 45.111328 L 41.241211 46.019043 L 35.547852 46.019043 Z " fill="rgb(0, 0, 0)" fill-opacity="1.000000" />
<path d="M 42.547852 45.111328 L 48.241211 45.111328 L 48.241211 46.019043 L 42.547852 46.019043 Z " fill="rgb(0, 0, 0)" fill-opacity="1.000000" />
<path d="M 49.547852 45.111328 L 55.241211 45.111328 L 55.241211 46.019043 L 49.547852 46.019043 Z " fill="rgb(0, 0, 0)" fill-opacity="1.000000" />
<path d="M 56.547852 45.111328 L 62.241211 45.111328 L 62.241211 46.019043 L 56.547852 46.019043 Z " fill="rgb(0, 0, 0)" fill-opacity="1.000000" />
<path d="M 63.547852 45.111328 L 69.241211 45.111328 L 69.241211 46.019043 L 63.547852 46.019043 Z " fill="rgb(0, 0, 0)" fill-opacity="1.000000" />
<path d="M 70.547852 45.111328 L 76.241211 45.111328 L 76.241211 46.019043 L 70.547852 46.019043 Z " fill="rgb(0, 0, 0)" fill-opacity="1.000000" />
<path d="M 77.547852 45.111328 L 83.241211 45.111328 L 83.241211 46.019043 L 77.547852 46.019043 Z " fill="rgb(0, 0, 0)" fill-opacity="1.000000" />
<path d="M 84.547852 45.111328 L 90.241211 45.111328 L 90.241211 46.019043 L 84.547852 46.019043 Z " fill="rgb(0, 0, 0)" fill-opacity="1.000000" />
<path d="M 91.547852 45.111328 L 97.241211 45.111328 L 97.241211 46.019043 L 91.547852 46.019043 Z " fill="rgb(0, 0, 0)" fill-opacity="1.000000" />
<path d="M 101.867188 42.672852 L 101.867188 45.052246 L 104.257324 45.052246 L 104.257324 45.959961 L 101.867188 45.959961 L 101.867188 48.339355 L 100.964844 48.339355 L 100.964844 45.959961 L 98.580078 45.959961 L 98.580078 45.052246 L 100.964844 45.052246 L 100.964844 42.672852 Z " fill="rgb(0, 0, 0)" fill-opacity="1.000000" />
<path d="M 108.867188 42.672852 L 108.867188 45.052246 L 111.257324 45.052246 L 111.257324 45.959961 L 108.867188 45.959961 L 108.867188 48.339355 L 107.964844 48.339355 L 107.964844 45.959961 L 105.580078 45.959961 L 105.580078 45.052246 L 107.964844 45.052246 L 107.964844 42.672852 Z " fill="rgb(0, 0, 0)" fill-opacity="1.000000" />
<path d="M 126.547852 45.111328 L 132.241211 45.111328 L 132.241211 46.019043 L 126.547852 46.019043 Z " fill="rgb(0, 0, 0)" fill-opacity="1.000000" />
<path d="M 133.547852 45.111328 L 139.241211 45.111328 L 139.241211 46.019043 L 133.547852 46.019043 Z " fill="rgb(0, 0, 0)" fill-opacity="1.000000" />
<path d="M 140.547852 45.111328 L 146.241211 45.111328 L 146.241211 46.019043 L 140.547852 46.019043 Z " fill="rgb(0, 0, 0)" fill-opacity="1.000000" />
<path d="M 147.547852 45.111328 L 153.241211 45.111328 L 153.241211 46.019043 L 147.547852 46.019043 Z " fill="rgb(0, 0, 0)" fill-opacity="1.000000" />
<path d="M 154.547852 45.111328 L 160.241211 45.111328 L 160.241211 46.019043 L 154.547852 46.019043 Z " fill="rgb(0, 0, 0)" fill-opacity="1.000000" />
<path d="M 161.547852 45.111328 L 167.241211 45.111328 L 167.241211 46.019043 L 161.547852 46.019043 Z " fill="rgb(0, 0, 0)" fill-opacity="1.000000" />
<path d="M 171.867188 42.672852 L 171.867188 45.052246 L 174.257324 45.052246 L 174.257324 45.959961 L 171.867188 45.959961 L 171.867188 48.339355 L 170.964844 48.339355 L 170.964844 45.959961 L 168.580078 45.959961 L 168.580078 45.052246 L 170.964844 45.052246 L 170.964844 42.672852 Z " fill="rgb(0, 0, 0)" fill-opacity="1.000000" />
<path d="M 187.763184 48.715332 Q 187.349609 48.935547 186.914551 49.045654 Q 186.479492 49.155762 185.990723 49.155762 Q 184.449219 49.155762 183.597900 48.065430 Q 182.746582 46.975098 182.746582 44.998535 Q 182.746582 43.032715 183.603271 41.934326 Q 184.459961 40.835938 185.990723 40.835938 Q 186.479492 40.835938 186.914551 40.946045 Q 187.349609 41.056152 187.763184 41.276367 L 187.763184 42.388184 Q 187.365723 42.060547 186.909180 41.888672 Q 186.452637 41.716797 185.990723 41.716797 Q 184.932617 41.716797 184.406250 42.533203 Q 183.879883 43.349609 183.879883 44.998535 Q 183.879883 46.642090 184.406250 47.458496 Q 184.932617 48.274902 185.990723 48.274902 Q 186.463379 48.274902 186.917236 48.103027 Q 187.371094 47.931152 187.763184 47.603516 Z " fill="rgb(0, 0, 0)" fill-opacity="1.000000" />
<path d="M 192.308594 43.677246 Q 191.556641 43.677246 191.169922 44.262695 Q 190.783203 44.848145 190.783203 45.997559 Q 190.783203 47.141602 191.169922 47.729736 Q 191.556641 48.317871 192.308594 48.317871 Q 193.065918 48.317871 193.452637 47.729736 Q 193.839355 47.141602 193.839355 45.997559 Q 193.839355 44.848145 193.452637 44.262695 Q 193.065918 43.677246 192.308594 43.677246 Z M 192.308594 42.839355 Q 193.560059 42.839355 194.223389 43.650391 Q 194.886719 44.461426 194.886719 45.997559 Q 194.886719 47.539062 194.226074 48.347412 Q 193.565430 49.155762 192.308594 49.155762 Q 191.057129 49.155762 190.396484 48.347412 Q 189.735840 47.539062 189.735840 45.997559 Q 189.735840 44.461426 190.396484 43.650391 Q 191.057129 42.839355 192.308594 42.839355 Z " fill="rgb(0, 0, 0)" fill-opacity="1.000000" />
<path d="M 199.630859 43.596680 Q 199.813477 43.209961 200.095459 43.024658 Q 200.377441 42.839355 200.774902 42.839355 Q 201.500000 42.839355 201.798096 43.400635 Q 202.096191 43.961914 202.096191 45.514160 L 202.096191 49.000000 L 201.193848 49.000000 L 201.193848 45.557129 Q 201.193848 44.284180 201.051514 43.975342 Q 200.909180 43.666504 200.533203 43.666504 Q 200.103516 43.666504 199.945068 43.996826 Q 199.786621 44.327148 199.786621 45.557129 L 199.786621 49.000000 L 198.884277 49.000000 L 198.884277 45.557129 Q 198.884277 44.268066 198.731201 43.967285 Q 198.578125 43.666504 198.180664 43.666504 Q 197.788574 43.666504 197.635498 43.996826 Q 197.482422 44.327148 197.482422 45.557129 L 197.482422 49.000000 L 196.585449 49.000000 L 196.585449 42.984375 L 197.482422 42.984375 L 197.482422 43.500000 Q 197.659668 43.177734 197.925537 43.008545 Q 198.191406 42.839355 198.529785 42.839355 Q 198.937988 42.839355 199.209229 43.027344 Q 199.480469 43.215332 199.630859 43.596680 Z " fill="rgb(0, 0, 0)" fill-opacity="1.000000" />
<path d="M 205.014160 48.242676 L 205.014160 51.288086 L 204.020508 51.288086 L 204.020508 42.984375 L 205.014160 42.984375 L 205.014160 43.752441 Q 205.261230 43.306641 205.672119 43.072998 Q 206.083008 42.839355 206.620117 42.839355 Q 207.710449 42.839355 208.330811 43.682617 Q 208.951172 44.525879 208.951172 46.019043 Q 208.951172 47.485352 208.328125 48.320557 Q 207.705078 49.155762 206.620117 49.155762 Q 206.072266 49.155762 205.661377 48.922119 Q 205.250488 48.688477 205.014160 48.242676 Z M 207.914551 45.997559 Q 207.914551 44.848145 207.552002 44.262695 Q 207.189453 43.677246 206.475098 43.677246 Q 205.755371 43.677246 205.384766 44.265381 Q 205.014160 44.853516 205.014160 45.997559 Q 205.014160 47.136230 205.384766 47.727051 Q 205.755371 48.317871 206.475098 48.317871 Q 207.189453 48.317871 207.552002 47.732422 Q 207.914551 47.146973 207.914551 45.997559 Z " fill="rgb(0, 0, 0)" fill-opacity="1.000000" />
<path d="M 211.697266 43.005859 L 214.227051 43.005859 L 214.227051 48.231934 L 216.187500 48.231934 L 216.187500 49.000000 L 211.278320 49.000000 L 211.278320 48.231934 L 213.238770 48.231934 L 213.238770 43.773926 L 211.697266 43.773926 Z M 213.238770 40.669434 L 214.227051 40.669434 L 214.227051 41.915527 L 213.238770 41.915527 Z " fill="rgb(0, 0, 0)" fill-opacity="1.000000" />
<path d="M 220.861816 46.824707 Q 220.861816 47.490723 221.106201 47.829102 Q 221.350586 48.167480 221.828613 48.167480 L 222.983398 48.167480 L 222.983398 49.000000 L 221.731934 49.000000 Q 220.845703 49.000000 220.359619 48.433350 Q 219.873535 47.866699 219.873535 46.824707 L 219.873535 41.383789 L 218.289062 41.383789 L 218.289062 40.610352 L 220.861816 40.610352 Z " fill="rgb(0, 0, 0)" fill-opacity="1.000000" />
<path d="M 230.015625 45.498047 L 230.015625 45.981445 L 225.734863 45.981445 L 225.734863 46.013672 Q 225.691895 47.243652 226.204834 47.780762 Q 226.717773 48.317871 227.652344 48.317871 Q 228.125000 48.317871 228.640625 48.167480 Q 229.156250 48.017090 229.741699 47.710938 L 229.741699 48.693848 Q 229.177734 48.924805 228.654053 49.040283 Q 228.130371 49.155762 227.641602 49.155762 Q 226.239746 49.155762 225.450195 48.315186 Q 224.660645 47.474609 224.660645 45.997559 Q 224.660645 44.558105 225.434082 43.698730 Q 226.207520 42.839355 227.496582 42.839355 Q 228.645996 42.839355 229.309326 43.618164 Q 229.972656 44.396973 230.015625 45.498047 Z M 229.027344 45.208008 Q 228.962891 44.584961 228.573486 44.131104 Q 228.184082 43.677246 227.453613 43.677246 Q 226.739258 43.677246 226.277344 44.149902 Q 225.815430 44.622559 225.772461 45.213379 Z " fill="rgb(0, 0, 0)" fill-opacity="1.000000" />
<path d="M 237.203613 44.225098 Q 236.886719 43.978027 236.559082 43.865234 Q 236.231445 43.752441 235.839355 43.752441 Q 234.915527 43.752441 234.426758 44.332520 Q 233.937988 44.912598 233.937988 46.008301 L 233.937988 49.000000 L 232.944336 49.000000 L 232.944336 42.984375 L 233.937988 42.984375 L 233.937988 44.160645 Q 234.185059 43.521484 234.697998 43.180420 Q 235.210938 42.839355 235.914551 42.839355 Q 236.279785 42.839355 236.596680 42.930664 Q 236.913574 43.021973 237.203613 43.215332 Z " fill="rgb(0, 0, 0)" fill-opacity="1.000000" />
<path d="M 248.867188 42.672852 L 248.867188 45.052246 L 251.257324 45.052246 L 251.257324 45.959961 L 248.867188 45.959961 L 248.867188 48.339355 L 247.964844 48.339355 L 247.964844 45.959961 L 245.580078 45.959961 L 245.580078 45.052246 L 247.964844 45.052246 L 247.964844 42.672852 Z " fill="rgb(0, 0, 0)" fill-opacity="1.000000" />
<path d="M 252.547852 45.111328 L 258.241211 45.111328 L 258.241211 46.019043 L 252.547852 46.019043 Z " fill="rgb(0, 0, 0)" fill-opacity="1.000000" />
<path d="M 259.547852 45.111328 L 265.241211 45.111328 L 265.241211 46.019043 L 259.547852 46.019043 Z " fill="rgb(0, 0, 0)" fill-opacity="1.000000" />
<path d="M 266.547852 45.111328 L 272.241211 45.111328 L 272.241211 46.019043 L 266.547852 46.019043 Z " fill="rgb(0, 0, 0)" fill-opacity="1.000000" />
<path d="M 273.547852 45.111328 L 279.241211 45.111328 L 279.241211 46.019043 L 273.547852 46.019043 Z " fill="rgb(0, 0, 0)" fill-opacity="1.000000" />
<path d="M 280.547852 45.111328 L 286.241211 45.111328 L 286.241211 46.019043 L 280.547852 46.019043 Z " fill="rgb(0, 0, 0)" fill-opacity="1.000000" />
<path d="M 287.547852 45.111328 L 293.241211 45.111328 L 293.241211 46.019043 L 287.547852 46.019043 Z " fill="rgb(0, 0, 0)" fill-opacity="1.000000" />
<path d="M 294.547852 45.111328 L 300.241211 45.111328 L 300.241211 46.019043 L 294.547852 46.019043 Z " fill="rgb(0, 0, 0)" fill-opacity="1.000000" />
<path d="M 301.472656 43.838379 L 301.472656 42.860840 L 307.149902 45.105957 L 307.149902 45.997559 L 301.472656 48.242676 L 301.472656 47.259766 L 306.038086 45.557129 Z " fill="rgb(0, 0, 0)" fill-opacity="1.000000" />
<path d="M 363.332520 44.321777 L 360.947754 45.610840 L 363.332520 46.905273 L 362.956543 47.560547 L 360.711426 46.212402 L 360.711426 48.715332 L 359.943359 48.715332 L 359.943359 46.212402 L 357.698242 47.560547 L 357.322266 46.905273 L 359.712402 45.610840 L 357.322266 44.321777 L 357.698242 43.661133 L 359.943359 45.009277 L 359.943359 42.506348 L 360.711426 42.506348 L 360.711426 45.009277 L 362.956543 43.661133 Z " fill="rgb(0, 0, 0)" fill-opacity="1.000000" />
<path d="M 21.547852 32.111328 L 27.241211 32.111328 L 27.241211 33.019043 L 21.547852 33.019043 Z " fill="rgb(0, 0, 0)" fill-opacity="1.000000" />
<path d="M 28.547852 32.111328 L 34.241211 32.111328 L 34.241211 33.019043 L 28.547852 33.019043 Z " fill="rgb(0, 0, 0)" fill-opacity="1.000000" />
<path d="M 35.547852 32.111328 L 41.241211 32.111328 L 41.241211 33.019043 L 35.547852 33.019043 Z " fill="rgb(0, 0, 0)" fill-opacity="1.000000" />
<path d="M 42.547852 32.111328 L 48.241211 32.111328 L 48.241211 33.019043 L 42.547852 33.019043 Z " fill="rgb(0, 0, 0)" fill-opacity="1.000000" />
<path d="M 49.547852 32.111328 L 55.241211 32.111328 L 55.241211 33.019043 L 49.547852 33.019043 Z " fill="rgb(0, 0, 0)" fill-opacity="1.000000" />
<path d="M 56.547852 32.111328 L 62.241211 32.111328 L 62.241211 33.019043 L 56.547852 33.019043 Z " fill="rgb(0, 0, 0)" fill-opacity="1.000000" />
<path d="M 63.547852 32.111328 L 69.241211 32.111328 L 69.241211 33.019043 L 63.547852 33.019043 Z " fill="rgb(0, 0, 0)" fill-opacity="1.000000" />
<path d="M 70.547852 32.111328 L 76.241211 32.111328 L 76.241211 33.019043 L 70.547852 33.019043 Z " fill="rgb(0, 0, 0)" fill-opacity="1.000000" />
<path d="M 77.547852 32.111328 L 83.241211 32.111328 L 83.241211 33.019043 L 77.547852 33.019043 Z " fill="rgb(0, 0, 0)" fill-opacity="1.000000" />
<path d="M 84.547852 32.111328 L 90.241211 32.111328 L 90.241211 33.019043 L 84.547852 33.019043 Z " fill="rgb(0, 0, 0)" fill-opacity="1.000000" />
<path d="M 94.867188 29.672852 L 94.867188 32.052246 L 97.257324 32.052246 L 97.257324 32.959961 L 94.867188 32.959961 L 94.867188 35.339355 L 93.964844 35.339355 L 93.964844 32.959961 L 91.580078 32.959961 L 91.580078 32.052246 L 93.964844 32.052246 L 93.964844 29.672852 Z " fill="rgb(0, 0, 0)" fill-opacity="1.000000" />
<path d="M 101.867188 29.672852 L 101.867188 32.052246 L 104.257324 32.052246 L 104.257324 32.959961 L 101.867188 32.959961 L 101.867188 35.339355 L 100.964844 35.339355 L 100.964844 32.959961 L 98.580078 32.959961 L 98.580078 32.052246 L 100.964844 32.052246 L 100.964844 29.672852 Z " fill="rgb(0, 0, 0)" fill-opacity="1.000000" />
<path d="M 171.867188 29.672852 L 171.867188 32.052246 L 174.257324 32.052246 L 174.257324 32.959961 L 171.867188 32.959961 L 171.867188 35.339355 L 170.964844 35.339355 L 170.964844 32.959961 L 168.580078 32.959961 L 168.580078 32.052246 L 170.964844 32.052246 L 170.964844 29.672852 Z " fill="rgb(0, 0, 0)" fill-opacity="1.000000" />
<path d="M 175.547852 32.111328 L 181.241211 32.111328 L 181.241211 33.019043 L 175.547852 33.019043 Z " fill="rgb(0, 0, 0)" fill-opacity="1.000000" />
<path d="M 182.547852 32.111328 L 188.241211 32.111328 L 188.241211 33.019043 L 182.547852 33.019043 Z " fill="rgb(0, 0, 0)" fill-opacity="1.000000" />
<path d="M 189.547852 32.111328 L 195.241211 32.111328 L 195.241211 33.019043 L 189.547852 33.019043 Z " fill="rgb(0, 0, 0)" fill-opacity="1.000000" />
<path d="M 196.547852 32.111328 L 202.241211 32.111328 L 202.241211 33.019043 L 196.547852 33.019043 Z " fill="rgb(0, 0, 0)" fill-opacity="1.000000" />
<path d="M 203.547852 32.111328 L 209.241211 32.111328 L 209.241211 33.019043 L 203.547852 33.019043 Z " fill="rgb(0, 0, 0)" fill-opacity="1.000000" />
<path d="M 210.547852 32.111328 L 216.241211 32.111328 L 216.241211 33.019043 L 210.547852 33.019043 Z " fill="rgb(0, 0, 0)" fill-opacity="1.000000" />
<path d="M 217.547852 32.111328 L 223.241211 32.111328 L 223.241211 33.019043 L 217.547852 33.019043 Z " fill="rgb(0, 0, 0)" fill-opacity="1.000000" />
<path d="M 224.547852 32.111328 L 230.241211 32.111328 L 230.241211 33.019043 L 224.547852 33.019043 Z " fill="rgb(0, 0, 0)" fill-opacity="1.000000" />
<path d="M 231.547852 32.111328 L 237.241211 32.111328 L 237.241211 33.019043 L 231.547852 33.019043 Z " fill="rgb(0, 0, 0)" fill-opacity="1.000000" />
<path d="M 238.547852 32.111328 L 244.241211 32.111328 L 244.241211 33.019043 L 238.547852 33.019043 Z " fill="rgb(0, 0, 0)" fill-opacity="1.000000" />
<path d="M 248.867188 29.672852 L 248.867188 32.052246 L 251.257324 32.052246 L 251.257324 32.959961 L 248.867188 32.959961 L 248.867188 35.339355 L 247.964844 35.339355 L 247.964844 32.959961 L 245.580078 32.959961 L 245.580078 32.052246 L 247.964844 32.052246 L 247.964844 29.672852 Z " fill="rgb(0, 0, 0)" fill-opacity="1.000000" />
<path d="M 14.547852 19.111328 L 20.241211 19.111328 L 20.241211 20.019043 L 14.547852 20.019043 Z " fill="rgb(0, 0, 0)" fill-opacity="1.000000" />
<path d="M 21.547852 19.111328 L 27.241211 19.111328 L 27.241211 20.019043 L 21.547852 20.019043 Z " fill="rgb(0, 0, 0)" fill-opacity="1.000000" />
<path d="M 28.547852 19.111328 L 34.241211 19.111328 L 34.241211 20.019043 L 28.547852 20.019043 Z " fill="rgb(0, 0, 0)" fill-opacity="1.000000" />
<path d="M 35.547852 19.111328 L 41.241211 19.111328 L 41.241211 20.019043 L 35.547852 20.019043 Z " fill="rgb(0, 0, 0)" fill-opacity="1.000000" />
<path d="M 42.547852 19.111328 L 48.241211 19.111328 L 48.241211 20.019043 L 42.547852 20.019043 Z " fill="rgb(0, 0, 0)" fill-opacity="1.000000" />
<path d="M 49.547852 19.111328 L 55.241211 19.111328 L 55.241211 20.019043 L 49.547852 20.019043 Z " fill="rgb(0, 0, 0)" fill-opacity="1.000000" />
<path d="M 56.547852 19.111328 L 62.241211 19.111328 L 62.241211 20.019043 L 56.547852 20.019043 Z " fill="rgb(0, 0, 0)" fill-opacity="1.000000" />
<path d="M 63.547852 19.111328 L 69.241211 19.111328 L 69.241211 20.019043 L 63.547852 20.019043 Z " fill="rgb(0, 0, 0)" fill-opacity="1.000000" />
<path d="M 70.547852 19.111328 L 76.241211 19.111328 L 76.241211 20.019043 L 70.547852 20.019043 Z " fill="rgb(0, 0, 0)" fill-opacity="1.000000" />
<path d="M 77.547852 19.111328 L 83.241211 19.111328 L 83.241211 20.019043 L 77.547852 20.019043 Z " fill="rgb(0, 0, 0)" fill-opacity="1.000000" />
<path d="M 87.867188 16.672852 L 87.867188 19.052246 L 90.257324 19.052246 L 90.257324 19.959961 L 87.867188 19.959961 L 87.867188 22.339355 L 86.964844 22.339355 L 86.964844 19.959961 L 84.580078 19.959961 L 84.580078 19.052246 L 86.964844 19.052246 L 86.964844 16.672852 Z " fill="rgb(0, 0, 0)" fill-opacity="1.000000" />
<path d="M 94.867188 16.672852 L 94.867188 19.052246 L 97.257324 19.052246 L 97.257324 19.959961 L 94.867188 19.959961 L 94.867188 22.339355 L 93.964844 22.339355 L 93.964844 19.959961 L 91.580078 19.959961 L 91.580078 19.052246 L 93.964844 19.052246 L 93.964844 16.672852 Z " fill="rgb(0, 0, 0)" fill-opacity="1.000000" />
<path d="M 347.860840 18.998535 Q 347.860840 17.231445 347.498291 16.474121 Q 347.135742 15.716797 346.308594 15.716797 Q 345.486816 15.716797 345.124268 16.474121 Q 344.761719 17.231445 344.761719 18.998535 Q 344.761719 20.760254 345.124268 21.517578 Q 345.486816 22.274902 346.308594 22.274902 Q 347.135742 22.274902 347.498291 21.520264 Q 347.860840 20.765625 347.860840 18.998535 Z M 348.994141 18.998535 Q 348.994141 21.093262 348.330811 22.124512 Q 347.667480 23.155762 346.308594 23.155762 Q 344.949707 23.155762 344.289062 22.129883 Q 343.628418 21.104004 343.628418 18.998535 Q 343.628418 16.898438 344.291748 15.867188 Q 344.955078 14.835938 346.308594 14.835938 Q 347.667480 14.835938 348.330811 15.867188 Q 348.994141 16.898438 348.994141 18.998535 Z " fill="rgb(0, 0, 0)" fill-opacity="1.000000" />
<path d="M 351.047363 20.722656 L 351.047363 16.995117 L 352.035645 16.995117 L 352.035645 20.722656 Q 352.035645 21.533691 352.322998 21.915039 Q 352.610352 22.296387 353.211914 22.296387 Q 353.910156 22.296387 354.280762 21.804932 Q 354.651367 21.313477 354.651367 20.395020 L 354.651367 16.995117 L 355.645020 16.995117 L 355.645020 23.000000 L 354.651367 23.000000 L 354.651367 22.097656 Q 354.388184 22.618652 353.934326 22.887207 Q 353.480469 23.155762 352.873535 23.155762 Q 351.949707 23.155762 351.498535 22.551514 Q 351.047363 21.947266 351.047363 20.722656 Z " fill="rgb(0, 0, 0)" fill-opacity="1.000000" />
<path d="M 360.297852 15.276367 L 360.297852 16.984375 L 362.542969 16.984375 L 362.542969 17.752441 L 360.297852 17.752441 L 360.297852 21.018066 Q 360.297852 21.684082 360.550293 21.947266 Q 360.802734 22.210449 361.431152 22.210449 L 362.542969 22.210449 L 362.542969 23.000000 L 361.334473 23.000000 Q 360.222656 23.000000 359.766113 22.554199 Q 359.309570 22.108398 359.309570 21.018066 L 359.309570 17.752441 L 357.703613 17.752441 L 357.703613 16.984375 L 359.309570 16.984375 L 359.309570 15.276367 Z " fill="rgb(0, 0, 0)" fill-opacity="1.000000" />
<path d="M 366.014160 22.242676 L 366.014160 25.288086 L 365.020508 25.288086 L 365.020508 16.984375 L 366.014160 16.984375 L 366.014160 17.752441 Q 366.261230 17.306641 366.672119 17.072998 Q 367.083008 16.839355 367.620117 16.839355 Q 368.710449 16.839355 369.330811 17.682617 Q 369.951172 18.525879 369.951172 20.019043 Q 369.951172 21.485352 369.328125 22.320557 Q 368.705078 23.155762 367.620117 23.155762 Q 367.072266 23.155762 366.661377 22.922119 Q 366.250488 22.688477 366.014160 22.242676 Z M 368.914551 19.997559 Q 368.914551 18.848145 368.552002 18.262695 Q 368.189453 17.677246 367.475098 17.677246 Q 366.755371 17.677246 366.384766 18.265381 Q 366.014160 18.853516 366.014160 19.997559 Q 366.014160 21.136230 366.384766 21.727051 Q 366.755371 22.317871 367.475098 22.317871 Q 368.189453 22.317871 368.552002 21.732422 Q 368.914551 21.146973 368.914551 19.997559 Z " fill="rgb(0, 0, 0)" fill-opacity="1.000000" />
<path d="M 372.047363 20.722656 L 372.047363 16.995117 L 373.035645 16.995117 L 373.035645 20.722656 Q 373.035645 21.533691 373.322998 21.915039 Q 373.610352 22.296387 374.211914 22.296387 Q 374.910156 22.296387 375.280762 21.804932 Q 375.651367 21.313477 375.651367 20.395020 L 375.651367 16.995117 L 376.645020 16.995117 L 376.645020 23.000000 L 375.651367 23.000000 L 375.651367 22.097656 Q 375.388184 22.618652 374.934326 22.887207 Q 374.480469 23.155762 373.873535 23.155762 Q 372.949707 23.155762 372.498535 22.551514 Q 372.047363 21.947266 372.047363 20.722656 Z " fill="rgb(0, 0, 0)" fill-opacity="1.000000" />
<path d="M 381.297852 15.276367 L 381.297852 16.984375 L 383.542969 16.984375 L 383.542969 17.752441 L 381.297852 17.752441 L 381.297852 21.018066 Q 381.297852 21.684082 381.550293 21.947266 Q 381.802734 22.210449 382.431152 22.210449 L 383.542969 22.210449 L 383.542969 23.000000 L 382.334473 23.000000 Q 381.222656 23.000000 380.766113 22.554199 Q 380.309570 22.108398 380.309570 21.018066 L 380.309570 17.752441 L 378.703613 17.752441 L 378.703613 16.984375 L 380.309570 16.984375 L 380.309570 15.276367 Z " fill="rgb(0, 0, 0)" fill-opacity="1.000000" />
<path d="M 7.547852 6.111328 L 13.241211 6.111328 L 13.241211 7.019043 L 7.547852 7.019043 Z " fill="rgb(0, 0, 0)" fill-opacity="1.000000" />
<path d="M 14.547852 6.111328 L 20.241211 6.111328 L 20.241211 7.019043 L 14.547852 7.019043 Z " fill="rgb(0, 0, 0)" fill-opacity="1.000000" />
<path d="M 21.547852 6.111328 L 27.241211 6.111328 L 27.241211 7.019043 L 21.547852 7.019043 Z " fill="rgb(0, 0, 0)" fill-opacity="1.000000" />
<path d="M 28.547852 6.111328 L 34.241211 6.111328 L 34.241211 7.019043 L 28.547852 7.019043 Z " fill="rgb(0, 0, 0)" fill-opacity="1.000000" />
<path d="M 35.547852 6.111328 L 41.241211 6.111328 L 41.241211 7.019043 L 35.547852 7.019043 Z " fill="rgb(0, 0, 0)" fill-opacity="1.000000" />
<path d="M 42.547852 6.111328 L 48.241211 6.111328 L 48.241211 7.019043 L 42.547852 7.019043 Z " fill="rgb(0, 0, 0)" fill-opacity="1.000000" />
<path d="M 49.547852 6.111328 L 55.241211 6.111328 L 55.241211 7.019043 L 49.547852 7.019043 Z " fill="rgb(0, 0, 0)" fill-opacity="1.000000" />
<path d="M 56.547852 6.111328 L 62.241211 6.111328 L 62.241211 7.019043 L 56.547852 7.019043 Z " fill="rgb(0, 0, 0)" fill-opacity="1.000000" />
<path d="M 63.547852 6.111328 L 69.241211 6.111328 L 69.241211 7.019043 L 63.547852 7.019043 Z " fill="rgb(0, 0, 0)" fill-opacity="1.000000" />
<path d="M 70.547852 6.111328 L 76.241211 6.111328 L 76.241211 7.019043 L 70.547852 7.019043 Z " fill="rgb(0, 0, 0)" fill-opacity="1.000000" />
<path d="M 77.547852 6.111328 L 83.241211 6.111328 L 83.241211 7.019043 L 77.547852 7.019043 Z " fill="rgb(0, 0, 0)" fill-opacity="1.000000" />
<path d="M 87.867188 3.672852 L 87.867188 6.052246 L 90.257324 6.052246 L 90.257324 6.959961 L 87.867188 6.959961 L 87.867188 9.339355 L 86.964844 9.339355 L 86.964844 6.959961 L 84.580078 6.959961 L 84.580078 6.052246 L 86.964844 6.052246 L 86.964844 3.672852 Z " fill="rgb(0, 0, 0)" fill-opacity="1.000000" />
</svg>