<svg xmlns="http://www.w3.org/2000/svg" version="1.1" width="498" height="144">
<path d="M 3.867188 16.672852 L 3.867188 19.052246 L 6.257324 19.052246 L 6.257324 19.959961 L 3.867188 19.959961 L 3.867188 22.339355 L 2.964844 22.339355 L 2.964844 19.959961 L 0.580078 19.959961 L 0.580078 19.052246 L 2.964844 19.052246 L 2.964844 16.672852 Z " fill="rgb(0, 0, 0)" fill-opacity="1.000000" />
<path d="M 3.985352 27.594238 L 3.985352 38.594238 L 3.061523 38.594238 L 3.061523 27.594238 Z " fill="rgb(0, 0, 0)" fill-opacity="1.000000" />
<path d="M 3.985352 40.594238 L 3.985352 51.594238 L 3.061523 51.594238 L 3.061523 40.594238 Z " fill="rgb(0, 0, 0)" fill-opacity="1.000000" />
<path d="M 3.985352 53.594238 L 3.985352 64.594238 L 3.061523 64.594238 L 3.061523 53.594238 Z " fill="rgb(0, 0, 0)" fill-opacity="1.000000" />
<path d="M 3.985352 66.594238 L 3.985352 77.594238 L 3.061523 77.594238 L 3.061523 66.594238 Z " fill="rgb(0, 0, 0)" fill-opacity="1.000000" />
<path d="M 3.985352 79.594238 L 3.985352 90.594238 L 3.061523 90.594238 L 3.061523 79.594238 Z " fill="rgb(0, 0, 0)" fill-opacity="1.000000" />
<path d="M 3.985352 92.594238 L 3.985352 103.594238 L 3.061523 103.594238 L 3.061523 92.594238 Z " fill="rgb(0, 0, 0)" fill-opacity="1.000000" />
<path d="M 3.985352 105.594238 L 3.985352 116.594238 L 3.061523 116.594238 L 3.061523 105.594238 Z " fill="rgb(0, 0, 0)" fill-opacity="1.000000" />
<path d="M 3.985352 118.594238 L 3.985352 129.594238 L 3.061523 129.594238 L 3.061523 118.594238 Z " fill="rgb(0, 0, 0)" fill-opacity="1.000000" />
<path d="M 3.867188 133.672852 L 3.867188 136.052246 L 6.257324 136.052246 L 6.257324 136.959961 L 3.867188 136.959961 L 3.867188 139.339355 L 2.964844 139.339355 L 2.964844 136.959961 L 0.580078 136.959961 L 0.580078 136.052246 L 2.964844 136.052246 L 2.964844 133.672852 Z " fill="rgb(0, 0, 0)" fill-opacity="1.000000" />
<path d="M 7.547852 136.111328 L 13.241211 136.111328 L 13.241211 137.019043 L 7.547852 137.019043 Z " fill="rgb(0, 0, 0)" fill-opacity="1.000000" />
<path d="M 14.547852 136.111328 L 20.241211 136.111328 L 20.241211 137.019043 L 14.547852 137.019043 Z " fill="rgb(0, 0, 0)" fill-opacity="1.000000" />
<path d="M 21.547852 136.111328 L 27.241211 136.111328 L 27.241211 137.019043 L 21.547852 137.019043 Z " fill="rgb(0, 0, 0)" fill-opacity="1.000000" />
<path d="M 28.547852 136.111328 L 34.241211 136.111328 L 34.241211 137.019043 L 28.547852 137.019043 Z " fill="rgb(0, 0, 0)" fill-opacity="1.000000" />
<path d="M 35.547852 136.111328 L 41.241211 136.111328 L 41.241211 137.019043 L 35.547852 137.019043 Z " fill="rgb(0, 0, 0)" fill-opacity="1.000000" />
<path d="M 42.547852 136.111328 L 48.241211 136.111328 L 48.241211 137.019043 L 42.547852 137.019043 Z " fill="rgb(0, 0, 0)" fill-opacity="1.000000" />
<path d="M 49.547852 136.111328 L 55.241211 136.111328 L 55.241211 137.019043 L 49.547852 137.019043 Z " fill="rgb(0, 0, 0)" fill-opacity="1.000000" />
<path d="M 56.547852 136.111328 L 62.241211 136.111328 L 62.241211 137.019043 L 56.547852 137.019043 Z " fill="rgb(0, 0, 0)" fill-opacity="1.000000" />
<path d="M 63.547852 136.111328 L 69.241211 136.111328 L 69.241211 137.019043 L 63.547852 137.019043 Z " fill="rgb(0, 0, 0)" fill-opacity="1.000000" />
<path d="M 70.547852 136.111328 L 76.241211 136.111328 L 76.241211 137.019043 L 70.547852 137.019043 Z " fill="rgb(0, 0, 0)" fill-opacity="1.000000" />
<path d="M 77.547852 136.111328 L 83.241211 136.111328 L 83.241211 137.019043 L 77.547852 137.019043 Z " fill="rgb(0, 0, 0)" fill-opacity="1.000000" />
<path d="M 84.547852 136.111328 L 90.241211 136.111328 L 90.241211 137.019043 L 84.547852 137.019043 Z " fill="rgb(0, 0, 0)" fill-opacity="1.000000" />
<path d="M 91.547852 136.111328 L 97.241211 136.111328 L 97.241211 137.019043 L 91.547852 137.019043 Z " fill="rgb(0, 0, 0)" fill-opacity="1.000000" />
<path d="M 98.547852 136.111328 L 104.241211 136.111328 L 104.241211 137.019043 L 98.547852 137.019043 Z " fill="rgb(0, 0, 0)" fill-opacity="1.000000" />
<path d="M 105.547852 136.111328 L 111.241211 136.111328 L 111.241211 137.019043 L 105.547852 137.019043 Z " fill="rgb(0, 0, 0)" fill-opacity="1.000000" />
<path d="M 112.547852 136.111328 L 118.241211 136.111328 L 118.241211 137.019043 L 112.547852 137.019043 Z " fill="rgb(0, 0, 0)" fill-opacity="1.000000" />
<path d="M 119.547852 136.111328 L 125.241211 136.111328 L 125.241211 137.019043 L 119.547852 137.019043 Z " fill="rgb(0, 0, 0)" fill-opacity="1.000000" />
<path d="M 126.547852 136.111328 L 132.241211 136.111328 L 132.241211 137.019043 L 126.547852 137.019043 Z " fill="rgb(0, 0, 0)" fill-opacity="1.000000" />
<path d="M 133.547852 136.111328 L 139.241211 136.111328 L 139.241211 137.019043 L 133.547852 137.019043 Z " fill="rgb(0, 0, 0)" fill-opacity="1.000000" />
<path d="M 140.547852 136.111328 L 146.241211 136.111328 L 146.241211 137.019043 L 140.547852 137.019043 Z " fill="rgb(0, 0, 0)" fill-opacity="1.000000" />
<path d="M 147.547852 136.111328 L 153.241211 136.111328 L 153.241211 137.019043 L 147.547852 137.019043 Z " fill="rgb(0, 0, 0)" fill-opacity="1.000000" />
<path d="M 154.547852 136.111328 L 160.241211 136.111328 L 160.241211 137.019043 L 154.547852 137.019043 Z " fill="rgb(0, 0, 0)" fill-opacity="1.000000" />
<path d="M 161.547852 136.111328 L 167.241211 136.111328 L 167.241211 137.019043 L 161.547852 137.019043 Z " fill="rgb(0, 0, 0)" fill-opacity="1.000000" />
<path d="M 168.547852 136.111328 L 174.241211 136.111328 L 174.241211 137.019043 L 168.547852 137.019043 Z " fill="rgb(0, 0, 0)" fill-opacity="1.000000" />
<path d="M 175.547852 136.111328 L 181.241211 136.111328 L 181.241211 137.019043 L 175.547852 137.019043 Z " fill="rgb(0, 0, 0)" fill-opacity="1.000000" />
<path d="M 182.547852 136.111328 L 188.241211 136.111328 L 188.241211 137.019043 L 182.547852 137.019043 Z " fill="rgb(0, 0, 0)" fill-opacity="1.000000" />
<path d="M 189.547852 136.111328 L 195.241211 136.111328 L 195.241211 137.019043 L 189.547852 137.019043 Z " fill="rgb(0, 0, 0)" fill-opacity="1.000000" />
<path d="M 196.547852 136.111328 L 202.241211 136.111328 L 202.241211 137.019043 L 196.547852 137.019043 Z " fill="rgb(0, 0, 0)" fill-opacity="1.000000" />
<path d="M 203.547852 136.111328 L 209.241211 136.111328 L 209.241211 137.019043 L 203.547852 137.019043 Z " fill="rgb(0, 0, 0)" fill-opacity="1.000000" />
<path d="M 210.547852 136.111328 L 216.241211 136.111328 L 216.241211 137.019043 L 210.547852 137.019043 Z " fill="rgb(0, 0, 0)" fill-opacity="1.000000" />
<path d="M 217.547852 136.111328 L 223.241211 136.111328 L 223.241211 137.019043 L 217.547852 137.019043 Z " fill="rgb(0, 0, 0)" fill-opacity="1.000000" />
<path d="M 224.547852 136.111328 L 230.241211 136.111328 L 230.241211 137.019043 L 224.547852 137.019043 Z " fill="rgb(0, 0, 0)" fill-opacity="1.000000" />
<path d="M 231.547852 136.111328 L 237.241211 136.111328 L 237.241211 137.019043 L 231.547852 137.019043 Z " fill="rgb(0, 0, 0)" fill-opacity="1.000000" />
<path d="M 238.547852 136.111328 L 244.241211 136.111328 L 244.241211 137.019043 L 238.547852 137.019043 Z " fill="rgb(0, 0, 0)" fill-opacity="1.000000" />
<path d="M 245.547852 136.111328 L 251.241211 136.111328 L 251.241211 137.019043 L 245.547852 137.019043 Z " fill="rgb(0, 0, 0)" fill-opacity="1.000000" />
<path d="M 252.547852 136.111328 L 258.241211 136.111328 L 258.241211 137.019043 L 252.547852 137.019043 Z " fill="rgb(0, 0, 0)" fill-opacity="1.000000" />
<path d="M 259.547852 136.111328 L 265.241211 136.111328 L 265.241211 137.019043 L 259.547852 137.019043 Z " fill="rgb(0, 0, 0)" fill-opacity="1.000000" />
<path d="M 266.547852 136.111328 L 272.241211 136.111328 L 272.241211 137.019043 L 266.547852 137.019043 Z " fill="rgb(0, 0, 0)" fill-opacity="1.000000" />
<path d="M 273.547852 136.111328 L 279.241211 136.111328 L 279.241211 137.019043 L 273.547852 137.019043 Z " fill="rgb(0, 0, 0)" fill-opacity="1.000000" />
<path d="M 280.547852 136.111328 L 286.241211 136.111328 L 286.241211 137.019043 L 280.547852 137.019043 Z " fill="rgb(0, 0, 0)" fill-opacity="1.000000" />
<path d="M 287.547852 136.111328 L 293.241211 136.111328 L 293.241211 137.019043 L 287.547852 137.019043 Z " fill="rgb(0, 0, 0)" fill-opacity="1.000000" />
<path d="M 294.547852 136.111328 L 300.241211 136.111328 L 300.241211 137.019043 L 294.547852 137.019043 Z " fill="rgb(0, 0, 0)" fill-opacity="1.000000" />
<path d="M 301.547852 136.111328 L 307.241211 136.111328 L 307.241211 137.019043 L 301.547852 137.019043 Z " fill="rgb(0, 0, 0)" fill-opacity="1.000000" />
<path d="M 308.547852 136.111328 L 314.241211 136.111328 L 314.241211 137.019043 L 308.547852 137.019043 Z " fill="rgb(0, 0, 0)" fill-opacity="1.000000" />
<path d="M 315.547852 136.111328 L 321.241211 136.111328 L 321.241211 137.019043 L 315.547852 137.019043 Z " fill="rgb(0, 0, 0)" fill-opacity="1.000000" />
<path d="M 322.547852 136.111328 L 328.241211 136.111328 L 328.241211 137.019043 L 322.547852 137.019043 Z " fill="rgb(0, 0, 0)" fill-opacity="1.000000" />
<path d="M 329.547852 136.111328 L 335.241211 136.111328 L 335.241211 137.019043 L 329.547852 137.019043 Z " fill="rgb(0, 0, 0)" fill-opacity="1.000000" />
<path d="M 336.547852 136.111328 L 342.241211 136.111328 L 342.241211 137.019043 L 336.547852 137.019043 Z " fill="rgb(0, 0, 0)" fill-opacity="1.000000" />
<path d="M 343.547852 136.111328 L 349.241211 136.111328 L 349.241211 137.019043 L 343.547852 137.019043 Z " fill="rgb(0, 0, 0)" fill-opacity="1.000000" />
<path d="M 350.547852 136.111328 L 356.241211 136.111328 L 356.241211 137.019043 L 350.547852 137.019043 Z " fill="rgb(0, 0, 0)" fill-opacity="1.000000" />
<path d="M 357.547852 136.111328 L 363.241211 136.111328 L 363.241211 137.019043 L 357.547852 137.019043 Z " fill="rgb(0, 0, 0)" fill-opacity="1.000000" />
<path d="M 364.547852 136.111328 L 370.241211 136.111328 L 370.241211 137.019043 L 364.547852 137.019043 Z " fill="rgb(0, 0, 0)" fill-opacity="1.000000" />
<path d="M 371.547852 136.111328 L 377.241211 136.111328 L 377.241211 137.019043 L 371.547852 137.019043 Z " fill="rgb(0, 0, 0)" fill-opacity="1.000000" />
<path d="M 378.547852 136.111328 L 384.241211 136.111328 L 384.241211 137.019043 L 378.547852 137.019043 Z " fill="rgb(0, 0, 0)" fill-opacity="1.000000" />
<path d="M 385.547852 136.111328 L 391.241211 136.111328 L 391.241211 137.019043 L 385.547852 137.019043 Z " fill="rgb(0, 0, 0)" fill-opacity="1.000000" />
<path d="M 392.547852 136.111328 L 398.241211 136.111328 L 398.241211 137.019043 L 392.547852 137.019043 Z " fill="rgb(0, 0, 0)" fill-opacity="1.000000" />
<path d="M 399.547852 136.111328 L 405.241211 136.111328 L 405.241211 137.019043 L 399.547852 137.019043 Z " fill="rgb(0, 0, 0)" fill-opacity="1.000000" />
<path d="M 406.547852 136.111328 L 412.241211 136.111328 L 412.241211 137.019043 L 406.547852 137.019043 Z " fill="rgb(0, 0, 0)" fill-opacity="1.000000" />
<path d="M 413.547852 136.111328 L 419.241211 136.111328 L 419.241211 137.019043 L 413.547852 137.019043 Z " fill="rgb(0, 0, 0)" fill-opacity="1.000000" />
<path d="M 420.547852 136.111328 L 426.241211 136.111328 L 426.241211 137.019043 L 420.547852 137.019043 Z " fill="rgb(0, 0, 0)" fill-opacity="1.000000" />
<path d="M 427.547852 136.111328 L 433.241211 136.111328 L 433.241211 137.019043 L 427.547852 137.019043 Z " fill="rgb(0, 0, 0)" fill-opacity="1.000000" />
<path d="M 434.547852 136.111328 L 440.241211 136.111328 L 440.241211 137.019043 L 434.547852 137.019043 Z " fill="rgb(0, 0, 0)" fill-opacity="1.000000" />
<path d="M 441.547852 136.111328 L 447.241211 136.111328 L 447.241211 137.019043 L 441.547852 137.019043 Z " fill="rgb(0, 0, 0)" fill-opacity="1.000000" />
<path d="M 448.547852 136.111328 L 454.241211 136.111328 L 454.241211 137.019043 L 448.547852 137.019043 Z " fill="rgb(0, 0, 0)" fill-opacity="1.000000" />
<path d="M 455.547852 136.111328 L 461.241211 136.111328 L 461.241211 137.019043 L 455.547852 137.019043 Z " fill="rgb(0, 0, 0)" fill-opacity="1.000000" />
<path d="M 462.547852 136.111328 L 468.241211 136.111328 L 468.241211 137.019043 L 462.547852 137.019043 Z " fill="rgb(0, 0, 0)" fill-opacity="1.000000" />
<path d="M 469.547852 136.111328 L 475.241211 136.111328 L 475.241211 137.019043 L 469.547852 137.019043 Z " fill="rgb(0, 0, 0)" fill-opacity="1.000000" />
<path d="M 476.547852 136.111328 L 482.241211 136.111328 L 482.241211 137.019043 L 476.547852 137.019043 Z " fill="rgb(0, 0, 0)" fill-opacity="1.000000" />
<path d="M 483.547852 136.111328 L 489.241211 136.111328 L 489.241211 137.019043 L 483.547852 137.019043 Z " fill="rgb(0, 0, 0)" fill-opacity="1.000000" />
<path d="M 493.867188 133.672852 L 493.867188 136.052246 L 496.257324 136.052246 L 496.257324 136.959961 L 493.867188 136.959961 L 493.867188 139.339355 L 492.964844 139.339355 L 492.964844 136.959961 L 490.580078 136.959961 L 490.580078 136.052246 L 492.964844 136.052246 L 492.964844 133.672852 Z " fill="rgb(0, 0, 0)" fill-opacity="1.000000" />
<path d="M 17.867188 29.672852 L 17.867188 32.052246 L 20.257324 32.052246 L 20.257324 32.959961 L 17.867188 32.959961 L 17.867188 35.339355 L 16.964844 35.339355 L 16.964844 32.959961 L 14.580078 32.959961 L 14.580078 32.052246 L 16.964844 32.052246 L 16.964844 29.672852 Z " fill="rgb(0, 0, 0)" fill-opacity="1.000000" />
<path d="M 17.985352 40.594238 L 17.985352 51.594238 L 17.061523 51.594238 L 17.061523 40.594238 Z " fill="rgb(0, 0, 0)" fill-opacity="1.000000" />
<path d="M 17.985352 53.594238 L 17.985352 64.594238 L 17.061523 64.594238 L 17.061523 53.594238 Z " fill="rgb(0, 0, 0)" fill-opacity="1.000000" />
<path d="M 17.985352 66.594238 L 17.985352 77.594238 L 17.061523 77.594238 L 17.061523 66.594238 Z " fill="rgb(0, 0, 0)" fill-opacity="1.000000" />
<path d="M 17.985352 79.594238 L 17.985352 90.594238 L 17.061523 90.594238 L 17.061523 79.594238 Z " fill="rgb(0, 0, 0)" fill-opacity="1.000000" />
<path d="M 17.985352 92.594238 L 17.985352 103.594238 L 17.061523 103.594238 L 17.061523 92.594238 Z " fill="rgb(0, 0, 0)" fill-opacity="1.000000" />
<path d="M 17.985352 105.594238 L 17.985352 116.594238 L 17.061523 116.594238 L 17.061523 105.594238 Z " fill="rgb(0, 0, 0)" fill-opacity="1.000000" />
<path d="M 17.867188 120.672852 L 17.867188 123.052246 L 20.257324 123.052246 L 20.257324 123.959961 L 17.867188 123.959961 L 17.867188 126.339355 L 16.964844 126.339355 L 16.964844 123.959961 L 14.580078 123.959961 L 14.580078 123.052246 L 16.964844 123.052246 L 16.964844 120.672852 Z " fill="rgb(0, 0, 0)" fill-opacity="1.000000" />
<path d="M 21.547852 123.111328 L 27.241211 123.111328 L 27.241211 124.019043 L 21.547852 124.019043 Z " fill="rgb(0, 0, 0)" fill-opacity="1.000000" />
<path d="M 28.547852 123.111328 L 34.241211 123.111328 L 34.241211 124.019043 L 28.547852 124.019043 Z " fill="rgb(0, 0, 0)" fill-opacity="1.000000" />
<path d="M 35.547852 123.111328 L 41.241211 123.111328 L 41.241211 124.019043 L 35.547852 124.019043 Z " fill="rgb(0, 0, 0)" fill-opacity="1.000000" />
<path d="M 42.547852 123.111328 L 48.241211 123.111328 L 48.241211 124.019043 L 42.547852 124.019043 Z " fill="rgb(0, 0, 0)" fill-opacity="1.000000" />
<path d="M 49.547852 123.111328 L 55.241211 123.111328 L 55.241211 124.019043 L 49.547852 124.019043 Z " fill="rgb(0, 0, 0)" fill-opacity="1.000000" />
<path d="M 56.547852 123.111328 L 62.241211 123.111328 L 62.241211 124.019043 L 56.547852 124.019043 Z " fill="rgb(0, 0, 0)" fill-opacity="1.000000" />
<path d="M 63.547852 123.111328 L 69.241211 123.111328 L 69.241211 124.019043 L 63.547852 124.019043 Z " fill="rgb(0, 0, 0)" fill-opacity="1.000000" />
<path d="M 70.547852 123.111328 L 76.241211 123.111328 L 76.241211 124.019043 L 70.547852 124.019043 Z " fill="rgb(0, 0, 0)" fill-opacity="1.000000" />
<path d="M 77.547852 123.111328 L 83.241211 123.111328 L 83.241211 124.019043 L 77.547852 124.019043 Z " fill="rgb(0, 0, 0)" fill-opacity="1.000000" />
<path d="M 84.547852 123.111328 L 90.241211 123.111328 L 90.241211 124.019043 L 84.547852 124.019043 Z " fill="rgb(0, 0, 0)" fill-opacity="1.000000" />
<path d="M 91.547852 123.111328 L 97.241211 123.111328 L 97.241211 124.019043 L 91.547852 124.019043 Z " fill="rgb(0, 0, 0)" fill-opacity="1.000000" />
<path d="M 101.867188 120.672852 L 101.867188 123.052246 L 104.257324 123.052246 L 104.257324 123.959961 L 101.867188 123.959961 L 101.867188 126.339355 L 100.964844 126.339355 L 100.964844 123.959961 L 98.580078 123.959961 L 98.580078 123.052246 L 100.964844 123.052246 L 100.964844 120.672852 Z " fill="rgb(0, 0, 0)" fill-opacity="1.000000" />
<path d="M 105.547852 123.111328 L 111.241211 123.111328 L 111.241211 124.019043 L 105.547852 124.019043 Z " fill="rgb(0, 0, 0)" fill-opacity="1.000000" />
<path d="M 112.547852 123.111328 L 118.241211 123.111328 L 118.241211 124.019043 L 112.547852 124.019043 Z " fill="rgb(0, 0, 0)" fill-opacity="1.000000" />
<path d="M 119.547852 123.111328 L 125.241211 123.111328 L 125.241211 124.019043 L 119.547852 124.019043 Z " fill="rgb(0, 0, 0)" fill-opacity="1.000000" />
<path d="M 126.547852 123.111328 L 132.241211 123.111328 L 132.241211 124.019043 L 126.547852 124.019043 Z " fill="rgb(0, 0, 0)" fill-opacity="1.000000" />
<path d="M 133.547852 123.111328 L 139.241211 123.111328 L 139.241211 124.019043 L 133.547852 124.019043 Z " fill="rgb(0, 0, 0)" fill-opacity="1.000000" />
<path d="M 140.547852 123.111328 L 146.241211 123.111328 L 146.241211 124.019043 L 140.547852 124.019043 Z " fill="rgb(0, 0, 0)" fill-opacity="1.000000" />
<path d="M 147.547852 123.111328 L 153.241211 123.111328 L 153.241211 124.019043 L 147.547852 124.019043 Z " fill="rgb(0, 0, 0)" fill-opacity="1.000000" />
<path d="M 154.547852 123.111328 L 160.241211 123.111328 L 160.241211 124.019043 L 154.547852 124.019043 Z " fill="rgb(0, 0, 0)" fill-opacity="1.000000" />
<path d="M 161.547852 123.111328 L 167.241211 123.111328 L 167.241211 124.019043 L 161.547852 124.019043 Z " fill="rgb(0, 0, 0)" fill-opacity="1.000000" />
<path d="M 168.547852 123.111328 L 174.241211 123.111328 L 174.241211 124.019043 L 168.547852 124.019043 Z " fill="rgb(0, 0, 0)" fill-opacity="1.000000" />
<path d="M 175.547852 123.111328 L 181.241211 123.111328 L 181.241211 124.019043 L 175.547852 124.019043 Z " fill="rgb(0, 0, 0)" fill-opacity="1.000000" />
<path d="M 185.867188 120.672852 L 185.867188 123.052246 L 188.257324 123.052246 L 188.257324 123.959961 L 185.867188 123.959961 L 185.867188 126.339355 L 184.964844 126.339355 L 184.964844 123.959961 L 182.580078 123.959961 L 182.580078 123.052246 L 184.964844 123.052246 L 184.964844 120.672852 Z " fill="rgb(0, 0, 0)" fill-opacity="1.000000" />
<path d="M 248.867188 120.672852 L 248.867188 123.052246 L 251.257324 123.052246 L 251.257324 123.959961 L 248.867188 123.959961 L 248.867188 126.339355 L 247.964844 126.339355 L 247.964844 123.959961 L 245.580078 123.959961 L 245.580078 123.052246 L 247.964844 123.052246 L 247.964844 120.672852 Z " fill="rgb(0, 0, 0)" fill-opacity="1.000000" />
<path d="M 252.547852 123.111328 L 258.241211 123.111328 L 258.241211 124.019043 L 252.547852 124.019043 Z " fill="rgb(0, 0, 0)" fill-opacity="1.000000" />
<path d="M 259.547852 123.111328 L 265.241211 123.111328 L 265.241211 124.019043 L 259.547852 124.019043 Z " fill="rgb(0, 0, 0)" fill-opacity="1.000000" />
<path d="M 266.547852 123.111328 L 272.241211 123.111328 L 272.241211 124.019043 L 266.547852 124.019043 Z " fill="rgb(0, 0, 0)" fill-opacity="1.000000" />
<path d="M 273.547852 123.111328 L 279.241211 123.111328 L 279.241211 124.019043 L 273.547852 124.019043 Z " fill="rgb(0, 0, 0)" fill-opacity="1.000000" />
<path d="M 280.547852 123.111328 L 286.241211 123.111328 L 286.241211 124.019043 L 280.547852 124.019043 Z " fill="rgb(0, 0, 0)" fill-opacity="1.000000" />
<path d="M 287.547852 123.111328 L 293.241211 123.111328 L 293.241211 124.019043 L 287.547852 124.019043 Z " fill="rgb(0, 0, 0)" fill-opacity="1.000000" />
<path d="M 294.547852 123.111328 L 300.241211 123.111328 L 300.241211 124.019043 L 294.547852 124.019043 Z " fill="rgb(0, 0, 0)" fill-opacity="1.000000" />
<path d="M 301.547852 123.111328 L 307.241211 123.111328 L 307.241211 124.019043 L 301.547852 124.019043 Z " fill="rgb(0, 0, 0)" fill-opacity="1.000000" />
<path d="M 308.547852 123.111328 L 314.241211 123.111328 L 314.241211 124.019043 L 308.547852 124.019043 Z " fill="rgb(0, 0, 0)" fill-opacity="1.000000" />
<path d="M 315.547852 123.111328 L 321.241211 123.111328 L 321.241211 124.019043 L 315.547852 124.019043 Z " fill="rgb(0, 0, 0)" fill-opacity="1.000000" />
<path d="M 322.547852 123.111328 L 328.241211 123.111328 L 328.241211 124.019043 L 322.547852 124.019043 Z " fill="rgb(0, 0, 0)" fill-opacity="1.000000" />
<path d="M 332.867188 120.672852 L 332.867188 123.052246 L 335.257324 123.052246 L 335.257324 123.959961 L 332.867188 123.959961 L 332.867188 126.339355 L 331.964844 126.339355 L 331.964844 123.959961 L 329.580078 123.959961 L 329.580078 123.052246 L 331.964844 123.052246 L 331.964844 120.672852 Z " fill="rgb(0, 0, 0)" fill-opacity="1.000000" />
<path d="M 395.867188 120.672852 L 395.867188 123.052246 L 398.257324 123.052246 L 398.257324 123.959961 L 395.867188 123.959961 L 395.867188 126.339355 L 394.964844 126.339355 L 394.964844 123.959961 L 392.580078 123.959961 L 392.580078 123.052246 L 394.964844 123.052246 L 394.964844 120.672852 Z " fill="rgb(0, 0, 0)" fill-opacity="1.000000" />
<path d="M 399.547852 123.111328 L 405.241211 123.111328 L 405.241211 124.019043 L 399.547852 124.019043 Z " fill="rgb(0, 0, 0)" fill-opacity="1.000000" />
<path d="M 406.547852 123.111328 L 412.241211 123.111328 L 412.241211 124.019043 L 406.547852 124.019043 Z " fill="rgb(0, 0, 0)" fill-opacity="1.000000" />
<path d="M 413.547852 123.111328 L 419.241211 123.111328 L 419.241211 124.019043 L 413.547852 124.019043 Z " fill="rgb(0, 0, 0)" fill-opacity="1.000000" />
<path d="M 420.547852 123.111328 L 426.241211 123.111328 L 426.241211 124.019043 L 420.547852 124.019043 Z " fill="rgb(0, 0, 0)" fill-opacity="1.000000" />
<path d="M 427.547852 123.111328 L 433.241211 123.111328 L 433.241211 124.019043 L 427.547852 124.019043 Z " fill="rgb(0, 0, 0)" fill-opacity="1.000000" />
<path d="M 434.547852 123.111328 L 440.241211 123.111328 L 440.241211 124.019043 L 434.547852 124.019043 Z " fill="rgb(0, 0, 0)" fill-opacity="1.000000" />
<path d="M 441.547852 123.111328 L 447.241211 123.111328 L 447.241211 124.019043 L 441.547852 124.019043 Z " fill="rgb(0, 0, 0)" fill-opacity="1.000000" />
<path d="M 448.547852 123.111328 L 454.241211 123.111328 L 454.241211 124.019043 L 448.547852 124.019043 Z " fill="rgb(0, 0, 0)" fill-opacity="1.000000" />
<path d="M 455.547852 123.111328 L 461.241211 123.111328 L 461.241211 124.019043 L 455.547852 124.019043 Z " fill="rgb(0, 0, 0)" fill-opacity="1.000000" />
<path d="M 462.547852 123.111328 L 468.241211 123.111328 L 468.241211 124.019043 L 462.547852 124.019043 Z " fill="rgb(0, 0, 0)" fill-opacity="1.000000" />
<path d="M 469.547852 123.111328 L 475.241211 123.111328 L 475.241211 124.019043 L 469.547852 124.019043 Z " fill="rgb(0, 0, 0)" fill-opacity="1.000000" />
<path d="M 479.867188 120.672852 L 479.867188 123.052246 L 482.257324 123.052246 L 482.257324 123.959961 L 479.867188 123.959961 L 479.867188 126.339355 L 478.964844 126.339355 L 478.964844 123.959961 L 476.580078 123.959961 L 476.580078 123.052246 L 478.964844 123.052246 L 478.964844 120.672852 Z " fill="rgb(0, 0, 0)" fill-opacity="1.000000" />
<path d="M 493.985352 118.594238 L 493.985352 129.594238 L 493.061523 129.594238 L 493.061523 118.594238 Z " fill="rgb(0, 0, 0)" fill-opacity="1.000000" />
<path d="M 40.929688 74.339355 Q 40.494629 74.742188 39.949463 74.948975 Q 39.404297 75.155762 38.770508 75.155762 Q 37.245117 75.155762 36.396484 74.062744 Q 35.547852 72.969727 35.547852 70.998535 Q 35.547852 69.032715 36.407227 67.934326 Q 37.266602 66.835938 38.797363 66.835938 Q 39.302246 66.835938 39.764160 66.978271 Q 40.226074 67.120605 40.655762 67.410645 L 40.655762 68.522461 Q 40.220703 68.108887 39.764160 67.912842 Q 39.307617 67.716797 38.797363 67.716797 Q 37.739258 67.716797 37.210205 68.535889 Q 36.681152 69.354980 36.681152 70.998535 Q 36.681152 72.668945 37.194092 73.471924 Q 37.707031 74.274902 38.770508 74.274902 Q 39.130371 74.274902 39.401611 74.191650 Q 39.672852 74.108398 39.893066 73.931152 L 39.893066 71.777344 L 38.727539 71.777344 L 38.727539 70.885742 L 40.929688 70.885742 Z " fill="rgb(0, 0, 0)" fill-opacity="1.000000" />
<path d="M 101.985352 79.594238 L 101.985352 90.594238 L 101.061523 90.594238 L 101.061523 79.594238 Z " fill="rgb(0, 0, 0)" fill-opacity="1.000000" />
<path d="M 101.985352 92.594238 L 101.985352 103.594238 L 101.061523 103.594238 L 101.061523 92.594238 Z " fill="rgb(0, 0, 0)" fill-opacity="1.000000" />
<path d="M 101.985352 105.594238 L 101.985352 116.594238 L 101.061523 116.594238 L 101.061523 105.594238 Z " fill="rgb(0, 0, 0)" fill-opacity="1.000000" />
<path d="M 120.154785 79.980957 L 121.245117 79.980957 L 121.245117 87.086914 L 125.117676 87.086914 L 125.117676 88.000000 L 120.154785 88.000000 Z " fill="rgb(0, 0, 0)" fill-opacity="1.000000" />
<path d="M 185.985352 92.594238 L 185.985352 103.594238 L 185.061523 103.594238 L 185.061523 92.594238 Z " fill="rgb(0, 0, 0)" fill-opacity="1.000000" />
<path d="M 185.985352 105.594238 L 185.985352 116.594238 L 185.061523 116.594238 L 185.061523 105.594238 Z " fill="rgb(0, 0, 0)" fill-opacity="1.000000" />
<path d="M 196.547852 97.111328 L 202.241211 97.111328 L 202.241211 98.019043 L 196.547852 98.019043 Z " fill="rgb(0, 0, 0)" fill-opacity="1.000000" />
<path d="M 203.547852 97.111328 L 209.241211 97.111328 L 209.241211 98.019043 L 203.547852 98.019043 Z " fill="rgb(0, 0, 0)" fill-opacity="1.000000" />
<path d="M 210.547852 97.111328 L 216.241211 97.111328 L 216.241211 98.019043 L 210.547852 98.019043 Z " fill="rgb(0, 0, 0)" fill-opacity="1.000000" />
<path d="M 217.547852 97.111328 L 223.241211 97.111328 L 223.241211 98.019043 L 217.547852 98.019043 Z " fill="rgb(0, 0, 0)" fill-opacity="1.000000" />
<path d="M 224.547852 97.111328 L 230.241211 97.111328 L 230.241211 98.019043 L 224.547852 98.019043 Z " fill="rgb(0, 0, 0)" fill-opacity="1.000000" />
<path d="M 202.149902 108.838379 L 197.584473 110.557129 L 202.149902 112.259766 L 202.149902 113.242676 L 196.472656 110.997559 L 196.472656 110.105957 L 202.149902 107.860840 Z " fill="rgb(0, 0, 0)" fill-opacity="1.000000" />
<path d="M 203.547852 110.111328 L 209.241211 110.111328 L 209.241211 111.019043 L 203.547852 111.019043 Z " fill="rgb(0, 0, 0)" fill-opacity="1.000000" />
<path d="M 210.547852 110.111328 L 216.241211 110.111328 L 216.241211 111.019043 L 210.547852 111.019043 Z " fill="rgb(0, 0, 0)" fill-opacity="1.000000" />
<path d="M 217.547852 110.111328 L 223.241211 110.111328 L 223.241211 111.019043 L 217.547852 111.019043 Z " fill="rgb(0, 0, 0)" fill-opacity="1.000000" />
<path d="M 224.547852 110.111328 L 230.241211 110.111328 L 230.241211 111.019043 L 224.547852 111.019043 Z " fill="rgb(0, 0, 0)" fill-opacity="1.000000" />
<path d="M 231.547852 110.111328 L 237.241211 110.111328 L 237.241211 111.019043 L 231.547852 111.019043 Z " fill="rgb(0, 0, 0)" fill-opacity="1.000000" />
<path d="M 248.985352 105.594238 L 248.985352 116.594238 L 248.061523 116.594238 L 248.061523 105.594238 Z " fill="rgb(0, 0, 0)" fill-opacity="1.000000" />
<path d="M 332.985352 105.594238 L 332.985352 116.594238 L 332.061523 116.594238 L 332.061523 105.594238 Z " fill="rgb(0, 0, 0)" fill-opacity="1.000000" />
<path d="M 395.985352 105.594238 L 395.985352 116.594238 L 395.061523 116.594238 L 395.061523 105.594238 Z " fill="rgb(0, 0, 0)" fill-opacity="1.000000" />
<path d="M 479.985352 105.594238 L 479.985352 116.594238 L 479.061523 116.594238 L 479.061523 105.594238 Z " fill="rgb(0, 0, 0)" fill-opacity="1.000000" />
<path d="M 493.985352 105.594238 L 493.985352 116.594238 L 493.061523 116.594238 L 493.061523 105.594238 Z " fill="rgb(0, 0, 0)" fill-opacity="1.000000" />
<path d="M 231.472656 95.838379 L 231.472656 94.860840 L 237.149902 97.105957 L 237.149902 97.997559 L 231.472656 100.242676 L 231.472656 99.259766 L 236.038086 97.557129 Z " fill="rgb(0, 0, 0)" fill-opacity="1.000000" />
<path d="M 248.985352 92.594238 L 248.985352 103.594238 L 248.061523 103.594238 L 248.061523 92.594238 Z " fill="rgb(0, 0, 0)" fill-opacity="1.000000" />
<path d="M 332.985352 92.594238 L 332.985352 103.594238 L 332.061523 103.594238 L 332.061523 92.594238 Z " fill="rgb(0, 0, 0)" fill-opacity="1.000000" />
<path d="M 395.985352 92.594238 L 395.985352 103.594238 L 395.061523 103.594238 L 395.061523 92.594238 Z " fill="rgb(0, 0, 0)" fill-opacity="1.000000" />
<path d="M 479.985352 92.594238 L 479.985352 103.594238 L 479.061523 103.594238 L 479.061523 92.594238 Z " fill="rgb(0, 0, 0)" fill-opacity="1.000000" />
<path d="M 493.985352 92.594238 L 493.985352 103.594238 L 493.061523 103.594238 L 493.061523 92.594238 Z " fill="rgb(0, 0, 0)" fill-opacity="1.000000" />
<path d="M 129.308594 82.677246 Q 128.556641 82.677246 128.169922 83.262695 Q 127.783203 83.848145 127.783203 84.997559 Q 127.783203 86.141602 128.169922 86.729736 Q 128.556641 87.317871 129.308594 87.317871 Q 130.065918 87.317871 130.452637 86.729736 Q 130.839355 86.141602 130.839355 84.997559 Q 130.839355 83.848145 130.452637 83.262695 Q 130.065918 82.677246 129.308594 82.677246 Z M 129.308594 81.839355 Q 130.560059 81.839355 131.223389 82.650391 Q 131.886719 83.461426 131.886719 84.997559 Q 131.886719 86.539062 131.226074 87.347412 Q 130.565430 88.155762 129.308594 88.155762 Q 128.057129 88.155762 127.396484 87.347412 Q 126.735840 86.539062 126.735840 84.997559 Q 126.735840 83.461426 127.396484 82.650391 Q 128.057129 81.839355 129.308594 81.839355 Z " fill="rgb(0, 0, 0)" fill-opacity="1.000000" />
<path d="M 136.770508 84.976074 L 136.442871 84.976074 Q 135.578125 84.976074 135.140381 85.279541 Q 134.702637 85.583008 134.702637 86.184570 Q 134.702637 86.727051 135.030273 87.027832 Q 135.357910 87.328613 135.937988 87.328613 Q 136.754395 87.328613 137.221680 86.761963 Q 137.688965 86.195312 137.694336 85.196289 L 137.694336 84.976074 Z M 138.687988 84.567871 L 138.687988 88.000000 L 137.694336 88.000000 L 137.694336 87.108398 Q 137.377441 87.645508 136.896729 87.900635 Q 136.416016 88.155762 135.728516 88.155762 Q 134.810059 88.155762 134.262207 87.637451 Q 133.714355 87.119141 133.714355 86.249023 Q 133.714355 85.244629 134.388428 84.723633 Q 135.062500 84.202637 136.367676 84.202637 L 137.694336 84.202637 L 137.694336 84.046875 Q 137.688965 83.327148 137.329102 83.002197 Q 136.969238 82.677246 136.179688 82.677246 Q 135.674805 82.677246 135.159180 82.822266 Q 134.643555 82.967285 134.154785 83.246582 L 134.154785 82.258301 Q 134.702637 82.048828 135.204834 81.944092 Q 135.707031 81.839355 136.179688 81.839355 Q 136.926270 81.839355 137.455322 82.059570 Q 137.984375 82.279785 138.312012 82.720215 Q 138.516113 82.988770 138.602051 83.383545 Q 138.687988 83.778320 138.687988 84.567871 Z " fill="rgb(0, 0, 0)" fill-opacity="1.000000" />
<path d="M 144.608398 82.752441 L 144.608398 79.642578 L 145.596680 79.642578 L 145.596680 88.000000 L 144.608398 88.000000 L 144.608398 87.242676 Q 144.361328 87.688477 143.950439 87.922119 Q 143.539551 88.155762 143.002441 88.155762 Q 141.912109 88.155762 141.286377 87.309814 Q 140.660645 86.463867 140.660645 84.976074 Q 140.660645 83.509766 141.289062 82.674561 Q 141.917480 81.839355 143.002441 81.839355 Q 143.544922 81.839355 143.958496 82.072998 Q 144.372070 82.306641 144.608398 82.752441 Z M 141.702637 84.997559 Q 141.702637 86.146973 142.067871 86.732422 Q 142.433105 87.317871 143.147461 87.317871 Q 143.861816 87.317871 144.235107 86.727051 Q 144.608398 86.136230 144.608398 84.997559 Q 144.608398 83.853516 144.235107 83.265381 Q 143.861816 82.677246 143.147461 82.677246 Q 142.433105 82.677246 142.067871 83.262695 Q 141.702637 83.848145 141.702637 84.997559 Z " fill="rgb(0, 0, 0)" fill-opacity="1.000000" />
<path d="M 153.015625 84.498047 L 153.015625 84.981445 L 148.734863 84.981445 L 148.734863 85.013672 Q 148.691895 86.243652 149.204834 86.780762 Q 149.717773 87.317871 150.652344 87.317871 Q 151.125000 87.317871 151.640625 87.167480 Q 152.156250 87.017090 152.741699 86.710938 L 152.741699 87.693848 Q 152.177734 87.924805 151.654053 88.040283 Q 151.130371 88.155762 150.641602 88.155762 Q 149.239746 88.155762 148.450195 87.315186 Q 147.660645 86.474609 147.660645 84.997559 Q 147.660645 83.558105 148.434082 82.698730 Q 149.207520 81.839355 150.496582 81.839355 Q 151.645996 81.839355 152.309326 82.618164 Q 152.972656 83.396973 153.015625 84.498047 Z M 152.027344 84.208008 Q 151.962891 83.584961 151.573486 83.131104 Q 151.184082 82.677246 150.453613 82.677246 Q 149.739258 82.677246 149.277344 83.149902 Q 148.815430 83.622559 148.772461 84.213379 Z " fill="rgb(0, 0, 0)" fill-opacity="1.000000" />
<path d="M 160.203613 83.225098 Q 159.886719 82.978027 159.559082 82.865234 Q 159.231445 82.752441 158.839355 82.752441 Q 157.915527 82.752441 157.426758 83.332520 Q 156.937988 83.912598 156.937988 85.008301 L 156.937988 88.000000 L 155.944336 88.000000 L 155.944336 81.984375 L 156.937988 81.984375 L 156.937988 83.160645 Q 157.185059 82.521484 157.697998 82.180420 Q 158.210938 81.839355 158.914551 81.839355 Q 159.279785 81.839355 159.596680 81.930664 Q 159.913574 82.021973 160.203613 82.215332 Z " fill="rgb(0, 0, 0)" fill-opacity="1.000000" />
<path d="M 185.985352 79.594238 L 185.985352 90.594238 L 185.061523 90.594238 L 185.061523 79.594238 Z " fill="rgb(0, 0, 0)" fill-opacity="1.000000" />
<path d="M 248.985352 79.594238 L 248.985352 90.594238 L 248.061523 90.594238 L 248.061523 79.594238 Z " fill="rgb(0, 0, 0)" fill-opacity="1.000000" />
<path d="M 332.985352 79.594238 L 332.985352 90.594238 L 332.061523 90.594238 L 332.061523 79.594238 Z " fill="rgb(0, 0, 0)" fill-opacity="1.000000" />
<path d="M 349.149902 82.838379 L 344.584473 84.557129 L 349.149902 86.259766 L 349.149902 87.242676 L 343.472656 84.997559 L 343.472656 84.105957 L 349.149902 81.860840 Z " fill="rgb(0, 0, 0)" fill-opacity="1.000000" />
<path d="M 350.547852 84.111328 L 356.241211 84.111328 L 356.241211 85.019043 L 350.547852 85.019043 Z " fill="rgb(0, 0, 0)" fill-opacity="1.000000" />
<path d="M 357.547852 84.111328 L 363.241211 84.111328 L 363.241211 85.019043 L 357.547852 85.019043 Z " fill="rgb(0, 0, 0)" fill-opacity="1.000000" />
<path d="M 364.547852 84.111328 L 370.241211 84.111328 L 370.241211 85.019043 L 364.547852 85.019043 Z " fill="rgb(0, 0, 0)" fill-opacity="1.000000" />
<path d="M 371.547852 84.111328 L 377.241211 84.111328 L 377.241211 85.019043 L 371.547852 85.019043 Z " fill="rgb(0, 0, 0)" fill-opacity="1.000000" />
<path d="M 378.547852 84.111328 L 384.241211 84.111328 L 384.241211 85.019043 L 378.547852 85.019043 Z " fill="rgb(0, 0, 0)" fill-opacity="1.000000" />
<path d="M 395.985352 79.594238 L 395.985352 90.594238 L 395.061523 90.594238 L 395.061523 79.594238 Z " fill="rgb(0, 0, 0)" fill-opacity="1.000000" />
<path d="M 479.985352 79.594238 L 479.985352 90.594238 L 479.061523 90.594238 L 479.061523 79.594238 Z " fill="rgb(0, 0, 0)" fill-opacity="1.000000" />
<path d="M 493.985352 79.594238 L 493.985352 90.594238 L 493.061523 90.594238 L 493.061523 79.594238 Z " fill="rgb(0, 0, 0)" fill-opacity="1.000000" />
<path d="M 48.203613 70.225098 Q 47.886719 69.978027 47.559082 69.865234 Q 47.231445 69.752441 46.839355 69.752441 Q 45.915527 69.752441 45.426758 70.332520 Q 44.937988 70.912598 44.937988 72.008301 L 44.937988 75.000000 L 43.944336 75.000000 L 43.944336 68.984375 L 44.937988 68.984375 L 44.937988 70.160645 Q 45.185059 69.521484 45.697998 69.180420 Q 46.210938 68.839355 46.914551 68.839355 Q 47.279785 68.839355 47.596680 68.930664 Q 47.913574 69.021973 48.203613 69.215332 Z " fill="rgb(0, 0, 0)" fill-opacity="1.000000" />
<path d="M 52.770508 71.976074 L 52.442871 71.976074 Q 51.578125 71.976074 51.140381 72.279541 Q 50.702637 72.583008 50.702637 73.184570 Q 50.702637 73.727051 51.030273 74.027832 Q 51.357910 74.328613 51.937988 74.328613 Q 52.754395 74.328613 53.221680 73.761963 Q 53.688965 73.195312 53.694336 72.196289 L 53.694336 71.976074 Z M 54.687988 71.567871 L 54.687988 75.000000 L 53.694336 75.000000 L 53.694336 74.108398 Q 53.377441 74.645508 52.896729 74.900635 Q 52.416016 75.155762 51.728516 75.155762 Q 50.810059 75.155762 50.262207 74.637451 Q 49.714355 74.119141 49.714355 73.249023 Q 49.714355 72.244629 50.388428 71.723633 Q 51.062500 71.202637 52.367676 71.202637 L 53.694336 71.202637 L 53.694336 71.046875 Q 53.688965 70.327148 53.329102 70.002197 Q 52.969238 69.677246 52.179688 69.677246 Q 51.674805 69.677246 51.159180 69.822266 Q 50.643555 69.967285 50.154785 70.246582 L 50.154785 69.258301 Q 50.702637 69.048828 51.204834 68.944092 Q 51.707031 68.839355 52.179688 68.839355 Q 52.926270 68.839355 53.455322 69.059570 Q 53.984375 69.279785 54.312012 69.720215 Q 54.516113 69.988770 54.602051 70.383545 Q 54.687988 70.778320 54.687988 71.567871 Z " fill="rgb(0, 0, 0)" fill-opacity="1.000000" />
<path d="M 58.014160 74.242676 L 58.014160 77.288086 L 57.020508 77.288086 L 57.020508 68.984375 L 58.014160 68.984375 L 58.014160 69.752441 Q 58.261230 69.306641 58.672119 69.072998 Q 59.083008 68.839355 59.620117 68.839355 Q 60.710449 68.839355 61.330811 69.682617 Q 61.951172 70.525879 61.951172 72.019043 Q 61.951172 73.485352 61.328125 74.320557 Q 60.705078 75.155762 59.620117 75.155762 Q 59.072266 75.155762 58.661377 74.922119 Q 58.250488 74.688477 58.014160 74.242676 Z M 60.914551 71.997559 Q 60.914551 70.848145 60.552002 70.262695 Q 60.189453 69.677246 59.475098 69.677246 Q 58.755371 69.677246 58.384766 70.265381 Q 58.014160 70.853516 58.014160 71.997559 Q 58.014160 73.136230 58.384766 73.727051 Q 58.755371 74.317871 59.475098 74.317871 Q 60.189453 74.317871 60.552002 73.732422 Q 60.914551 73.146973 60.914551 71.997559 Z " fill="rgb(0, 0, 0)" fill-opacity="1.000000" />
<path d="M 68.645020 71.272461 L 68.645020 75.000000 L 67.651367 75.000000 L 67.651367 71.272461 Q 67.651367 70.461426 67.366699 70.080078 Q 67.082031 69.698730 66.475098 69.698730 Q 65.782227 69.698730 65.408936 70.190186 Q 65.035645 70.681641 65.035645 71.600098 L 65.035645 75.000000 L 64.047363 75.000000 L 64.047363 66.642578 L 65.035645 66.642578 L 65.035645 69.886719 Q 65.298828 69.371094 65.750000 69.105225 Q 66.201172 68.839355 66.818848 68.839355 Q 67.737305 68.839355 68.191162 69.443604 Q 68.645020 70.047852 68.645020 71.272461 Z " fill="rgb(0, 0, 0)" fill-opacity="1.000000" />
<path d="M 73.518066 75.145020 Q 73.480469 75.145020 73.410645 75.150391 Q 73.340820 75.155762 73.297852 75.155762 Q 71.955078 75.155762 71.291748 74.124512 Q 70.628418 73.093262 70.628418 70.998535 Q 70.628418 68.898438 71.291748 67.867188 Q 71.955078 66.835938 73.308594 66.835938 Q 74.667480 66.835938 75.330811 67.867188 Q 75.994141 68.898438 75.994141 70.998535 Q 75.994141 72.577637 75.626221 73.541748 Q 75.258301 74.505859 74.511719 74.892578 L 75.585938 75.913086 L 74.774902 76.450195 Z M 74.860840 70.998535 Q 74.860840 69.231445 74.498291 68.474121 Q 74.135742 67.716797 73.308594 67.716797 Q 72.486816 67.716797 72.124268 68.474121 Q 71.761719 69.231445 71.761719 70.998535 Q 71.761719 72.760254 72.124268 73.517578 Q 72.486816 74.274902 73.308594 74.274902 Q 74.135742 74.274902 74.498291 73.520264 Q 74.860840 72.765625 74.860840 70.998535 Z " fill="rgb(0, 0, 0)" fill-opacity="1.000000" />
<path d="M 78.154785 66.980957 L 79.245117 66.980957 L 79.245117 74.086914 L 83.117676 74.086914 L 83.117676 75.000000 L 78.154785 75.000000 Z " fill="rgb(0, 0, 0)" fill-opacity="1.000000" />
<path d="M 101.985352 66.594238 L 101.985352 77.594238 L 101.061523 77.594238 L 101.061523 66.594238 Z " fill="rgb(0, 0, 0)" fill-opacity="1.000000" />
<path d="M 128.341797 74.108398 Q 129.711426 74.108398 130.253906 73.434326 Q 130.796387 72.760254 130.796387 70.998535 Q 130.796387 69.220703 130.256592 68.546631 Q 129.716797 67.872559 128.341797 67.872559 L 127.826172 67.872559 L 127.826172 74.108398 Z M 128.363281 66.980957 Q 130.200195 66.980957 131.070312 67.958496 Q 131.940430 68.936035 131.940430 70.998535 Q 131.940430 73.050293 131.070312 74.025146 Q 130.200195 75.000000 128.363281 75.000000 L 126.735840 75.000000 L 126.735840 66.980957 Z " fill="rgb(0, 0, 0)" fill-opacity="1.000000" />
<path d="M 136.770508 71.976074 L 136.442871 71.976074 Q 135.578125 71.976074 135.140381 72.279541 Q 134.702637 72.583008 134.702637 73.184570 Q 134.702637 73.727051 135.030273 74.027832 Q 135.357910 74.328613 135.937988 74.328613 Q 136.754395 74.328613 137.221680 73.761963 Q 137.688965 73.195312 137.694336 72.196289 L 137.694336 71.976074 Z M 138.687988 71.567871 L 138.687988 75.000000 L 137.694336 75.000000 L 137.694336 74.108398 Q 137.377441 74.645508 136.896729 74.900635 Q 136.416016 75.155762 135.728516 75.155762 Q 134.810059 75.155762 134.262207 74.637451 Q 133.714355 74.119141 133.714355 73.249023 Q 133.714355 72.244629 134.388428 71.723633 Q 135.062500 71.202637 136.367676 71.202637 L 137.694336 71.202637 L 137.694336 71.046875 Q 137.688965 70.327148 137.329102 70.002197 Q 136.969238 69.677246 136.179688 69.677246 Q 135.674805 69.677246 135.159180 69.822266 Q 134.643555 69.967285 134.154785 70.246582 L 134.154785 69.258301 Q 134.702637 69.048828 135.204834 68.944092 Q 135.707031 68.839355 136.179688 68.839355 Q 136.926270 68.839355 137.455322 69.059570 Q 137.984375 69.279785 138.312012 69.720215 Q 138.516113 69.988770 138.602051 70.383545 Q 138.687988 70.778320 138.687988 71.567871 Z " fill="rgb(0, 0, 0)" fill-opacity="1.000000" />
<path d="M 143.297852 67.276367 L 143.297852 68.984375 L 145.542969 68.984375 L 145.542969 69.752441 L 143.297852 69.752441 L 143.297852 73.018066 Q 143.297852 73.684082 143.550293 73.947266 Q 143.802734 74.210449 144.431152 74.210449 L 145.542969 74.210449 L 145.542969 75.000000 L 144.334473 75.000000 Q 143.222656 75.000000 142.766113 74.554199 Q 142.309570 74.108398 142.309570 73.018066 L 142.309570 69.752441 L 140.703613 69.752441 L 140.703613 68.984375 L 142.309570 68.984375 L 142.309570 67.276367 Z " fill="rgb(0, 0, 0)" fill-opacity="1.000000" />
<path d="M 150.770508 71.976074 L 150.442871 71.976074 Q 149.578125 71.976074 149.140381 72.279541 Q 148.702637 72.583008 148.702637 73.184570 Q 148.702637 73.727051 149.030273 74.027832 Q 149.357910 74.328613 149.937988 74.328613 Q 150.754395 74.328613 151.221680 73.761963 Q 151.688965 73.195312 151.694336 72.196289 L 151.694336 71.976074 Z M 152.687988 71.567871 L 152.687988 75.000000 L 151.694336 75.000000 L 151.694336 74.108398 Q 151.377441 74.645508 150.896729 74.900635 Q 150.416016 75.155762 149.728516 75.155762 Q 148.810059 75.155762 148.262207 74.637451 Q 147.714355 74.119141 147.714355 73.249023 Q 147.714355 72.244629 148.388428 71.723633 Q 149.062500 71.202637 150.367676 71.202637 L 151.694336 71.202637 L 151.694336 71.046875 Q 151.688965 70.327148 151.329102 70.002197 Q 150.969238 69.677246 150.179688 69.677246 Q 149.674805 69.677246 149.159180 69.822266 Q 148.643555 69.967285 148.154785 70.246582 L 148.154785 69.258301 Q 148.702637 69.048828 149.204834 68.944092 Q 149.707031 68.839355 150.179688 68.839355 Q 150.926270 68.839355 151.455322 69.059570 Q 151.984375 69.279785 152.312012 69.720215 Q 152.516113 69.988770 152.602051 70.383545 Q 152.687988 70.778320 152.687988 71.567871 Z " fill="rgb(0, 0, 0)" fill-opacity="1.000000" />
<path d="M 185.985352 66.594238 L 185.985352 77.594238 L 185.061523 77.594238 L 185.061523 66.594238 Z " fill="rgb(0, 0, 0)" fill-opacity="1.000000" />
<path d="M 248.985352 66.594238 L 248.985352 77.594238 L 248.061523 77.594238 L 248.061523 66.594238 Z " fill="rgb(0, 0, 0)" fill-opacity="1.000000" />
<path d="M 278.763184 74.715332 Q 278.349609 74.935547 277.914551 75.045654 Q 277.479492 75.155762 276.990723 75.155762 Q 275.449219 75.155762 274.597900 74.065430 Q 273.746582 72.975098 273.746582 70.998535 Q 273.746582 69.032715 274.603271 67.934326 Q 275.459961 66.835938 276.990723 66.835938 Q 277.479492 66.835938 277.914551 66.946045 Q 278.349609 67.056152 278.763184 67.276367 L 278.763184 68.388184 Q 278.365723 68.060547 277.909180 67.888672 Q 277.452637 67.716797 276.990723 67.716797 Q 275.932617 67.716797 275.406250 68.533203 Q 274.879883 69.349609 274.879883 70.998535 Q 274.879883 72.642090 275.406250 73.458496 Q 275.932617 74.274902 276.990723 74.274902 Q 277.463379 74.274902 277.917236 74.103027 Q 278.371094 73.931152 278.763184 73.603516 Z " fill="rgb(0, 0, 0)" fill-opacity="1.000000" />
<path d="M 283.770508 71.976074 L 283.442871 71.976074 Q 282.578125 71.976074 282.140381 72.279541 Q 281.702637 72.583008 281.702637 73.184570 Q 281.702637 73.727051 282.030273 74.027832 Q 282.357910 74.328613 282.937988 74.328613 Q 283.754395 74.328613 284.221680 73.761963 Q 284.688965 73.195312 284.694336 72.196289 L 284.694336 71.976074 Z M 285.687988 71.567871 L 285.687988 75.000000 L 284.694336 75.000000 L 284.694336 74.108398 Q 284.377441 74.645508 283.896729 74.900635 Q 283.416016 75.155762 282.728516 75.155762 Q 281.810059 75.155762 281.262207 74.637451 Q 280.714355 74.119141 280.714355 73.249023 Q 280.714355 72.244629 281.388428 71.723633 Q 282.062500 71.202637 283.367676 71.202637 L 284.694336 71.202637 L 284.694336 71.046875 Q 284.688965 70.327148 284.329102 70.002197 Q 283.969238 69.677246 283.179688 69.677246 Q 282.674805 69.677246 282.159180 69.822266 Q 281.643555 69.967285 281.154785 70.246582 L 281.154785 69.258301 Q 281.702637 69.048828 282.204834 68.944092 Q 282.707031 68.839355 283.179688 68.839355 Q 283.926270 68.839355 284.455322 69.059570 Q 284.984375 69.279785 285.312012 69.720215 Q 285.516113 69.988770 285.602051 70.383545 Q 285.687988 70.778320 285.687988 71.567871 Z " fill="rgb(0, 0, 0)" fill-opacity="1.000000" />
<path d="M 292.698730 74.693848 Q 292.301270 74.924805 291.879639 75.040283 Q 291.458008 75.155762 291.017578 75.155762 Q 289.621094 75.155762 288.834229 74.317871 Q 288.047363 73.479980 288.047363 71.997559 Q 288.047363 70.515137 288.834229 69.677246 Q 289.621094 68.839355 291.017578 68.839355 Q 291.452637 68.839355 291.866211 68.952148 Q 292.279785 69.064941 292.698730 69.301270 L 292.698730 70.337891 Q 292.306641 69.988770 291.911865 69.833008 Q 291.517090 69.677246 291.017578 69.677246 Q 290.088379 69.677246 289.588867 70.278809 Q 289.089355 70.880371 289.089355 71.997559 Q 289.089355 73.109375 289.591553 73.713623 Q 290.093750 74.317871 291.017578 74.317871 Q 291.533203 74.317871 291.941406 74.159424 Q 292.349609 74.000977 292.698730 73.667969 Z " fill="rgb(0, 0, 0)" fill-opacity="1.000000" />
<path d="M 299.645020 71.272461 L 299.645020 75.000000 L 298.651367 75.000000 L 298.651367 71.272461 Q 298.651367 70.461426 298.366699 70.080078 Q 298.082031 69.698730 297.475098 69.698730 Q 296.782227 69.698730 296.408936 70.190186 Q 296.035645 70.681641 296.035645 71.600098 L 296.035645 75.000000 L 295.047363 75.000000 L 295.047363 66.642578 L 296.035645 66.642578 L 296.035645 69.886719 Q 296.298828 69.371094 296.750000 69.105225 Q 297.201172 68.839355 297.818848 68.839355 Q 298.737305 68.839355 299.191162 69.443604 Q 299.645020 70.047852 299.645020 71.272461 Z " fill="rgb(0, 0, 0)" fill-opacity="1.000000" />
<path d="M 307.015625 71.498047 L 307.015625 71.981445 L 302.734863 71.981445 L 302.734863 72.013672 Q 302.691895 73.243652 303.204834 73.780762 Q 303.717773 74.317871 304.652344 74.317871 Q 305.125000 74.317871 305.640625 74.167480 Q 306.156250 74.017090 306.741699 73.710938 L 306.741699 74.693848 Q 306.177734 74.924805 305.654053 75.040283 Q 305.130371 75.155762 304.641602 75.155762 Q 303.239746 75.155762 302.450195 74.315186 Q 301.660645 73.474609 301.660645 71.997559 Q 301.660645 70.558105 302.434082 69.698730 Q 303.207520 68.839355 304.496582 68.839355 Q 305.645996 68.839355 306.309326 69.618164 Q 306.972656 70.396973 307.015625 71.498047 Z M 306.027344 71.208008 Q 305.962891 70.584961 305.573486 70.131104 Q 305.184082 69.677246 304.453613 69.677246 Q 303.739258 69.677246 303.277344 70.149902 Q 302.815430 70.622559 302.772461 71.213379 Z " fill="rgb(0, 0, 0)" fill-opacity="1.000000" />
<path d="M 332.985352 66.594238 L 332.985352 77.594238 L 332.061523 77.594238 L 332.061523 66.594238 Z " fill="rgb(0, 0, 0)" fill-opacity="1.000000" />
<path d="M 343.547852 71.111328 L 349.241211 71.111328 L 349.241211 72.019043 L 343.547852 72.019043 Z " fill="rgb(0, 0, 0)" fill-opacity="1.000000" />
<path d="M 350.547852 71.111328 L 356.241211 71.111328 L 356.241211 72.019043 L 350.547852 72.019043 Z " fill="rgb(0, 0, 0)" fill-opacity="1.000000" />
<path d="M 357.547852 71.111328 L 363.241211 71.111328 L 363.241211 72.019043 L 357.547852 72.019043 Z " fill="rgb(0, 0, 0)" fill-opacity="1.000000" />
<path d="M 364.547852 71.111328 L 370.241211 71.111328 L 370.241211 72.019043 L 364.547852 72.019043 Z " fill="rgb(0, 0, 0)" fill-opacity="1.000000" />
<path d="M 371.547852 71.111328 L 377.241211 71.111328 L 377.241211 72.019043 L 371.547852 72.019043 Z " fill="rgb(0, 0, 0)" fill-opacity="1.000000" />
<path d="M 378.472656 69.838379 L 378.472656 68.860840 L 384.149902 71.105957 L 384.149902 71.997559 L 378.472656 74.242676 L 378.472656 73.259766 L 383.038086 71.557129 Z " fill="rgb(0, 0, 0)" fill-opacity="1.000000" />
<path d="M 395.985352 66.594238 L 395.985352 77.594238 L 395.061523 77.594238 L 395.061523 66.594238 Z " fill="rgb(0, 0, 0)" fill-opacity="1.000000" />
<path d="M 418.435547 67.254883 L 418.435547 68.355957 Q 417.941406 68.039062 417.444580 67.877930 Q 416.947754 67.716797 416.442871 67.716797 Q 415.674805 67.716797 415.229004 68.073975 Q 414.783203 68.431152 414.783203 69.038086 Q 414.783203 69.569824 415.075928 69.849121 Q 415.368652 70.128418 416.168945 70.316406 L 416.738281 70.445312 Q 417.866211 70.708496 418.381836 71.272461 Q 418.897461 71.836426 418.897461 72.808594 Q 418.897461 73.952637 418.188477 74.554199 Q 417.479492 75.155762 416.125977 75.155762 Q 415.562012 75.155762 414.992676 75.034912 Q 414.423340 74.914062 413.848633 74.672363 L 413.848633 73.517578 Q 414.466309 73.909668 415.016846 74.092285 Q 415.567383 74.274902 416.125977 74.274902 Q 416.947754 74.274902 417.404297 73.906982 Q 417.860840 73.539062 417.860840 72.878418 Q 417.860840 72.276855 417.546631 71.959961 Q 417.232422 71.643066 416.453613 71.471191 L 415.873535 71.336914 Q 414.756348 71.084473 414.251465 70.574219 Q 413.746582 70.063965 413.746582 69.204590 Q 413.746582 68.130371 414.468994 67.483154 Q 415.191406 66.835938 416.389160 66.835938 Q 416.851074 66.835938 417.361328 66.940674 Q 417.871582 67.045410 418.435547 67.254883 Z " fill="rgb(0, 0, 0)" fill-opacity="1.000000" />
<path d="M 423.297852 67.276367 L 423.297852 68.984375 L 425.542969 68.984375 L 425.542969 69.752441 L 423.297852 69.752441 L 423.297852 73.018066 Q 423.297852 73.684082 423.550293 73.947266 Q 423.802734 74.210449 424.431152 74.210449 L 425.542969 74.210449 L 425.542969 75.000000 L 424.334473 75.000000 Q 423.222656 75.000000 422.766113 74.554199 Q 422.309570 74.108398 422.309570 73.018066 L 422.309570 69.752441 L 420.703613 69.752441 L 420.703613 68.984375 L 422.309570 68.984375 L 422.309570 67.276367 Z " fill="rgb(0, 0, 0)" fill-opacity="1.000000" />
<path d="M 430.308594 69.677246 Q 429.556641 69.677246 429.169922 70.262695 Q 428.783203 70.848145 428.783203 71.997559 Q 428.783203 73.141602 429.169922 73.729736 Q 429.556641 74.317871 430.308594 74.317871 Q 431.065918 74.317871 431.452637 73.729736 Q 431.839355 73.141602 431.839355 71.997559 Q 431.839355 70.848145 431.452637 70.262695 Q 431.065918 69.677246 430.308594 69.677246 Z M 430.308594 68.839355 Q 431.560059 68.839355 432.223389 69.650391 Q 432.886719 70.461426 432.886719 71.997559 Q 432.886719 73.539062 432.226074 74.347412 Q 431.565430 75.155762 430.308594 75.155762 Q 429.057129 75.155762 428.396484 74.347412 Q 427.735840 73.539062 427.735840 71.997559 Q 427.735840 70.461426 428.396484 69.650391 Q 429.057129 68.839355 430.308594 68.839355 Z " fill="rgb(0, 0, 0)" fill-opacity="1.000000" />
<path d="M 440.203613 70.225098 Q 439.886719 69.978027 439.559082 69.865234 Q 439.231445 69.752441 438.839355 69.752441 Q 437.915527 69.752441 437.426758 70.332520 Q 436.937988 70.912598 436.937988 72.008301 L 436.937988 75.000000 L 435.944336 75.000000 L 435.944336 68.984375 L 436.937988 68.984375 L 436.937988 70.160645 Q 437.185059 69.521484 437.697998 69.180420 Q 438.210938 68.839355 438.914551 68.839355 Q 439.279785 68.839355 439.596680 68.930664 Q 439.913574 69.021973 440.203613 69.215332 Z " fill="rgb(0, 0, 0)" fill-opacity="1.000000" />
<path d="M 444.770508 71.976074 L 444.442871 71.976074 Q 443.578125 71.976074 443.140381 72.279541 Q 442.702637 72.583008 442.702637 73.184570 Q 442.702637 73.727051 443.030273 74.027832 Q 443.357910 74.328613 443.937988 74.328613 Q 444.754395 74.328613 445.221680 73.761963 Q 445.688965 73.195312 445.694336 72.196289 L 445.694336 71.976074 Z M 446.687988 71.567871 L 446.687988 75.000000 L 445.694336 75.000000 L 445.694336 74.108398 Q 445.377441 74.645508 444.896729 74.900635 Q 444.416016 75.155762 443.728516 75.155762 Q 442.810059 75.155762 442.262207 74.637451 Q 441.714355 74.119141 441.714355 73.249023 Q 441.714355 72.244629 442.388428 71.723633 Q 443.062500 71.202637 444.367676 71.202637 L 445.694336 71.202637 L 445.694336 71.046875 Q 445.688965 70.327148 445.329102 70.002197 Q 444.969238 69.677246 444.179688 69.677246 Q 443.674805 69.677246 443.159180 69.822266 Q 442.643555 69.967285 442.154785 70.246582 L 442.154785 69.258301 Q 442.702637 69.048828 443.204834 68.944092 Q 443.707031 68.839355 444.179688 68.839355 Q 444.926270 68.839355 445.455322 69.059570 Q 445.984375 69.279785 446.312012 69.720215 Q 446.516113 69.988770 446.602051 70.383545 Q 446.687988 70.778320 446.687988 71.567871 Z " fill="rgb(0, 0, 0)" fill-opacity="1.000000" />
<path d="M 452.608398 71.943848 Q 452.608398 70.832031 452.245850 70.254639 Q 451.883301 69.677246 451.190430 69.677246 Q 450.465332 69.677246 450.083984 70.254639 Q 449.702637 70.832031 449.702637 71.943848 Q 449.702637 73.055664 450.086670 73.638428 Q 450.470703 74.221191 451.201172 74.221191 Q 451.883301 74.221191 452.245850 73.635742 Q 452.608398 73.050293 452.608398 71.943848 Z M 453.596680 74.613281 Q 453.596680 75.966797 452.957520 76.665039 Q 452.318359 77.363281 451.077637 77.363281 Q 450.669434 77.363281 450.223633 77.288086 Q 449.777832 77.212891 449.332031 77.067871 L 449.332031 76.090332 Q 449.858398 76.337402 450.288086 76.455566 Q 450.717773 76.573730 451.077637 76.573730 Q 451.877930 76.573730 452.243164 76.138672 Q 452.608398 75.703613 452.608398 74.758301 L 452.608398 74.715332 L 452.608398 74.043945 Q 452.372070 74.548828 451.963867 74.795898 Q 451.555664 75.042969 450.970215 75.042969 Q 449.917480 75.042969 449.289062 74.199707 Q 448.660645 73.356445 448.660645 71.943848 Q 448.660645 70.525879 449.289062 69.682617 Q 449.917480 68.839355 450.970215 68.839355 Q 451.550293 68.839355 451.953125 69.070312 Q 452.355957 69.301270 452.608398 69.784668 L 452.608398 69.005859 L 453.596680 69.005859 Z " fill="rgb(0, 0, 0)" fill-opacity="1.000000" />
<path d="M 461.015625 71.498047 L 461.015625 71.981445 L 456.734863 71.981445 L 456.734863 72.013672 Q 456.691895 73.243652 457.204834 73.780762 Q 457.717773 74.317871 458.652344 74.317871 Q 459.125000 74.317871 459.640625 74.167480 Q 460.156250 74.017090 460.741699 73.710938 L 460.741699 74.693848 Q 460.177734 74.924805 459.654053 75.040283 Q 459.130371 75.155762 458.641602 75.155762 Q 457.239746 75.155762 456.450195 74.315186 Q 455.660645 73.474609 455.660645 71.997559 Q 455.660645 70.558105 456.434082 69.698730 Q 457.207520 68.839355 458.496582 68.839355 Q 459.645996 68.839355 460.309326 69.618164 Q 460.972656 70.396973 461.015625 71.498047 Z M 460.027344 71.208008 Q 459.962891 70.584961 459.573486 70.131104 Q 459.184082 69.677246 458.453613 69.677246 Q 457.739258 69.677246 457.277344 70.149902 Q 456.815430 70.622559 456.772461 71.213379 Z " fill="rgb(0, 0, 0)" fill-opacity="1.000000" />
<path d="M 479.985352 66.594238 L 479.985352 77.594238 L 479.061523 77.594238 L 479.061523 66.594238 Z " fill="rgb(0, 0, 0)" fill-opacity="1.000000" />
<path d="M 493.985352 66.594238 L 493.985352 77.594238 L 493.061523 77.594238 L 493.061523 66.594238 Z " fill="rgb(0, 0, 0)" fill-opacity="1.000000" />
<path d="M 101.985352 40.594238 L 101.985352 51.594238 L 101.061523 51.594238 L 101.061523 40.594238 Z " fill="rgb(0, 0, 0)" fill-opacity="1.000000" />
<path d="M 101.985352 53.594238 L 101.985352 64.594238 L 101.061523 64.594238 L 101.061523 53.594238 Z " fill="rgb(0, 0, 0)" fill-opacity="1.000000" />
<path d="M 185.985352 40.594238 L 185.985352 51.594238 L 185.061523 51.594238 L 185.061523 40.594238 Z " fill="rgb(0, 0, 0)" fill-opacity="1.000000" />
<path d="M 185.985352 53.594238 L 185.985352 64.594238 L 185.061523 64.594238 L 185.061523 53.594238 Z " fill="rgb(0, 0, 0)" fill-opacity="1.000000" />
<path d="M 196.547852 45.111328 L 202.241211 45.111328 L 202.241211 46.019043 L 196.547852 46.019043 Z " fill="rgb(0, 0, 0)" fill-opacity="1.000000" />
<path d="M 203.547852 45.111328 L 209.241211 45.111328 L 209.241211 46.019043 L 203.547852 46.019043 Z " fill="rgb(0, 0, 0)" fill-opacity="1.000000" />
<path d="M 210.547852 45.111328 L 216.241211 45.111328 L 216.241211 46.019043 L 210.547852 46.019043 Z " fill="rgb(0, 0, 0)" fill-opacity="1.000000" />
<path d="M 217.547852 45.111328 L 223.241211 45.111328 L 223.241211 46.019043 L 217.547852 46.019043 Z " fill="rgb(0, 0, 0)" fill-opacity="1.000000" />
<path d="M 224.547852 45.111328 L 230.241211 45.111328 L 230.241211 46.019043 L 224.547852 46.019043 Z " fill="rgb(0, 0, 0)" fill-opacity="1.000000" />
<path d="M 202.149902 56.838379 L 197.584473 58.557129 L 202.149902 60.259766 L 202.149902 61.242676 L 196.472656 58.997559 L 196.472656 58.105957 L 202.149902 55.860840 Z " fill="rgb(0, 0, 0)" fill-opacity="1.000000" />
<path d="M 203.547852 58.111328 L 209.241211 58.111328 L 209.241211 59.019043 L 203.547852 59.019043 Z " fill="rgb(0, 0, 0)" fill-opacity="1.000000" />
<path d="M 210.547852 58.111328 L 216.241211 58.111328 L 216.241211 59.019043 L 210.547852 59.019043 Z " fill="rgb(0, 0, 0)" fill-opacity="1.000000" />
<path d="M 217.547852 58.111328 L 223.241211 58.111328 L 223.241211 59.019043 L 217.547852 59.019043 Z " fill="rgb(0, 0, 0)" fill-opacity="1.000000" />
<path d="M 224.547852 58.111328 L 230.241211 58.111328 L 230.241211 59.019043 L 224.547852 59.019043 Z " fill="rgb(0, 0, 0)" fill-opacity="1.000000" />
<path d="M 231.547852 58.111328 L 237.241211 58.111328 L 237.241211 59.019043 L 231.547852 59.019043 Z " fill="rgb(0, 0, 0)" fill-opacity="1.000000" />
<path d="M 248.985352 53.594238 L 248.985352 64.594238 L 248.061523 64.594238 L 248.061523 53.594238 Z " fill="rgb(0, 0, 0)" fill-opacity="1.000000" />
<path d="M 332.985352 53.594238 L 332.985352 64.594238 L 332.061523 64.594238 L 332.061523 53.594238 Z " fill="rgb(0, 0, 0)" fill-opacity="1.000000" />
<path d="M 395.985352 53.594238 L 395.985352 64.594238 L 395.061523 64.594238 L 395.061523 53.594238 Z " fill="rgb(0, 0, 0)" fill-opacity="1.000000" />
<path d="M 479.985352 53.594238 L 479.985352 64.594238 L 479.061523 64.594238 L 479.061523 53.594238 Z " fill="rgb(0, 0, 0)" fill-opacity="1.000000" />
<path d="M 493.985352 53.594238 L 493.985352 64.594238 L 493.061523 64.594238 L 493.061523 53.594238 Z " fill="rgb(0, 0, 0)" fill-opacity="1.000000" />
<path d="M 231.472656 43.838379 L 231.472656 42.860840 L 237.149902 45.105957 L 237.149902 45.997559 L 231.472656 48.242676 L 231.472656 47.259766 L 236.038086 45.557129 Z " fill="rgb(0, 0, 0)" fill-opacity="1.000000" />
<path d="M 248.985352 40.594238 L 248.985352 51.594238 L 248.061523 51.594238 L 248.061523 40.594238 Z " fill="rgb(0, 0, 0)" fill-opacity="1.000000" />
<path d="M 332.985352 40.594238 L 332.985352 51.594238 L 332.061523 51.594238 L 332.061523 40.594238 Z " fill="rgb(0, 0, 0)" fill-opacity="1.000000" />
<path d="M 395.985352 40.594238 L 395.985352 51.594238 L 395.061523 51.594238 L 395.061523 40.594238 Z " fill="rgb(0, 0, 0)" fill-opacity="1.000000" />
<path d="M 479.985352 40.594238 L 479.985352 51.594238 L 479.061523 51.594238 L 479.061523 40.594238 Z " fill="rgb(0, 0, 0)" fill-opacity="1.000000" />
<path d="M 493.985352 40.594238 L 493.985352 51.594238 L 493.061523 51.594238 L 493.061523 40.594238 Z " fill="rgb(0, 0, 0)" fill-opacity="1.000000" />
<path d="M 21.547852 32.111328 L 27.241211 32.111328 L 27.241211 33.019043 L 21.547852 33.019043 Z " fill="rgb(0, 0, 0)" fill-opacity="1.000000" />
<path d="M 28.547852 32.111328 L 34.241211 32.111328 L 34.241211 33.019043 L 28.547852 33.019043 Z " fill="rgb(0, 0, 0)" fill-opacity="1.000000" />
<path d="M 35.547852 32.111328 L 41.241211 32.111328 L 41.241211 33.019043 L 35.547852 33.019043 Z " fill="rgb(0, 0, 0)" fill-opacity="1.000000" />
<path d="M 42.547852 32.111328 L 48.241211 32.111328 L 48.241211 33.019043 L 42.547852 33.019043 Z " fill="rgb(0, 0, 0)" fill-opacity="1.000000" />
<path d="M 49.547852 32.111328 L 55.241211 32.111328 L 55.241211 33.019043 L 49.547852 33.019043 Z " fill="rgb(0, 0, 0)" fill-opacity="1.000000" />
<path d="M 56.547852 32.111328 L 62.241211 32.111328 L 62.241211 33.019043 L 56.547852 33.019043 Z " fill="rgb(0, 0, 0)" fill-opacity="1.000000" />
<path d="M 63.547852 32.111328 L 69.241211 32.111328 L 69.241211 33.019043 L 63.547852 33.019043 Z " fill="rgb(0, 0, 0)" fill-opacity="1.000000" />
<path d="M 70.547852 32.111328 L 76.241211 32.111328 L 76.241211 33.019043 L 70.547852 33.019043 Z " fill="rgb(0, 0, 0)" fill-opacity="1.000000" />
<path d="M 77.547852 32.111328 L 83.241211 32.111328 L 83.241211 33.019043 L 77.547852 33.019043 Z " fill="rgb(0, 0, 0)" fill-opacity="1.000000" />
<path d="M 84.547852 32.111328 L 90.241211 32.111328 L 90.241211 33.019043 L 84.547852 33.019043 Z " fill="rgb(0, 0, 0)" fill-opacity="1.000000" />
<path d="M 91.547852 32.111328 L 97.241211 32.111328 L 97.241211 33.019043 L 91.547852 33.019043 Z " fill="rgb(0, 0, 0)" fill-opacity="1.000000" />
<path d="M 101.867188 29.672852 L 101.867188 32.052246 L 104.257324 32.052246 L 104.257324 32.959961 L 101.867188 32.959961 L 101.867188 35.339355 L 100.964844 35.339355 L 100.964844 32.959961 L 98.580078 32.959961 L 98.580078 32.052246 L 100.964844 32.052246 L 100.964844 29.672852 Z " fill="rgb(0, 0, 0)" fill-opacity="1.000000" />
<path d="M 105.547852 32.111328 L 111.241211 32.111328 L 111.241211 33.019043 L 105.547852 33.019043 Z " fill="rgb(0, 0, 0)" fill-opacity="1.000000" />
<path d="M 112.547852 32.111328 L 118.241211 32.111328 L 118.241211 33.019043 L 112.547852 33.019043 Z " fill="rgb(0, 0, 0)" fill-opacity="1.000000" />
<path d="M 119.547852 32.111328 L 125.241211 32.111328 L 125.241211 33.019043 L 119.547852 33.019043 Z " fill="rgb(0, 0, 0)" fill-opacity="1.000000" />
<path d="M 126.547852 32.111328 L 132.241211 32.111328 L 132.241211 33.019043 L 126.547852 33.019043 Z " fill="rgb(0, 0, 0)" fill-opacity="1.000000" />
<path d="M 133.547852 32.111328 L 139.241211 32.111328 L 139.241211 33.019043 L 133.547852 33.019043 Z " fill="rgb(0, 0, 0)" fill-opacity="1.000000" />
<path d="M 140.547852 32.111328 L 146.241211 32.111328 L 146.241211 33.019043 L 140.547852 33.019043 Z " fill="rgb(0, 0, 0)" fill-opacity="1.000000" />
<path d="M 147.547852 32.111328 L 153.241211 32.111328 L 153.241211 33.019043 L 147.547852 33.019043 Z " fill="rgb(0, 0, 0)" fill-opacity="1.000000" />
<path d="M 154.547852 32.111328 L 160.241211 32.111328 L 160.241211 33.019043 L 154.547852 33.019043 Z " fill="rgb(0, 0, 0)" fill-opacity="1.000000" />
<path d="M 161.547852 32.111328 L 167.241211 32.111328 L 167.241211 33.019043 L 161.547852 33.019043 Z " fill="rgb(0, 0, 0)" fill-opacity="1.000000" />
<path d="M 168.547852 32.111328 L 174.241211 32.111328 L 174.241211 33.019043 L 168.547852 33.019043 Z " fill="rgb(0, 0, 0)" fill-opacity="1.000000" />
<path d="M 175.547852 32.111328 L 181.241211 32.111328 L 181.241211 33.019043 L 175.547852 33.019043 Z " fill="rgb(0, 0, 0)" fill-opacity="1.000000" />
<path d="M 185.867188 29.672852 L 185.867188 32.052246 L 188.257324 32.052246 L 188.257324 32.959961 L 185.867188 32.959961 L 185.867188 35.339355 L 184.964844 35.339355 L 184.964844 32.959961 L 182.580078 32.959961 L 182.580078 32.052246 L 184.964844 32.052246 L 184.964844 29.672852 Z " fill="rgb(0, 0, 0)" fill-opacity="1.000000" />
<path d="M 248.867188 29.672852 L 248.867188 32.052246 L 251.257324 32.052246 L 251.257324 32.959961 L 248.867188 32.959961 L 248.867188 35.339355 L 247.964844 35.339355 L 247.964844 32.959961 L 245.580078 32.959961 L 245.580078 32.052246 L 247.964844 32.052246 L 247.964844 29.672852 Z " fill="rgb(0, 0, 0)" fill-opacity="1.000000" />
<path d="M 252.547852 32.111328 L 258.241211 32.111328 L 258.241211 33.019043 L 252.547852 33.019043 Z " fill="rgb(0, 0, 0)" fill-opacity="1.000000" />
<path d="M 259.547852 32.111328 L 265.241211 32.111328 L 265.241211 33.019043 L 259.547852 33.019043 Z " fill="rgb(0, 0, 0)" fill-opacity="1.000000" />
<path d="M 266.547852 32.111328 L 272.241211 32.111328 L 272.241211 33.019043 L 266.547852 33.019043 Z " fill="rgb(0, 0, 0)" fill-opacity="1.000000" />
<path d="M 273.547852 32.111328 L 279.241211 32.111328 L 279.241211 33.019043 L 273.547852 33.019043 Z " fill="rgb(0, 0, 0)" fill-opacity="1.000000" />
<path d="M 280.547852 32.111328 L 286.241211 32.111328 L 286.241211 33.019043 L 280.547852 33.019043 Z " fill="rgb(0, 0, 0)" fill-opacity="1.000000" />
<path d="M 287.547852 32.111328 L 293.241211 32.111328 L 293.241211 33.019043 L 287.547852 33.019043 Z " fill="rgb(0, 0, 0)" fill-opacity="1.000000" />
<path d="M 294.547852 32.111328 L 300.241211 32.111328 L 300.241211 33.019043 L 294.547852 33.019043 Z " fill="rgb(0, 0, 0)" fill-opacity="1.000000" />
<path d="M 301.547852 32.111328 L 307.241211 32.111328 L 307.241211 33.019043 L 301.547852 33.019043 Z " fill="rgb(0, 0, 0)" fill-opacity="1.000000" />
<path d="M 308.547852 32.111328 L 314.241211 32.111328 L 314.241211 33.019043 L 308.547852 33.019043 Z " fill="rgb(0, 0, 0)" fill-opacity="1.000000" />
<path d="M 315.547852 32.111328 L 321.241211 32.111328 L 321.241211 33.019043 L 315.547852 33.019043 Z " fill="rgb(0, 0, 0)" fill-opacity="1.000000" />
<path d="M 322.547852 32.111328 L 328.241211 32.111328 L 328.241211 33.019043 L 322.547852 33.019043 Z " fill="rgb(0, 0, 0)" fill-opacity="1.000000" />
<path d="M 332.867188 29.672852 L 332.867188 32.052246 L 335.257324 32.052246 L 335.257324 32.959961 L 332.867188 32.959961 L 332.867188 35.339355 L 331.964844 35.339355 L 331.964844 32.959961 L 329.580078 32.959961 L 329.580078 32.052246 L 331.964844 32.052246 L 331.964844 29.672852 Z " fill="rgb(0, 0, 0)" fill-opacity="1.000000" />
<path d="M 395.867188 29.672852 L 395.867188 32.052246 L 398.257324 32.052246 L 398.257324 32.959961 L 395.867188 32.959961 L 395.867188 35.339355 L 394.964844 35.339355 L 394.964844 32.959961 L 392.580078 32.959961 L 392.580078 32.052246 L 394.964844 32.052246 L 394.964844 29.672852 Z " fill="rgb(0, 0, 0)" fill-opacity="1.000000" />
<path d="M 399.547852 32.111328 L 405.241211 32.111328 L 405.241211 33.019043 L 399.547852 33.019043 Z " fill="rgb(0, 0, 0)" fill-opacity="1.000000" />
<path d="M 406.547852 32.111328 L 412.241211 32.111328 L 412.241211 33.019043 L 406.547852 33.019043 Z " fill="rgb(0, 0, 0)" fill-opacity="1.000000" />
<path d="M 413.547852 32.111328 L 419.241211 32.111328 L 419.241211 33.019043 L 413.547852 33.019043 Z " fill="rgb(0, 0, 0)" fill-opacity="1.000000" />
<path d="M 420.547852 32.111328 L 426.241211 32.111328 L 426.241211 33.019043 L 420.547852 33.019043 Z " fill="rgb(0, 0, 0)" fill-opacity="1.000000" />
<path d="M 427.547852 32.111328 L 433.241211 32.111328 L 433.241211 33.019043 L 427.547852 33.019043 Z " fill="rgb(0, 0, 0)" fill-opacity="1.000000" />
<path d="M 434.547852 32.111328 L 440.241211 32.111328 L 440.241211 33.019043 L 434.547852 33.019043 Z " fill="rgb(0, 0, 0)" fill-opacity="1.000000" />
<path d="M 441.547852 32.111328 L 447.241211 32.111328 L 447.241211 33.019043 L 441.547852 33.019043 Z " fill="rgb(0, 0, 0)" fill-opacity="1.000000" />
<path d="M 448.547852 32.111328 L 454.241211 32.111328 L 454.241211 33.019043 L 448.547852 33.019043 Z " fill="rgb(0, 0, 0)" fill-opacity="1.000000" />
<path d="M 455.547852 32.111328 L 461.241211 32.111328 L 461.241211 33.019043 L 455.547852 33.019043 Z " fill="rgb(0, 0, 0)" fill-opacity="1.000000" />
<path d="M 462.547852 32.111328 L 468.241211 32.111328 L 468.241211 33.019043 L 462.547852 33.019043 Z " fill="rgb(0, 0, 0)" fill-opacity="1.000000" />
<path d="M 469.547852 32.111328 L 475.241211 32.111328 L 475.241211 33.019043 L 469.547852 33.019043 Z " fill="rgb(0, 0, 0)" fill-opacity="1.000000" />
<path d="M 479.867188 29.672852 L 479.867188 32.052246 L 482.257324 32.052246 L 482.257324 32.959961 L 479.867188 32.959961 L 479.867188 35.339355 L 478.964844 35.339355 L 478.964844 32.959961 L 476.580078 32.959961 L 476.580078 32.052246 L 478.964844 32.052246 L 478.964844 29.672852 Z " fill="rgb(0, 0, 0)" fill-opacity="1.000000" />
<path d="M 493.985352 27.594238 L 493.985352 38.594238 L 493.061523 38.594238 L 493.061523 27.594238 Z " fill="rgb(0, 0, 0)" fill-opacity="1.000000" />
<path d="M 7.547852 19.111328 L 13.241211 19.111328 L 13.241211 20.019043 L 7.547852 20.019043 Z " fill="rgb(0, 0, 0)" fill-opacity="1.000000" />
<path d="M 14.547852 19.111328 L 20.241211 19.111328 L 20.241211 20.019043 L 14.547852 20.019043 Z " fill="rgb(0, 0, 0)" fill-opacity="1.000000" />
<path d="M 21.547852 19.111328 L 27.241211 19.111328 L 27.241211 20.019043 L 21.547852 20.019043 Z " fill="rgb(0, 0, 0)" fill-opacity="1.000000" />
<path d="M 28.547852 19.111328 L 34.241211 19.111328 L 34.241211 20.019043 L 28.547852 20.019043 Z " fill="rgb(0, 0, 0)" fill-opacity="1.000000" />
<path d="M 35.547852 19.111328 L 41.241211 19.111328 L 41.241211 20.019043 L 35.547852 20.019043 Z " fill="rgb(0, 0, 0)" fill-opacity="1.000000" />
<path d="M 42.547852 19.111328 L 48.241211 19.111328 L 48.241211 20.019043 L 42.547852 20.019043 Z " fill="rgb(0, 0, 0)" fill-opacity="1.000000" />
<path d="M 49.547852 19.111328 L 55.241211 19.111328 L 55.241211 20.019043 L 49.547852 20.019043 Z " fill="rgb(0, 0, 0)" fill-opacity="1.000000" />
<path d="M 56.547852 19.111328 L 62.241211 19.111328 L 62.241211 20.019043 L 56.547852 20.019043 Z " fill="rgb(0, 0, 0)" fill-opacity="1.000000" />
<path d="M 63.547852 19.111328 L 69.241211 19.111328 L 69.241211 20.019043 L 63.547852 20.019043 Z " fill="rgb(0, 0, 0)" fill-opacity="1.000000" />
<path d="M 70.547852 19.111328 L 76.241211 19.111328 L 76.241211 20.019043 L 70.547852 20.019043 Z " fill="rgb(0, 0, 0)" fill-opacity="1.000000" />
<path d="M 77.547852 19.111328 L 83.241211 19.111328 L 83.241211 20.019043 L 77.547852 20.019043 Z " fill="rgb(0, 0, 0)" fill-opacity="1.000000" />
<path d="M 84.547852 19.111328 L 90.241211 19.111328 L 90.241211 20.019043 L 84.547852 20.019043 Z " fill="rgb(0, 0, 0)" fill-opacity="1.000000" />
<path d="M 91.547852 19.111328 L 97.241211 19.111328 L 97.241211 20.019043 L 91.547852 20.019043 Z " fill="rgb(0, 0, 0)" fill-opacity="1.000000" />
<path d="M 98.547852 19.111328 L 104.241211 19.111328 L 104.241211 20.019043 L 98.547852 20.019043 Z " fill="rgb(0, 0, 0)" fill-opacity="1.000000" />
<path d="M 105.547852 19.111328 L 111.241211 19.111328 L 111.241211 20.019043 L 105.547852 20.019043 Z " fill="rgb(0, 0, 0)" fill-opacity="1.000000" />
<path d="M 112.547852 19.111328 L 118.241211 19.111328 L 118.241211 20.019043 L 112.547852 20.019043 Z " fill="rgb(0, 0, 0)" fill-opacity="1.000000" />
<path d="M 119.547852 19.111328 L 125.241211 19.111328 L 125.241211 20.019043 L 119.547852 20.019043 Z " fill="rgb(0, 0, 0)" fill-opacity="1.000000" />
<path d="M 126.547852 19.111328 L 132.241211 19.111328 L 132.241211 20.019043 L 126.547852 20.019043 Z " fill="rgb(0, 0, 0)" fill-opacity="1.000000" />
<path d="M 133.547852 19.111328 L 139.241211 19.111328 L 139.241211 20.019043 L 133.547852 20.019043 Z " fill="rgb(0, 0, 0)" fill-opacity="1.000000" />
<path d="M 140.547852 19.111328 L 146.241211 19.111328 L 146.241211 20.019043 L 140.547852 20.019043 Z " fill="rgb(0, 0, 0)" fill-opacity="1.000000" />
<path d="M 147.547852 19.111328 L 153.241211 19.111328 L 153.241211 20.019043 L 147.547852 20.019043 Z " fill="rgb(0, 0, 0)" fill-opacity="1.000000" />
<path d="M 154.547852 19.111328 L 160.241211 19.111328 L 160.241211 20.019043 L 154.547852 20.019043 Z " fill="rgb(0, 0, 0)" fill-opacity="1.000000" />
<path d="M 161.547852 19.111328 L 167.241211 19.111328 L 167.241211 20.019043 L 161.547852 20.019043 Z " fill="rgb(0, 0, 0)" fill-opacity="1.000000" />
<path d="M 168.547852 19.111328 L 174.241211 19.111328 L 174.241211 20.019043 L 168.547852 20.019043 Z " fill="rgb(0, 0, 0)" fill-opacity="1.000000" />
<path d="M 175.547852 19.111328 L 181.241211 19.111328 L 181.241211 20.019043 L 175.547852 20.019043 Z " fill="rgb(0, 0, 0)" fill-opacity="1.000000" />
<path d="M 182.547852 19.111328 L 188.241211 19.111328 L 188.241211 20.019043 L 182.547852 20.019043 Z " fill="rgb(0, 0, 0)" fill-opacity="1.000000" />
<path d="M 189.547852 19.111328 L 195.241211 19.111328 L 195.241211 20.019043 L 189.547852 20.019043 Z " fill="rgb(0, 0, 0)" fill-opacity="1.000000" />
<path d="M 196.547852 19.111328 L 202.241211 19.111328 L 202.241211 20.019043 L 196.547852 20.019043 Z " fill="rgb(0, 0, 0)" fill-opacity="1.000000" />
<path d="M 203.547852 19.111328 L 209.241211 19.111328 L 209.241211 20.019043 L 203.547852 20.019043 Z " fill="rgb(0, 0, 0)" fill-opacity="1.000000" />
<path d="M 210.547852 19.111328 L 216.241211 19.111328 L 216.241211 20.019043 L 210.547852 20.019043 Z " fill="rgb(0, 0, 0)" fill-opacity="1.000000" />
<path d="M 217.547852 19.111328 L 223.241211 19.111328 L 223.241211 20.019043 L 217.547852 20.019043 Z " fill="rgb(0, 0, 0)" fill-opacity="1.000000" />
<path d="M 224.547852 19.111328 L 230.241211 19.111328 L 230.241211 20.019043 L 224.547852 20.019043 Z " fill="rgb(0, 0, 0)" fill-opacity="1.000000" />
<path d="M 231.547852 19.111328 L 237.241211 19.111328 L 237.241211 20.019043 L 231.547852 20.019043 Z " fill="rgb(0, 0, 0)" fill-opacity="1.000000" />
<path d="M 238.547852 19.111328 L 244.241211 19.111328 L 244.241211 20.019043 L 238.547852 20.019043 Z " fill="rgb(0, 0, 0)" fill-opacity="1.000000" />
<path d="M 245.547852 19.111328 L 251.241211 19.111328 L 251.241211 20.019043 L 245.547852 20.019043 Z " fill="rgb(0, 0, 0)" fill-opacity="1.000000" />
<path d="M 252.547852 19.111328 L 258.241211 19.111328 L 258.241211 20.019043 L 252.547852 20.019043 Z " fill="rgb(0, 0, 0)" fill-opacity="1.000000" />
<path d="M 259.547852 19.111328 L 265.241211 19.111328 L 265.241211 20.019043 L 259.547852 20.019043 Z " fill="rgb(0, 0, 0)" fill-opacity="1.000000" />
<path d="M 266.547852 19.111328 L 272.241211 19.111328 L 272.241211 20.019043 L 266.547852 20.019043 Z " fill="rgb(0, 0, 0)" fill-opacity="1.000000" />
<path d="M 273.547852 19.111328 L 279.241211 19.111328 L 279.241211 20.019043 L 273.547852 20.019043 Z " fill="rgb(0, 0, 0)" fill-opacity="1.000000" />
<path d="M 280.547852 19.111328 L 286.241211 19.111328 L 286.241211 20.019043 L 280.547852 20.019043 Z " fill="rgb(0, 0, 0)" fill-opacity="1.000000" />
<path d="M 287.547852 19.111328 L 293.241211 19.111328 L 293.241211 20.019043 L 287.547852 20.019043 Z " fill="rgb(0, 0, 0)" fill-opacity="1.000000" />
<path d="M 294.547852 19.111328 L 300.241211 19.111328 L 300.241211 20.019043 L 294.547852 20.019043 Z " fill="rgb(0, 0, 0)" fill-opacity="1.000000" />
<path d="M 301.547852 19.111328 L 307.241211 19.111328 L 307.241211 20.019043 L 301.547852 20.019043 Z " fill="rgb(0, 0, 0)" fill-opacity="1.000000" />
<path d="M 308.547852 19.111328 L 314.241211 19.111328 L 314.241211 20.019043 L 308.547852 20.019043 Z " fill="rgb(0, 0, 0)" fill-opacity="1.000000" />
<path d="M 315.547852 19.111328 L 321.241211 19.111328 L 321.241211 20.019043 L 315.547852 20.019043 Z " fill="rgb(0, 0, 0)" fill-opacity="1.000000" />
<path d="M 322.547852 19.111328 L 328.241211 19.111328 L 328.241211 20.019043 L 322.547852 20.019043 Z " fill="rgb(0, 0, 0)" fill-opacity="1.000000" />
<path d="M 329.547852 19.111328 L 335.241211 19.111328 L 335.241211 20.019043 L 329.547852 20.019043 Z " fill="rgb(0, 0, 0)" fill-opacity="1.000000" />
<path d="M 336.547852 19.111328 L 342.241211 19.111328 L 342.241211 20.019043 L 336.547852 20.019043 Z " fill="rgb(0, 0, 0)" fill-opacity="1.000000" />
<path d="M 343.547852 19.111328 L 349.241211 19.111328 L 349.241211 20.019043 L 343.547852 20.019043 Z " fill="rgb(0, 0, 0)" fill-opacity="1.000000" />
<path d="M 350.547852 19.111328 L 356.241211 19.111328 L 356.241211 20.019043 L 350.547852 20.019043 Z " fill="rgb(0, 0, 0)" fill-opacity="1.000000" />
<path d="M 357.547852 19.111328 L 363.241211 19.111328 L 363.241211 20.019043 L 357.547852 20.019043 Z " fill="rgb(0, 0, 0)" fill-opacity="1.000000" />
<path d="M 364.547852 19.111328 L 370.241211 19.111328 L 370.241211 20.019043 L 364.547852 20.019043 Z " fill="rgb(0, 0, 0)" fill-opacity="1.000000" />
<path d="M 371.547852 19.111328 L 377.241211 19.111328 L 377.241211 20.019043 L 371.547852 20.019043 Z " fill="rgb(0, 0, 0)" fill-opacity="1.000000" />
<path d="M 378.547852 19.111328 L 384.241211 19.111328 L 384.241211 20.019043 L 378.547852 20.019043 Z " fill="rgb(0, 0, 0)" fill-opacity="1.000000" />
<path d="M 385.547852 19.111328 L 391.241211 19.111328 L 391.241211 20.019043 L 385.547852 20.019043 Z " fill="rgb(0, 0, 0)" fill-opacity="1.000000" />
<path d="M 392.547852 19.111328 L 398.241211 19.111328 L 398.241211 20.019043 L 392.547852 20.019043 Z " fill="rgb(0, 0, 0)" fill-opacity="1.000000" />
<path d="M 399.547852 19.111328 L 405.241211 19.111328 L 405.241211 20.019043 L 399.547852 20.019043 Z " fill="rgb(0, 0, 0)" fill-opacity="1.000000" />
<path d="M 406.547852 19.111328 L 412.241211 19.111328 L 412.241211 20.019043 L 406.547852 20.019043 Z " fill="rgb(0, 0, 0)" fill-opacity="1.000000" />
<path d="M 413.547852 19.111328 L 419.241211 19.111328 L 419.241211 20.019043 L 413.547852 20.019043 Z " fill="rgb(0, 0, 0)" fill-opacity="1.000000" />
<path d="M 420.547852 19.111328 L 426.241211 19.111328 L 426.241211 20.019043 L 420.547852 20.019043 Z " fill="rgb(0, 0, 0)" fill-opacity="1.000000" />
<path d="M 427.547852 19.111328 L 433.241211 19.111328 L 433.241211 20.019043 L 427.547852 20.019043 Z " fill="rgb(0, 0, 0)" fill-opacity="1.000000" />
<path d="M 434.547852 19.111328 L 440.241211 19.111328 L 440.241211 20.019043 L 434.547852 20.019043 Z " fill="rgb(0, 0, 0)" fill-opacity="1.000000" />
<path d="M 441.547852 19.111328 L 447.241211 19.111328 L 447.241211 20.019043 L 441.547852 20.019043 Z " fill="rgb(0, 0, 0)" fill-opacity="1.000000" />
<path d="M 448.547852 19.111328 L 454.241211 19.111328 L 454.241211 20.019043 L 448.547852 20.019043 Z " fill="rgb(0, 0, 0)" fill-opacity="1.000000" />
<path d="M 455.547852 19.111328 L 461.241211 19.111328 L 461.241211 20.019043 L 455.547852 20.019043 Z " fill="rgb(0, 0, 0)" fill-opacity="1.000000" />
<path d="M 462.547852 19.111328 L 468.241211 19.111328 L 468.241211 20.019043 L 462.547852 20.019043 Z " fill="rgb(0, 0, 0)" fill-opacity="1.000000" />
<path d="M 469.547852 19.111328 L 475.241211 19.111328 L 475.241211 20.019043 L 469.547852 20.019043 Z " fill="rgb(0, 0, 0)" fill-opacity="1.000000" />
<path d="M 476.547852 19.111328 L 482.241211 19.111328 L 482.241211 20.019043 L 476.547852 20.019043 Z " fill="rgb(0, 0, 0)" fill-opacity="1.000000" />
<path d="M 483.547852 19.111328 L 489.241211 19.111328 L 489.241211 20.019043 L 483.547852 20.019043 Z " fill="rgb(0, 0, 0)" fill-opacity="1.000000" />
<path d="M 493.867188 16.672852 L 493.867188 19.052246 L 496.257324 19.052246 L 496.257324 19.959961 L 493.867188 19.959961 L 493.867188 22.339355 L 492.964844 22.339355 L 492.964844 19.959961 L 490.580078 19.959961 L 490.580078 19.052246 L 492.964844 19.052246 L 492.964844 16.672852 Z " fill="rgb(0, 0, 0)" fill-opacity="1.000000" />
<path d="M 229.435547 2.254883 L 229.435547 3.355957 Q 228.941406 3.039062 228.444580 2.877930 Q 227.947754 2.716797 227.442871 2.716797 Q 226.674805 2.716797 226.229004 3.073975 Q 225.783203 3.431152 225.783203 4.038086 Q 225.783203 4.569824 226.075928 4.849121 Q 226.368652 5.128418 227.168945 5.316406 L 227.738281 5.445312 Q 228.866211 5.708496 229.381836 6.272461 Q 229.897461 6.836426 229.897461 7.808594 Q 229.897461 8.952637 229.188477 9.554199 Q 228.479492 10.155762 227.125977 10.155762 Q 226.562012 10.155762 225.992676 10.034912 Q 225.423340 9.914062 224.848633 9.672363 L 224.848633 8.517578 Q 225.466309 8.909668 226.016846 9.092285 Q 226.567383 9.274902 227.125977 9.274902 Q 227.947754 9.274902 228.404297 8.906982 Q 228.860840 8.539062 228.860840 7.878418 Q 228.860840 7.276855 228.546631 6.959961 Q 228.232422 6.643066 227.453613 6.471191 L 226.873535 6.336914 Q 225.756348 6.084473 225.251465 5.574219 Q 224.746582 5.063965 224.746582 4.204590 Q 224.746582 3.130371 225.468994 2.483154 Q 226.191406 1.835938 227.389160 1.835938 Q 227.851074 1.835938 228.361328 1.940674 Q 228.871582 2.045410 229.435547 2.254883 Z " fill="rgb(0, 0, 0)" fill-opacity="1.000000" />
<path d="M 237.015625 6.498047 L 237.015625 6.981445 L 232.734863 6.981445 L 232.734863 7.013672 Q 232.691895 8.243652 233.204834 8.780762 Q 233.717773 9.317871 234.652344 9.317871 Q 235.125000 9.317871 235.640625 9.167480 Q 236.156250 9.017090 236.741699 8.710938 L 236.741699 9.693848 Q 236.177734 9.924805 235.654053 10.040283 Q 235.130371 10.155762 234.641602 10.155762 Q 233.239746 10.155762 232.450195 9.315186 Q 231.660645 8.474609 231.660645 6.997559 Q 231.660645 5.558105 232.434082 4.698730 Q 233.207520 3.839355 234.496582 3.839355 Q 235.645996 3.839355 236.309326 4.618164 Q 236.972656 5.396973 237.015625 6.498047 Z M 236.027344 6.208008 Q 235.962891 5.584961 235.573486 5.131104 Q 235.184082 4.677246 234.453613 4.677246 Q 233.739258 4.677246 233.277344 5.149902 Q 232.815430 5.622559 232.772461 6.213379 Z " fill="rgb(0, 0, 0)" fill-opacity="1.000000" />
<path d="M 244.203613 5.225098 Q 243.886719 4.978027 243.559082 4.865234 Q 243.231445 4.752441 242.839355 4.752441 Q 241.915527 4.752441 241.426758 5.332520 Q 240.937988 5.912598 240.937988 7.008301 L 240.937988 10.000000 L 239.944336 10.000000 L 239.944336 3.984375 L 240.937988 3.984375 L 240.937988 5.160645 Q 241.185059 4.521484 241.697998 4.180420 Q 242.210938 3.839355 242.914551 3.839355 Q 243.279785 3.839355 243.596680 3.930664 Q 243.913574 4.021973 244.203613 4.215332 Z " fill="rgb(0, 0, 0)" fill-opacity="1.000000" />
<path d="M 245.537109 3.984375 L 246.562988 3.984375 L 248.308594 9.033203 L 250.059570 3.984375 L 251.085449 3.984375 L 248.947754 10.000000 L 247.674805 10.000000 Z " fill="rgb(0, 0, 0)" fill-opacity="1.000000" />
<path d="M 258.015625 6.498047 L 258.015625 6.981445 L 253.734863 6.981445 L 253.734863 7.013672 Q 253.691895 8.243652 254.204834 8.780762 Q 254.717773 9.317871 255.652344 9.317871 Q 256.125000 9.317871 256.640625 9.167480 Q 257.156250 9.017090 257.741699 8.710938 L 257.741699 9.693848 Q 257.177734 9.924805 256.654053 10.040283 Q 256.130371 10.155762 255.641602 10.155762 Q 254.239746 10.155762 253.450195 9.315186 Q 252.660645 8.474609 252.660645 6.997559 Q 252.660645 5.558105 253.434082 4.698730 Q 254.207520 3.839355 255.496582 3.839355 Q 256.645996 3.839355 257.309326 4.618164 Q 257.972656 5.396973 258.015625 6.498047 Z M 257.027344 6.208008 Q 256.962891 5.584961 256.573486 5.131104 Q 256.184082 4.677246 255.453613 4.677246 Q 254.739258 4.677246 254.277344 5.149902 Q 253.815430 5.622559 253.772461 6.213379 Z " fill="rgb(0, 0, 0)" fill-opacity="1.000000" />
<path d="M 265.203613 5.225098 Q 264.886719 4.978027 264.559082 4.865234 Q 264.231445 4.752441 263.839355 4.752441 Q 262.915527 4.752441 262.426758 5.332520 Q 261.937988 5.912598 261.937988 7.008301 L 261.937988 10.000000 L 260.944336 10.000000 L 260.944336 3.984375 L 261.937988 3.984375 L 261.937988 5.160645 Q 262.185059 4.521484 262.697998 4.180420 Q 263.210938 3.839355 263.914551 3.839355 Q 264.279785 3.839355 264.596680 3.930664 Q 264.913574 4.021973 265.203613 4.215332 Z " fill="rgb(0, 0, 0)" fill-opacity="1.000000" />
</svg>