<svg xmlns="http://www.w3.org/2000/svg" version="1.1" width="337" height="287">
<path d="M 6.332520 122.321777 L 3.947754 123.610840 L 6.332520 124.905273 L 5.956543 125.560547 L 3.711426 124.212402 L 3.711426 126.715332 L 2.943359 126.715332 L 2.943359 124.212402 L 0.698242 125.560547 L 0.322266 124.905273 L 2.712402 123.610840 L 0.322266 122.321777 L 0.698242 121.661133 L 2.943359 123.009277 L 2.943359 120.506348 L 3.711426 120.506348 L 3.711426 123.009277 L 5.956543 121.661133 Z " fill="rgb(0, 0, 0)" fill-opacity="1.000000" />
<path d="M 6.332520 200.321777 L 3.947754 201.610840 L 6.332520 202.905273 L 5.956543 203.560547 L 3.711426 202.212402 L 3.711426 204.715332 L 2.943359 204.715332 L 2.943359 202.212402 L 0.698242 203.560547 L 0.322266 202.905273 L 2.712402 201.610840 L 0.322266 200.321777 L 0.698242 199.661133 L 2.943359 201.009277 L 2.943359 198.506348 L 3.711426 198.506348 L 3.711426 201.009277 L 5.956543 199.661133 Z " fill="rgb(0, 0, 0)" fill-opacity="1.000000" />
<path d="M 31.985352 209.594238 L 31.985352 220.594238 L 31.061523 220.594238 L 31.061523 209.594238 Z " fill="rgb(0, 0, 0)" fill-opacity="1.000000" />
<path d="M 34.332520 226.321777 L 31.947754 227.610840 L 34.332520 228.905273 L 33.956543 229.560547 L 31.711426 228.212402 L 31.711426 230.715332 L 30.943359 230.715332 L 30.943359 228.212402 L 28.698242 229.560547 L 28.322266 228.905273 L 30.712402 227.610840 L 28.322266 226.321777 L 28.698242 225.661133 L 30.943359 227.009277 L 30.943359 224.506348 L 31.711426 224.506348 L 31.711426 227.009277 L 33.956543 225.661133 Z " fill="rgb(0, 0, 0)" fill-opacity="1.000000" />
<path d="M 171.985352 235.594238 L 171.985352 246.594238 L 171.061523 246.594238 L 171.061523 235.594238 Z " fill="rgb(0, 0, 0)" fill-opacity="1.000000" />
<path d="M 171.985352 248.594238 L 171.985352 259.594238 L 171.061523 259.594238 L 171.061523 248.594238 Z " fill="rgb(0, 0, 0)" fill-opacity="1.000000" />
<path d="M 171.985352 261.594238 L 171.985352 272.594238 L 171.061523 272.594238 L 171.061523 261.594238 Z " fill="rgb(0, 0, 0)" fill-opacity="1.000000" />
<path d="M 171.985352 274.594238 L 171.985352 285.594238 L 171.061523 285.594238 L 171.061523 274.594238 Z " fill="rgb(0, 0, 0)" fill-opacity="1.000000" />
<path d="M 223.332520 239.321777 L 220.947754 240.610840 L 223.332520 241.905273 L 222.956543 242.560547 L 220.711426 241.212402 L 220.711426 243.715332 L 219.943359 243.715332 L 219.943359 241.212402 L 217.698242 242.560547 L 217.322266 241.905273 L 219.712402 240.610840 L 217.322266 239.321777 L 217.698242 238.661133 L 219.943359 240.009277 L 219.943359 237.506348 L 220.711426 237.506348 L 220.711426 240.009277 L 222.956543 238.661133 Z " fill="rgb(0, 0, 0)" fill-opacity="1.000000" />
<path d="M 248.985352 248.594238 L 248.985352 259.594238 L 248.061523 259.594238 L 248.061523 248.594238 Z " fill="rgb(0, 0, 0)" fill-opacity="1.000000" />
<path d="M 251.332520 265.321777 L 248.947754 266.610840 L 251.332520 267.905273 L 250.956543 268.560547 L 248.711426 267.212402 L 248.711426 269.715332 L 247.943359 269.715332 L 247.943359 267.212402 L 245.698242 268.560547 L 245.322266 267.905273 L 247.712402 266.610840 L 245.322266 265.321777 L 245.698242 264.661133 L 247.943359 266.009277 L 247.943359 263.506348 L 248.711426 263.506348 L 248.711426 266.009277 L 250.956543 264.661133 Z " fill="rgb(0, 0, 0)" fill-opacity="1.000000" />
<path d="M 224.547852 240.111328 L 230.241211 240.111328 L 230.241211 241.019043 L 224.547852 241.019043 Z " fill="rgb(0, 0, 0)" fill-opacity="1.000000" />
<path d="M 231.547852 240.111328 L 237.241211 240.111328 L 237.241211 241.019043 L 231.547852 241.019043 Z " fill="rgb(0, 0, 0)" fill-opacity="1.000000" />
<path d="M 238.547852 240.111328 L 244.241211 240.111328 L 244.241211 241.019043 L 238.547852 241.019043 Z " fill="rgb(0, 0, 0)" fill-opacity="1.000000" />
<path d="M 251.332520 239.321777 L 248.947754 240.610840 L 251.332520 241.905273 L 250.956543 242.560547 L 248.711426 241.212402 L 248.711426 243.715332 L 247.943359 243.715332 L 247.943359 241.212402 L 245.698242 242.560547 L 245.322266 241.905273 L 247.712402 240.610840 L 245.322266 239.321777 L 245.698242 238.661133 L 247.943359 240.009277 L 247.943359 237.506348 L 248.711426 237.506348 L 248.711426 240.009277 L 250.956543 238.661133 Z " fill="rgb(0, 0, 0)" fill-opacity="1.000000" />
<path d="M 279.332520 239.321777 L 276.947754 240.610840 L 279.332520 241.905273 L 278.956543 242.560547 L 276.711426 241.212402 L 276.711426 243.715332 L 275.943359 243.715332 L 275.943359 241.212402 L 273.698242 242.560547 L 273.322266 241.905273 L 275.712402 240.610840 L 273.322266 239.321777 L 273.698242 238.661133 L 275.943359 240.009277 L 275.943359 237.506348 L 276.711426 237.506348 L 276.711426 240.009277 L 278.956543 238.661133 Z " fill="rgb(0, 0, 0)" fill-opacity="1.000000" />
<path d="M 307.332520 239.321777 L 304.947754 240.610840 L 307.332520 241.905273 L 306.956543 242.560547 L 304.711426 241.212402 L 304.711426 243.715332 L 303.943359 243.715332 L 303.943359 241.212402 L 301.698242 242.560547 L 301.322266 241.905273 L 303.712402 240.610840 L 301.322266 239.321777 L 301.698242 238.661133 L 303.943359 240.009277 L 303.943359 237.506348 L 304.711426 237.506348 L 304.711426 240.009277 L 306.956543 238.661133 Z " fill="rgb(0, 0, 0)" fill-opacity="1.000000" />
<path d="M 171.985352 222.594238 L 171.985352 233.594238 L 171.061523 233.594238 L 171.061523 222.594238 Z " fill="rgb(0, 0, 0)" fill-opacity="1.000000" />
<path d="M 248.985352 222.594238 L 248.985352 233.594238 L 248.061523 233.594238 L 248.061523 222.594238 Z " fill="rgb(0, 0, 0)" fill-opacity="1.000000" />
<path d="M 276.985352 222.594238 L 276.985352 233.594238 L 276.061523 233.594238 L 276.061523 222.594238 Z " fill="rgb(0, 0, 0)" fill-opacity="1.000000" />
<path d="M 304.985352 222.594238 L 304.985352 233.594238 L 304.061523 233.594238 L 304.061523 222.594238 Z " fill="rgb(0, 0, 0)" fill-opacity="1.000000" />
<path d="M 171.985352 209.594238 L 171.985352 220.594238 L 171.061523 220.594238 L 171.061523 209.594238 Z " fill="rgb(0, 0, 0)" fill-opacity="1.000000" />
<path d="M 251.332520 213.321777 L 248.947754 214.610840 L 251.332520 215.905273 L 250.956543 216.560547 L 248.711426 215.212402 L 248.711426 217.715332 L 247.943359 217.715332 L 247.943359 215.212402 L 245.698242 216.560547 L 245.322266 215.905273 L 247.712402 214.610840 L 245.322266 213.321777 L 245.698242 212.661133 L 247.943359 214.009277 L 247.943359 211.506348 L 248.711426 211.506348 L 248.711426 214.009277 L 250.956543 212.661133 Z " fill="rgb(0, 0, 0)" fill-opacity="1.000000" />
<path d="M 252.547852 214.111328 L 258.241211 214.111328 L 258.241211 215.019043 L 252.547852 215.019043 Z " fill="rgb(0, 0, 0)" fill-opacity="1.000000" />
<path d="M 259.547852 214.111328 L 265.241211 214.111328 L 265.241211 215.019043 L 259.547852 215.019043 Z " fill="rgb(0, 0, 0)" fill-opacity="1.000000" />
<path d="M 266.547852 214.111328 L 272.241211 214.111328 L 272.241211 215.019043 L 266.547852 215.019043 Z " fill="rgb(0, 0, 0)" fill-opacity="1.000000" />
<path d="M 279.332520 213.321777 L 276.947754 214.610840 L 279.332520 215.905273 L 278.956543 216.560547 L 276.711426 215.212402 L 276.711426 217.715332 L 275.943359 217.715332 L 275.943359 215.212402 L 273.698242 216.560547 L 273.322266 215.905273 L 275.712402 214.610840 L 273.322266 213.321777 L 273.698242 212.661133 L 275.943359 214.009277 L 275.943359 211.506348 L 276.711426 211.506348 L 276.711426 214.009277 L 278.956543 212.661133 Z " fill="rgb(0, 0, 0)" fill-opacity="1.000000" />
<path d="M 280.547852 214.111328 L 286.241211 214.111328 L 286.241211 215.019043 L 280.547852 215.019043 Z " fill="rgb(0, 0, 0)" fill-opacity="1.000000" />
<path d="M 287.547852 214.111328 L 293.241211 214.111328 L 293.241211 215.019043 L 287.547852 215.019043 Z " fill="rgb(0, 0, 0)" fill-opacity="1.000000" />
<path d="M 294.547852 214.111328 L 300.241211 214.111328 L 300.241211 215.019043 L 294.547852 215.019043 Z " fill="rgb(0, 0, 0)" fill-opacity="1.000000" />
<path d="M 307.332520 213.321777 L 304.947754 214.610840 L 307.332520 215.905273 L 306.956543 216.560547 L 304.711426 215.212402 L 304.711426 217.715332 L 303.943359 217.715332 L 303.943359 215.212402 L 301.698242 216.560547 L 301.322266 215.905273 L 303.712402 214.610840 L 301.322266 213.321777 L 301.698242 212.661133 L 303.943359 214.009277 L 303.943359 211.506348 L 304.711426 211.506348 L 304.711426 214.009277 L 306.956543 212.661133 Z " fill="rgb(0, 0, 0)" fill-opacity="1.000000" />
<path d="M 7.547852 201.111328 L 13.241211 201.111328 L 13.241211 202.019043 L 7.547852 202.019043 Z " fill="rgb(0, 0, 0)" fill-opacity="1.000000" />
<path d="M 14.547852 201.111328 L 20.241211 201.111328 L 20.241211 202.019043 L 14.547852 202.019043 Z " fill="rgb(0, 0, 0)" fill-opacity="1.000000" />
<path d="M 21.547852 201.111328 L 27.241211 201.111328 L 27.241211 202.019043 L 21.547852 202.019043 Z " fill="rgb(0, 0, 0)" fill-opacity="1.000000" />
<path d="M 34.332520 200.321777 L 31.947754 201.610840 L 34.332520 202.905273 L 33.956543 203.560547 L 31.711426 202.212402 L 31.711426 204.715332 L 30.943359 204.715332 L 30.943359 202.212402 L 28.698242 203.560547 L 28.322266 202.905273 L 30.712402 201.610840 L 28.322266 200.321777 L 28.698242 199.661133 L 30.943359 201.009277 L 30.943359 198.506348 L 31.711426 198.506348 L 31.711426 201.009277 L 33.956543 199.661133 Z " fill="rgb(0, 0, 0)" fill-opacity="1.000000" />
<path d="M 62.332520 200.321777 L 59.947754 201.610840 L 62.332520 202.905273 L 61.956543 203.560547 L 59.711426 202.212402 L 59.711426 204.715332 L 58.943359 204.715332 L 58.943359 202.212402 L 56.698242 203.560547 L 56.322266 202.905273 L 58.712402 201.610840 L 56.322266 200.321777 L 56.698242 199.661133 L 58.943359 201.009277 L 58.943359 198.506348 L 59.711426 198.506348 L 59.711426 201.009277 L 61.956543 199.661133 Z " fill="rgb(0, 0, 0)" fill-opacity="1.000000" />
<path d="M 90.332520 200.321777 L 87.947754 201.610840 L 90.332520 202.905273 L 89.956543 203.560547 L 87.711426 202.212402 L 87.711426 204.715332 L 86.943359 204.715332 L 86.943359 202.212402 L 84.698242 203.560547 L 84.322266 202.905273 L 86.712402 201.610840 L 84.322266 200.321777 L 84.698242 199.661133 L 86.943359 201.009277 L 86.943359 198.506348 L 87.711426 198.506348 L 87.711426 201.009277 L 89.956543 199.661133 Z " fill="rgb(0, 0, 0)" fill-opacity="1.000000" />
<path d="M 171.985352 196.594238 L 171.985352 207.594238 L 171.061523 207.594238 L 171.061523 196.594238 Z " fill="rgb(0, 0, 0)" fill-opacity="1.000000" />
<path d="M 31.985352 131.594238 L 31.985352 142.594238 L 31.061523 142.594238 L 31.061523 131.594238 Z " fill="rgb(0, 0, 0)" fill-opacity="1.000000" />
<path d="M 34.332520 148.321777 L 31.947754 149.610840 L 34.332520 150.905273 L 33.956543 151.560547 L 31.711426 150.212402 L 31.711426 152.715332 L 30.943359 152.715332 L 30.943359 150.212402 L 28.698242 151.560547 L 28.322266 150.905273 L 30.712402 149.610840 L 28.322266 148.321777 L 28.698242 147.661133 L 30.943359 149.009277 L 30.943359 146.506348 L 31.711426 146.506348 L 31.711426 149.009277 L 33.956543 147.661133 Z " fill="rgb(0, 0, 0)" fill-opacity="1.000000" />
<path d="M 34.332520 174.321777 L 31.947754 175.610840 L 34.332520 176.905273 L 33.956543 177.560547 L 31.711426 176.212402 L 31.711426 178.715332 L 30.943359 178.715332 L 30.943359 176.212402 L 28.698242 177.560547 L 28.322266 176.905273 L 30.712402 175.610840 L 28.322266 174.321777 L 28.698242 173.661133 L 30.943359 175.009277 L 30.943359 172.506348 L 31.711426 172.506348 L 31.711426 175.009277 L 33.956543 173.661133 Z " fill="rgb(0, 0, 0)" fill-opacity="1.000000" />
<path d="M 31.985352 183.594238 L 31.985352 194.594238 L 31.061523 194.594238 L 31.061523 183.594238 Z " fill="rgb(0, 0, 0)" fill-opacity="1.000000" />
<path d="M 59.985352 183.594238 L 59.985352 194.594238 L 59.061523 194.594238 L 59.061523 183.594238 Z " fill="rgb(0, 0, 0)" fill-opacity="1.000000" />
<path d="M 87.985352 183.594238 L 87.985352 194.594238 L 87.061523 194.594238 L 87.061523 183.594238 Z " fill="rgb(0, 0, 0)" fill-opacity="1.000000" />
<path d="M 171.985352 183.594238 L 171.985352 194.594238 L 171.061523 194.594238 L 171.061523 183.594238 Z " fill="rgb(0, 0, 0)" fill-opacity="1.000000" />
<path d="M 233.341797 191.108398 Q 234.711426 191.108398 235.253906 190.434326 Q 235.796387 189.760254 235.796387 187.998535 Q 235.796387 186.220703 235.256592 185.546631 Q 234.716797 184.872559 233.341797 184.872559 L 232.826172 184.872559 L 232.826172 191.108398 Z M 233.363281 183.980957 Q 235.200195 183.980957 236.070312 184.958496 Q 236.940430 185.936035 236.940430 187.998535 Q 236.940430 190.050293 236.070312 191.025146 Q 235.200195 192.000000 233.363281 192.000000 L 231.735840 192.000000 L 231.735840 183.980957 Z " fill="rgb(0, 0, 0)" fill-opacity="1.000000" />
<path d="M 244.015625 188.498047 L 244.015625 188.981445 L 239.734863 188.981445 L 239.734863 189.013672 Q 239.691895 190.243652 240.204834 190.780762 Q 240.717773 191.317871 241.652344 191.317871 Q 242.125000 191.317871 242.640625 191.167480 Q 243.156250 191.017090 243.741699 190.710938 L 243.741699 191.693848 Q 243.177734 191.924805 242.654053 192.040283 Q 242.130371 192.155762 241.641602 192.155762 Q 240.239746 192.155762 239.450195 191.315186 Q 238.660645 190.474609 238.660645 188.997559 Q 238.660645 187.558105 239.434082 186.698730 Q 240.207520 185.839355 241.496582 185.839355 Q 242.645996 185.839355 243.309326 186.618164 Q 243.972656 187.396973 244.015625 188.498047 Z M 243.027344 188.208008 Q 242.962891 187.584961 242.573486 187.131104 Q 242.184082 186.677246 241.453613 186.677246 Q 240.739258 186.677246 240.277344 187.149902 Q 239.815430 187.622559 239.772461 188.213379 Z " fill="rgb(0, 0, 0)" fill-opacity="1.000000" />
<path d="M 250.709473 183.642578 L 250.709473 184.464355 L 249.586914 184.464355 Q 249.055176 184.464355 248.848389 184.681885 Q 248.641602 184.899414 248.641602 185.452637 L 248.641602 185.984375 L 250.709473 185.984375 L 250.709473 186.752441 L 248.641602 186.752441 L 248.641602 192.000000 L 247.653320 192.000000 L 247.653320 186.752441 L 246.047363 186.752441 L 246.047363 185.984375 L 247.653320 185.984375 L 247.653320 185.565430 Q 247.653320 184.577148 248.107178 184.109863 Q 248.561035 183.642578 249.522461 183.642578 Z " fill="rgb(0, 0, 0)" fill-opacity="1.000000" />
<path d="M 258.015625 188.498047 L 258.015625 188.981445 L 253.734863 188.981445 L 253.734863 189.013672 Q 253.691895 190.243652 254.204834 190.780762 Q 254.717773 191.317871 255.652344 191.317871 Q 256.125000 191.317871 256.640625 191.167480 Q 257.156250 191.017090 257.741699 190.710938 L 257.741699 191.693848 Q 257.177734 191.924805 256.654053 192.040283 Q 256.130371 192.155762 255.641602 192.155762 Q 254.239746 192.155762 253.450195 191.315186 Q 252.660645 190.474609 252.660645 188.997559 Q 252.660645 187.558105 253.434082 186.698730 Q 254.207520 185.839355 255.496582 185.839355 Q 256.645996 185.839355 257.309326 186.618164 Q 257.972656 187.396973 258.015625 188.498047 Z M 257.027344 188.208008 Q 256.962891 187.584961 256.573486 187.131104 Q 256.184082 186.677246 255.453613 186.677246 Q 254.739258 186.677246 254.277344 187.149902 Q 253.815430 187.622559 253.772461 188.213379 Z " fill="rgb(0, 0, 0)" fill-opacity="1.000000" />
<path d="M 265.203613 187.225098 Q 264.886719 186.978027 264.559082 186.865234 Q 264.231445 186.752441 263.839355 186.752441 Q 262.915527 186.752441 262.426758 187.332520 Q 261.937988 187.912598 261.937988 189.008301 L 261.937988 192.000000 L 260.944336 192.000000 L 260.944336 185.984375 L 261.937988 185.984375 L 261.937988 187.160645 Q 262.185059 186.521484 262.697998 186.180420 Q 263.210938 185.839355 263.914551 185.839355 Q 264.279785 185.839355 264.596680 185.930664 Q 264.913574 186.021973 265.203613 186.215332 Z " fill="rgb(0, 0, 0)" fill-opacity="1.000000" />
<path d="M 272.203613 187.225098 Q 271.886719 186.978027 271.559082 186.865234 Q 271.231445 186.752441 270.839355 186.752441 Q 269.915527 186.752441 269.426758 187.332520 Q 268.937988 187.912598 268.937988 189.008301 L 268.937988 192.000000 L 267.944336 192.000000 L 267.944336 185.984375 L 268.937988 185.984375 L 268.937988 187.160645 Q 269.185059 186.521484 269.697998 186.180420 Q 270.210938 185.839355 270.914551 185.839355 Q 271.279785 185.839355 271.596680 185.930664 Q 271.913574 186.021973 272.203613 186.215332 Z " fill="rgb(0, 0, 0)" fill-opacity="1.000000" />
<path d="M 279.015625 188.498047 L 279.015625 188.981445 L 274.734863 188.981445 L 274.734863 189.013672 Q 274.691895 190.243652 275.204834 190.780762 Q 275.717773 191.317871 276.652344 191.317871 Q 277.125000 191.317871 277.640625 191.167480 Q 278.156250 191.017090 278.741699 190.710938 L 278.741699 191.693848 Q 278.177734 191.924805 277.654053 192.040283 Q 277.130371 192.155762 276.641602 192.155762 Q 275.239746 192.155762 274.450195 191.315186 Q 273.660645 190.474609 273.660645 188.997559 Q 273.660645 187.558105 274.434082 186.698730 Q 275.207520 185.839355 276.496582 185.839355 Q 277.645996 185.839355 278.309326 186.618164 Q 278.972656 187.396973 279.015625 188.498047 Z M 278.027344 188.208008 Q 277.962891 187.584961 277.573486 187.131104 Q 277.184082 186.677246 276.453613 186.677246 Q 275.739258 186.677246 275.277344 187.149902 Q 274.815430 187.622559 274.772461 188.213379 Z " fill="rgb(0, 0, 0)" fill-opacity="1.000000" />
<path d="M 284.608398 186.752441 L 284.608398 183.642578 L 285.596680 183.642578 L 285.596680 192.000000 L 284.608398 192.000000 L 284.608398 191.242676 Q 284.361328 191.688477 283.950439 191.922119 Q 283.539551 192.155762 283.002441 192.155762 Q 281.912109 192.155762 281.286377 191.309814 Q 280.660645 190.463867 280.660645 188.976074 Q 280.660645 187.509766 281.289062 186.674561 Q 281.917480 185.839355 283.002441 185.839355 Q 283.544922 185.839355 283.958496 186.072998 Q 284.372070 186.306641 284.608398 186.752441 Z M 281.702637 188.997559 Q 281.702637 190.146973 282.067871 190.732422 Q 282.433105 191.317871 283.147461 191.317871 Q 283.861816 191.317871 284.235107 190.727051 Q 284.608398 190.136230 284.608398 188.997559 Q 284.608398 187.853516 284.235107 187.265381 Q 283.861816 186.677246 283.147461 186.677246 Q 282.433105 186.677246 282.067871 187.262695 Q 281.702637 187.848145 281.702637 188.997559 Z " fill="rgb(0, 0, 0)" fill-opacity="1.000000" />
<path d="M 297.518066 192.145020 Q 297.480469 192.145020 297.410645 192.150391 Q 297.340820 192.155762 297.297852 192.155762 Q 295.955078 192.155762 295.291748 191.124512 Q 294.628418 190.093262 294.628418 187.998535 Q 294.628418 185.898438 295.291748 184.867188 Q 295.955078 183.835938 297.308594 183.835938 Q 298.667480 183.835938 299.330811 184.867188 Q 299.994141 185.898438 299.994141 187.998535 Q 299.994141 189.577637 299.626221 190.541748 Q 299.258301 191.505859 298.511719 191.892578 L 299.585938 192.913086 L 298.774902 193.450195 Z M 298.860840 187.998535 Q 298.860840 186.231445 298.498291 185.474121 Q 298.135742 184.716797 297.308594 184.716797 Q 296.486816 184.716797 296.124268 185.474121 Q 295.761719 186.231445 295.761719 187.998535 Q 295.761719 189.760254 296.124268 190.517578 Q 296.486816 191.274902 297.308594 191.274902 Q 298.135742 191.274902 298.498291 190.520264 Q 298.860840 189.765625 298.860840 187.998535 Z " fill="rgb(0, 0, 0)" fill-opacity="1.000000" />
<path d="M 302.047363 189.722656 L 302.047363 185.995117 L 303.035645 185.995117 L 303.035645 189.722656 Q 303.035645 190.533691 303.322998 190.915039 Q 303.610352 191.296387 304.211914 191.296387 Q 304.910156 191.296387 305.280762 190.804932 Q 305.651367 190.313477 305.651367 189.395020 L 305.651367 185.995117 L 306.645020 185.995117 L 306.645020 192.000000 L 305.651367 192.000000 L 305.651367 191.097656 Q 305.388184 191.618652 304.934326 191.887207 Q 304.480469 192.155762 303.873535 192.155762 Q 302.949707 192.155762 302.498535 191.551514 Q 302.047363 190.947266 302.047363 189.722656 Z " fill="rgb(0, 0, 0)" fill-opacity="1.000000" />
<path d="M 314.015625 188.498047 L 314.015625 188.981445 L 309.734863 188.981445 L 309.734863 189.013672 Q 309.691895 190.243652 310.204834 190.780762 Q 310.717773 191.317871 311.652344 191.317871 Q 312.125000 191.317871 312.640625 191.167480 Q 313.156250 191.017090 313.741699 190.710938 L 313.741699 191.693848 Q 313.177734 191.924805 312.654053 192.040283 Q 312.130371 192.155762 311.641602 192.155762 Q 310.239746 192.155762 309.450195 191.315186 Q 308.660645 190.474609 308.660645 188.997559 Q 308.660645 187.558105 309.434082 186.698730 Q 310.207520 185.839355 311.496582 185.839355 Q 312.645996 185.839355 313.309326 186.618164 Q 313.972656 187.396973 314.015625 188.498047 Z M 313.027344 188.208008 Q 312.962891 187.584961 312.573486 187.131104 Q 312.184082 186.677246 311.453613 186.677246 Q 310.739258 186.677246 310.277344 187.149902 Q 309.815430 187.622559 309.772461 188.213379 Z " fill="rgb(0, 0, 0)" fill-opacity="1.000000" />
<path d="M 321.203613 187.225098 Q 320.886719 186.978027 320.559082 186.865234 Q 320.231445 186.752441 319.839355 186.752441 Q 318.915527 186.752441 318.426758 187.332520 Q 317.937988 187.912598 317.937988 189.008301 L 317.937988 192.000000 L 316.944336 192.000000 L 316.944336 185.984375 L 317.937988 185.984375 L 317.937988 187.160645 Q 318.185059 186.521484 318.697998 186.180420 Q 319.210938 185.839355 319.914551 185.839355 Q 320.279785 185.839355 320.596680 185.930664 Q 320.913574 186.021973 321.203613 186.215332 Z " fill="rgb(0, 0, 0)" fill-opacity="1.000000" />
<path d="M 326.608398 190.066406 Q 326.361328 190.694824 325.979980 191.720703 Q 325.448242 193.138672 325.265625 193.450195 Q 325.018555 193.869141 324.647949 194.078613 Q 324.277344 194.288086 323.783203 194.288086 L 322.988281 194.288086 L 322.988281 193.460938 L 323.573730 193.460938 Q 324.008789 193.460938 324.255859 193.208496 Q 324.502930 192.956055 324.884277 191.903320 L 322.558594 185.984375 L 323.605957 185.984375 L 325.389160 190.689453 L 327.145508 185.984375 L 328.192871 185.984375 Z " fill="rgb(0, 0, 0)" fill-opacity="1.000000" />
<path d="M 35.547852 175.111328 L 41.241211 175.111328 L 41.241211 176.019043 L 35.547852 176.019043 Z " fill="rgb(0, 0, 0)" fill-opacity="1.000000" />
<path d="M 42.547852 175.111328 L 48.241211 175.111328 L 48.241211 176.019043 L 42.547852 176.019043 Z " fill="rgb(0, 0, 0)" fill-opacity="1.000000" />
<path d="M 49.547852 175.111328 L 55.241211 175.111328 L 55.241211 176.019043 L 49.547852 176.019043 Z " fill="rgb(0, 0, 0)" fill-opacity="1.000000" />
<path d="M 62.332520 174.321777 L 59.947754 175.610840 L 62.332520 176.905273 L 61.956543 177.560547 L 59.711426 176.212402 L 59.711426 178.715332 L 58.943359 178.715332 L 58.943359 176.212402 L 56.698242 177.560547 L 56.322266 176.905273 L 58.712402 175.610840 L 56.322266 174.321777 L 56.698242 173.661133 L 58.943359 175.009277 L 58.943359 172.506348 L 59.711426 172.506348 L 59.711426 175.009277 L 61.956543 173.661133 Z " fill="rgb(0, 0, 0)" fill-opacity="1.000000" />
<path d="M 63.547852 175.111328 L 69.241211 175.111328 L 69.241211 176.019043 L 63.547852 176.019043 Z " fill="rgb(0, 0, 0)" fill-opacity="1.000000" />
<path d="M 70.547852 175.111328 L 76.241211 175.111328 L 76.241211 176.019043 L 70.547852 176.019043 Z " fill="rgb(0, 0, 0)" fill-opacity="1.000000" />
<path d="M 77.547852 175.111328 L 83.241211 175.111328 L 83.241211 176.019043 L 77.547852 176.019043 Z " fill="rgb(0, 0, 0)" fill-opacity="1.000000" />
<path d="M 90.332520 174.321777 L 87.947754 175.610840 L 90.332520 176.905273 L 89.956543 177.560547 L 87.711426 176.212402 L 87.711426 178.715332 L 86.943359 178.715332 L 86.943359 176.212402 L 84.698242 177.560547 L 84.322266 176.905273 L 86.712402 175.610840 L 84.322266 174.321777 L 84.698242 173.661133 L 86.943359 175.009277 L 86.943359 172.506348 L 87.711426 172.506348 L 87.711426 175.009277 L 89.956543 173.661133 Z " fill="rgb(0, 0, 0)" fill-opacity="1.000000" />
<path d="M 171.985352 170.594238 L 171.985352 181.594238 L 171.061523 181.594238 L 171.061523 170.594238 Z " fill="rgb(0, 0, 0)" fill-opacity="1.000000" />
<path d="M 59.985352 157.594238 L 59.985352 168.594238 L 59.061523 168.594238 L 59.061523 157.594238 Z " fill="rgb(0, 0, 0)" fill-opacity="1.000000" />
<path d="M 171.985352 157.594238 L 171.985352 168.594238 L 171.061523 168.594238 L 171.061523 157.594238 Z " fill="rgb(0, 0, 0)" fill-opacity="1.000000" />
<path d="M 62.332520 148.321777 L 59.947754 149.610840 L 62.332520 150.905273 L 61.956543 151.560547 L 59.711426 150.212402 L 59.711426 152.715332 L 58.943359 152.715332 L 58.943359 150.212402 L 56.698242 151.560547 L 56.322266 150.905273 L 58.712402 149.610840 L 56.322266 148.321777 L 56.698242 147.661133 L 58.943359 149.009277 L 58.943359 146.506348 L 59.711426 146.506348 L 59.711426 149.009277 L 61.956543 147.661133 Z " fill="rgb(0, 0, 0)" fill-opacity="1.000000" />
<path d="M 90.332520 148.321777 L 87.947754 149.610840 L 90.332520 150.905273 L 89.956543 151.560547 L 87.711426 150.212402 L 87.711426 152.715332 L 86.943359 152.715332 L 86.943359 150.212402 L 84.698242 151.560547 L 84.322266 150.905273 L 86.712402 149.610840 L 84.322266 148.321777 L 84.698242 147.661133 L 86.943359 149.009277 L 86.943359 146.506348 L 87.711426 146.506348 L 87.711426 149.009277 L 89.956543 147.661133 Z " fill="rgb(0, 0, 0)" fill-opacity="1.000000" />
<path d="M 91.547852 149.111328 L 97.241211 149.111328 L 97.241211 150.019043 L 91.547852 150.019043 Z " fill="rgb(0, 0, 0)" fill-opacity="1.000000" />
<path d="M 98.547852 149.111328 L 104.241211 149.111328 L 104.241211 150.019043 L 98.547852 150.019043 Z " fill="rgb(0, 0, 0)" fill-opacity="1.000000" />
<path d="M 105.547852 149.111328 L 111.241211 149.111328 L 111.241211 150.019043 L 105.547852 150.019043 Z " fill="rgb(0, 0, 0)" fill-opacity="1.000000" />
<path d="M 118.332520 148.321777 L 115.947754 149.610840 L 118.332520 150.905273 L 117.956543 151.560547 L 115.711426 150.212402 L 115.711426 152.715332 L 114.943359 152.715332 L 114.943359 150.212402 L 112.698242 151.560547 L 112.322266 150.905273 L 114.712402 149.610840 L 112.322266 148.321777 L 112.698242 147.661133 L 114.943359 149.009277 L 114.943359 146.506348 L 115.711426 146.506348 L 115.711426 149.009277 L 117.956543 147.661133 Z " fill="rgb(0, 0, 0)" fill-opacity="1.000000" />
<path d="M 171.985352 144.594238 L 171.985352 155.594238 L 171.061523 155.594238 L 171.061523 144.594238 Z " fill="rgb(0, 0, 0)" fill-opacity="1.000000" />
<path d="M 59.985352 131.594238 L 59.985352 142.594238 L 59.061523 142.594238 L 59.061523 131.594238 Z " fill="rgb(0, 0, 0)" fill-opacity="1.000000" />
<path d="M 87.985352 131.594238 L 87.985352 142.594238 L 87.061523 142.594238 L 87.061523 131.594238 Z " fill="rgb(0, 0, 0)" fill-opacity="1.000000" />
<path d="M 171.985352 131.594238 L 171.985352 142.594238 L 171.061523 142.594238 L 171.061523 131.594238 Z " fill="rgb(0, 0, 0)" fill-opacity="1.000000" />
<path d="M 7.547852 123.111328 L 13.241211 123.111328 L 13.241211 124.019043 L 7.547852 124.019043 Z " fill="rgb(0, 0, 0)" fill-opacity="1.000000" />
<path d="M 14.547852 123.111328 L 20.241211 123.111328 L 20.241211 124.019043 L 14.547852 124.019043 Z " fill="rgb(0, 0, 0)" fill-opacity="1.000000" />
<path d="M 21.547852 123.111328 L 27.241211 123.111328 L 27.241211 124.019043 L 21.547852 124.019043 Z " fill="rgb(0, 0, 0)" fill-opacity="1.000000" />
<path d="M 34.332520 122.321777 L 31.947754 123.610840 L 34.332520 124.905273 L 33.956543 125.560547 L 31.711426 124.212402 L 31.711426 126.715332 L 30.943359 126.715332 L 30.943359 124.212402 L 28.698242 125.560547 L 28.322266 124.905273 L 30.712402 123.610840 L 28.322266 122.321777 L 28.698242 121.661133 L 30.943359 123.009277 L 30.943359 120.506348 L 31.711426 120.506348 L 31.711426 123.009277 L 33.956543 121.661133 Z " fill="rgb(0, 0, 0)" fill-opacity="1.000000" />
<path d="M 62.332520 122.321777 L 59.947754 123.610840 L 62.332520 124.905273 L 61.956543 125.560547 L 59.711426 124.212402 L 59.711426 126.715332 L 58.943359 126.715332 L 58.943359 124.212402 L 56.698242 125.560547 L 56.322266 124.905273 L 58.712402 123.610840 L 56.322266 122.321777 L 56.698242 121.661133 L 58.943359 123.009277 L 58.943359 120.506348 L 59.711426 120.506348 L 59.711426 123.009277 L 61.956543 121.661133 Z " fill="rgb(0, 0, 0)" fill-opacity="1.000000" />
<path d="M 90.332520 122.321777 L 87.947754 123.610840 L 90.332520 124.905273 L 89.956543 125.560547 L 87.711426 124.212402 L 87.711426 126.715332 L 86.943359 126.715332 L 86.943359 124.212402 L 84.698242 125.560547 L 84.322266 124.905273 L 86.712402 123.610840 L 84.322266 122.321777 L 84.698242 121.661133 L 86.943359 123.009277 L 86.943359 120.506348 L 87.711426 120.506348 L 87.711426 123.009277 L 89.956543 121.661133 Z " fill="rgb(0, 0, 0)" fill-opacity="1.000000" />
<path d="M 91.547852 123.111328 L 97.241211 123.111328 L 97.241211 124.019043 L 91.547852 124.019043 Z " fill="rgb(0, 0, 0)" fill-opacity="1.000000" />
<path d="M 98.547852 123.111328 L 104.241211 123.111328 L 104.241211 124.019043 L 98.547852 124.019043 Z " fill="rgb(0, 0, 0)" fill-opacity="1.000000" />
<path d="M 105.547852 123.111328 L 111.241211 123.111328 L 111.241211 124.019043 L 105.547852 124.019043 Z " fill="rgb(0, 0, 0)" fill-opacity="1.000000" />
<path d="M 118.332520 122.321777 L 115.947754 123.610840 L 118.332520 124.905273 L 117.956543 125.560547 L 115.711426 124.212402 L 115.711426 126.715332 L 114.943359 126.715332 L 114.943359 124.212402 L 112.698242 125.560547 L 112.322266 124.905273 L 114.712402 123.610840 L 112.322266 122.321777 L 112.698242 121.661133 L 114.943359 123.009277 L 114.943359 120.506348 L 115.711426 120.506348 L 115.711426 123.009277 L 117.956543 121.661133 Z " fill="rgb(0, 0, 0)" fill-opacity="1.000000" />
<path d="M 171.985352 118.594238 L 171.985352 129.594238 L 171.061523 129.594238 L 171.061523 118.594238 Z " fill="rgb(0, 0, 0)" fill-opacity="1.000000" />
<path d="M 251.332520 122.321777 L 248.947754 123.610840 L 251.332520 124.905273 L 250.956543 125.560547 L 248.711426 124.212402 L 248.711426 126.715332 L 247.943359 126.715332 L 247.943359 124.212402 L 245.698242 125.560547 L 245.322266 124.905273 L 247.712402 123.610840 L 245.322266 122.321777 L 245.698242 121.661133 L 247.943359 123.009277 L 247.943359 120.506348 L 248.711426 120.506348 L 248.711426 123.009277 L 250.956543 121.661133 Z " fill="rgb(0, 0, 0)" fill-opacity="1.000000" />
<path d="M 279.332520 122.321777 L 276.947754 123.610840 L 279.332520 124.905273 L 278.956543 125.560547 L 276.711426 124.212402 L 276.711426 126.715332 L 275.943359 126.715332 L 275.943359 124.212402 L 273.698242 125.560547 L 273.322266 124.905273 L 275.712402 123.610840 L 273.322266 122.321777 L 273.698242 121.661133 L 275.943359 123.009277 L 275.943359 120.506348 L 276.711426 120.506348 L 276.711426 123.009277 L 278.956543 121.661133 Z " fill="rgb(0, 0, 0)" fill-opacity="1.000000" />
<path d="M 307.332520 122.321777 L 304.947754 123.610840 L 307.332520 124.905273 L 306.956543 125.560547 L 304.711426 124.212402 L 304.711426 126.715332 L 303.943359 126.715332 L 303.943359 124.212402 L 301.698242 125.560547 L 301.322266 124.905273 L 303.712402 123.610840 L 301.322266 122.321777 L 301.698242 121.661133 L 303.943359 123.009277 L 303.943359 120.506348 L 304.711426 120.506348 L 304.711426 123.009277 L 306.956543 121.661133 Z " fill="rgb(0, 0, 0)" fill-opacity="1.000000" />
<path d="M 308.547852 123.111328 L 314.241211 123.111328 L 314.241211 124.019043 L 308.547852 124.019043 Z " fill="rgb(0, 0, 0)" fill-opacity="1.000000" />
<path d="M 315.547852 123.111328 L 321.241211 123.111328 L 321.241211 124.019043 L 315.547852 124.019043 Z " fill="rgb(0, 0, 0)" fill-opacity="1.000000" />
<path d="M 322.547852 123.111328 L 328.241211 123.111328 L 328.241211 124.019043 L 322.547852 124.019043 Z " fill="rgb(0, 0, 0)" fill-opacity="1.000000" />
<path d="M 335.332520 122.321777 L 332.947754 123.610840 L 335.332520 124.905273 L 334.956543 125.560547 L 332.711426 124.212402 L 332.711426 126.715332 L 331.943359 126.715332 L 331.943359 124.212402 L 329.698242 125.560547 L 329.322266 124.905273 L 331.712402 123.610840 L 329.322266 122.321777 L 329.698242 121.661133 L 331.943359 123.009277 L 331.943359 120.506348 L 332.711426 120.506348 L 332.711426 123.009277 L 334.956543 121.661133 Z " fill="rgb(0, 0, 0)" fill-opacity="1.000000" />
<path d="M 34.332520 96.321777 L 31.947754 97.610840 L 34.332520 98.905273 L 33.956543 99.560547 L 31.711426 98.212402 L 31.711426 100.715332 L 30.943359 100.715332 L 30.943359 98.212402 L 28.698242 99.560547 L 28.322266 98.905273 L 30.712402 97.610840 L 28.322266 96.321777 L 28.698242 95.661133 L 30.943359 97.009277 L 30.943359 94.506348 L 31.711426 94.506348 L 31.711426 97.009277 L 33.956543 95.661133 Z " fill="rgb(0, 0, 0)" fill-opacity="1.000000" />
<path d="M 31.985352 105.594238 L 31.985352 116.594238 L 31.061523 116.594238 L 31.061523 105.594238 Z " fill="rgb(0, 0, 0)" fill-opacity="1.000000" />
<path d="M 59.985352 105.594238 L 59.985352 116.594238 L 59.061523 116.594238 L 59.061523 105.594238 Z " fill="rgb(0, 0, 0)" fill-opacity="1.000000" />
<path d="M 87.985352 105.594238 L 87.985352 116.594238 L 87.061523 116.594238 L 87.061523 105.594238 Z " fill="rgb(0, 0, 0)" fill-opacity="1.000000" />
<path d="M 171.985352 105.594238 L 171.985352 116.594238 L 171.061523 116.594238 L 171.061523 105.594238 Z " fill="rgb(0, 0, 0)" fill-opacity="1.000000" />
<path d="M 248.985352 105.594238 L 248.985352 116.594238 L 248.061523 116.594238 L 248.061523 105.594238 Z " fill="rgb(0, 0, 0)" fill-opacity="1.000000" />
<path d="M 276.985352 105.594238 L 276.985352 116.594238 L 276.061523 116.594238 L 276.061523 105.594238 Z " fill="rgb(0, 0, 0)" fill-opacity="1.000000" />
<path d="M 304.985352 105.594238 L 304.985352 116.594238 L 304.061523 116.594238 L 304.061523 105.594238 Z " fill="rgb(0, 0, 0)" fill-opacity="1.000000" />
<path d="M 35.547852 97.111328 L 41.241211 97.111328 L 41.241211 98.019043 L 35.547852 98.019043 Z " fill="rgb(0, 0, 0)" fill-opacity="1.000000" />
<path d="M 42.547852 97.111328 L 48.241211 97.111328 L 48.241211 98.019043 L 42.547852 98.019043 Z " fill="rgb(0, 0, 0)" fill-opacity="1.000000" />
<path d="M 49.547852 97.111328 L 55.241211 97.111328 L 55.241211 98.019043 L 49.547852 98.019043 Z " fill="rgb(0, 0, 0)" fill-opacity="1.000000" />
<path d="M 62.332520 96.321777 L 59.947754 97.610840 L 62.332520 98.905273 L 61.956543 99.560547 L 59.711426 98.212402 L 59.711426 100.715332 L 58.943359 100.715332 L 58.943359 98.212402 L 56.698242 99.560547 L 56.322266 98.905273 L 58.712402 97.610840 L 56.322266 96.321777 L 56.698242 95.661133 L 58.943359 97.009277 L 58.943359 94.506348 L 59.711426 94.506348 L 59.711426 97.009277 L 61.956543 95.661133 Z " fill="rgb(0, 0, 0)" fill-opacity="1.000000" />
<path d="M 63.547852 97.111328 L 69.241211 97.111328 L 69.241211 98.019043 L 63.547852 98.019043 Z " fill="rgb(0, 0, 0)" fill-opacity="1.000000" />
<path d="M 70.547852 97.111328 L 76.241211 97.111328 L 76.241211 98.019043 L 70.547852 98.019043 Z " fill="rgb(0, 0, 0)" fill-opacity="1.000000" />
<path d="M 77.547852 97.111328 L 83.241211 97.111328 L 83.241211 98.019043 L 77.547852 98.019043 Z " fill="rgb(0, 0, 0)" fill-opacity="1.000000" />
<path d="M 90.332520 96.321777 L 87.947754 97.610840 L 90.332520 98.905273 L 89.956543 99.560547 L 87.711426 98.212402 L 87.711426 100.715332 L 86.943359 100.715332 L 86.943359 98.212402 L 84.698242 99.560547 L 84.322266 98.905273 L 86.712402 97.610840 L 84.322266 96.321777 L 84.698242 95.661133 L 86.943359 97.009277 L 86.943359 94.506348 L 87.711426 94.506348 L 87.711426 97.009277 L 89.956543 95.661133 Z " fill="rgb(0, 0, 0)" fill-opacity="1.000000" />
<path d="M 91.547852 97.111328 L 97.241211 97.111328 L 97.241211 98.019043 L 91.547852 98.019043 Z " fill="rgb(0, 0, 0)" fill-opacity="1.000000" />
<path d="M 98.547852 97.111328 L 104.241211 97.111328 L 104.241211 98.019043 L 98.547852 98.019043 Z " fill="rgb(0, 0, 0)" fill-opacity="1.000000" />
<path d="M 105.547852 97.111328 L 111.241211 97.111328 L 111.241211 98.019043 L 105.547852 98.019043 Z " fill="rgb(0, 0, 0)" fill-opacity="1.000000" />
<path d="M 118.332520 96.321777 L 115.947754 97.610840 L 118.332520 98.905273 L 117.956543 99.560547 L 115.711426 98.212402 L 115.711426 100.715332 L 114.943359 100.715332 L 114.943359 98.212402 L 112.698242 99.560547 L 112.322266 98.905273 L 114.712402 97.610840 L 112.322266 96.321777 L 112.698242 95.661133 L 114.943359 97.009277 L 114.943359 94.506348 L 115.711426 94.506348 L 115.711426 97.009277 L 117.956543 95.661133 Z " fill="rgb(0, 0, 0)" fill-opacity="1.000000" />
<path d="M 171.985352 92.594238 L 171.985352 103.594238 L 171.061523 103.594238 L 171.061523 92.594238 Z " fill="rgb(0, 0, 0)" fill-opacity="1.000000" />
<path d="M 223.332520 96.321777 L 220.947754 97.610840 L 223.332520 98.905273 L 222.956543 99.560547 L 220.711426 98.212402 L 220.711426 100.715332 L 219.943359 100.715332 L 219.943359 98.212402 L 217.698242 99.560547 L 217.322266 98.905273 L 219.712402 97.610840 L 217.322266 96.321777 L 217.698242 95.661133 L 219.943359 97.009277 L 219.943359 94.506348 L 220.711426 94.506348 L 220.711426 97.009277 L 222.956543 95.661133 Z " fill="rgb(0, 0, 0)" fill-opacity="1.000000" />
<path d="M 224.547852 97.111328 L 230.241211 97.111328 L 230.241211 98.019043 L 224.547852 98.019043 Z " fill="rgb(0, 0, 0)" fill-opacity="1.000000" />
<path d="M 231.547852 97.111328 L 237.241211 97.111328 L 237.241211 98.019043 L 231.547852 98.019043 Z " fill="rgb(0, 0, 0)" fill-opacity="1.000000" />
<path d="M 238.547852 97.111328 L 244.241211 97.111328 L 244.241211 98.019043 L 238.547852 98.019043 Z " fill="rgb(0, 0, 0)" fill-opacity="1.000000" />
<path d="M 251.332520 96.321777 L 248.947754 97.610840 L 251.332520 98.905273 L 250.956543 99.560547 L 248.711426 98.212402 L 248.711426 100.715332 L 247.943359 100.715332 L 247.943359 98.212402 L 245.698242 99.560547 L 245.322266 98.905273 L 247.712402 97.610840 L 245.322266 96.321777 L 245.698242 95.661133 L 247.943359 97.009277 L 247.943359 94.506348 L 248.711426 94.506348 L 248.711426 97.009277 L 250.956543 95.661133 Z " fill="rgb(0, 0, 0)" fill-opacity="1.000000" />
<path d="M 279.332520 96.321777 L 276.947754 97.610840 L 279.332520 98.905273 L 278.956543 99.560547 L 276.711426 98.212402 L 276.711426 100.715332 L 275.943359 100.715332 L 275.943359 98.212402 L 273.698242 99.560547 L 273.322266 98.905273 L 275.712402 97.610840 L 273.322266 96.321777 L 273.698242 95.661133 L 275.943359 97.009277 L 275.943359 94.506348 L 276.711426 94.506348 L 276.711426 97.009277 L 278.956543 95.661133 Z " fill="rgb(0, 0, 0)" fill-opacity="1.000000" />
<path d="M 307.332520 96.321777 L 304.947754 97.610840 L 307.332520 98.905273 L 306.956543 99.560547 L 304.711426 98.212402 L 304.711426 100.715332 L 303.943359 100.715332 L 303.943359 98.212402 L 301.698242 99.560547 L 301.322266 98.905273 L 303.712402 97.610840 L 301.322266 96.321777 L 301.698242 95.661133 L 303.943359 97.009277 L 303.943359 94.506348 L 304.711426 94.506348 L 304.711426 97.009277 L 306.956543 95.661133 Z " fill="rgb(0, 0, 0)" fill-opacity="1.000000" />
<path d="M 308.547852 97.111328 L 314.241211 97.111328 L 314.241211 98.019043 L 308.547852 98.019043 Z " fill="rgb(0, 0, 0)" fill-opacity="1.000000" />
<path d="M 315.547852 97.111328 L 321.241211 97.111328 L 321.241211 98.019043 L 315.547852 98.019043 Z " fill="rgb(0, 0, 0)" fill-opacity="1.000000" />
<path d="M 322.547852 97.111328 L 328.241211 97.111328 L 328.241211 98.019043 L 322.547852 98.019043 Z " fill="rgb(0, 0, 0)" fill-opacity="1.000000" />
<path d="M 335.332520 96.321777 L 332.947754 97.610840 L 335.332520 98.905273 L 334.956543 99.560547 L 332.711426 98.212402 L 332.711426 100.715332 L 331.943359 100.715332 L 331.943359 98.212402 L 329.698242 99.560547 L 329.322266 98.905273 L 331.712402 97.610840 L 329.322266 96.321777 L 329.698242 95.661133 L 331.943359 97.009277 L 331.943359 94.506348 L 332.711426 94.506348 L 332.711426 97.009277 L 334.956543 95.661133 Z " fill="rgb(0, 0, 0)" fill-opacity="1.000000" />
<path d="M 45.518066 49.145020 Q 45.480469 49.145020 45.410645 49.150391 Q 45.340820 49.155762 45.297852 49.155762 Q 43.955078 49.155762 43.291748 48.124512 Q 42.628418 47.093262 42.628418 44.998535 Q 42.628418 42.898438 43.291748 41.867188 Q 43.955078 40.835938 45.308594 40.835938 Q 46.667480 40.835938 47.330811 41.867188 Q 47.994141 42.898438 47.994141 44.998535 Q 47.994141 46.577637 47.626221 47.541748 Q 47.258301 48.505859 46.511719 48.892578 L 47.585938 49.913086 L 46.774902 50.450195 Z M 46.860840 44.998535 Q 46.860840 43.231445 46.498291 42.474121 Q 46.135742 41.716797 45.308594 41.716797 Q 44.486816 41.716797 44.124268 42.474121 Q 43.761719 43.231445 43.761719 44.998535 Q 43.761719 46.760254 44.124268 47.517578 Q 44.486816 48.274902 45.308594 48.274902 Q 46.135742 48.274902 46.498291 47.520264 Q 46.860840 46.765625 46.860840 44.998535 Z " fill="rgb(0, 0, 0)" fill-opacity="1.000000" />
<path d="M 62.332520 70.321777 L 59.947754 71.610840 L 62.332520 72.905273 L 61.956543 73.560547 L 59.711426 72.212402 L 59.711426 74.715332 L 58.943359 74.715332 L 58.943359 72.212402 L 56.698242 73.560547 L 56.322266 72.905273 L 58.712402 71.610840 L 56.322266 70.321777 L 56.698242 69.661133 L 58.943359 71.009277 L 58.943359 68.506348 L 59.711426 68.506348 L 59.711426 71.009277 L 61.956543 69.661133 Z " fill="rgb(0, 0, 0)" fill-opacity="1.000000" />
<path d="M 59.985352 79.594238 L 59.985352 90.594238 L 59.061523 90.594238 L 59.061523 79.594238 Z " fill="rgb(0, 0, 0)" fill-opacity="1.000000" />
<path d="M 171.985352 79.594238 L 171.985352 90.594238 L 171.061523 90.594238 L 171.061523 79.594238 Z " fill="rgb(0, 0, 0)" fill-opacity="1.000000" />
<path d="M 248.985352 79.594238 L 248.985352 90.594238 L 248.061523 90.594238 L 248.061523 79.594238 Z " fill="rgb(0, 0, 0)" fill-opacity="1.000000" />
<path d="M 276.985352 79.594238 L 276.985352 90.594238 L 276.061523 90.594238 L 276.061523 79.594238 Z " fill="rgb(0, 0, 0)" fill-opacity="1.000000" />
<path d="M 304.985352 79.594238 L 304.985352 90.594238 L 304.061523 90.594238 L 304.061523 79.594238 Z " fill="rgb(0, 0, 0)" fill-opacity="1.000000" />
<path d="M 171.985352 66.594238 L 171.985352 77.594238 L 171.061523 77.594238 L 171.061523 66.594238 Z " fill="rgb(0, 0, 0)" fill-opacity="1.000000" />
<path d="M 251.332520 70.321777 L 248.947754 71.610840 L 251.332520 72.905273 L 250.956543 73.560547 L 248.711426 72.212402 L 248.711426 74.715332 L 247.943359 74.715332 L 247.943359 72.212402 L 245.698242 73.560547 L 245.322266 72.905273 L 247.712402 71.610840 L 245.322266 70.321777 L 245.698242 69.661133 L 247.943359 71.009277 L 247.943359 68.506348 L 248.711426 68.506348 L 248.711426 71.009277 L 250.956543 69.661133 Z " fill="rgb(0, 0, 0)" fill-opacity="1.000000" />
<path d="M 252.547852 71.111328 L 258.241211 71.111328 L 258.241211 72.019043 L 252.547852 72.019043 Z " fill="rgb(0, 0, 0)" fill-opacity="1.000000" />
<path d="M 259.547852 71.111328 L 265.241211 71.111328 L 265.241211 72.019043 L 259.547852 72.019043 Z " fill="rgb(0, 0, 0)" fill-opacity="1.000000" />
<path d="M 266.547852 71.111328 L 272.241211 71.111328 L 272.241211 72.019043 L 266.547852 72.019043 Z " fill="rgb(0, 0, 0)" fill-opacity="1.000000" />
<path d="M 279.332520 70.321777 L 276.947754 71.610840 L 279.332520 72.905273 L 278.956543 73.560547 L 276.711426 72.212402 L 276.711426 74.715332 L 275.943359 74.715332 L 275.943359 72.212402 L 273.698242 73.560547 L 273.322266 72.905273 L 275.712402 71.610840 L 273.322266 70.321777 L 273.698242 69.661133 L 275.943359 71.009277 L 275.943359 68.506348 L 276.711426 68.506348 L 276.711426 71.009277 L 278.956543 69.661133 Z " fill="rgb(0, 0, 0)" fill-opacity="1.000000" />
<path d="M 280.547852 71.111328 L 286.241211 71.111328 L 286.241211 72.019043 L 280.547852 72.019043 Z " fill="rgb(0, 0, 0)" fill-opacity="1.000000" />
<path d="M 287.547852 71.111328 L 293.241211 71.111328 L 293.241211 72.019043 L 287.547852 72.019043 Z " fill="rgb(0, 0, 0)" fill-opacity="1.000000" />
<path d="M 294.547852 71.111328 L 300.241211 71.111328 L 300.241211 72.019043 L 294.547852 72.019043 Z " fill="rgb(0, 0, 0)" fill-opacity="1.000000" />
<path d="M 307.332520 70.321777 L 304.947754 71.610840 L 307.332520 72.905273 L 306.956543 73.560547 L 304.711426 72.212402 L 304.711426 74.715332 L 303.943359 74.715332 L 303.943359 72.212402 L 301.698242 73.560547 L 301.322266 72.905273 L 303.712402 71.610840 L 301.322266 70.321777 L 301.698242 69.661133 L 303.943359 71.009277 L 303.943359 68.506348 L 304.711426 68.506348 L 304.711426 71.009277 L 306.956543 69.661133 Z " fill="rgb(0, 0, 0)" fill-opacity="1.000000" />
<path d="M 308.547852 71.111328 L 314.241211 71.111328 L 314.241211 72.019043 L 308.547852 72.019043 Z " fill="rgb(0, 0, 0)" fill-opacity="1.000000" />
<path d="M 315.547852 71.111328 L 321.241211 71.111328 L 321.241211 72.019043 L 315.547852 72.019043 Z " fill="rgb(0, 0, 0)" fill-opacity="1.000000" />
<path d="M 322.547852 71.111328 L 328.241211 71.111328 L 328.241211 72.019043 L 322.547852 72.019043 Z " fill="rgb(0, 0, 0)" fill-opacity="1.000000" />
<path d="M 335.332520 70.321777 L 332.947754 71.610840 L 335.332520 72.905273 L 334.956543 73.560547 L 332.711426 72.212402 L 332.711426 74.715332 L 331.943359 74.715332 L 331.943359 72.212402 L 329.698242 73.560547 L 329.322266 72.905273 L 331.712402 71.610840 L 329.322266 70.321777 L 329.698242 69.661133 L 331.943359 71.009277 L 331.943359 68.506348 L 332.711426 68.506348 L 332.711426 71.009277 L 334.956543 69.661133 Z " fill="rgb(0, 0, 0)" fill-opacity="1.000000" />
<path d="M 171.985352 53.594238 L 171.985352 64.594238 L 171.061523 64.594238 L 171.061523 53.594238 Z " fill="rgb(0, 0, 0)" fill-opacity="1.000000" />
<path d="M 276.985352 53.594238 L 276.985352 64.594238 L 276.061523 64.594238 L 276.061523 53.594238 Z " fill="rgb(0, 0, 0)" fill-opacity="1.000000" />
<path d="M 50.047363 46.722656 L 50.047363 42.995117 L 51.035645 42.995117 L 51.035645 46.722656 Q 51.035645 47.533691 51.322998 47.915039 Q 51.610352 48.296387 52.211914 48.296387 Q 52.910156 48.296387 53.280762 47.804932 Q 53.651367 47.313477 53.651367 46.395020 L 53.651367 42.995117 L 54.645020 42.995117 L 54.645020 49.000000 L 53.651367 49.000000 L 53.651367 48.097656 Q 53.388184 48.618652 52.934326 48.887207 Q 52.480469 49.155762 51.873535 49.155762 Q 50.949707 49.155762 50.498535 48.551514 Q 50.047363 47.947266 50.047363 46.722656 Z " fill="rgb(0, 0, 0)" fill-opacity="1.000000" />
<path d="M 62.015625 45.498047 L 62.015625 45.981445 L 57.734863 45.981445 L 57.734863 46.013672 Q 57.691895 47.243652 58.204834 47.780762 Q 58.717773 48.317871 59.652344 48.317871 Q 60.125000 48.317871 60.640625 48.167480 Q 61.156250 48.017090 61.741699 47.710938 L 61.741699 48.693848 Q 61.177734 48.924805 60.654053 49.040283 Q 60.130371 49.155762 59.641602 49.155762 Q 58.239746 49.155762 57.450195 48.315186 Q 56.660645 47.474609 56.660645 45.997559 Q 56.660645 44.558105 57.434082 43.698730 Q 58.207520 42.839355 59.496582 42.839355 Q 60.645996 42.839355 61.309326 43.618164 Q 61.972656 44.396973 62.015625 45.498047 Z M 61.027344 45.208008 Q 60.962891 44.584961 60.573486 44.131104 Q 60.184082 43.677246 59.453613 43.677246 Q 58.739258 43.677246 58.277344 44.149902 Q 57.815430 44.622559 57.772461 45.213379 Z " fill="rgb(0, 0, 0)" fill-opacity="1.000000" />
<path d="M 69.203613 44.225098 Q 68.886719 43.978027 68.559082 43.865234 Q 68.231445 43.752441 67.839355 43.752441 Q 66.915527 43.752441 66.426758 44.332520 Q 65.937988 44.912598 65.937988 46.008301 L 65.937988 49.000000 L 64.944336 49.000000 L 64.944336 42.984375 L 65.937988 42.984375 L 65.937988 44.160645 Q 66.185059 43.521484 66.697998 43.180420 Q 67.210938 42.839355 67.914551 42.839355 Q 68.279785 42.839355 68.596680 42.930664 Q 68.913574 43.021973 69.203613 43.215332 Z " fill="rgb(0, 0, 0)" fill-opacity="1.000000" />
<path d="M 74.608398 47.066406 Q 74.361328 47.694824 73.979980 48.720703 Q 73.448242 50.138672 73.265625 50.450195 Q 73.018555 50.869141 72.647949 51.078613 Q 72.277344 51.288086 71.783203 51.288086 L 70.988281 51.288086 L 70.988281 50.460938 L 71.573730 50.460938 Q 72.008789 50.460938 72.255859 50.208496 Q 72.502930 49.956055 72.884277 48.903320 L 70.558594 42.984375 L 71.605957 42.984375 L 73.389160 47.689453 L 75.145508 42.984375 L 76.192871 42.984375 Z " fill="rgb(0, 0, 0)" fill-opacity="1.000000" />
<path d="M 171.985352 40.594238 L 171.985352 51.594238 L 171.061523 51.594238 L 171.061523 40.594238 Z " fill="rgb(0, 0, 0)" fill-opacity="1.000000" />
<path d="M 279.332520 44.321777 L 276.947754 45.610840 L 279.332520 46.905273 L 278.956543 47.560547 L 276.711426 46.212402 L 276.711426 48.715332 L 275.943359 48.715332 L 275.943359 46.212402 L 273.698242 47.560547 L 273.322266 46.905273 L 275.712402 45.610840 L 273.322266 44.321777 L 273.698242 43.661133 L 275.943359 45.009277 L 275.943359 42.506348 L 276.711426 42.506348 L 276.711426 45.009277 L 278.956543 43.661133 Z " fill="rgb(0, 0, 0)" fill-opacity="1.000000" />
<path d="M 171.985352 1.594238 L 171.985352 12.594238 L 171.061523 12.594238 L 171.061523 1.594238 Z " fill="rgb(0, 0, 0)" fill-opacity="1.000000" />
<path d="M 171.985352 14.594238 L 171.985352 25.594238 L 171.061523 25.594238 L 171.061523 14.594238 Z " fill="rgb(0, 0, 0)" fill-opacity="1.000000" />
<path d="M 171.985352 27.594238 L 171.985352 38.594238 L 171.061523 38.594238 L 171.061523 27.594238 Z " fill="rgb(0, 0, 0)" fill-opacity="1.000000" />
<path d="M 235.082031 19.213379 Q 235.500977 19.320801 235.796387 19.618896 Q 236.091797 19.916992 236.532227 20.808594 L 237.622559 23.000000 L 236.457031 23.000000 L 235.500977 20.975098 Q 235.087402 20.110352 234.757080 19.860596 Q 234.426758 19.610840 233.895020 19.610840 L 232.858398 19.610840 L 232.858398 23.000000 L 231.768066 23.000000 L 231.768066 14.980957 L 234.002441 14.980957 Q 235.323730 14.980957 236.027344 15.577148 Q 236.730957 16.173340 236.730957 17.301270 Q 236.730957 18.096191 236.298584 18.598389 Q 235.866211 19.100586 235.082031 19.213379 Z M 232.858398 15.872559 L 232.858398 18.719238 L 234.045410 18.719238 Q 234.824219 18.719238 235.205566 18.370117 Q 235.586914 18.020996 235.586914 17.301270 Q 235.586914 16.608398 235.181396 16.240479 Q 234.775879 15.872559 234.002441 15.872559 Z " fill="rgb(0, 0, 0)" fill-opacity="1.000000" />
<path d="M 244.015625 19.498047 L 244.015625 19.981445 L 239.734863 19.981445 L 239.734863 20.013672 Q 239.691895 21.243652 240.204834 21.780762 Q 240.717773 22.317871 241.652344 22.317871 Q 242.125000 22.317871 242.640625 22.167480 Q 243.156250 22.017090 243.741699 21.710938 L 243.741699 22.693848 Q 243.177734 22.924805 242.654053 23.040283 Q 242.130371 23.155762 241.641602 23.155762 Q 240.239746 23.155762 239.450195 22.315186 Q 238.660645 21.474609 238.660645 19.997559 Q 238.660645 18.558105 239.434082 17.698730 Q 240.207520 16.839355 241.496582 16.839355 Q 242.645996 16.839355 243.309326 17.618164 Q 243.972656 18.396973 244.015625 19.498047 Z M 243.027344 19.208008 Q 242.962891 18.584961 242.573486 18.131104 Q 242.184082 17.677246 241.453613 17.677246 Q 240.739258 17.677246 240.277344 18.149902 Q 239.815430 18.622559 239.772461 19.213379 Z " fill="rgb(0, 0, 0)" fill-opacity="1.000000" />
<path d="M 246.783203 20.019043 Q 246.783203 21.168457 247.145752 21.753906 Q 247.508301 22.339355 248.222656 22.339355 Q 248.937012 22.339355 249.304932 21.751221 Q 249.672852 21.163086 249.672852 20.019043 Q 249.672852 18.875000 249.304932 18.286865 Q 248.937012 17.698730 248.222656 17.698730 Q 247.508301 17.698730 247.145752 18.284180 Q 246.783203 18.869629 246.783203 20.019043 Z M 249.672852 22.253418 Q 249.431152 22.699219 249.020264 22.938232 Q 248.609375 23.177246 248.066895 23.177246 Q 246.987305 23.177246 246.361572 22.342041 Q 245.735840 21.506836 245.735840 20.040527 Q 245.735840 18.547363 246.358887 17.704102 Q 246.981934 16.860840 248.066895 16.860840 Q 248.604004 16.860840 249.014893 17.094482 Q 249.425781 17.328125 249.672852 17.773926 L 249.672852 17.005859 L 250.666504 17.005859 L 250.666504 25.309570 L 249.672852 25.309570 Z " fill="rgb(0, 0, 0)" fill-opacity="1.000000" />
<path d="M 253.047363 20.722656 L 253.047363 16.995117 L 254.035645 16.995117 L 254.035645 20.722656 Q 254.035645 21.533691 254.322998 21.915039 Q 254.610352 22.296387 255.211914 22.296387 Q 255.910156 22.296387 256.280762 21.804932 Q 256.651367 21.313477 256.651367 20.395020 L 256.651367 16.995117 L 257.645020 16.995117 L 257.645020 23.000000 L 256.651367 23.000000 L 256.651367 22.097656 Q 256.388184 22.618652 255.934326 22.887207 Q 255.480469 23.155762 254.873535 23.155762 Q 253.949707 23.155762 253.498535 22.551514 Q 253.047363 21.947266 253.047363 20.722656 Z " fill="rgb(0, 0, 0)" fill-opacity="1.000000" />
<path d="M 260.697266 17.005859 L 263.227051 17.005859 L 263.227051 22.231934 L 265.187500 22.231934 L 265.187500 23.000000 L 260.278320 23.000000 L 260.278320 22.231934 L 262.238770 22.231934 L 262.238770 17.773926 L 260.697266 17.773926 Z M 262.238770 14.669434 L 263.227051 14.669434 L 263.227051 15.915527 L 262.238770 15.915527 Z " fill="rgb(0, 0, 0)" fill-opacity="1.000000" />
<path d="M 272.203613 18.225098 Q 271.886719 17.978027 271.559082 17.865234 Q 271.231445 17.752441 270.839355 17.752441 Q 269.915527 17.752441 269.426758 18.332520 Q 268.937988 18.912598 268.937988 20.008301 L 268.937988 23.000000 L 267.944336 23.000000 L 267.944336 16.984375 L 268.937988 16.984375 L 268.937988 18.160645 Q 269.185059 17.521484 269.697998 17.180420 Q 270.210938 16.839355 270.914551 16.839355 Q 271.279785 16.839355 271.596680 16.930664 Q 271.913574 17.021973 272.203613 17.215332 Z " fill="rgb(0, 0, 0)" fill-opacity="1.000000" />
<path d="M 279.015625 19.498047 L 279.015625 19.981445 L 274.734863 19.981445 L 274.734863 20.013672 Q 274.691895 21.243652 275.204834 21.780762 Q 275.717773 22.317871 276.652344 22.317871 Q 277.125000 22.317871 277.640625 22.167480 Q 278.156250 22.017090 278.741699 21.710938 L 278.741699 22.693848 Q 278.177734 22.924805 277.654053 23.040283 Q 277.130371 23.155762 276.641602 23.155762 Q 275.239746 23.155762 274.450195 22.315186 Q 273.660645 21.474609 273.660645 19.997559 Q 273.660645 18.558105 274.434082 17.698730 Q 275.207520 16.839355 276.496582 16.839355 Q 277.645996 16.839355 278.309326 17.618164 Q 278.972656 18.396973 279.015625 19.498047 Z M 278.027344 19.208008 Q 277.962891 18.584961 277.573486 18.131104 Q 277.184082 17.677246 276.453613 17.677246 Q 275.739258 17.677246 275.277344 18.149902 Q 274.815430 18.622559 274.772461 19.213379 Z " fill="rgb(0, 0, 0)" fill-opacity="1.000000" />
<path d="M 284.608398 17.752441 L 284.608398 14.642578 L 285.596680 14.642578 L 285.596680 23.000000 L 284.608398 23.000000 L 284.608398 22.242676 Q 284.361328 22.688477 283.950439 22.922119 Q 283.539551 23.155762 283.002441 23.155762 Q 281.912109 23.155762 281.286377 22.309814 Q 280.660645 21.463867 280.660645 19.976074 Q 280.660645 18.509766 281.289062 17.674561 Q 281.917480 16.839355 283.002441 16.839355 Q 283.544922 16.839355 283.958496 17.072998 Q 284.372070 17.306641 284.608398 17.752441 Z M 281.702637 19.997559 Q 281.702637 21.146973 282.067871 21.732422 Q 282.433105 22.317871 283.147461 22.317871 Q 283.861816 22.317871 284.235107 21.727051 Q 284.608398 21.136230 284.608398 19.997559 Q 284.608398 18.853516 284.235107 18.265381 Q 283.861816 17.677246 283.147461 17.677246 Q 282.433105 17.677246 282.067871 18.262695 Q 281.702637 18.848145 281.702637 19.997559 Z " fill="rgb(0, 0, 0)" fill-opacity="1.000000" />
<path d="M 297.518066 23.145020 Q 297.480469 23.145020 297.410645 23.150391 Q 297.340820 23.155762 297.297852 23.155762 Q 295.955078 23.155762 295.291748 22.124512 Q 294.628418 21.093262 294.628418 18.998535 Q 294.628418 16.898438 295.291748 15.867188 Q 295.955078 14.835938 297.308594 14.835938 Q 298.667480 14.835938 299.330811 15.867188 Q 299.994141 16.898438 299.994141 18.998535 Q 299.994141 20.577637 299.626221 21.541748 Q 299.258301 22.505859 298.511719 22.892578 L 299.585938 23.913086 L 298.774902 24.450195 Z M 298.860840 18.998535 Q 298.860840 17.231445 298.498291 16.474121 Q 298.135742 15.716797 297.308594 15.716797 Q 296.486816 15.716797 296.124268 16.474121 Q 295.761719 17.231445 295.761719 18.998535 Q 295.761719 20.760254 296.124268 21.517578 Q 296.486816 22.274902 297.308594 22.274902 Q 298.135742 22.274902 298.498291 21.520264 Q 298.860840 20.765625 298.860840 18.998535 Z " fill="rgb(0, 0, 0)" fill-opacity="1.000000" />
<path d="M 302.047363 20.722656 L 302.047363 16.995117 L 303.035645 16.995117 L 303.035645 20.722656 Q 303.035645 21.533691 303.322998 21.915039 Q 303.610352 22.296387 304.211914 22.296387 Q 304.910156 22.296387 305.280762 21.804932 Q 305.651367 21.313477 305.651367 20.395020 L 305.651367 16.995117 L 306.645020 16.995117 L 306.645020 23.000000 L 305.651367 23.000000 L 305.651367 22.097656 Q 305.388184 22.618652 304.934326 22.887207 Q 304.480469 23.155762 303.873535 23.155762 Q 302.949707 23.155762 302.498535 22.551514 Q 302.047363 21.947266 302.047363 20.722656 Z " fill="rgb(0, 0, 0)" fill-opacity="1.000000" />
<path d="M 314.015625 19.498047 L 314.015625 19.981445 L 309.734863 19.981445 L 309.734863 20.013672 Q 309.691895 21.243652 310.204834 21.780762 Q 310.717773 22.317871 311.652344 22.317871 Q 312.125000 22.317871 312.640625 22.167480 Q 313.156250 22.017090 313.741699 21.710938 L 313.741699 22.693848 Q 313.177734 22.924805 312.654053 23.040283 Q 312.130371 23.155762 311.641602 23.155762 Q 310.239746 23.155762 309.450195 22.315186 Q 308.660645 21.474609 308.660645 19.997559 Q 308.660645 18.558105 309.434082 17.698730 Q 310.207520 16.839355 311.496582 16.839355 Q 312.645996 16.839355 313.309326 17.618164 Q 313.972656 18.396973 314.015625 19.498047 Z M 313.027344 19.208008 Q 312.962891 18.584961 312.573486 18.131104 Q 312.184082 17.677246 311.453613 17.677246 Q 310.739258 17.677246 310.277344 18.149902 Q 309.815430 18.622559 309.772461 19.213379 Z " fill="rgb(0, 0, 0)" fill-opacity="1.000000" />
<path d="M 321.203613 18.225098 Q 320.886719 17.978027 320.559082 17.865234 Q 320.231445 17.752441 319.839355 17.752441 Q 318.915527 17.752441 318.426758 18.332520 Q 317.937988 18.912598 317.937988 20.008301 L 317.937988 23.000000 L 316.944336 23.000000 L 316.944336 16.984375 L 317.937988 16.984375 L 317.937988 18.160645 Q 318.185059 17.521484 318.697998 17.180420 Q 319.210938 16.839355 319.914551 16.839355 Q 320.279785 16.839355 320.596680 16.930664 Q 320.913574 17.021973 321.203613 17.215332 Z " fill="rgb(0, 0, 0)" fill-opacity="1.000000" />
<path d="M 326.608398 21.066406 Q 326.361328 21.694824 325.979980 22.720703 Q 325.448242 24.138672 325.265625 24.450195 Q 325.018555 24.869141 324.647949 25.078613 Q 324.277344 25.288086 323.783203 25.288086 L 322.988281 25.288086 L 322.988281 24.460938 L 323.573730 24.460938 Q 324.008789 24.460938 324.255859 24.208496 Q 324.502930 23.956055 324.884277 22.903320 L 322.558594 16.984375 L 323.605957 16.984375 L 325.389160 21.689453 L 327.145508 16.984375 L 328.192871 16.984375 Z " fill="rgb(0, 0, 0)" fill-opacity="1.000000" />
</svg>