<svg xmlns="http://www.w3.org/2000/svg" version="1.1" width="449" height="196">
<path d="M 6.332520 83.321777 L 3.947754 84.610840 L 6.332520 85.905273 L 5.956543 86.560547 L 3.711426 85.212402 L 3.711426 87.715332 L 2.943359 87.715332 L 2.943359 85.212402 L 0.698242 86.560547 L 0.322266 85.905273 L 2.712402 84.610840 L 0.322266 83.321777 L 0.698242 82.661133 L 2.943359 84.009277 L 2.943359 81.506348 L 3.711426 81.506348 L 3.711426 84.009277 L 5.956543 82.661133 Z " fill="rgb(0, 0, 0)" fill-opacity="1.000000" />
<path d="M 6.332520 161.321777 L 3.947754 162.610840 L 6.332520 163.905273 L 5.956543 164.560547 L 3.711426 163.212402 L 3.711426 165.715332 L 2.943359 165.715332 L 2.943359 163.212402 L 0.698242 164.560547 L 0.322266 163.905273 L 2.712402 162.610840 L 0.322266 161.321777 L 0.698242 160.661133 L 2.943359 162.009277 L 2.943359 159.506348 L 3.711426 159.506348 L 3.711426 162.009277 L 5.956543 160.661133 Z " fill="rgb(0, 0, 0)" fill-opacity="1.000000" />
<path d="M 31.985352 170.594238 L 31.985352 181.594238 L 31.061523 181.594238 L 31.061523 170.594238 Z " fill="rgb(0, 0, 0)" fill-opacity="1.000000" />
<path d="M 34.332520 187.321777 L 31.947754 188.610840 L 34.332520 189.905273 L 33.956543 190.560547 L 31.711426 189.212402 L 31.711426 191.715332 L 30.943359 191.715332 L 30.943359 189.212402 L 28.698242 190.560547 L 28.322266 189.905273 L 30.712402 188.610840 L 28.322266 187.321777 L 28.698242 186.661133 L 30.943359 188.009277 L 30.943359 185.506348 L 31.711426 185.506348 L 31.711426 188.009277 L 33.956543 186.661133 Z " fill="rgb(0, 0, 0)" fill-opacity="1.000000" />
<path d="M 7.547852 162.111328 L 13.241211 162.111328 L 13.241211 163.019043 L 7.547852 163.019043 Z " fill="rgb(0, 0, 0)" fill-opacity="1.000000" />
<path d="M 14.547852 162.111328 L 20.241211 162.111328 L 20.241211 163.019043 L 14.547852 163.019043 Z " fill="rgb(0, 0, 0)" fill-opacity="1.000000" />
<path d="M 21.547852 162.111328 L 27.241211 162.111328 L 27.241211 163.019043 L 21.547852 163.019043 Z " fill="rgb(0, 0, 0)" fill-opacity="1.000000" />
<path d="M 34.332520 161.321777 L 31.947754 162.610840 L 34.332520 163.905273 L 33.956543 164.560547 L 31.711426 163.212402 L 31.711426 165.715332 L 30.943359 165.715332 L 30.943359 163.212402 L 28.698242 164.560547 L 28.322266 163.905273 L 30.712402 162.610840 L 28.322266 161.321777 L 28.698242 160.661133 L 30.943359 162.009277 L 30.943359 159.506348 L 31.711426 159.506348 L 31.711426 162.009277 L 33.956543 160.661133 Z " fill="rgb(0, 0, 0)" fill-opacity="1.000000" />
<path d="M 62.332520 161.321777 L 59.947754 162.610840 L 62.332520 163.905273 L 61.956543 164.560547 L 59.711426 163.212402 L 59.711426 165.715332 L 58.943359 165.715332 L 58.943359 163.212402 L 56.698242 164.560547 L 56.322266 163.905273 L 58.712402 162.610840 L 56.322266 161.321777 L 56.698242 160.661133 L 58.943359 162.009277 L 58.943359 159.506348 L 59.711426 159.506348 L 59.711426 162.009277 L 61.956543 160.661133 Z " fill="rgb(0, 0, 0)" fill-opacity="1.000000" />
<path d="M 90.332520 161.321777 L 87.947754 162.610840 L 90.332520 163.905273 L 89.956543 164.560547 L 87.711426 163.212402 L 87.711426 165.715332 L 86.943359 165.715332 L 86.943359 163.212402 L 84.698242 164.560547 L 84.322266 163.905273 L 86.712402 162.610840 L 84.322266 161.321777 L 84.698242 160.661133 L 86.943359 162.009277 L 86.943359 159.506348 L 87.711426 159.506348 L 87.711426 162.009277 L 89.956543 160.661133 Z " fill="rgb(0, 0, 0)" fill-opacity="1.000000" />
<path d="M 419.332520 161.321777 L 416.947754 162.610840 L 419.332520 163.905273 L 418.956543 164.560547 L 416.711426 163.212402 L 416.711426 165.715332 L 415.943359 165.715332 L 415.943359 163.212402 L 413.698242 164.560547 L 413.322266 163.905273 L 415.712402 162.610840 L 413.322266 161.321777 L 413.698242 160.661133 L 415.943359 162.009277 L 415.943359 159.506348 L 416.711426 159.506348 L 416.711426 162.009277 L 418.956543 160.661133 Z " fill="rgb(0, 0, 0)" fill-opacity="1.000000" />
<path d="M 31.985352 92.594238 L 31.985352 103.594238 L 31.061523 103.594238 L 31.061523 92.594238 Z " fill="rgb(0, 0, 0)" fill-opacity="1.000000" />
<path d="M 34.332520 109.321777 L 31.947754 110.610840 L 34.332520 111.905273 L 33.956543 112.560547 L 31.711426 111.212402 L 31.711426 113.715332 L 30.943359 113.715332 L 30.943359 111.212402 L 28.698242 112.560547 L 28.322266 111.905273 L 30.712402 110.610840 L 28.322266 109.321777 L 28.698242 108.661133 L 30.943359 110.009277 L 30.943359 107.506348 L 31.711426 107.506348 L 31.711426 110.009277 L 33.956543 108.661133 Z " fill="rgb(0, 0, 0)" fill-opacity="1.000000" />
<path d="M 34.332520 135.321777 L 31.947754 136.610840 L 34.332520 137.905273 L 33.956543 138.560547 L 31.711426 137.212402 L 31.711426 139.715332 L 30.943359 139.715332 L 30.943359 137.212402 L 28.698242 138.560547 L 28.322266 137.905273 L 30.712402 136.610840 L 28.322266 135.321777 L 28.698242 134.661133 L 30.943359 136.009277 L 30.943359 133.506348 L 31.711426 133.506348 L 31.711426 136.009277 L 33.956543 134.661133 Z " fill="rgb(0, 0, 0)" fill-opacity="1.000000" />
<path d="M 31.985352 144.594238 L 31.985352 155.594238 L 31.061523 155.594238 L 31.061523 144.594238 Z " fill="rgb(0, 0, 0)" fill-opacity="1.000000" />
<path d="M 59.985352 144.594238 L 59.985352 155.594238 L 59.061523 155.594238 L 59.061523 144.594238 Z " fill="rgb(0, 0, 0)" fill-opacity="1.000000" />
<path d="M 87.985352 144.594238 L 87.985352 155.594238 L 87.061523 155.594238 L 87.061523 144.594238 Z " fill="rgb(0, 0, 0)" fill-opacity="1.000000" />
<path d="M 416.985352 144.594238 L 416.985352 155.594238 L 416.061523 155.594238 L 416.061523 144.594238 Z " fill="rgb(0, 0, 0)" fill-opacity="1.000000" />
<path d="M 35.547852 136.111328 L 41.241211 136.111328 L 41.241211 137.019043 L 35.547852 137.019043 Z " fill="rgb(0, 0, 0)" fill-opacity="1.000000" />
<path d="M 42.547852 136.111328 L 48.241211 136.111328 L 48.241211 137.019043 L 42.547852 137.019043 Z " fill="rgb(0, 0, 0)" fill-opacity="1.000000" />
<path d="M 49.547852 136.111328 L 55.241211 136.111328 L 55.241211 137.019043 L 49.547852 137.019043 Z " fill="rgb(0, 0, 0)" fill-opacity="1.000000" />
<path d="M 62.332520 135.321777 L 59.947754 136.610840 L 62.332520 137.905273 L 61.956543 138.560547 L 59.711426 137.212402 L 59.711426 139.715332 L 58.943359 139.715332 L 58.943359 137.212402 L 56.698242 138.560547 L 56.322266 137.905273 L 58.712402 136.610840 L 56.322266 135.321777 L 56.698242 134.661133 L 58.943359 136.009277 L 58.943359 133.506348 L 59.711426 133.506348 L 59.711426 136.009277 L 61.956543 134.661133 Z " fill="rgb(0, 0, 0)" fill-opacity="1.000000" />
<path d="M 63.547852 136.111328 L 69.241211 136.111328 L 69.241211 137.019043 L 63.547852 137.019043 Z " fill="rgb(0, 0, 0)" fill-opacity="1.000000" />
<path d="M 70.547852 136.111328 L 76.241211 136.111328 L 76.241211 137.019043 L 70.547852 137.019043 Z " fill="rgb(0, 0, 0)" fill-opacity="1.000000" />
<path d="M 77.547852 136.111328 L 83.241211 136.111328 L 83.241211 137.019043 L 77.547852 137.019043 Z " fill="rgb(0, 0, 0)" fill-opacity="1.000000" />
<path d="M 90.332520 135.321777 L 87.947754 136.610840 L 90.332520 137.905273 L 89.956543 138.560547 L 87.711426 137.212402 L 87.711426 139.715332 L 86.943359 139.715332 L 86.943359 137.212402 L 84.698242 138.560547 L 84.322266 137.905273 L 86.712402 136.610840 L 84.322266 135.321777 L 84.698242 134.661133 L 86.943359 136.009277 L 86.943359 133.506348 L 87.711426 133.506348 L 87.711426 136.009277 L 89.956543 134.661133 Z " fill="rgb(0, 0, 0)" fill-opacity="1.000000" />
<path d="M 185.867188 133.672852 L 185.867188 136.052246 L 188.257324 136.052246 L 188.257324 136.959961 L 185.867188 136.959961 L 185.867188 139.339355 L 184.964844 139.339355 L 184.964844 136.959961 L 182.580078 136.959961 L 182.580078 136.052246 L 184.964844 136.052246 L 184.964844 133.672852 Z " fill="rgb(0, 0, 0)" fill-opacity="1.000000" />
<path d="M 189.547852 136.111328 L 195.241211 136.111328 L 195.241211 137.019043 L 189.547852 137.019043 Z " fill="rgb(0, 0, 0)" fill-opacity="1.000000" />
<path d="M 196.547852 136.111328 L 202.241211 136.111328 L 202.241211 137.019043 L 196.547852 137.019043 Z " fill="rgb(0, 0, 0)" fill-opacity="1.000000" />
<path d="M 203.547852 136.111328 L 209.241211 136.111328 L 209.241211 137.019043 L 203.547852 137.019043 Z " fill="rgb(0, 0, 0)" fill-opacity="1.000000" />
<path d="M 210.547852 136.111328 L 216.241211 136.111328 L 216.241211 137.019043 L 210.547852 137.019043 Z " fill="rgb(0, 0, 0)" fill-opacity="1.000000" />
<path d="M 217.547852 136.111328 L 223.241211 136.111328 L 223.241211 137.019043 L 217.547852 137.019043 Z " fill="rgb(0, 0, 0)" fill-opacity="1.000000" />
<path d="M 224.547852 136.111328 L 230.241211 136.111328 L 230.241211 137.019043 L 224.547852 137.019043 Z " fill="rgb(0, 0, 0)" fill-opacity="1.000000" />
<path d="M 231.547852 136.111328 L 237.241211 136.111328 L 237.241211 137.019043 L 231.547852 137.019043 Z " fill="rgb(0, 0, 0)" fill-opacity="1.000000" />
<path d="M 238.547852 136.111328 L 244.241211 136.111328 L 244.241211 137.019043 L 238.547852 137.019043 Z " fill="rgb(0, 0, 0)" fill-opacity="1.000000" />
<path d="M 245.547852 136.111328 L 251.241211 136.111328 L 251.241211 137.019043 L 245.547852 137.019043 Z " fill="rgb(0, 0, 0)" fill-opacity="1.000000" />
<path d="M 252.547852 136.111328 L 258.241211 136.111328 L 258.241211 137.019043 L 252.547852 137.019043 Z " fill="rgb(0, 0, 0)" fill-opacity="1.000000" />
<path d="M 259.547852 136.111328 L 265.241211 136.111328 L 265.241211 137.019043 L 259.547852 137.019043 Z " fill="rgb(0, 0, 0)" fill-opacity="1.000000" />
<path d="M 269.867188 133.672852 L 269.867188 136.052246 L 272.257324 136.052246 L 272.257324 136.959961 L 269.867188 136.959961 L 269.867188 139.339355 L 268.964844 139.339355 L 268.964844 136.959961 L 266.580078 136.959961 L 266.580078 136.052246 L 268.964844 136.052246 L 268.964844 133.672852 Z " fill="rgb(0, 0, 0)" fill-opacity="1.000000" />
<path d="M 335.332520 135.321777 L 332.947754 136.610840 L 335.332520 137.905273 L 334.956543 138.560547 L 332.711426 137.212402 L 332.711426 139.715332 L 331.943359 139.715332 L 331.943359 137.212402 L 329.698242 138.560547 L 329.322266 137.905273 L 331.712402 136.610840 L 329.322266 135.321777 L 329.698242 134.661133 L 331.943359 136.009277 L 331.943359 133.506348 L 332.711426 133.506348 L 332.711426 136.009277 L 334.956543 134.661133 Z " fill="rgb(0, 0, 0)" fill-opacity="1.000000" />
<path d="M 336.547852 136.111328 L 342.241211 136.111328 L 342.241211 137.019043 L 336.547852 137.019043 Z " fill="rgb(0, 0, 0)" fill-opacity="1.000000" />
<path d="M 343.547852 136.111328 L 349.241211 136.111328 L 349.241211 137.019043 L 343.547852 137.019043 Z " fill="rgb(0, 0, 0)" fill-opacity="1.000000" />
<path d="M 350.547852 136.111328 L 356.241211 136.111328 L 356.241211 137.019043 L 350.547852 137.019043 Z " fill="rgb(0, 0, 0)" fill-opacity="1.000000" />
<path d="M 363.332520 135.321777 L 360.947754 136.610840 L 363.332520 137.905273 L 362.956543 138.560547 L 360.711426 137.212402 L 360.711426 139.715332 L 359.943359 139.715332 L 359.943359 137.212402 L 357.698242 138.560547 L 357.322266 137.905273 L 359.712402 136.610840 L 357.322266 135.321777 L 357.698242 134.661133 L 359.943359 136.009277 L 359.943359 133.506348 L 360.711426 133.506348 L 360.711426 136.009277 L 362.956543 134.661133 Z " fill="rgb(0, 0, 0)" fill-opacity="1.000000" />
<path d="M 391.332520 135.321777 L 388.947754 136.610840 L 391.332520 137.905273 L 390.956543 138.560547 L 388.711426 137.212402 L 388.711426 139.715332 L 387.943359 139.715332 L 387.943359 137.212402 L 385.698242 138.560547 L 385.322266 137.905273 L 387.712402 136.610840 L 385.322266 135.321777 L 385.698242 134.661133 L 387.943359 136.009277 L 387.943359 133.506348 L 388.711426 133.506348 L 388.711426 136.009277 L 390.956543 134.661133 Z " fill="rgb(0, 0, 0)" fill-opacity="1.000000" />
<path d="M 419.332520 135.321777 L 416.947754 136.610840 L 419.332520 137.905273 L 418.956543 138.560547 L 416.711426 137.212402 L 416.711426 139.715332 L 415.943359 139.715332 L 415.943359 137.212402 L 413.698242 138.560547 L 413.322266 137.905273 L 415.712402 136.610840 L 413.322266 135.321777 L 413.698242 134.661133 L 415.943359 136.009277 L 415.943359 133.506348 L 416.711426 133.506348 L 416.711426 136.009277 L 418.956543 134.661133 Z " fill="rgb(0, 0, 0)" fill-opacity="1.000000" />
<path d="M 420.547852 136.111328 L 426.241211 136.111328 L 426.241211 137.019043 L 420.547852 137.019043 Z " fill="rgb(0, 0, 0)" fill-opacity="1.000000" />
<path d="M 427.547852 136.111328 L 433.241211 136.111328 L 433.241211 137.019043 L 427.547852 137.019043 Z " fill="rgb(0, 0, 0)" fill-opacity="1.000000" />
<path d="M 434.547852 136.111328 L 440.241211 136.111328 L 440.241211 137.019043 L 434.547852 137.019043 Z " fill="rgb(0, 0, 0)" fill-opacity="1.000000" />
<path d="M 447.332520 135.321777 L 444.947754 136.610840 L 447.332520 137.905273 L 446.956543 138.560547 L 444.711426 137.212402 L 444.711426 139.715332 L 443.943359 139.715332 L 443.943359 137.212402 L 441.698242 138.560547 L 441.322266 137.905273 L 443.712402 136.610840 L 441.322266 135.321777 L 441.698242 134.661133 L 443.943359 136.009277 L 443.943359 133.506348 L 444.711426 133.506348 L 444.711426 136.009277 L 446.956543 134.661133 Z " fill="rgb(0, 0, 0)" fill-opacity="1.000000" />
<path d="M 59.985352 118.594238 L 59.985352 129.594238 L 59.061523 129.594238 L 59.061523 118.594238 Z " fill="rgb(0, 0, 0)" fill-opacity="1.000000" />
<path d="M 185.985352 118.594238 L 185.985352 129.594238 L 185.061523 129.594238 L 185.061523 118.594238 Z " fill="rgb(0, 0, 0)" fill-opacity="1.000000" />
<path d="M 269.985352 118.594238 L 269.985352 129.594238 L 269.061523 129.594238 L 269.061523 118.594238 Z " fill="rgb(0, 0, 0)" fill-opacity="1.000000" />
<path d="M 360.985352 118.594238 L 360.985352 129.594238 L 360.061523 129.594238 L 360.061523 118.594238 Z " fill="rgb(0, 0, 0)" fill-opacity="1.000000" />
<path d="M 388.985352 118.594238 L 388.985352 129.594238 L 388.061523 129.594238 L 388.061523 118.594238 Z " fill="rgb(0, 0, 0)" fill-opacity="1.000000" />
<path d="M 416.985352 118.594238 L 416.985352 129.594238 L 416.061523 129.594238 L 416.061523 118.594238 Z " fill="rgb(0, 0, 0)" fill-opacity="1.000000" />
<path d="M 62.332520 109.321777 L 59.947754 110.610840 L 62.332520 111.905273 L 61.956543 112.560547 L 59.711426 111.212402 L 59.711426 113.715332 L 58.943359 113.715332 L 58.943359 111.212402 L 56.698242 112.560547 L 56.322266 111.905273 L 58.712402 110.610840 L 56.322266 109.321777 L 56.698242 108.661133 L 58.943359 110.009277 L 58.943359 107.506348 L 59.711426 107.506348 L 59.711426 110.009277 L 61.956543 108.661133 Z " fill="rgb(0, 0, 0)" fill-opacity="1.000000" />
<path d="M 90.332520 109.321777 L 87.947754 110.610840 L 90.332520 111.905273 L 89.956543 112.560547 L 87.711426 111.212402 L 87.711426 113.715332 L 86.943359 113.715332 L 86.943359 111.212402 L 84.698242 112.560547 L 84.322266 111.905273 L 86.712402 110.610840 L 84.322266 109.321777 L 84.698242 108.661133 L 86.943359 110.009277 L 86.943359 107.506348 L 87.711426 107.506348 L 87.711426 110.009277 L 89.956543 108.661133 Z " fill="rgb(0, 0, 0)" fill-opacity="1.000000" />
<path d="M 91.547852 110.111328 L 97.241211 110.111328 L 97.241211 111.019043 L 91.547852 111.019043 Z " fill="rgb(0, 0, 0)" fill-opacity="1.000000" />
<path d="M 98.547852 110.111328 L 104.241211 110.111328 L 104.241211 111.019043 L 98.547852 111.019043 Z " fill="rgb(0, 0, 0)" fill-opacity="1.000000" />
<path d="M 105.547852 110.111328 L 111.241211 110.111328 L 111.241211 111.019043 L 105.547852 111.019043 Z " fill="rgb(0, 0, 0)" fill-opacity="1.000000" />
<path d="M 118.332520 109.321777 L 115.947754 110.610840 L 118.332520 111.905273 L 117.956543 112.560547 L 115.711426 111.212402 L 115.711426 113.715332 L 114.943359 113.715332 L 114.943359 111.212402 L 112.698242 112.560547 L 112.322266 111.905273 L 114.712402 110.610840 L 112.322266 109.321777 L 112.698242 108.661133 L 114.943359 110.009277 L 114.943359 107.506348 L 115.711426 107.506348 L 115.711426 110.009277 L 117.956543 108.661133 Z " fill="rgb(0, 0, 0)" fill-opacity="1.000000" />
<path d="M 140.547852 110.111328 L 146.241211 110.111328 L 146.241211 111.019043 L 140.547852 111.019043 Z " fill="rgb(0, 0, 0)" fill-opacity="1.000000" />
<path d="M 147.547852 110.111328 L 153.241211 110.111328 L 153.241211 111.019043 L 147.547852 111.019043 Z " fill="rgb(0, 0, 0)" fill-opacity="1.000000" />
<path d="M 154.547852 110.111328 L 160.241211 110.111328 L 160.241211 111.019043 L 154.547852 111.019043 Z " fill="rgb(0, 0, 0)" fill-opacity="1.000000" />
<path d="M 161.472656 108.838379 L 161.472656 107.860840 L 167.149902 110.105957 L 167.149902 110.997559 L 161.472656 113.242676 L 161.472656 112.259766 L 166.038086 110.557129 Z " fill="rgb(0, 0, 0)" fill-opacity="1.000000" />
<path d="M 185.985352 105.594238 L 185.985352 116.594238 L 185.061523 116.594238 L 185.061523 105.594238 Z " fill="rgb(0, 0, 0)" fill-opacity="1.000000" />
<path d="M 215.763184 113.715332 Q 215.349609 113.935547 214.914551 114.045654 Q 214.479492 114.155762 213.990723 114.155762 Q 212.449219 114.155762 211.597900 113.065430 Q 210.746582 111.975098 210.746582 109.998535 Q 210.746582 108.032715 211.603271 106.934326 Q 212.459961 105.835938 213.990723 105.835938 Q 214.479492 105.835938 214.914551 105.946045 Q 215.349609 106.056152 215.763184 106.276367 L 215.763184 107.388184 Q 215.365723 107.060547 214.909180 106.888672 Q 214.452637 106.716797 213.990723 106.716797 Q 212.932617 106.716797 212.406250 107.533203 Q 211.879883 108.349609 211.879883 109.998535 Q 211.879883 111.642090 212.406250 112.458496 Q 212.932617 113.274902 213.990723 113.274902 Q 214.463379 113.274902 214.917236 113.103027 Q 215.371094 112.931152 215.763184 112.603516 Z " fill="rgb(0, 0, 0)" fill-opacity="1.000000" />
<path d="M 220.770508 110.976074 L 220.442871 110.976074 Q 219.578125 110.976074 219.140381 111.279541 Q 218.702637 111.583008 218.702637 112.184570 Q 218.702637 112.727051 219.030273 113.027832 Q 219.357910 113.328613 219.937988 113.328613 Q 220.754395 113.328613 221.221680 112.761963 Q 221.688965 112.195312 221.694336 111.196289 L 221.694336 110.976074 Z M 222.687988 110.567871 L 222.687988 114.000000 L 221.694336 114.000000 L 221.694336 113.108398 Q 221.377441 113.645508 220.896729 113.900635 Q 220.416016 114.155762 219.728516 114.155762 Q 218.810059 114.155762 218.262207 113.637451 Q 217.714355 113.119141 217.714355 112.249023 Q 217.714355 111.244629 218.388428 110.723633 Q 219.062500 110.202637 220.367676 110.202637 L 221.694336 110.202637 L 221.694336 110.046875 Q 221.688965 109.327148 221.329102 109.002197 Q 220.969238 108.677246 220.179688 108.677246 Q 219.674805 108.677246 219.159180 108.822266 Q 218.643555 108.967285 218.154785 109.246582 L 218.154785 108.258301 Q 218.702637 108.048828 219.204834 107.944092 Q 219.707031 107.839355 220.179688 107.839355 Q 220.926270 107.839355 221.455322 108.059570 Q 221.984375 108.279785 222.312012 108.720215 Q 222.516113 108.988770 222.602051 109.383545 Q 222.687988 109.778320 222.687988 110.567871 Z " fill="rgb(0, 0, 0)" fill-opacity="1.000000" />
<path d="M 229.698730 113.693848 Q 229.301270 113.924805 228.879639 114.040283 Q 228.458008 114.155762 228.017578 114.155762 Q 226.621094 114.155762 225.834229 113.317871 Q 225.047363 112.479980 225.047363 110.997559 Q 225.047363 109.515137 225.834229 108.677246 Q 226.621094 107.839355 228.017578 107.839355 Q 228.452637 107.839355 228.866211 107.952148 Q 229.279785 108.064941 229.698730 108.301270 L 229.698730 109.337891 Q 229.306641 108.988770 228.911865 108.833008 Q 228.517090 108.677246 228.017578 108.677246 Q 227.088379 108.677246 226.588867 109.278809 Q 226.089355 109.880371 226.089355 110.997559 Q 226.089355 112.109375 226.591553 112.713623 Q 227.093750 113.317871 228.017578 113.317871 Q 228.533203 113.317871 228.941406 113.159424 Q 229.349609 113.000977 229.698730 112.667969 Z " fill="rgb(0, 0, 0)" fill-opacity="1.000000" />
<path d="M 236.645020 110.272461 L 236.645020 114.000000 L 235.651367 114.000000 L 235.651367 110.272461 Q 235.651367 109.461426 235.366699 109.080078 Q 235.082031 108.698730 234.475098 108.698730 Q 233.782227 108.698730 233.408936 109.190186 Q 233.035645 109.681641 233.035645 110.600098 L 233.035645 114.000000 L 232.047363 114.000000 L 232.047363 105.642578 L 233.035645 105.642578 L 233.035645 108.886719 Q 233.298828 108.371094 233.750000 108.105225 Q 234.201172 107.839355 234.818848 107.839355 Q 235.737305 107.839355 236.191162 108.443604 Q 236.645020 109.047852 236.645020 110.272461 Z " fill="rgb(0, 0, 0)" fill-opacity="1.000000" />
<path d="M 244.015625 110.498047 L 244.015625 110.981445 L 239.734863 110.981445 L 239.734863 111.013672 Q 239.691895 112.243652 240.204834 112.780762 Q 240.717773 113.317871 241.652344 113.317871 Q 242.125000 113.317871 242.640625 113.167480 Q 243.156250 113.017090 243.741699 112.710938 L 243.741699 113.693848 Q 243.177734 113.924805 242.654053 114.040283 Q 242.130371 114.155762 241.641602 114.155762 Q 240.239746 114.155762 239.450195 113.315186 Q 238.660645 112.474609 238.660645 110.997559 Q 238.660645 109.558105 239.434082 108.698730 Q 240.207520 107.839355 241.496582 107.839355 Q 242.645996 107.839355 243.309326 108.618164 Q 243.972656 109.396973 244.015625 110.498047 Z M 243.027344 110.208008 Q 242.962891 109.584961 242.573486 109.131104 Q 242.184082 108.677246 241.453613 108.677246 Q 240.739258 108.677246 240.277344 109.149902 Q 239.815430 109.622559 239.772461 110.213379 Z " fill="rgb(0, 0, 0)" fill-opacity="1.000000" />
<path d="M 269.985352 105.594238 L 269.985352 116.594238 L 269.061523 116.594238 L 269.061523 105.594238 Z " fill="rgb(0, 0, 0)" fill-opacity="1.000000" />
<path d="M 287.547852 110.111328 L 293.241211 110.111328 L 293.241211 111.019043 L 287.547852 111.019043 Z " fill="rgb(0, 0, 0)" fill-opacity="1.000000" />
<path d="M 294.547852 110.111328 L 300.241211 110.111328 L 300.241211 111.019043 L 294.547852 111.019043 Z " fill="rgb(0, 0, 0)" fill-opacity="1.000000" />
<path d="M 301.547852 110.111328 L 307.241211 110.111328 L 307.241211 111.019043 L 301.547852 111.019043 Z " fill="rgb(0, 0, 0)" fill-opacity="1.000000" />
<path d="M 308.472656 108.838379 L 308.472656 107.860840 L 314.149902 110.105957 L 314.149902 110.997559 L 308.472656 113.242676 L 308.472656 112.259766 L 313.038086 110.557129 Z " fill="rgb(0, 0, 0)" fill-opacity="1.000000" />
<path d="M 363.332520 109.321777 L 360.947754 110.610840 L 363.332520 111.905273 L 362.956543 112.560547 L 360.711426 111.212402 L 360.711426 113.715332 L 359.943359 113.715332 L 359.943359 111.212402 L 357.698242 112.560547 L 357.322266 111.905273 L 359.712402 110.610840 L 357.322266 109.321777 L 357.698242 108.661133 L 359.943359 110.009277 L 359.943359 107.506348 L 360.711426 107.506348 L 360.711426 110.009277 L 362.956543 108.661133 Z " fill="rgb(0, 0, 0)" fill-opacity="1.000000" />
<path d="M 364.547852 110.111328 L 370.241211 110.111328 L 370.241211 111.019043 L 364.547852 111.019043 Z " fill="rgb(0, 0, 0)" fill-opacity="1.000000" />
<path d="M 371.547852 110.111328 L 377.241211 110.111328 L 377.241211 111.019043 L 371.547852 111.019043 Z " fill="rgb(0, 0, 0)" fill-opacity="1.000000" />
<path d="M 378.547852 110.111328 L 384.241211 110.111328 L 384.241211 111.019043 L 378.547852 111.019043 Z " fill="rgb(0, 0, 0)" fill-opacity="1.000000" />
<path d="M 391.332520 109.321777 L 388.947754 110.610840 L 391.332520 111.905273 L 390.956543 112.560547 L 388.711426 111.212402 L 388.711426 113.715332 L 387.943359 113.715332 L 387.943359 111.212402 L 385.698242 112.560547 L 385.322266 111.905273 L 387.712402 110.610840 L 385.322266 109.321777 L 385.698242 108.661133 L 387.943359 110.009277 L 387.943359 107.506348 L 388.711426 107.506348 L 388.711426 110.009277 L 390.956543 108.661133 Z " fill="rgb(0, 0, 0)" fill-opacity="1.000000" />
<path d="M 392.547852 110.111328 L 398.241211 110.111328 L 398.241211 111.019043 L 392.547852 111.019043 Z " fill="rgb(0, 0, 0)" fill-opacity="1.000000" />
<path d="M 399.547852 110.111328 L 405.241211 110.111328 L 405.241211 111.019043 L 399.547852 111.019043 Z " fill="rgb(0, 0, 0)" fill-opacity="1.000000" />
<path d="M 406.547852 110.111328 L 412.241211 110.111328 L 412.241211 111.019043 L 406.547852 111.019043 Z " fill="rgb(0, 0, 0)" fill-opacity="1.000000" />
<path d="M 419.332520 109.321777 L 416.947754 110.610840 L 419.332520 111.905273 L 418.956543 112.560547 L 416.711426 111.212402 L 416.711426 113.715332 L 415.943359 113.715332 L 415.943359 111.212402 L 413.698242 112.560547 L 413.322266 111.905273 L 415.712402 110.610840 L 413.322266 109.321777 L 413.698242 108.661133 L 415.943359 110.009277 L 415.943359 107.506348 L 416.711426 107.506348 L 416.711426 110.009277 L 418.956543 108.661133 Z " fill="rgb(0, 0, 0)" fill-opacity="1.000000" />
<path d="M 420.547852 110.111328 L 426.241211 110.111328 L 426.241211 111.019043 L 420.547852 111.019043 Z " fill="rgb(0, 0, 0)" fill-opacity="1.000000" />
<path d="M 427.547852 110.111328 L 433.241211 110.111328 L 433.241211 111.019043 L 427.547852 111.019043 Z " fill="rgb(0, 0, 0)" fill-opacity="1.000000" />
<path d="M 434.547852 110.111328 L 440.241211 110.111328 L 440.241211 111.019043 L 434.547852 111.019043 Z " fill="rgb(0, 0, 0)" fill-opacity="1.000000" />
<path d="M 447.332520 109.321777 L 444.947754 110.610840 L 447.332520 111.905273 L 446.956543 112.560547 L 444.711426 111.212402 L 444.711426 113.715332 L 443.943359 113.715332 L 443.943359 111.212402 L 441.698242 112.560547 L 441.322266 111.905273 L 443.712402 110.610840 L 441.322266 109.321777 L 441.698242 108.661133 L 443.943359 110.009277 L 443.943359 107.506348 L 444.711426 107.506348 L 444.711426 110.009277 L 446.956543 108.661133 Z " fill="rgb(0, 0, 0)" fill-opacity="1.000000" />
<path d="M 59.985352 92.594238 L 59.985352 103.594238 L 59.061523 103.594238 L 59.061523 92.594238 Z " fill="rgb(0, 0, 0)" fill-opacity="1.000000" />
<path d="M 87.985352 92.594238 L 87.985352 103.594238 L 87.061523 103.594238 L 87.061523 92.594238 Z " fill="rgb(0, 0, 0)" fill-opacity="1.000000" />
<path d="M 185.985352 92.594238 L 185.985352 103.594238 L 185.061523 103.594238 L 185.061523 92.594238 Z " fill="rgb(0, 0, 0)" fill-opacity="1.000000" />
<path d="M 269.985352 92.594238 L 269.985352 103.594238 L 269.061523 103.594238 L 269.061523 92.594238 Z " fill="rgb(0, 0, 0)" fill-opacity="1.000000" />
<path d="M 388.985352 92.594238 L 388.985352 103.594238 L 388.061523 103.594238 L 388.061523 92.594238 Z " fill="rgb(0, 0, 0)" fill-opacity="1.000000" />
<path d="M 7.547852 84.111328 L 13.241211 84.111328 L 13.241211 85.019043 L 7.547852 85.019043 Z " fill="rgb(0, 0, 0)" fill-opacity="1.000000" />
<path d="M 14.547852 84.111328 L 20.241211 84.111328 L 20.241211 85.019043 L 14.547852 85.019043 Z " fill="rgb(0, 0, 0)" fill-opacity="1.000000" />
<path d="M 21.547852 84.111328 L 27.241211 84.111328 L 27.241211 85.019043 L 21.547852 85.019043 Z " fill="rgb(0, 0, 0)" fill-opacity="1.000000" />
<path d="M 34.332520 83.321777 L 31.947754 84.610840 L 34.332520 85.905273 L 33.956543 86.560547 L 31.711426 85.212402 L 31.711426 87.715332 L 30.943359 87.715332 L 30.943359 85.212402 L 28.698242 86.560547 L 28.322266 85.905273 L 30.712402 84.610840 L 28.322266 83.321777 L 28.698242 82.661133 L 30.943359 84.009277 L 30.943359 81.506348 L 31.711426 81.506348 L 31.711426 84.009277 L 33.956543 82.661133 Z " fill="rgb(0, 0, 0)" fill-opacity="1.000000" />
<path d="M 62.332520 83.321777 L 59.947754 84.610840 L 62.332520 85.905273 L 61.956543 86.560547 L 59.711426 85.212402 L 59.711426 87.715332 L 58.943359 87.715332 L 58.943359 85.212402 L 56.698242 86.560547 L 56.322266 85.905273 L 58.712402 84.610840 L 56.322266 83.321777 L 56.698242 82.661133 L 58.943359 84.009277 L 58.943359 81.506348 L 59.711426 81.506348 L 59.711426 84.009277 L 61.956543 82.661133 Z " fill="rgb(0, 0, 0)" fill-opacity="1.000000" />
<path d="M 90.332520 83.321777 L 87.947754 84.610840 L 90.332520 85.905273 L 89.956543 86.560547 L 87.711426 85.212402 L 87.711426 87.715332 L 86.943359 87.715332 L 86.943359 85.212402 L 84.698242 86.560547 L 84.322266 85.905273 L 86.712402 84.610840 L 84.322266 83.321777 L 84.698242 82.661133 L 86.943359 84.009277 L 86.943359 81.506348 L 87.711426 81.506348 L 87.711426 84.009277 L 89.956543 82.661133 Z " fill="rgb(0, 0, 0)" fill-opacity="1.000000" />
<path d="M 91.547852 84.111328 L 97.241211 84.111328 L 97.241211 85.019043 L 91.547852 85.019043 Z " fill="rgb(0, 0, 0)" fill-opacity="1.000000" />
<path d="M 98.547852 84.111328 L 104.241211 84.111328 L 104.241211 85.019043 L 98.547852 85.019043 Z " fill="rgb(0, 0, 0)" fill-opacity="1.000000" />
<path d="M 105.547852 84.111328 L 111.241211 84.111328 L 111.241211 85.019043 L 105.547852 85.019043 Z " fill="rgb(0, 0, 0)" fill-opacity="1.000000" />
<path d="M 118.332520 83.321777 L 115.947754 84.610840 L 118.332520 85.905273 L 117.956543 86.560547 L 115.711426 85.212402 L 115.711426 87.715332 L 114.943359 87.715332 L 114.943359 85.212402 L 112.698242 86.560547 L 112.322266 85.905273 L 114.712402 84.610840 L 112.322266 83.321777 L 112.698242 82.661133 L 114.943359 84.009277 L 114.943359 81.506348 L 115.711426 81.506348 L 115.711426 84.009277 L 117.956543 82.661133 Z " fill="rgb(0, 0, 0)" fill-opacity="1.000000" />
<path d="M 185.867188 81.672852 L 185.867188 84.052246 L 188.257324 84.052246 L 188.257324 84.959961 L 185.867188 84.959961 L 185.867188 87.339355 L 184.964844 87.339355 L 184.964844 84.959961 L 182.580078 84.959961 L 182.580078 84.052246 L 184.964844 84.052246 L 184.964844 81.672852 Z " fill="rgb(0, 0, 0)" fill-opacity="1.000000" />
<path d="M 189.547852 84.111328 L 195.241211 84.111328 L 195.241211 85.019043 L 189.547852 85.019043 Z " fill="rgb(0, 0, 0)" fill-opacity="1.000000" />
<path d="M 196.547852 84.111328 L 202.241211 84.111328 L 202.241211 85.019043 L 196.547852 85.019043 Z " fill="rgb(0, 0, 0)" fill-opacity="1.000000" />
<path d="M 203.547852 84.111328 L 209.241211 84.111328 L 209.241211 85.019043 L 203.547852 85.019043 Z " fill="rgb(0, 0, 0)" fill-opacity="1.000000" />
<path d="M 210.547852 84.111328 L 216.241211 84.111328 L 216.241211 85.019043 L 210.547852 85.019043 Z " fill="rgb(0, 0, 0)" fill-opacity="1.000000" />
<path d="M 217.547852 84.111328 L 223.241211 84.111328 L 223.241211 85.019043 L 217.547852 85.019043 Z " fill="rgb(0, 0, 0)" fill-opacity="1.000000" />
<path d="M 224.547852 84.111328 L 230.241211 84.111328 L 230.241211 85.019043 L 224.547852 85.019043 Z " fill="rgb(0, 0, 0)" fill-opacity="1.000000" />
<path d="M 231.547852 84.111328 L 237.241211 84.111328 L 237.241211 85.019043 L 231.547852 85.019043 Z " fill="rgb(0, 0, 0)" fill-opacity="1.000000" />
<path d="M 238.547852 84.111328 L 244.241211 84.111328 L 244.241211 85.019043 L 238.547852 85.019043 Z " fill="rgb(0, 0, 0)" fill-opacity="1.000000" />
<path d="M 245.547852 84.111328 L 251.241211 84.111328 L 251.241211 85.019043 L 245.547852 85.019043 Z " fill="rgb(0, 0, 0)" fill-opacity="1.000000" />
<path d="M 252.547852 84.111328 L 258.241211 84.111328 L 258.241211 85.019043 L 252.547852 85.019043 Z " fill="rgb(0, 0, 0)" fill-opacity="1.000000" />
<path d="M 259.547852 84.111328 L 265.241211 84.111328 L 265.241211 85.019043 L 259.547852 85.019043 Z " fill="rgb(0, 0, 0)" fill-opacity="1.000000" />
<path d="M 269.867188 81.672852 L 269.867188 84.052246 L 272.257324 84.052246 L 272.257324 84.959961 L 269.867188 84.959961 L 269.867188 87.339355 L 268.964844 87.339355 L 268.964844 84.959961 L 266.580078 84.959961 L 266.580078 84.052246 L 268.964844 84.052246 L 268.964844 81.672852 Z " fill="rgb(0, 0, 0)" fill-opacity="1.000000" />
<path d="M 391.332520 83.321777 L 388.947754 84.610840 L 391.332520 85.905273 L 390.956543 86.560547 L 388.711426 85.212402 L 388.711426 87.715332 L 387.943359 87.715332 L 387.943359 85.212402 L 385.698242 86.560547 L 385.322266 85.905273 L 387.712402 84.610840 L 385.322266 83.321777 L 385.698242 82.661133 L 387.943359 84.009277 L 387.943359 81.506348 L 388.711426 81.506348 L 388.711426 84.009277 L 390.956543 82.661133 Z " fill="rgb(0, 0, 0)" fill-opacity="1.000000" />
<path d="M 34.332520 57.321777 L 31.947754 58.610840 L 34.332520 59.905273 L 33.956543 60.560547 L 31.711426 59.212402 L 31.711426 61.715332 L 30.943359 61.715332 L 30.943359 59.212402 L 28.698242 60.560547 L 28.322266 59.905273 L 30.712402 58.610840 L 28.322266 57.321777 L 28.698242 56.661133 L 30.943359 58.009277 L 30.943359 55.506348 L 31.711426 55.506348 L 31.711426 58.009277 L 33.956543 56.661133 Z " fill="rgb(0, 0, 0)" fill-opacity="1.000000" />
<path d="M 31.985352 66.594238 L 31.985352 77.594238 L 31.061523 77.594238 L 31.061523 66.594238 Z " fill="rgb(0, 0, 0)" fill-opacity="1.000000" />
<path d="M 59.985352 66.594238 L 59.985352 77.594238 L 59.061523 77.594238 L 59.061523 66.594238 Z " fill="rgb(0, 0, 0)" fill-opacity="1.000000" />
<path d="M 87.985352 66.594238 L 87.985352 77.594238 L 87.061523 77.594238 L 87.061523 66.594238 Z " fill="rgb(0, 0, 0)" fill-opacity="1.000000" />
<path d="M 35.547852 58.111328 L 41.241211 58.111328 L 41.241211 59.019043 L 35.547852 59.019043 Z " fill="rgb(0, 0, 0)" fill-opacity="1.000000" />
<path d="M 42.547852 58.111328 L 48.241211 58.111328 L 48.241211 59.019043 L 42.547852 59.019043 Z " fill="rgb(0, 0, 0)" fill-opacity="1.000000" />
<path d="M 49.547852 58.111328 L 55.241211 58.111328 L 55.241211 59.019043 L 49.547852 59.019043 Z " fill="rgb(0, 0, 0)" fill-opacity="1.000000" />
<path d="M 62.332520 57.321777 L 59.947754 58.610840 L 62.332520 59.905273 L 61.956543 60.560547 L 59.711426 59.212402 L 59.711426 61.715332 L 58.943359 61.715332 L 58.943359 59.212402 L 56.698242 60.560547 L 56.322266 59.905273 L 58.712402 58.610840 L 56.322266 57.321777 L 56.698242 56.661133 L 58.943359 58.009277 L 58.943359 55.506348 L 59.711426 55.506348 L 59.711426 58.009277 L 61.956543 56.661133 Z " fill="rgb(0, 0, 0)" fill-opacity="1.000000" />
<path d="M 63.547852 58.111328 L 69.241211 58.111328 L 69.241211 59.019043 L 63.547852 59.019043 Z " fill="rgb(0, 0, 0)" fill-opacity="1.000000" />
<path d="M 70.547852 58.111328 L 76.241211 58.111328 L 76.241211 59.019043 L 70.547852 59.019043 Z " fill="rgb(0, 0, 0)" fill-opacity="1.000000" />
<path d="M 77.547852 58.111328 L 83.241211 58.111328 L 83.241211 59.019043 L 77.547852 59.019043 Z " fill="rgb(0, 0, 0)" fill-opacity="1.000000" />
<path d="M 90.332520 57.321777 L 87.947754 58.610840 L 90.332520 59.905273 L 89.956543 60.560547 L 87.711426 59.212402 L 87.711426 61.715332 L 86.943359 61.715332 L 86.943359 59.212402 L 84.698242 60.560547 L 84.322266 59.905273 L 86.712402 58.610840 L 84.322266 57.321777 L 84.698242 56.661133 L 86.943359 58.009277 L 86.943359 55.506348 L 87.711426 55.506348 L 87.711426 58.009277 L 89.956543 56.661133 Z " fill="rgb(0, 0, 0)" fill-opacity="1.000000" />
<path d="M 91.547852 58.111328 L 97.241211 58.111328 L 97.241211 59.019043 L 91.547852 59.019043 Z " fill="rgb(0, 0, 0)" fill-opacity="1.000000" />
<path d="M 98.547852 58.111328 L 104.241211 58.111328 L 104.241211 59.019043 L 98.547852 59.019043 Z " fill="rgb(0, 0, 0)" fill-opacity="1.000000" />
<path d="M 105.547852 58.111328 L 111.241211 58.111328 L 111.241211 59.019043 L 105.547852 59.019043 Z " fill="rgb(0, 0, 0)" fill-opacity="1.000000" />
<path d="M 118.332520 57.321777 L 115.947754 58.610840 L 118.332520 59.905273 L 117.956543 60.560547 L 115.711426 59.212402 L 115.711426 61.715332 L 114.943359 61.715332 L 114.943359 59.212402 L 112.698242 60.560547 L 112.322266 59.905273 L 114.712402 58.610840 L 112.322266 57.321777 L 112.698242 56.661133 L 114.943359 58.009277 L 114.943359 55.506348 L 115.711426 55.506348 L 115.711426 58.009277 L 117.956543 56.661133 Z " fill="rgb(0, 0, 0)" fill-opacity="1.000000" />
<path d="M 355.075684 53.690918 L 355.075684 56.978027 L 353.872559 56.978027 L 353.872559 53.690918 Z M 352.212891 53.690918 L 352.212891 56.978027 L 351.009766 56.978027 L 351.009766 53.690918 Z " fill="rgb(0, 0, 0)" fill-opacity="1.000000" />
<path d="M 359.341797 61.108398 Q 360.711426 61.108398 361.253906 60.434326 Q 361.796387 59.760254 361.796387 57.998535 Q 361.796387 56.220703 361.256592 55.546631 Q 360.716797 54.872559 359.341797 54.872559 L 358.826172 54.872559 L 358.826172 61.108398 Z M 359.363281 53.980957 Q 361.200195 53.980957 362.070312 54.958496 Q 362.940430 55.936035 362.940430 57.998535 Q 362.940430 60.050293 362.070312 61.025146 Q 361.200195 62.000000 359.363281 62.000000 L 357.735840 62.000000 L 357.735840 53.980957 Z " fill="rgb(0, 0, 0)" fill-opacity="1.000000" />
<path d="M 365.697266 56.005859 L 368.227051 56.005859 L 368.227051 61.231934 L 370.187500 61.231934 L 370.187500 62.000000 L 365.278320 62.000000 L 365.278320 61.231934 L 367.238770 61.231934 L 367.238770 56.773926 L 365.697266 56.773926 Z M 367.238770 53.669434 L 368.227051 53.669434 L 368.227051 54.915527 L 367.238770 54.915527 Z " fill="rgb(0, 0, 0)" fill-opacity="1.000000" />
<path d="M 376.709473 53.642578 L 376.709473 54.464355 L 375.586914 54.464355 Q 375.055176 54.464355 374.848389 54.681885 Q 374.641602 54.899414 374.641602 55.452637 L 374.641602 55.984375 L 376.709473 55.984375 L 376.709473 56.752441 L 374.641602 56.752441 L 374.641602 62.000000 L 373.653320 62.000000 L 373.653320 56.752441 L 372.047363 56.752441 L 372.047363 55.984375 L 373.653320 55.984375 L 373.653320 55.565430 Q 373.653320 54.577148 374.107178 54.109863 Q 374.561035 53.642578 375.522461 53.642578 Z " fill="rgb(0, 0, 0)" fill-opacity="1.000000" />
<path d="M 383.709473 53.642578 L 383.709473 54.464355 L 382.586914 54.464355 Q 382.055176 54.464355 381.848389 54.681885 Q 381.641602 54.899414 381.641602 55.452637 L 381.641602 55.984375 L 383.709473 55.984375 L 383.709473 56.752441 L 381.641602 56.752441 L 381.641602 62.000000 L 380.653320 62.000000 L 380.653320 56.752441 L 379.047363 56.752441 L 379.047363 55.984375 L 380.653320 55.984375 L 380.653320 55.565430 Q 380.653320 54.577148 381.107178 54.109863 Q 381.561035 53.642578 382.522461 53.642578 Z " fill="rgb(0, 0, 0)" fill-opacity="1.000000" />
<path d="M 390.075684 53.690918 L 390.075684 56.978027 L 388.872559 56.978027 L 388.872559 53.690918 Z M 387.212891 53.690918 L 387.212891 56.978027 L 386.009766 56.978027 L 386.009766 53.690918 Z " fill="rgb(0, 0, 0)" fill-opacity="1.000000" />
<path d="M 402.518066 62.145020 Q 402.480469 62.145020 402.410645 62.150391 Q 402.340820 62.155762 402.297852 62.155762 Q 400.955078 62.155762 400.291748 61.124512 Q 399.628418 60.093262 399.628418 57.998535 Q 399.628418 55.898438 400.291748 54.867188 Q 400.955078 53.835938 402.308594 53.835938 Q 403.667480 53.835938 404.330811 54.867188 Q 404.994141 55.898438 404.994141 57.998535 Q 404.994141 59.577637 404.626221 60.541748 Q 404.258301 61.505859 403.511719 61.892578 L 404.585938 62.913086 L 403.774902 63.450195 Z M 403.860840 57.998535 Q 403.860840 56.231445 403.498291 55.474121 Q 403.135742 54.716797 402.308594 54.716797 Q 401.486816 54.716797 401.124268 55.474121 Q 400.761719 56.231445 400.761719 57.998535 Q 400.761719 59.760254 401.124268 60.517578 Q 401.486816 61.274902 402.308594 61.274902 Q 403.135742 61.274902 403.498291 60.520264 Q 403.860840 59.765625 403.860840 57.998535 Z " fill="rgb(0, 0, 0)" fill-opacity="1.000000" />
<path d="M 407.047363 59.722656 L 407.047363 55.995117 L 408.035645 55.995117 L 408.035645 59.722656 Q 408.035645 60.533691 408.322998 60.915039 Q 408.610352 61.296387 409.211914 61.296387 Q 409.910156 61.296387 410.280762 60.804932 Q 410.651367 60.313477 410.651367 59.395020 L 410.651367 55.995117 L 411.645020 55.995117 L 411.645020 62.000000 L 410.651367 62.000000 L 410.651367 61.097656 Q 410.388184 61.618652 409.934326 61.887207 Q 409.480469 62.155762 408.873535 62.155762 Q 407.949707 62.155762 407.498535 61.551514 Q 407.047363 60.947266 407.047363 59.722656 Z " fill="rgb(0, 0, 0)" fill-opacity="1.000000" />
<path d="M 419.015625 58.498047 L 419.015625 58.981445 L 414.734863 58.981445 L 414.734863 59.013672 Q 414.691895 60.243652 415.204834 60.780762 Q 415.717773 61.317871 416.652344 61.317871 Q 417.125000 61.317871 417.640625 61.167480 Q 418.156250 61.017090 418.741699 60.710938 L 418.741699 61.693848 Q 418.177734 61.924805 417.654053 62.040283 Q 417.130371 62.155762 416.641602 62.155762 Q 415.239746 62.155762 414.450195 61.315186 Q 413.660645 60.474609 413.660645 58.997559 Q 413.660645 57.558105 414.434082 56.698730 Q 415.207520 55.839355 416.496582 55.839355 Q 417.645996 55.839355 418.309326 56.618164 Q 418.972656 57.396973 419.015625 58.498047 Z M 418.027344 58.208008 Q 417.962891 57.584961 417.573486 57.131104 Q 417.184082 56.677246 416.453613 56.677246 Q 415.739258 56.677246 415.277344 57.149902 Q 414.815430 57.622559 414.772461 58.213379 Z " fill="rgb(0, 0, 0)" fill-opacity="1.000000" />
<path d="M 426.203613 57.225098 Q 425.886719 56.978027 425.559082 56.865234 Q 425.231445 56.752441 424.839355 56.752441 Q 423.915527 56.752441 423.426758 57.332520 Q 422.937988 57.912598 422.937988 59.008301 L 422.937988 62.000000 L 421.944336 62.000000 L 421.944336 55.984375 L 422.937988 55.984375 L 422.937988 57.160645 Q 423.185059 56.521484 423.697998 56.180420 Q 424.210938 55.839355 424.914551 55.839355 Q 425.279785 55.839355 425.596680 55.930664 Q 425.913574 56.021973 426.203613 56.215332 Z " fill="rgb(0, 0, 0)" fill-opacity="1.000000" />
<path d="M 431.608398 60.066406 Q 431.361328 60.694824 430.979980 61.720703 Q 430.448242 63.138672 430.265625 63.450195 Q 430.018555 63.869141 429.647949 64.078613 Q 429.277344 64.288086 428.783203 64.288086 L 427.988281 64.288086 L 427.988281 63.460938 L 428.573730 63.460938 Q 429.008789 63.460938 429.255859 63.208496 Q 429.502930 62.956055 429.884277 61.903320 L 427.558594 55.984375 L 428.605957 55.984375 L 430.389160 60.689453 L 432.145508 55.984375 L 433.192871 55.984375 Z " fill="rgb(0, 0, 0)" fill-opacity="1.000000" />
<path d="M 45.518066 10.145020 Q 45.480469 10.145020 45.410645 10.150391 Q 45.340820 10.155762 45.297852 10.155762 Q 43.955078 10.155762 43.291748 9.124512 Q 42.628418 8.093262 42.628418 5.998535 Q 42.628418 3.898438 43.291748 2.867188 Q 43.955078 1.835938 45.308594 1.835938 Q 46.667480 1.835938 47.330811 2.867188 Q 47.994141 3.898438 47.994141 5.998535 Q 47.994141 7.577637 47.626221 8.541748 Q 47.258301 9.505859 46.511719 9.892578 L 47.585938 10.913086 L 46.774902 11.450195 Z M 46.860840 5.998535 Q 46.860840 4.231445 46.498291 3.474121 Q 46.135742 2.716797 45.308594 2.716797 Q 44.486816 2.716797 44.124268 3.474121 Q 43.761719 4.231445 43.761719 5.998535 Q 43.761719 7.760254 44.124268 8.517578 Q 44.486816 9.274902 45.308594 9.274902 Q 46.135742 9.274902 46.498291 8.520264 Q 46.860840 7.765625 46.860840 5.998535 Z " fill="rgb(0, 0, 0)" fill-opacity="1.000000" />
<path d="M 62.332520 31.321777 L 59.947754 32.610840 L 62.332520 33.905273 L 61.956543 34.560547 L 59.711426 33.212402 L 59.711426 35.715332 L 58.943359 35.715332 L 58.943359 33.212402 L 56.698242 34.560547 L 56.322266 33.905273 L 58.712402 32.610840 L 56.322266 31.321777 L 56.698242 30.661133 L 58.943359 32.009277 L 58.943359 29.506348 L 59.711426 29.506348 L 59.711426 32.009277 L 61.956543 30.661133 Z " fill="rgb(0, 0, 0)" fill-opacity="1.000000" />
<path d="M 59.985352 40.594238 L 59.985352 51.594238 L 59.061523 51.594238 L 59.061523 40.594238 Z " fill="rgb(0, 0, 0)" fill-opacity="1.000000" />
<path d="M 50.047363 7.722656 L 50.047363 3.995117 L 51.035645 3.995117 L 51.035645 7.722656 Q 51.035645 8.533691 51.322998 8.915039 Q 51.610352 9.296387 52.211914 9.296387 Q 52.910156 9.296387 53.280762 8.804932 Q 53.651367 8.313477 53.651367 7.395020 L 53.651367 3.995117 L 54.645020 3.995117 L 54.645020 10.000000 L 53.651367 10.000000 L 53.651367 9.097656 Q 53.388184 9.618652 52.934326 9.887207 Q 52.480469 10.155762 51.873535 10.155762 Q 50.949707 10.155762 50.498535 9.551514 Q 50.047363 8.947266 50.047363 7.722656 Z " fill="rgb(0, 0, 0)" fill-opacity="1.000000" />
<path d="M 62.015625 6.498047 L 62.015625 6.981445 L 57.734863 6.981445 L 57.734863 7.013672 Q 57.691895 8.243652 58.204834 8.780762 Q 58.717773 9.317871 59.652344 9.317871 Q 60.125000 9.317871 60.640625 9.167480 Q 61.156250 9.017090 61.741699 8.710938 L 61.741699 9.693848 Q 61.177734 9.924805 60.654053 10.040283 Q 60.130371 10.155762 59.641602 10.155762 Q 58.239746 10.155762 57.450195 9.315186 Q 56.660645 8.474609 56.660645 6.997559 Q 56.660645 5.558105 57.434082 4.698730 Q 58.207520 3.839355 59.496582 3.839355 Q 60.645996 3.839355 61.309326 4.618164 Q 61.972656 5.396973 62.015625 6.498047 Z M 61.027344 6.208008 Q 60.962891 5.584961 60.573486 5.131104 Q 60.184082 4.677246 59.453613 4.677246 Q 58.739258 4.677246 58.277344 5.149902 Q 57.815430 5.622559 57.772461 6.213379 Z " fill="rgb(0, 0, 0)" fill-opacity="1.000000" />
<path d="M 69.203613 5.225098 Q 68.886719 4.978027 68.559082 4.865234 Q 68.231445 4.752441 67.839355 4.752441 Q 66.915527 4.752441 66.426758 5.332520 Q 65.937988 5.912598 65.937988 7.008301 L 65.937988 10.000000 L 64.944336 10.000000 L 64.944336 3.984375 L 65.937988 3.984375 L 65.937988 5.160645 Q 66.185059 4.521484 66.697998 4.180420 Q 67.210938 3.839355 67.914551 3.839355 Q 68.279785 3.839355 68.596680 3.930664 Q 68.913574 4.021973 69.203613 4.215332 Z " fill="rgb(0, 0, 0)" fill-opacity="1.000000" />
<path d="M 74.608398 8.066406 Q 74.361328 8.694824 73.979980 9.720703 Q 73.448242 11.138672 73.265625 11.450195 Q 73.018555 11.869141 72.647949 12.078613 Q 72.277344 12.288086 71.783203 12.288086 L 70.988281 12.288086 L 70.988281 11.460938 L 71.573730 11.460938 Q 72.008789 11.460938 72.255859 11.208496 Q 72.502930 10.956055 72.884277 9.903320 L 70.558594 3.984375 L 71.605957 3.984375 L 73.389160 8.689453 L 75.145508 3.984375 L 76.192871 3.984375 Z " fill="rgb(0, 0, 0)" fill-opacity="1.000000" />
</svg>