<svg xmlns="http://www.w3.org/2000/svg" version="1.1" width="428" height="92">
<path d="M 3.867188 3.672852 L 3.867188 6.052246 L 6.257324 6.052246 L 6.257324 6.959961 L 3.867188 6.959961 L 3.867188 9.339355 L 2.964844 9.339355 L 2.964844 6.959961 L 0.580078 6.959961 L 0.580078 6.052246 L 2.964844 6.052246 L 2.964844 3.672852 Z " fill="rgb(0, 0, 0)" fill-opacity="1.000000" />
<path d="M 3.985352 14.594238 L 3.985352 25.594238 L 3.061523 25.594238 L 3.061523 14.594238 Z " fill="rgb(0, 0, 0)" fill-opacity="1.000000" />
<path d="M 3.985352 27.594238 L 3.985352 38.594238 L 3.061523 38.594238 L 3.061523 27.594238 Z " fill="rgb(0, 0, 0)" fill-opacity="1.000000" />
<path d="M 3.985352 40.594238 L 3.985352 51.594238 L 3.061523 51.594238 L 3.061523 40.594238 Z " fill="rgb(0, 0, 0)" fill-opacity="1.000000" />
<path d="M 3.985352 53.594238 L 3.985352 64.594238 L 3.061523 64.594238 L 3.061523 53.594238 Z " fill="rgb(0, 0, 0)" fill-opacity="1.000000" />
<path d="M 3.985352 66.594238 L 3.985352 77.594238 L 3.061523 77.594238 L 3.061523 66.594238 Z " fill="rgb(0, 0, 0)" fill-opacity="1.000000" />
<path d="M 3.867188 81.672852 L 3.867188 84.052246 L 6.257324 84.052246 L 6.257324 84.959961 L 3.867188 84.959961 L 3.867188 87.339355 L 2.964844 87.339355 L 2.964844 84.959961 L 0.580078 84.959961 L 0.580078 84.052246 L 2.964844 84.052246 L 2.964844 81.672852 Z " fill="rgb(0, 0, 0)" fill-opacity="1.000000" />
<path d="M 7.547852 84.111328 L 13.241211 84.111328 L 13.241211 85.019043 L 7.547852 85.019043 Z " fill="rgb(0, 0, 0)" fill-opacity="1.000000" />
<path d="M 14.547852 84.111328 L 20.241211 84.111328 L 20.241211 85.019043 L 14.547852 85.019043 Z " fill="rgb(0, 0, 0)" fill-opacity="1.000000" />
<path d="M 21.547852 84.111328 L 27.241211 84.111328 L 27.241211 85.019043 L 21.547852 85.019043 Z " fill="rgb(0, 0, 0)" fill-opacity="1.000000" />
<path d="M 28.547852 84.111328 L 34.241211 84.111328 L 34.241211 85.019043 L 28.547852 85.019043 Z " fill="rgb(0, 0, 0)" fill-opacity="1.000000" />
<path d="M 35.547852 84.111328 L 41.241211 84.111328 L 41.241211 85.019043 L 35.547852 85.019043 Z " fill="rgb(0, 0, 0)" fill-opacity="1.000000" />
<path d="M 42.547852 84.111328 L 48.241211 84.111328 L 48.241211 85.019043 L 42.547852 85.019043 Z " fill="rgb(0, 0, 0)" fill-opacity="1.000000" />
<path d="M 49.547852 84.111328 L 55.241211 84.111328 L 55.241211 85.019043 L 49.547852 85.019043 Z " fill="rgb(0, 0, 0)" fill-opacity="1.000000" />
<path d="M 56.547852 84.111328 L 62.241211 84.111328 L 62.241211 85.019043 L 56.547852 85.019043 Z " fill="rgb(0, 0, 0)" fill-opacity="1.000000" />
<path d="M 63.547852 84.111328 L 69.241211 84.111328 L 69.241211 85.019043 L 63.547852 85.019043 Z " fill="rgb(0, 0, 0)" fill-opacity="1.000000" />
<path d="M 70.547852 84.111328 L 76.241211 84.111328 L 76.241211 85.019043 L 70.547852 85.019043 Z " fill="rgb(0, 0, 0)" fill-opacity="1.000000" />
<path d="M 77.547852 84.111328 L 83.241211 84.111328 L 83.241211 85.019043 L 77.547852 85.019043 Z " fill="rgb(0, 0, 0)" fill-opacity="1.000000" />
<path d="M 84.547852 84.111328 L 90.241211 84.111328 L 90.241211 85.019043 L 84.547852 85.019043 Z " fill="rgb(0, 0, 0)" fill-opacity="1.000000" />
<path d="M 91.547852 84.111328 L 97.241211 84.111328 L 97.241211 85.019043 L 91.547852 85.019043 Z " fill="rgb(0, 0, 0)" fill-opacity="1.000000" />
<path d="M 98.547852 84.111328 L 104.241211 84.111328 L 104.241211 85.019043 L 98.547852 85.019043 Z " fill="rgb(0, 0, 0)" fill-opacity="1.000000" />
<path d="M 105.547852 84.111328 L 111.241211 84.111328 L 111.241211 85.019043 L 105.547852 85.019043 Z " fill="rgb(0, 0, 0)" fill-opacity="1.000000" />
<path d="M 112.547852 84.111328 L 118.241211 84.111328 L 118.241211 85.019043 L 112.547852 85.019043 Z " fill="rgb(0, 0, 0)" fill-opacity="1.000000" />
<path d="M 119.547852 84.111328 L 125.241211 84.111328 L 125.241211 85.019043 L 119.547852 85.019043 Z " fill="rgb(0, 0, 0)" fill-opacity="1.000000" />
<path d="M 126.547852 84.111328 L 132.241211 84.111328 L 132.241211 85.019043 L 126.547852 85.019043 Z " fill="rgb(0, 0, 0)" fill-opacity="1.000000" />
<path d="M 133.547852 84.111328 L 139.241211 84.111328 L 139.241211 85.019043 L 133.547852 85.019043 Z " fill="rgb(0, 0, 0)" fill-opacity="1.000000" />
<path d="M 143.867188 81.672852 L 143.867188 84.052246 L 146.257324 84.052246 L 146.257324 84.959961 L 143.867188 84.959961 L 143.867188 87.339355 L 142.964844 87.339355 L 142.964844 84.959961 L 140.580078 84.959961 L 140.580078 84.052246 L 142.964844 84.052246 L 142.964844 81.672852 Z " fill="rgb(0, 0, 0)" fill-opacity="1.000000" />
<path d="M 147.547852 84.111328 L 153.241211 84.111328 L 153.241211 85.019043 L 147.547852 85.019043 Z " fill="rgb(0, 0, 0)" fill-opacity="1.000000" />
<path d="M 154.547852 84.111328 L 160.241211 84.111328 L 160.241211 85.019043 L 154.547852 85.019043 Z " fill="rgb(0, 0, 0)" fill-opacity="1.000000" />
<path d="M 161.547852 84.111328 L 167.241211 84.111328 L 167.241211 85.019043 L 161.547852 85.019043 Z " fill="rgb(0, 0, 0)" fill-opacity="1.000000" />
<path d="M 168.547852 84.111328 L 174.241211 84.111328 L 174.241211 85.019043 L 168.547852 85.019043 Z " fill="rgb(0, 0, 0)" fill-opacity="1.000000" />
<path d="M 175.547852 84.111328 L 181.241211 84.111328 L 181.241211 85.019043 L 175.547852 85.019043 Z " fill="rgb(0, 0, 0)" fill-opacity="1.000000" />
<path d="M 182.547852 84.111328 L 188.241211 84.111328 L 188.241211 85.019043 L 182.547852 85.019043 Z " fill="rgb(0, 0, 0)" fill-opacity="1.000000" />
<path d="M 189.547852 84.111328 L 195.241211 84.111328 L 195.241211 85.019043 L 189.547852 85.019043 Z " fill="rgb(0, 0, 0)" fill-opacity="1.000000" />
<path d="M 196.547852 84.111328 L 202.241211 84.111328 L 202.241211 85.019043 L 196.547852 85.019043 Z " fill="rgb(0, 0, 0)" fill-opacity="1.000000" />
<path d="M 203.547852 84.111328 L 209.241211 84.111328 L 209.241211 85.019043 L 203.547852 85.019043 Z " fill="rgb(0, 0, 0)" fill-opacity="1.000000" />
<path d="M 210.547852 84.111328 L 216.241211 84.111328 L 216.241211 85.019043 L 210.547852 85.019043 Z " fill="rgb(0, 0, 0)" fill-opacity="1.000000" />
<path d="M 217.547852 84.111328 L 223.241211 84.111328 L 223.241211 85.019043 L 217.547852 85.019043 Z " fill="rgb(0, 0, 0)" fill-opacity="1.000000" />
<path d="M 224.547852 84.111328 L 230.241211 84.111328 L 230.241211 85.019043 L 224.547852 85.019043 Z " fill="rgb(0, 0, 0)" fill-opacity="1.000000" />
<path d="M 231.547852 84.111328 L 237.241211 84.111328 L 237.241211 85.019043 L 231.547852 85.019043 Z " fill="rgb(0, 0, 0)" fill-opacity="1.000000" />
<path d="M 238.547852 84.111328 L 244.241211 84.111328 L 244.241211 85.019043 L 238.547852 85.019043 Z " fill="rgb(0, 0, 0)" fill-opacity="1.000000" />
<path d="M 245.547852 84.111328 L 251.241211 84.111328 L 251.241211 85.019043 L 245.547852 85.019043 Z " fill="rgb(0, 0, 0)" fill-opacity="1.000000" />
<path d="M 252.547852 84.111328 L 258.241211 84.111328 L 258.241211 85.019043 L 252.547852 85.019043 Z " fill="rgb(0, 0, 0)" fill-opacity="1.000000" />
<path d="M 259.547852 84.111328 L 265.241211 84.111328 L 265.241211 85.019043 L 259.547852 85.019043 Z " fill="rgb(0, 0, 0)" fill-opacity="1.000000" />
<path d="M 266.547852 84.111328 L 272.241211 84.111328 L 272.241211 85.019043 L 266.547852 85.019043 Z " fill="rgb(0, 0, 0)" fill-opacity="1.000000" />
<path d="M 273.547852 84.111328 L 279.241211 84.111328 L 279.241211 85.019043 L 273.547852 85.019043 Z " fill="rgb(0, 0, 0)" fill-opacity="1.000000" />
<path d="M 283.867188 81.672852 L 283.867188 84.052246 L 286.257324 84.052246 L 286.257324 84.959961 L 283.867188 84.959961 L 283.867188 87.339355 L 282.964844 87.339355 L 282.964844 84.959961 L 280.580078 84.959961 L 280.580078 84.052246 L 282.964844 84.052246 L 282.964844 81.672852 Z " fill="rgb(0, 0, 0)" fill-opacity="1.000000" />
<path d="M 287.547852 84.111328 L 293.241211 84.111328 L 293.241211 85.019043 L 287.547852 85.019043 Z " fill="rgb(0, 0, 0)" fill-opacity="1.000000" />
<path d="M 294.547852 84.111328 L 300.241211 84.111328 L 300.241211 85.019043 L 294.547852 85.019043 Z " fill="rgb(0, 0, 0)" fill-opacity="1.000000" />
<path d="M 301.547852 84.111328 L 307.241211 84.111328 L 307.241211 85.019043 L 301.547852 85.019043 Z " fill="rgb(0, 0, 0)" fill-opacity="1.000000" />
<path d="M 308.547852 84.111328 L 314.241211 84.111328 L 314.241211 85.019043 L 308.547852 85.019043 Z " fill="rgb(0, 0, 0)" fill-opacity="1.000000" />
<path d="M 315.547852 84.111328 L 321.241211 84.111328 L 321.241211 85.019043 L 315.547852 85.019043 Z " fill="rgb(0, 0, 0)" fill-opacity="1.000000" />
<path d="M 322.547852 84.111328 L 328.241211 84.111328 L 328.241211 85.019043 L 322.547852 85.019043 Z " fill="rgb(0, 0, 0)" fill-opacity="1.000000" />
<path d="M 329.547852 84.111328 L 335.241211 84.111328 L 335.241211 85.019043 L 329.547852 85.019043 Z " fill="rgb(0, 0, 0)" fill-opacity="1.000000" />
<path d="M 336.547852 84.111328 L 342.241211 84.111328 L 342.241211 85.019043 L 336.547852 85.019043 Z " fill="rgb(0, 0, 0)" fill-opacity="1.000000" />
<path d="M 343.547852 84.111328 L 349.241211 84.111328 L 349.241211 85.019043 L 343.547852 85.019043 Z " fill="rgb(0, 0, 0)" fill-opacity="1.000000" />
<path d="M 350.547852 84.111328 L 356.241211 84.111328 L 356.241211 85.019043 L 350.547852 85.019043 Z " fill="rgb(0, 0, 0)" fill-opacity="1.000000" />
<path d="M 357.547852 84.111328 L 363.241211 84.111328 L 363.241211 85.019043 L 357.547852 85.019043 Z " fill="rgb(0, 0, 0)" fill-opacity="1.000000" />
<path d="M 364.547852 84.111328 L 370.241211 84.111328 L 370.241211 85.019043 L 364.547852 85.019043 Z " fill="rgb(0, 0, 0)" fill-opacity="1.000000" />
<path d="M 371.547852 84.111328 L 377.241211 84.111328 L 377.241211 85.019043 L 371.547852 85.019043 Z " fill="rgb(0, 0, 0)" fill-opacity="1.000000" />
<path d="M 378.547852 84.111328 L 384.241211 84.111328 L 384.241211 85.019043 L 378.547852 85.019043 Z " fill="rgb(0, 0, 0)" fill-opacity="1.000000" />
<path d="M 385.547852 84.111328 L 391.241211 84.111328 L 391.241211 85.019043 L 385.547852 85.019043 Z " fill="rgb(0, 0, 0)" fill-opacity="1.000000" />
<path d="M 392.547852 84.111328 L 398.241211 84.111328 L 398.241211 85.019043 L 392.547852 85.019043 Z " fill="rgb(0, 0, 0)" fill-opacity="1.000000" />
<path d="M 399.547852 84.111328 L 405.241211 84.111328 L 405.241211 85.019043 L 399.547852 85.019043 Z " fill="rgb(0, 0, 0)" fill-opacity="1.000000" />
<path d="M 406.547852 84.111328 L 412.241211 84.111328 L 412.241211 85.019043 L 406.547852 85.019043 Z " fill="rgb(0, 0, 0)" fill-opacity="1.000000" />
<path d="M 413.547852 84.111328 L 419.241211 84.111328 L 419.241211 85.019043 L 413.547852 85.019043 Z " fill="rgb(0, 0, 0)" fill-opacity="1.000000" />
<path d="M 423.867188 81.672852 L 423.867188 84.052246 L 426.257324 84.052246 L 426.257324 84.959961 L 423.867188 84.959961 L 423.867188 87.339355 L 422.964844 87.339355 L 422.964844 84.959961 L 420.580078 84.959961 L 420.580078 84.052246 L 422.964844 84.052246 L 422.964844 81.672852 Z " fill="rgb(0, 0, 0)" fill-opacity="1.000000" />
<path d="M 60.082031 45.213379 Q 60.500977 45.320801 60.796387 45.618896 Q 61.091797 45.916992 61.532227 46.808594 L 62.622559 49.000000 L 61.457031 49.000000 L 60.500977 46.975098 Q 60.087402 46.110352 59.757080 45.860596 Q 59.426758 45.610840 58.895020 45.610840 L 57.858398 45.610840 L 57.858398 49.000000 L 56.768066 49.000000 L 56.768066 40.980957 L 59.002441 40.980957 Q 60.323730 40.980957 61.027344 41.577148 Q 61.730957 42.173340 61.730957 43.301270 Q 61.730957 44.096191 61.298584 44.598389 Q 60.866211 45.100586 60.082031 45.213379 Z M 57.858398 41.872559 L 57.858398 44.719238 L 59.045410 44.719238 Q 59.824219 44.719238 60.205566 44.370117 Q 60.586914 44.020996 60.586914 43.301270 Q 60.586914 42.608398 60.181396 42.240479 Q 59.775879 41.872559 59.002441 41.872559 Z " fill="rgb(0, 0, 0)" fill-opacity="1.000000" />
<path d="M 143.985352 53.594238 L 143.985352 64.594238 L 143.061523 64.594238 L 143.061523 53.594238 Z " fill="rgb(0, 0, 0)" fill-opacity="1.000000" />
<path d="M 143.985352 66.594238 L 143.985352 77.594238 L 143.061523 77.594238 L 143.061523 66.594238 Z " fill="rgb(0, 0, 0)" fill-opacity="1.000000" />
<path d="M 283.985352 53.594238 L 283.985352 64.594238 L 283.061523 64.594238 L 283.061523 53.594238 Z " fill="rgb(0, 0, 0)" fill-opacity="1.000000" />
<path d="M 283.985352 66.594238 L 283.985352 77.594238 L 283.061523 77.594238 L 283.061523 66.594238 Z " fill="rgb(0, 0, 0)" fill-opacity="1.000000" />
<path d="M 423.985352 53.594238 L 423.985352 64.594238 L 423.061523 64.594238 L 423.061523 53.594238 Z " fill="rgb(0, 0, 0)" fill-opacity="1.000000" />
<path d="M 423.985352 66.594238 L 423.985352 77.594238 L 423.061523 77.594238 L 423.061523 66.594238 Z " fill="rgb(0, 0, 0)" fill-opacity="1.000000" />
<path d="M 69.015625 45.498047 L 69.015625 45.981445 L 64.734863 45.981445 L 64.734863 46.013672 Q 64.691895 47.243652 65.204834 47.780762 Q 65.717773 48.317871 66.652344 48.317871 Q 67.125000 48.317871 67.640625 48.167480 Q 68.156250 48.017090 68.741699 47.710938 L 68.741699 48.693848 Q 68.177734 48.924805 67.654053 49.040283 Q 67.130371 49.155762 66.641602 49.155762 Q 65.239746 49.155762 64.450195 48.315186 Q 63.660645 47.474609 63.660645 45.997559 Q 63.660645 44.558105 64.434082 43.698730 Q 65.207520 42.839355 66.496582 42.839355 Q 67.645996 42.839355 68.309326 43.618164 Q 68.972656 44.396973 69.015625 45.498047 Z M 68.027344 45.208008 Q 67.962891 44.584961 67.573486 44.131104 Q 67.184082 43.677246 66.453613 43.677246 Q 65.739258 43.677246 65.277344 44.149902 Q 64.815430 44.622559 64.772461 45.213379 Z " fill="rgb(0, 0, 0)" fill-opacity="1.000000" />
<path d="M 73.770508 45.976074 L 73.442871 45.976074 Q 72.578125 45.976074 72.140381 46.279541 Q 71.702637 46.583008 71.702637 47.184570 Q 71.702637 47.727051 72.030273 48.027832 Q 72.357910 48.328613 72.937988 48.328613 Q 73.754395 48.328613 74.221680 47.761963 Q 74.688965 47.195312 74.694336 46.196289 L 74.694336 45.976074 Z M 75.687988 45.567871 L 75.687988 49.000000 L 74.694336 49.000000 L 74.694336 48.108398 Q 74.377441 48.645508 73.896729 48.900635 Q 73.416016 49.155762 72.728516 49.155762 Q 71.810059 49.155762 71.262207 48.637451 Q 70.714355 48.119141 70.714355 47.249023 Q 70.714355 46.244629 71.388428 45.723633 Q 72.062500 45.202637 73.367676 45.202637 L 74.694336 45.202637 L 74.694336 45.046875 Q 74.688965 44.327148 74.329102 44.002197 Q 73.969238 43.677246 73.179688 43.677246 Q 72.674805 43.677246 72.159180 43.822266 Q 71.643555 43.967285 71.154785 44.246582 L 71.154785 43.258301 Q 71.702637 43.048828 72.204834 42.944092 Q 72.707031 42.839355 73.179688 42.839355 Q 73.926270 42.839355 74.455322 43.059570 Q 74.984375 43.279785 75.312012 43.720215 Q 75.516113 43.988770 75.602051 44.383545 Q 75.687988 44.778320 75.687988 45.567871 Z " fill="rgb(0, 0, 0)" fill-opacity="1.000000" />
<path d="M 82.698730 48.693848 Q 82.301270 48.924805 81.879639 49.040283 Q 81.458008 49.155762 81.017578 49.155762 Q 79.621094 49.155762 78.834229 48.317871 Q 78.047363 47.479980 78.047363 45.997559 Q 78.047363 44.515137 78.834229 43.677246 Q 79.621094 42.839355 81.017578 42.839355 Q 81.452637 42.839355 81.866211 42.952148 Q 82.279785 43.064941 82.698730 43.301270 L 82.698730 44.337891 Q 82.306641 43.988770 81.911865 43.833008 Q 81.517090 43.677246 81.017578 43.677246 Q 80.088379 43.677246 79.588867 44.278809 Q 79.089355 44.880371 79.089355 45.997559 Q 79.089355 47.109375 79.591553 47.713623 Q 80.093750 48.317871 81.017578 48.317871 Q 81.533203 48.317871 81.941406 48.159424 Q 82.349609 48.000977 82.698730 47.667969 Z " fill="rgb(0, 0, 0)" fill-opacity="1.000000" />
<path d="M 87.297852 41.276367 L 87.297852 42.984375 L 89.542969 42.984375 L 89.542969 43.752441 L 87.297852 43.752441 L 87.297852 47.018066 Q 87.297852 47.684082 87.550293 47.947266 Q 87.802734 48.210449 88.431152 48.210449 L 89.542969 48.210449 L 89.542969 49.000000 L 88.334473 49.000000 Q 87.222656 49.000000 86.766113 48.554199 Q 86.309570 48.108398 86.309570 47.018066 L 86.309570 43.752441 L 84.703613 43.752441 L 84.703613 42.984375 L 86.309570 42.984375 L 86.309570 41.276367 Z " fill="rgb(0, 0, 0)" fill-opacity="1.000000" />
<path d="M 143.985352 40.594238 L 143.985352 51.594238 L 143.061523 51.594238 L 143.061523 40.594238 Z " fill="rgb(0, 0, 0)" fill-opacity="1.000000" />
<path d="M 200.082031 45.213379 Q 200.500977 45.320801 200.796387 45.618896 Q 201.091797 45.916992 201.532227 46.808594 L 202.622559 49.000000 L 201.457031 49.000000 L 200.500977 46.975098 Q 200.087402 46.110352 199.757080 45.860596 Q 199.426758 45.610840 198.895020 45.610840 L 197.858398 45.610840 L 197.858398 49.000000 L 196.768066 49.000000 L 196.768066 40.980957 L 199.002441 40.980957 Q 200.323730 40.980957 201.027344 41.577148 Q 201.730957 42.173340 201.730957 43.301270 Q 201.730957 44.096191 201.298584 44.598389 Q 200.866211 45.100586 200.082031 45.213379 Z M 197.858398 41.872559 L 197.858398 44.719238 L 199.045410 44.719238 Q 199.824219 44.719238 200.205566 44.370117 Q 200.586914 44.020996 200.586914 43.301270 Q 200.586914 42.608398 200.181396 42.240479 Q 199.775879 41.872559 199.002441 41.872559 Z " fill="rgb(0, 0, 0)" fill-opacity="1.000000" />
<path d="M 209.015625 45.498047 L 209.015625 45.981445 L 204.734863 45.981445 L 204.734863 46.013672 Q 204.691895 47.243652 205.204834 47.780762 Q 205.717773 48.317871 206.652344 48.317871 Q 207.125000 48.317871 207.640625 48.167480 Q 208.156250 48.017090 208.741699 47.710938 L 208.741699 48.693848 Q 208.177734 48.924805 207.654053 49.040283 Q 207.130371 49.155762 206.641602 49.155762 Q 205.239746 49.155762 204.450195 48.315186 Q 203.660645 47.474609 203.660645 45.997559 Q 203.660645 44.558105 204.434082 43.698730 Q 205.207520 42.839355 206.496582 42.839355 Q 207.645996 42.839355 208.309326 43.618164 Q 208.972656 44.396973 209.015625 45.498047 Z M 208.027344 45.208008 Q 207.962891 44.584961 207.573486 44.131104 Q 207.184082 43.677246 206.453613 43.677246 Q 205.739258 43.677246 205.277344 44.149902 Q 204.815430 44.622559 204.772461 45.213379 Z " fill="rgb(0, 0, 0)" fill-opacity="1.000000" />
<path d="M 213.861816 46.824707 Q 213.861816 47.490723 214.106201 47.829102 Q 214.350586 48.167480 214.828613 48.167480 L 215.983398 48.167480 L 215.983398 49.000000 L 214.731934 49.000000 Q 213.845703 49.000000 213.359619 48.433350 Q 212.873535 47.866699 212.873535 46.824707 L 212.873535 41.383789 L 211.289062 41.383789 L 211.289062 40.610352 L 213.861816 40.610352 Z " fill="rgb(0, 0, 0)" fill-opacity="1.000000" />
<path d="M 220.770508 45.976074 L 220.442871 45.976074 Q 219.578125 45.976074 219.140381 46.279541 Q 218.702637 46.583008 218.702637 47.184570 Q 218.702637 47.727051 219.030273 48.027832 Q 219.357910 48.328613 219.937988 48.328613 Q 220.754395 48.328613 221.221680 47.761963 Q 221.688965 47.195312 221.694336 46.196289 L 221.694336 45.976074 Z M 222.687988 45.567871 L 222.687988 49.000000 L 221.694336 49.000000 L 221.694336 48.108398 Q 221.377441 48.645508 220.896729 48.900635 Q 220.416016 49.155762 219.728516 49.155762 Q 218.810059 49.155762 218.262207 48.637451 Q 217.714355 48.119141 217.714355 47.249023 Q 217.714355 46.244629 218.388428 45.723633 Q 219.062500 45.202637 220.367676 45.202637 L 221.694336 45.202637 L 221.694336 45.046875 Q 221.688965 44.327148 221.329102 44.002197 Q 220.969238 43.677246 220.179688 43.677246 Q 219.674805 43.677246 219.159180 43.822266 Q 218.643555 43.967285 218.154785 44.246582 L 218.154785 43.258301 Q 218.702637 43.048828 219.204834 42.944092 Q 219.707031 42.839355 220.179688 42.839355 Q 220.926270 42.839355 221.455322 43.059570 Q 221.984375 43.279785 222.312012 43.720215 Q 222.516113 43.988770 222.602051 44.383545 Q 222.687988 44.778320 222.687988 45.567871 Z " fill="rgb(0, 0, 0)" fill-opacity="1.000000" />
<path d="M 228.608398 47.066406 Q 228.361328 47.694824 227.979980 48.720703 Q 227.448242 50.138672 227.265625 50.450195 Q 227.018555 50.869141 226.647949 51.078613 Q 226.277344 51.288086 225.783203 51.288086 L 224.988281 51.288086 L 224.988281 50.460938 L 225.573730 50.460938 Q 226.008789 50.460938 226.255859 50.208496 Q 226.502930 49.956055 226.884277 48.903320 L 224.558594 42.984375 L 225.605957 42.984375 L 227.389160 47.689453 L 229.145508 42.984375 L 230.192871 42.984375 Z " fill="rgb(0, 0, 0)" fill-opacity="1.000000" />
<path d="M 283.985352 40.594238 L 283.985352 51.594238 L 283.061523 51.594238 L 283.061523 40.594238 Z " fill="rgb(0, 0, 0)" fill-opacity="1.000000" />
<path d="M 334.929688 48.339355 Q 334.494629 48.742188 333.949463 48.948975 Q 333.404297 49.155762 332.770508 49.155762 Q 331.245117 49.155762 330.396484 48.062744 Q 329.547852 46.969727 329.547852 44.998535 Q 329.547852 43.032715 330.407227 41.934326 Q 331.266602 40.835938 332.797363 40.835938 Q 333.302246 40.835938 333.764160 40.978271 Q 334.226074 41.120605 334.655762 41.410645 L 334.655762 42.522461 Q 334.220703 42.108887 333.764160 41.912842 Q 333.307617 41.716797 332.797363 41.716797 Q 331.739258 41.716797 331.210205 42.535889 Q 330.681152 43.354980 330.681152 44.998535 Q 330.681152 46.668945 331.194092 47.471924 Q 331.707031 48.274902 332.770508 48.274902 Q 333.130371 48.274902 333.401611 48.191650 Q 333.672852 48.108398 333.893066 47.931152 L 333.893066 45.777344 L 332.727539 45.777344 L 332.727539 44.885742 L 334.929688 44.885742 Z " fill="rgb(0, 0, 0)" fill-opacity="1.000000" />
<path d="M 342.203613 44.225098 Q 341.886719 43.978027 341.559082 43.865234 Q 341.231445 43.752441 340.839355 43.752441 Q 339.915527 43.752441 339.426758 44.332520 Q 338.937988 44.912598 338.937988 46.008301 L 338.937988 49.000000 L 337.944336 49.000000 L 337.944336 42.984375 L 338.937988 42.984375 L 338.937988 44.160645 Q 339.185059 43.521484 339.697998 43.180420 Q 340.210938 42.839355 340.914551 42.839355 Q 341.279785 42.839355 341.596680 42.930664 Q 341.913574 43.021973 342.203613 43.215332 Z " fill="rgb(0, 0, 0)" fill-opacity="1.000000" />
<path d="M 346.770508 45.976074 L 346.442871 45.976074 Q 345.578125 45.976074 345.140381 46.279541 Q 344.702637 46.583008 344.702637 47.184570 Q 344.702637 47.727051 345.030273 48.027832 Q 345.357910 48.328613 345.937988 48.328613 Q 346.754395 48.328613 347.221680 47.761963 Q 347.688965 47.195312 347.694336 46.196289 L 347.694336 45.976074 Z M 348.687988 45.567871 L 348.687988 49.000000 L 347.694336 49.000000 L 347.694336 48.108398 Q 347.377441 48.645508 346.896729 48.900635 Q 346.416016 49.155762 345.728516 49.155762 Q 344.810059 49.155762 344.262207 48.637451 Q 343.714355 48.119141 343.714355 47.249023 Q 343.714355 46.244629 344.388428 45.723633 Q 345.062500 45.202637 346.367676 45.202637 L 347.694336 45.202637 L 347.694336 45.046875 Q 347.688965 44.327148 347.329102 44.002197 Q 346.969238 43.677246 346.179688 43.677246 Q 345.674805 43.677246 345.159180 43.822266 Q 344.643555 43.967285 344.154785 44.246582 L 344.154785 43.258301 Q 344.702637 43.048828 345.204834 42.944092 Q 345.707031 42.839355 346.179688 42.839355 Q 346.926270 42.839355 347.455322 43.059570 Q 347.984375 43.279785 348.312012 43.720215 Q 348.516113 43.988770 348.602051 44.383545 Q 348.687988 44.778320 348.687988 45.567871 Z " fill="rgb(0, 0, 0)" fill-opacity="1.000000" />
<path d="M 352.014160 48.242676 L 352.014160 51.288086 L 351.020508 51.288086 L 351.020508 42.984375 L 352.014160 42.984375 L 352.014160 43.752441 Q 352.261230 43.306641 352.672119 43.072998 Q 353.083008 42.839355 353.620117 42.839355 Q 354.710449 42.839355 355.330811 43.682617 Q 355.951172 44.525879 355.951172 46.019043 Q 355.951172 47.485352 355.328125 48.320557 Q 354.705078 49.155762 353.620117 49.155762 Q 353.072266 49.155762 352.661377 48.922119 Q 352.250488 48.688477 352.014160 48.242676 Z M 354.914551 45.997559 Q 354.914551 44.848145 354.552002 44.262695 Q 354.189453 43.677246 353.475098 43.677246 Q 352.755371 43.677246 352.384766 44.265381 Q 352.014160 44.853516 352.014160 45.997559 Q 352.014160 47.136230 352.384766 47.727051 Q 352.755371 48.317871 353.475098 48.317871 Q 354.189453 48.317871 354.552002 47.732422 Q 354.914551 47.146973 354.914551 45.997559 Z " fill="rgb(0, 0, 0)" fill-opacity="1.000000" />
<path d="M 362.645020 45.272461 L 362.645020 49.000000 L 361.651367 49.000000 L 361.651367 45.272461 Q 361.651367 44.461426 361.366699 44.080078 Q 361.082031 43.698730 360.475098 43.698730 Q 359.782227 43.698730 359.408936 44.190186 Q 359.035645 44.681641 359.035645 45.600098 L 359.035645 49.000000 L 358.047363 49.000000 L 358.047363 40.642578 L 359.035645 40.642578 L 359.035645 43.886719 Q 359.298828 43.371094 359.750000 43.105225 Q 360.201172 42.839355 360.818848 42.839355 Q 361.737305 42.839355 362.191162 43.443604 Q 362.645020 44.047852 362.645020 45.272461 Z " fill="rgb(0, 0, 0)" fill-opacity="1.000000" />
<path d="M 367.518066 49.145020 Q 367.480469 49.145020 367.410645 49.150391 Q 367.340820 49.155762 367.297852 49.155762 Q 365.955078 49.155762 365.291748 48.124512 Q 364.628418 47.093262 364.628418 44.998535 Q 364.628418 42.898438 365.291748 41.867188 Q 365.955078 40.835938 367.308594 40.835938 Q 368.667480 40.835938 369.330811 41.867188 Q 369.994141 42.898438 369.994141 44.998535 Q 369.994141 46.577637 369.626221 47.541748 Q 369.258301 48.505859 368.511719 48.892578 L 369.585938 49.913086 L 368.774902 50.450195 Z M 368.860840 44.998535 Q 368.860840 43.231445 368.498291 42.474121 Q 368.135742 41.716797 367.308594 41.716797 Q 366.486816 41.716797 366.124268 42.474121 Q 365.761719 43.231445 365.761719 44.998535 Q 365.761719 46.760254 366.124268 47.517578 Q 366.486816 48.274902 367.308594 48.274902 Q 368.135742 48.274902 368.498291 47.520264 Q 368.860840 46.765625 368.860840 44.998535 Z " fill="rgb(0, 0, 0)" fill-opacity="1.000000" />
<path d="M 372.154785 40.980957 L 373.245117 40.980957 L 373.245117 48.086914 L 377.117676 48.086914 L 377.117676 49.000000 L 372.154785 49.000000 Z " fill="rgb(0, 0, 0)" fill-opacity="1.000000" />
<path d="M 423.985352 40.594238 L 423.985352 51.594238 L 423.061523 51.594238 L 423.061523 40.594238 Z " fill="rgb(0, 0, 0)" fill-opacity="1.000000" />
<path d="M 143.985352 14.594238 L 143.985352 25.594238 L 143.061523 25.594238 L 143.061523 14.594238 Z " fill="rgb(0, 0, 0)" fill-opacity="1.000000" />
<path d="M 143.985352 27.594238 L 143.985352 38.594238 L 143.061523 38.594238 L 143.061523 27.594238 Z " fill="rgb(0, 0, 0)" fill-opacity="1.000000" />
<path d="M 283.985352 14.594238 L 283.985352 25.594238 L 283.061523 25.594238 L 283.061523 14.594238 Z " fill="rgb(0, 0, 0)" fill-opacity="1.000000" />
<path d="M 283.985352 27.594238 L 283.985352 38.594238 L 283.061523 38.594238 L 283.061523 27.594238 Z " fill="rgb(0, 0, 0)" fill-opacity="1.000000" />
<path d="M 423.985352 14.594238 L 423.985352 25.594238 L 423.061523 25.594238 L 423.061523 14.594238 Z " fill="rgb(0, 0, 0)" fill-opacity="1.000000" />
<path d="M 423.985352 27.594238 L 423.985352 38.594238 L 423.061523 38.594238 L 423.061523 27.594238 Z " fill="rgb(0, 0, 0)" fill-opacity="1.000000" />
<path d="M 7.547852 6.111328 L 13.241211 6.111328 L 13.241211 7.019043 L 7.547852 7.019043 Z " fill="rgb(0, 0, 0)" fill-opacity="1.000000" />
<path d="M 14.547852 6.111328 L 20.241211 6.111328 L 20.241211 7.019043 L 14.547852 7.019043 Z " fill="rgb(0, 0, 0)" fill-opacity="1.000000" />
<path d="M 21.547852 6.111328 L 27.241211 6.111328 L 27.241211 7.019043 L 21.547852 7.019043 Z " fill="rgb(0, 0, 0)" fill-opacity="1.000000" />
<path d="M 28.547852 6.111328 L 34.241211 6.111328 L 34.241211 7.019043 L 28.547852 7.019043 Z " fill="rgb(0, 0, 0)" fill-opacity="1.000000" />
<path d="M 35.547852 6.111328 L 41.241211 6.111328 L 41.241211 7.019043 L 35.547852 7.019043 Z " fill="rgb(0, 0, 0)" fill-opacity="1.000000" />
<path d="M 42.547852 6.111328 L 48.241211 6.111328 L 48.241211 7.019043 L 42.547852 7.019043 Z " fill="rgb(0, 0, 0)" fill-opacity="1.000000" />
<path d="M 49.547852 6.111328 L 55.241211 6.111328 L 55.241211 7.019043 L 49.547852 7.019043 Z " fill="rgb(0, 0, 0)" fill-opacity="1.000000" />
<path d="M 56.547852 6.111328 L 62.241211 6.111328 L 62.241211 7.019043 L 56.547852 7.019043 Z " fill="rgb(0, 0, 0)" fill-opacity="1.000000" />
<path d="M 63.547852 6.111328 L 69.241211 6.111328 L 69.241211 7.019043 L 63.547852 7.019043 Z " fill="rgb(0, 0, 0)" fill-opacity="1.000000" />
<path d="M 70.547852 6.111328 L 76.241211 6.111328 L 76.241211 7.019043 L 70.547852 7.019043 Z " fill="rgb(0, 0, 0)" fill-opacity="1.000000" />
<path d="M 77.547852 6.111328 L 83.241211 6.111328 L 83.241211 7.019043 L 77.547852 7.019043 Z " fill="rgb(0, 0, 0)" fill-opacity="1.000000" />
<path d="M 84.547852 6.111328 L 90.241211 6.111328 L 90.241211 7.019043 L 84.547852 7.019043 Z " fill="rgb(0, 0, 0)" fill-opacity="1.000000" />
<path d="M 91.547852 6.111328 L 97.241211 6.111328 L 97.241211 7.019043 L 91.547852 7.019043 Z " fill="rgb(0, 0, 0)" fill-opacity="1.000000" />
<path d="M 98.547852 6.111328 L 104.241211 6.111328 L 104.241211 7.019043 L 98.547852 7.019043 Z " fill="rgb(0, 0, 0)" fill-opacity="1.000000" />
<path d="M 105.547852 6.111328 L 111.241211 6.111328 L 111.241211 7.019043 L 105.547852 7.019043 Z " fill="rgb(0, 0, 0)" fill-opacity="1.000000" />
<path d="M 112.547852 6.111328 L 118.241211 6.111328 L 118.241211 7.019043 L 112.547852 7.019043 Z " fill="rgb(0, 0, 0)" fill-opacity="1.000000" />
<path d="M 119.547852 6.111328 L 125.241211 6.111328 L 125.241211 7.019043 L 119.547852 7.019043 Z " fill="rgb(0, 0, 0)" fill-opacity="1.000000" />
<path d="M 126.547852 6.111328 L 132.241211 6.111328 L 132.241211 7.019043 L 126.547852 7.019043 Z " fill="rgb(0, 0, 0)" fill-opacity="1.000000" />
<path d="M 133.547852 6.111328 L 139.241211 6.111328 L 139.241211 7.019043 L 133.547852 7.019043 Z " fill="rgb(0, 0, 0)" fill-opacity="1.000000" />
<path d="M 143.867188 3.672852 L 143.867188 6.052246 L 146.257324 6.052246 L 146.257324 6.959961 L 143.867188 6.959961 L 143.867188 9.339355 L 142.964844 9.339355 L 142.964844 6.959961 L 140.580078 6.959961 L 140.580078 6.052246 L 142.964844 6.052246 L 142.964844 3.672852 Z " fill="rgb(0, 0, 0)" fill-opacity="1.000000" />
<path d="M 147.547852 6.111328 L 153.241211 6.111328 L 153.241211 7.019043 L 147.547852 7.019043 Z " fill="rgb(0, 0, 0)" fill-opacity="1.000000" />
<path d="M 154.547852 6.111328 L 160.241211 6.111328 L 160.241211 7.019043 L 154.547852 7.019043 Z " fill="rgb(0, 0, 0)" fill-opacity="1.000000" />
<path d="M 161.547852 6.111328 L 167.241211 6.111328 L 167.241211 7.019043 L 161.547852 7.019043 Z " fill="rgb(0, 0, 0)" fill-opacity="1.000000" />
<path d="M 168.547852 6.111328 L 174.241211 6.111328 L 174.241211 7.019043 L 168.547852 7.019043 Z " fill="rgb(0, 0, 0)" fill-opacity="1.000000" />
<path d="M 175.547852 6.111328 L 181.241211 6.111328 L 181.241211 7.019043 L 175.547852 7.019043 Z " fill="rgb(0, 0, 0)" fill-opacity="1.000000" />
<path d="M 182.547852 6.111328 L 188.241211 6.111328 L 188.241211 7.019043 L 182.547852 7.019043 Z " fill="rgb(0, 0, 0)" fill-opacity="1.000000" />
<path d="M 189.547852 6.111328 L 195.241211 6.111328 L 195.241211 7.019043 L 189.547852 7.019043 Z " fill="rgb(0, 0, 0)" fill-opacity="1.000000" />
<path d="M 196.547852 6.111328 L 202.241211 6.111328 L 202.241211 7.019043 L 196.547852 7.019043 Z " fill="rgb(0, 0, 0)" fill-opacity="1.000000" />
<path d="M 203.547852 6.111328 L 209.241211 6.111328 L 209.241211 7.019043 L 203.547852 7.019043 Z " fill="rgb(0, 0, 0)" fill-opacity="1.000000" />
<path d="M 210.547852 6.111328 L 216.241211 6.111328 L 216.241211 7.019043 L 210.547852 7.019043 Z " fill="rgb(0, 0, 0)" fill-opacity="1.000000" />
<path d="M 217.547852 6.111328 L 223.241211 6.111328 L 223.241211 7.019043 L 217.547852 7.019043 Z " fill="rgb(0, 0, 0)" fill-opacity="1.000000" />
<path d="M 224.547852 6.111328 L 230.241211 6.111328 L 230.241211 7.019043 L 224.547852 7.019043 Z " fill="rgb(0, 0, 0)" fill-opacity="1.000000" />
<path d="M 231.547852 6.111328 L 237.241211 6.111328 L 237.241211 7.019043 L 231.547852 7.019043 Z " fill="rgb(0, 0, 0)" fill-opacity="1.000000" />
<path d="M 238.547852 6.111328 L 244.241211 6.111328 L 244.241211 7.019043 L 238.547852 7.019043 Z " fill="rgb(0, 0, 0)" fill-opacity="1.000000" />
<path d="M 245.547852 6.111328 L 251.241211 6.111328 L 251.241211 7.019043 L 245.547852 7.019043 Z " fill="rgb(0, 0, 0)" fill-opacity="1.000000" />
<path d="M 252.547852 6.111328 L 258.241211 6.111328 L 258.241211 7.019043 L 252.547852 7.019043 Z " fill="rgb(0, 0, 0)" fill-opacity="1.000000" />
<path d="M 259.547852 6.111328 L 265.241211 6.111328 L 265.241211 7.019043 L 259.547852 7.019043 Z " fill="rgb(0, 0, 0)" fill-opacity="1.000000" />
<path d="M 266.547852 6.111328 L 272.241211 6.111328 L 272.241211 7.019043 L 266.547852 7.019043 Z " fill="rgb(0, 0, 0)" fill-opacity="1.000000" />
<path d="M 273.547852 6.111328 L 279.241211 6.111328 L 279.241211 7.019043 L 273.547852 7.019043 Z " fill="rgb(0, 0, 0)" fill-opacity="1.000000" />
<path d="M 283.867188 3.672852 L 283.867188 6.052246 L 286.257324 6.052246 L 286.257324 6.959961 L 283.867188 6.959961 L 283.867188 9.339355 L 282.964844 9.339355 L 282.964844 6.959961 L 280.580078 6.959961 L 280.580078 6.052246 L 282.964844 6.052246 L 282.964844 3.672852 Z " fill="rgb(0, 0, 0)" fill-opacity="1.000000" />
<path d="M 287.547852 6.111328 L 293.241211 6.111328 L 293.241211 7.019043 L 287.547852 7.019043 Z " fill="rgb(0, 0, 0)" fill-opacity="1.000000" />
<path d="M 294.547852 6.111328 L 300.241211 6.111328 L 300.241211 7.019043 L 294.547852 7.019043 Z " fill="rgb(0, 0, 0)" fill-opacity="1.000000" />
<path d="M 301.547852 6.111328 L 307.241211 6.111328 L 307.241211 7.019043 L 301.547852 7.019043 Z " fill="rgb(0, 0, 0)" fill-opacity="1.000000" />
<path d="M 308.547852 6.111328 L 314.241211 6.111328 L 314.241211 7.019043 L 308.547852 7.019043 Z " fill="rgb(0, 0, 0)" fill-opacity="1.000000" />
<path d="M 315.547852 6.111328 L 321.241211 6.111328 L 321.241211 7.019043 L 315.547852 7.019043 Z " fill="rgb(0, 0, 0)" fill-opacity="1.000000" />
<path d="M 322.547852 6.111328 L 328.241211 6.111328 L 328.241211 7.019043 L 322.547852 7.019043 Z " fill="rgb(0, 0, 0)" fill-opacity="1.000000" />
<path d="M 329.547852 6.111328 L 335.241211 6.111328 L 335.241211 7.019043 L 329.547852 7.019043 Z " fill="rgb(0, 0, 0)" fill-opacity="1.000000" />
<path d="M 336.547852 6.111328 L 342.241211 6.111328 L 342.241211 7.019043 L 336.547852 7.019043 Z " fill="rgb(0, 0, 0)" fill-opacity="1.000000" />
<path d="M 343.547852 6.111328 L 349.241211 6.111328 L 349.241211 7.019043 L 343.547852 7.019043 Z " fill="rgb(0, 0, 0)" fill-opacity="1.000000" />
<path d="M 350.547852 6.111328 L 356.241211 6.111328 L 356.241211 7.019043 L 350.547852 7.019043 Z " fill="rgb(0, 0, 0)" fill-opacity="1.000000" />
<path d="M 357.547852 6.111328 L 363.241211 6.111328 L 363.241211 7.019043 L 357.547852 7.019043 Z " fill="rgb(0, 0, 0)" fill-opacity="1.000000" />
<path d="M 364.547852 6.111328 L 370.241211 6.111328 L 370.241211 7.019043 L 364.547852 7.019043 Z " fill="rgb(0, 0, 0)" fill-opacity="1.000000" />
<path d="M 371.547852 6.111328 L 377.241211 6.111328 L 377.241211 7.019043 L 371.547852 7.019043 Z " fill="rgb(0, 0, 0)" fill-opacity="1.000000" />
<path d="M 378.547852 6.111328 L 384.241211 6.111328 L 384.241211 7.019043 L 378.547852 7.019043 Z " fill="rgb(0, 0, 0)" fill-opacity="1.000000" />
<path d="M 385.547852 6.111328 L 391.241211 6.111328 L 391.241211 7.019043 L 385.547852 7.019043 Z " fill="rgb(0, 0, 0)" fill-opacity="1.000000" />
<path d="M 392.547852 6.111328 L 398.241211 6.111328 L 398.241211 7.019043 L 392.547852 7.019043 Z " fill="rgb(0, 0, 0)" fill-opacity="1.000000" />
<path d="M 399.547852 6.111328 L 405.241211 6.111328 L 405.241211 7.019043 L 399.547852 7.019043 Z " fill="rgb(0, 0, 0)" fill-opacity="1.000000" />
<path d="M 406.547852 6.111328 L 412.241211 6.111328 L 412.241211 7.019043 L 406.547852 7.019043 Z " fill="rgb(0, 0, 0)" fill-opacity="1.000000" />
<path d="M 413.547852 6.111328 L 419.241211 6.111328 L 419.241211 7.019043 L 413.547852 7.019043 Z " fill="rgb(0, 0, 0)" fill-opacity="1.000000" />
<path d="M 423.867188 3.672852 L 423.867188 6.052246 L 426.257324 6.052246 L 426.257324 6.959961 L 423.867188 6.959961 L 423.867188 9.339355 L 422.964844 9.339355 L 422.964844 6.959961 L 420.580078 6.959961 L 420.580078 6.052246 L 422.964844 6.052246 L 422.964844 3.672852 Z " fill="rgb(0, 0, 0)" fill-opacity="1.000000" />
</svg>