<svg xmlns="http://www.w3.org/2000/svg" version="1.1" width="365" height="183">
<path d="M 3.867188 3.672852 L 3.867188 6.052246 L 6.257324 6.052246 L 6.257324 6.959961 L 3.867188 6.959961 L 3.867188 9.339355 L 2.964844 9.339355 L 2.964844 6.959961 L 0.580078 6.959961 L 0.580078 6.052246 L 2.964844 6.052246 L 2.964844 3.672852 Z " fill="rgb(0, 0, 0)" fill-opacity="1.000000" />
<path d="M 3.985352 14.594238 L 3.985352 25.594238 L 3.061523 25.594238 L 3.061523 14.594238 Z " fill="rgb(0, 0, 0)" fill-opacity="1.000000" />
<path d="M 3.985352 27.594238 L 3.985352 38.594238 L 3.061523 38.594238 L 3.061523 27.594238 Z " fill="rgb(0, 0, 0)" fill-opacity="1.000000" />
<path d="M 3.985352 40.594238 L 3.985352 51.594238 L 3.061523 51.594238 L 3.061523 40.594238 Z " fill="rgb(0, 0, 0)" fill-opacity="1.000000" />
<path d="M 3.985352 53.594238 L 3.985352 64.594238 L 3.061523 64.594238 L 3.061523 53.594238 Z " fill="rgb(0, 0, 0)" fill-opacity="1.000000" />
<path d="M 3.985352 66.594238 L 3.985352 77.594238 L 3.061523 77.594238 L 3.061523 66.594238 Z " fill="rgb(0, 0, 0)" fill-opacity="1.000000" />
<path d="M 3.985352 79.594238 L 3.985352 90.594238 L 3.061523 90.594238 L 3.061523 79.594238 Z " fill="rgb(0, 0, 0)" fill-opacity="1.000000" />
<path d="M 3.985352 92.594238 L 3.985352 103.594238 L 3.061523 103.594238 L 3.061523 92.594238 Z " fill="rgb(0, 0, 0)" fill-opacity="1.000000" />
<path d="M 3.985352 105.594238 L 3.985352 116.594238 L 3.061523 116.594238 L 3.061523 105.594238 Z " fill="rgb(0, 0, 0)" fill-opacity="1.000000" />
<path d="M 3.985352 118.594238 L 3.985352 129.594238 L 3.061523 129.594238 L 3.061523 118.594238 Z " fill="rgb(0, 0, 0)" fill-opacity="1.000000" />
<path d="M 3.985352 131.594238 L 3.985352 142.594238 L 3.061523 142.594238 L 3.061523 131.594238 Z " fill="rgb(0, 0, 0)" fill-opacity="1.000000" />
<path d="M 3.985352 144.594238 L 3.985352 155.594238 L 3.061523 155.594238 L 3.061523 144.594238 Z " fill="rgb(0, 0, 0)" fill-opacity="1.000000" />
<path d="M 3.985352 157.594238 L 3.985352 168.594238 L 3.061523 168.594238 L 3.061523 157.594238 Z " fill="rgb(0, 0, 0)" fill-opacity="1.000000" />
<path d="M 3.867188 172.672852 L 3.867188 175.052246 L 6.257324 175.052246 L 6.257324 175.959961 L 3.867188 175.959961 L 3.867188 178.339355 L 2.964844 178.339355 L 2.964844 175.959961 L 0.580078 175.959961 L 0.580078 175.052246 L 2.964844 175.052246 L 2.964844 172.672852 Z " fill="rgb(0, 0, 0)" fill-opacity="1.000000" />
<path d="M 7.547852 175.111328 L 13.241211 175.111328 L 13.241211 176.019043 L 7.547852 176.019043 Z " fill="rgb(0, 0, 0)" fill-opacity="1.000000" />
<path d="M 14.547852 175.111328 L 20.241211 175.111328 L 20.241211 176.019043 L 14.547852 176.019043 Z " fill="rgb(0, 0, 0)" fill-opacity="1.000000" />
<path d="M 21.547852 175.111328 L 27.241211 175.111328 L 27.241211 176.019043 L 21.547852 176.019043 Z " fill="rgb(0, 0, 0)" fill-opacity="1.000000" />
<path d="M 28.547852 175.111328 L 34.241211 175.111328 L 34.241211 176.019043 L 28.547852 176.019043 Z " fill="rgb(0, 0, 0)" fill-opacity="1.000000" />
<path d="M 35.547852 175.111328 L 41.241211 175.111328 L 41.241211 176.019043 L 35.547852 176.019043 Z " fill="rgb(0, 0, 0)" fill-opacity="1.000000" />
<path d="M 42.547852 175.111328 L 48.241211 175.111328 L 48.241211 176.019043 L 42.547852 176.019043 Z " fill="rgb(0, 0, 0)" fill-opacity="1.000000" />
<path d="M 49.547852 175.111328 L 55.241211 175.111328 L 55.241211 176.019043 L 49.547852 176.019043 Z " fill="rgb(0, 0, 0)" fill-opacity="1.000000" />
<path d="M 56.547852 175.111328 L 62.241211 175.111328 L 62.241211 176.019043 L 56.547852 176.019043 Z " fill="rgb(0, 0, 0)" fill-opacity="1.000000" />
<path d="M 63.547852 175.111328 L 69.241211 175.111328 L 69.241211 176.019043 L 63.547852 176.019043 Z " fill="rgb(0, 0, 0)" fill-opacity="1.000000" />
<path d="M 70.547852 175.111328 L 76.241211 175.111328 L 76.241211 176.019043 L 70.547852 176.019043 Z " fill="rgb(0, 0, 0)" fill-opacity="1.000000" />
<path d="M 77.547852 175.111328 L 83.241211 175.111328 L 83.241211 176.019043 L 77.547852 176.019043 Z " fill="rgb(0, 0, 0)" fill-opacity="1.000000" />
<path d="M 84.547852 175.111328 L 90.241211 175.111328 L 90.241211 176.019043 L 84.547852 176.019043 Z " fill="rgb(0, 0, 0)" fill-opacity="1.000000" />
<path d="M 91.547852 175.111328 L 97.241211 175.111328 L 97.241211 176.019043 L 91.547852 176.019043 Z " fill="rgb(0, 0, 0)" fill-opacity="1.000000" />
<path d="M 98.547852 175.111328 L 104.241211 175.111328 L 104.241211 176.019043 L 98.547852 176.019043 Z " fill="rgb(0, 0, 0)" fill-opacity="1.000000" />
<path d="M 108.867188 172.672852 L 108.867188 175.052246 L 111.257324 175.052246 L 111.257324 175.959961 L 108.867188 175.959961 L 108.867188 178.339355 L 107.964844 178.339355 L 107.964844 175.959961 L 105.580078 175.959961 L 105.580078 175.052246 L 107.964844 175.052246 L 107.964844 172.672852 Z " fill="rgb(0, 0, 0)" fill-opacity="1.000000" />
<path d="M 255.867188 172.672852 L 255.867188 175.052246 L 258.257324 175.052246 L 258.257324 175.959961 L 255.867188 175.959961 L 255.867188 178.339355 L 254.964844 178.339355 L 254.964844 175.959961 L 252.580078 175.959961 L 252.580078 175.052246 L 254.964844 175.052246 L 254.964844 172.672852 Z " fill="rgb(0, 0, 0)" fill-opacity="1.000000" />
<path d="M 259.547852 175.111328 L 265.241211 175.111328 L 265.241211 176.019043 L 259.547852 176.019043 Z " fill="rgb(0, 0, 0)" fill-opacity="1.000000" />
<path d="M 266.547852 175.111328 L 272.241211 175.111328 L 272.241211 176.019043 L 266.547852 176.019043 Z " fill="rgb(0, 0, 0)" fill-opacity="1.000000" />
<path d="M 273.547852 175.111328 L 279.241211 175.111328 L 279.241211 176.019043 L 273.547852 176.019043 Z " fill="rgb(0, 0, 0)" fill-opacity="1.000000" />
<path d="M 280.547852 175.111328 L 286.241211 175.111328 L 286.241211 176.019043 L 280.547852 176.019043 Z " fill="rgb(0, 0, 0)" fill-opacity="1.000000" />
<path d="M 287.547852 175.111328 L 293.241211 175.111328 L 293.241211 176.019043 L 287.547852 176.019043 Z " fill="rgb(0, 0, 0)" fill-opacity="1.000000" />
<path d="M 294.547852 175.111328 L 300.241211 175.111328 L 300.241211 176.019043 L 294.547852 176.019043 Z " fill="rgb(0, 0, 0)" fill-opacity="1.000000" />
<path d="M 301.547852 175.111328 L 307.241211 175.111328 L 307.241211 176.019043 L 301.547852 176.019043 Z " fill="rgb(0, 0, 0)" fill-opacity="1.000000" />
<path d="M 308.547852 175.111328 L 314.241211 175.111328 L 314.241211 176.019043 L 308.547852 176.019043 Z " fill="rgb(0, 0, 0)" fill-opacity="1.000000" />
<path d="M 315.547852 175.111328 L 321.241211 175.111328 L 321.241211 176.019043 L 315.547852 176.019043 Z " fill="rgb(0, 0, 0)" fill-opacity="1.000000" />
<path d="M 322.547852 175.111328 L 328.241211 175.111328 L 328.241211 176.019043 L 322.547852 176.019043 Z " fill="rgb(0, 0, 0)" fill-opacity="1.000000" />
<path d="M 329.547852 175.111328 L 335.241211 175.111328 L 335.241211 176.019043 L 329.547852 176.019043 Z " fill="rgb(0, 0, 0)" fill-opacity="1.000000" />
<path d="M 336.547852 175.111328 L 342.241211 175.111328 L 342.241211 176.019043 L 336.547852 176.019043 Z " fill="rgb(0, 0, 0)" fill-opacity="1.000000" />
<path d="M 343.547852 175.111328 L 349.241211 175.111328 L 349.241211 176.019043 L 343.547852 176.019043 Z " fill="rgb(0, 0, 0)" fill-opacity="1.000000" />
<path d="M 350.547852 175.111328 L 356.241211 175.111328 L 356.241211 176.019043 L 350.547852 176.019043 Z " fill="rgb(0, 0, 0)" fill-opacity="1.000000" />
<path d="M 360.867188 172.672852 L 360.867188 175.052246 L 363.257324 175.052246 L 363.257324 175.959961 L 360.867188 175.959961 L 360.867188 178.339355 L 359.964844 178.339355 L 359.964844 175.959961 L 357.580078 175.959961 L 357.580078 175.052246 L 359.964844 175.052246 L 359.964844 172.672852 Z " fill="rgb(0, 0, 0)" fill-opacity="1.000000" />
<path d="M 39.082031 84.213379 Q 39.500977 84.320801 39.796387 84.618896 Q 40.091797 84.916992 40.532227 85.808594 L 41.622559 88.000000 L 40.457031 88.000000 L 39.500977 85.975098 Q 39.087402 85.110352 38.757080 84.860596 Q 38.426758 84.610840 37.895020 84.610840 L 36.858398 84.610840 L 36.858398 88.000000 L 35.768066 88.000000 L 35.768066 79.980957 L 38.002441 79.980957 Q 39.323730 79.980957 40.027344 80.577148 Q 40.730957 81.173340 40.730957 82.301270 Q 40.730957 83.096191 40.298584 83.598389 Q 39.866211 84.100586 39.082031 84.213379 Z M 36.858398 80.872559 L 36.858398 83.719238 L 38.045410 83.719238 Q 38.824219 83.719238 39.205566 83.370117 Q 39.586914 83.020996 39.586914 82.301270 Q 39.586914 81.608398 39.181396 81.240479 Q 38.775879 80.872559 38.002441 80.872559 Z " fill="rgb(0, 0, 0)" fill-opacity="1.000000" />
<path d="M 45.308594 93.937012 L 44.164551 98.040527 L 46.452637 98.040527 Z M 44.653320 92.980957 L 45.969238 92.980957 L 48.423828 101.000000 L 47.301270 101.000000 L 46.710449 98.910645 L 43.901367 98.910645 L 43.321289 101.000000 L 42.198730 101.000000 Z " fill="rgb(0, 0, 0)" fill-opacity="1.000000" />
<path d="M 108.985352 105.594238 L 108.985352 116.594238 L 108.061523 116.594238 L 108.061523 105.594238 Z " fill="rgb(0, 0, 0)" fill-opacity="1.000000" />
<path d="M 108.985352 118.594238 L 108.985352 129.594238 L 108.061523 129.594238 L 108.061523 118.594238 Z " fill="rgb(0, 0, 0)" fill-opacity="1.000000" />
<path d="M 108.985352 131.594238 L 108.985352 142.594238 L 108.061523 142.594238 L 108.061523 131.594238 Z " fill="rgb(0, 0, 0)" fill-opacity="1.000000" />
<path d="M 108.985352 144.594238 L 108.985352 155.594238 L 108.061523 155.594238 L 108.061523 144.594238 Z " fill="rgb(0, 0, 0)" fill-opacity="1.000000" />
<path d="M 108.985352 157.594238 L 108.985352 168.594238 L 108.061523 168.594238 L 108.061523 157.594238 Z " fill="rgb(0, 0, 0)" fill-opacity="1.000000" />
<path d="M 125.149902 134.838379 L 120.584473 136.557129 L 125.149902 138.259766 L 125.149902 139.242676 L 119.472656 136.997559 L 119.472656 136.105957 L 125.149902 133.860840 Z " fill="rgb(0, 0, 0)" fill-opacity="1.000000" />
<path d="M 158.082031 149.213379 Q 158.500977 149.320801 158.796387 149.618896 Q 159.091797 149.916992 159.532227 150.808594 L 160.622559 153.000000 L 159.457031 153.000000 L 158.500977 150.975098 Q 158.087402 150.110352 157.757080 149.860596 Q 157.426758 149.610840 156.895020 149.610840 L 155.858398 149.610840 L 155.858398 153.000000 L 154.768066 153.000000 L 154.768066 144.980957 L 157.002441 144.980957 Q 158.323730 144.980957 159.027344 145.577148 Q 159.730957 146.173340 159.730957 147.301270 Q 159.730957 148.096191 159.298584 148.598389 Q 158.866211 149.100586 158.082031 149.213379 Z M 155.858398 145.872559 L 155.858398 148.719238 L 157.045410 148.719238 Q 157.824219 148.719238 158.205566 148.370117 Q 158.586914 148.020996 158.586914 147.301270 Q 158.586914 146.608398 158.181396 146.240479 Q 157.775879 145.872559 157.002441 145.872559 Z " fill="rgb(0, 0, 0)" fill-opacity="1.000000" />
<path d="M 255.985352 157.594238 L 255.985352 168.594238 L 255.061523 168.594238 L 255.061523 157.594238 Z " fill="rgb(0, 0, 0)" fill-opacity="1.000000" />
<path d="M 360.985352 157.594238 L 360.985352 168.594238 L 360.061523 168.594238 L 360.061523 157.594238 Z " fill="rgb(0, 0, 0)" fill-opacity="1.000000" />
<path d="M 167.015625 149.498047 L 167.015625 149.981445 L 162.734863 149.981445 L 162.734863 150.013672 Q 162.691895 151.243652 163.204834 151.780762 Q 163.717773 152.317871 164.652344 152.317871 Q 165.125000 152.317871 165.640625 152.167480 Q 166.156250 152.017090 166.741699 151.710938 L 166.741699 152.693848 Q 166.177734 152.924805 165.654053 153.040283 Q 165.130371 153.155762 164.641602 153.155762 Q 163.239746 153.155762 162.450195 152.315186 Q 161.660645 151.474609 161.660645 149.997559 Q 161.660645 148.558105 162.434082 147.698730 Q 163.207520 146.839355 164.496582 146.839355 Q 165.645996 146.839355 166.309326 147.618164 Q 166.972656 148.396973 167.015625 149.498047 Z M 166.027344 149.208008 Q 165.962891 148.584961 165.573486 148.131104 Q 165.184082 147.677246 164.453613 147.677246 Q 163.739258 147.677246 163.277344 148.149902 Q 162.815430 148.622559 162.772461 149.213379 Z " fill="rgb(0, 0, 0)" fill-opacity="1.000000" />
<path d="M 173.226074 147.193848 L 173.226074 148.160645 Q 172.801758 147.913574 172.372070 147.790039 Q 171.942383 147.666504 171.496582 147.666504 Q 170.825195 147.666504 170.494873 147.884033 Q 170.164551 148.101562 170.164551 148.547363 Q 170.164551 148.950195 170.411621 149.148926 Q 170.658691 149.347656 171.641602 149.535645 L 172.039062 149.610840 Q 172.774902 149.750488 173.153564 150.169434 Q 173.532227 150.588379 173.532227 151.259766 Q 173.532227 152.151367 172.898438 152.653564 Q 172.264648 153.155762 171.136719 153.155762 Q 170.690918 153.155762 170.202148 153.061768 Q 169.713379 152.967773 169.144043 152.779785 L 169.144043 151.759277 Q 169.697266 152.043945 170.202148 152.186279 Q 170.707031 152.328613 171.158203 152.328613 Q 171.813477 152.328613 172.173340 152.062744 Q 172.533203 151.796875 172.533203 151.318848 Q 172.533203 150.631348 171.217285 150.368164 L 171.174316 150.357422 L 170.803711 150.282227 Q 169.949707 150.115723 169.557617 149.720947 Q 169.165527 149.326172 169.165527 148.644043 Q 169.165527 147.779297 169.750977 147.309326 Q 170.336426 146.839355 171.421387 146.839355 Q 171.904785 146.839355 172.350586 146.927979 Q 172.796387 147.016602 173.226074 147.193848 Z " fill="rgb(0, 0, 0)" fill-opacity="1.000000" />
<path d="M 177.014160 152.242676 L 177.014160 155.288086 L 176.020508 155.288086 L 176.020508 146.984375 L 177.014160 146.984375 L 177.014160 147.752441 Q 177.261230 147.306641 177.672119 147.072998 Q 178.083008 146.839355 178.620117 146.839355 Q 179.710449 146.839355 180.330811 147.682617 Q 180.951172 148.525879 180.951172 150.019043 Q 180.951172 151.485352 180.328125 152.320557 Q 179.705078 153.155762 178.620117 153.155762 Q 178.072266 153.155762 177.661377 152.922119 Q 177.250488 152.688477 177.014160 152.242676 Z M 179.914551 149.997559 Q 179.914551 148.848145 179.552002 148.262695 Q 179.189453 147.677246 178.475098 147.677246 Q 177.755371 147.677246 177.384766 148.265381 Q 177.014160 148.853516 177.014160 149.997559 Q 177.014160 151.136230 177.384766 151.727051 Q 177.755371 152.317871 178.475098 152.317871 Q 179.189453 152.317871 179.552002 151.732422 Q 179.914551 151.146973 179.914551 149.997559 Z " fill="rgb(0, 0, 0)" fill-opacity="1.000000" />
<path d="M 185.308594 147.677246 Q 184.556641 147.677246 184.169922 148.262695 Q 183.783203 148.848145 183.783203 149.997559 Q 183.783203 151.141602 184.169922 151.729736 Q 184.556641 152.317871 185.308594 152.317871 Q 186.065918 152.317871 186.452637 151.729736 Q 186.839355 151.141602 186.839355 149.997559 Q 186.839355 148.848145 186.452637 148.262695 Q 186.065918 147.677246 185.308594 147.677246 Z M 185.308594 146.839355 Q 186.560059 146.839355 187.223389 147.650391 Q 187.886719 148.461426 187.886719 149.997559 Q 187.886719 151.539062 187.226074 152.347412 Q 186.565430 153.155762 185.308594 153.155762 Q 184.057129 153.155762 183.396484 152.347412 Q 182.735840 151.539062 182.735840 149.997559 Q 182.735840 148.461426 183.396484 147.650391 Q 184.057129 146.839355 185.308594 146.839355 Z " fill="rgb(0, 0, 0)" fill-opacity="1.000000" />
<path d="M 194.645020 149.272461 L 194.645020 153.000000 L 193.651367 153.000000 L 193.651367 149.272461 Q 193.651367 148.461426 193.366699 148.080078 Q 193.082031 147.698730 192.475098 147.698730 Q 191.782227 147.698730 191.408936 148.190186 Q 191.035645 148.681641 191.035645 149.600098 L 191.035645 153.000000 L 190.047363 153.000000 L 190.047363 146.984375 L 191.035645 146.984375 L 191.035645 147.886719 Q 191.298828 147.371094 191.750000 147.105225 Q 192.201172 146.839355 192.818848 146.839355 Q 193.737305 146.839355 194.191162 147.443604 Q 194.645020 148.047852 194.645020 149.272461 Z " fill="rgb(0, 0, 0)" fill-opacity="1.000000" />
<path d="M 201.226074 147.193848 L 201.226074 148.160645 Q 200.801758 147.913574 200.372070 147.790039 Q 199.942383 147.666504 199.496582 147.666504 Q 198.825195 147.666504 198.494873 147.884033 Q 198.164551 148.101562 198.164551 148.547363 Q 198.164551 148.950195 198.411621 149.148926 Q 198.658691 149.347656 199.641602 149.535645 L 200.039062 149.610840 Q 200.774902 149.750488 201.153564 150.169434 Q 201.532227 150.588379 201.532227 151.259766 Q 201.532227 152.151367 200.898438 152.653564 Q 200.264648 153.155762 199.136719 153.155762 Q 198.690918 153.155762 198.202148 153.061768 Q 197.713379 152.967773 197.144043 152.779785 L 197.144043 151.759277 Q 197.697266 152.043945 198.202148 152.186279 Q 198.707031 152.328613 199.158203 152.328613 Q 199.813477 152.328613 200.173340 152.062744 Q 200.533203 151.796875 200.533203 151.318848 Q 200.533203 150.631348 199.217285 150.368164 L 199.174316 150.357422 L 198.803711 150.282227 Q 197.949707 150.115723 197.557617 149.720947 Q 197.165527 149.326172 197.165527 148.644043 Q 197.165527 147.779297 197.750977 147.309326 Q 198.336426 146.839355 199.421387 146.839355 Q 199.904785 146.839355 200.350586 146.927979 Q 200.796387 147.016602 201.226074 147.193848 Z " fill="rgb(0, 0, 0)" fill-opacity="1.000000" />
<path d="M 209.015625 149.498047 L 209.015625 149.981445 L 204.734863 149.981445 L 204.734863 150.013672 Q 204.691895 151.243652 205.204834 151.780762 Q 205.717773 152.317871 206.652344 152.317871 Q 207.125000 152.317871 207.640625 152.167480 Q 208.156250 152.017090 208.741699 151.710938 L 208.741699 152.693848 Q 208.177734 152.924805 207.654053 153.040283 Q 207.130371 153.155762 206.641602 153.155762 Q 205.239746 153.155762 204.450195 152.315186 Q 203.660645 151.474609 203.660645 149.997559 Q 203.660645 148.558105 204.434082 147.698730 Q 205.207520 146.839355 206.496582 146.839355 Q 207.645996 146.839355 208.309326 147.618164 Q 208.972656 148.396973 209.015625 149.498047 Z M 208.027344 149.208008 Q 207.962891 148.584961 207.573486 148.131104 Q 207.184082 147.677246 206.453613 147.677246 Q 205.739258 147.677246 205.277344 148.149902 Q 204.815430 148.622559 204.772461 149.213379 Z " fill="rgb(0, 0, 0)" fill-opacity="1.000000" />
<path d="M 255.985352 144.594238 L 255.985352 155.594238 L 255.061523 155.594238 L 255.061523 144.594238 Z " fill="rgb(0, 0, 0)" fill-opacity="1.000000" />
<path d="M 360.985352 144.594238 L 360.985352 155.594238 L 360.061523 155.594238 L 360.061523 144.594238 Z " fill="rgb(0, 0, 0)" fill-opacity="1.000000" />
<path d="M 126.547852 136.111328 L 132.241211 136.111328 L 132.241211 137.019043 L 126.547852 137.019043 Z " fill="rgb(0, 0, 0)" fill-opacity="1.000000" />
<path d="M 133.547852 136.111328 L 139.241211 136.111328 L 139.241211 137.019043 L 133.547852 137.019043 Z " fill="rgb(0, 0, 0)" fill-opacity="1.000000" />
<path d="M 140.547852 136.111328 L 146.241211 136.111328 L 146.241211 137.019043 L 140.547852 137.019043 Z " fill="rgb(0, 0, 0)" fill-opacity="1.000000" />
<path d="M 147.547852 136.111328 L 153.241211 136.111328 L 153.241211 137.019043 L 147.547852 137.019043 Z " fill="rgb(0, 0, 0)" fill-opacity="1.000000" />
<path d="M 154.547852 136.111328 L 160.241211 136.111328 L 160.241211 137.019043 L 154.547852 137.019043 Z " fill="rgb(0, 0, 0)" fill-opacity="1.000000" />
<path d="M 161.547852 136.111328 L 167.241211 136.111328 L 167.241211 137.019043 L 161.547852 137.019043 Z " fill="rgb(0, 0, 0)" fill-opacity="1.000000" />
<path d="M 168.547852 136.111328 L 174.241211 136.111328 L 174.241211 137.019043 L 168.547852 137.019043 Z " fill="rgb(0, 0, 0)" fill-opacity="1.000000" />
<path d="M 175.547852 136.111328 L 181.241211 136.111328 L 181.241211 137.019043 L 175.547852 137.019043 Z " fill="rgb(0, 0, 0)" fill-opacity="1.000000" />
<path d="M 182.547852 136.111328 L 188.241211 136.111328 L 188.241211 137.019043 L 182.547852 137.019043 Z " fill="rgb(0, 0, 0)" fill-opacity="1.000000" />
<path d="M 189.547852 136.111328 L 195.241211 136.111328 L 195.241211 137.019043 L 189.547852 137.019043 Z " fill="rgb(0, 0, 0)" fill-opacity="1.000000" />
<path d="M 196.547852 136.111328 L 202.241211 136.111328 L 202.241211 137.019043 L 196.547852 137.019043 Z " fill="rgb(0, 0, 0)" fill-opacity="1.000000" />
<path d="M 203.547852 136.111328 L 209.241211 136.111328 L 209.241211 137.019043 L 203.547852 137.019043 Z " fill="rgb(0, 0, 0)" fill-opacity="1.000000" />
<path d="M 210.547852 136.111328 L 216.241211 136.111328 L 216.241211 137.019043 L 210.547852 137.019043 Z " fill="rgb(0, 0, 0)" fill-opacity="1.000000" />
<path d="M 217.547852 136.111328 L 223.241211 136.111328 L 223.241211 137.019043 L 217.547852 137.019043 Z " fill="rgb(0, 0, 0)" fill-opacity="1.000000" />
<path d="M 224.547852 136.111328 L 230.241211 136.111328 L 230.241211 137.019043 L 224.547852 137.019043 Z " fill="rgb(0, 0, 0)" fill-opacity="1.000000" />
<path d="M 231.547852 136.111328 L 237.241211 136.111328 L 237.241211 137.019043 L 231.547852 137.019043 Z " fill="rgb(0, 0, 0)" fill-opacity="1.000000" />
<path d="M 238.547852 136.111328 L 244.241211 136.111328 L 244.241211 137.019043 L 238.547852 137.019043 Z " fill="rgb(0, 0, 0)" fill-opacity="1.000000" />
<path d="M 255.985352 131.594238 L 255.985352 142.594238 L 255.061523 142.594238 L 255.061523 131.594238 Z " fill="rgb(0, 0, 0)" fill-opacity="1.000000" />
<path d="M 360.985352 131.594238 L 360.985352 142.594238 L 360.061523 142.594238 L 360.061523 131.594238 Z " fill="rgb(0, 0, 0)" fill-opacity="1.000000" />
<path d="M 255.985352 105.594238 L 255.985352 116.594238 L 255.061523 116.594238 L 255.061523 105.594238 Z " fill="rgb(0, 0, 0)" fill-opacity="1.000000" />
<path d="M 255.985352 118.594238 L 255.985352 129.594238 L 255.061523 129.594238 L 255.061523 118.594238 Z " fill="rgb(0, 0, 0)" fill-opacity="1.000000" />
<path d="M 360.985352 105.594238 L 360.985352 116.594238 L 360.061523 116.594238 L 360.061523 105.594238 Z " fill="rgb(0, 0, 0)" fill-opacity="1.000000" />
<path d="M 360.985352 118.594238 L 360.985352 129.594238 L 360.061523 129.594238 L 360.061523 118.594238 Z " fill="rgb(0, 0, 0)" fill-opacity="1.000000" />
<path d="M 51.014160 100.242676 L 51.014160 103.288086 L 50.020508 103.288086 L 50.020508 94.984375 L 51.014160 94.984375 L 51.014160 95.752441 Q 51.261230 95.306641 51.672119 95.072998 Q 52.083008 94.839355 52.620117 94.839355 Q 53.710449 94.839355 54.330811 95.682617 Q 54.951172 96.525879 54.951172 98.019043 Q 54.951172 99.485352 54.328125 100.320557 Q 53.705078 101.155762 52.620117 101.155762 Q 52.072266 101.155762 51.661377 100.922119 Q 51.250488 100.688477 51.014160 100.242676 Z M 53.914551 97.997559 Q 53.914551 96.848145 53.552002 96.262695 Q 53.189453 95.677246 52.475098 95.677246 Q 51.755371 95.677246 51.384766 96.265381 Q 51.014160 96.853516 51.014160 97.997559 Q 51.014160 99.136230 51.384766 99.727051 Q 51.755371 100.317871 52.475098 100.317871 Q 53.189453 100.317871 53.552002 99.732422 Q 53.914551 99.146973 53.914551 97.997559 Z " fill="rgb(0, 0, 0)" fill-opacity="1.000000" />
<path d="M 58.014160 100.242676 L 58.014160 103.288086 L 57.020508 103.288086 L 57.020508 94.984375 L 58.014160 94.984375 L 58.014160 95.752441 Q 58.261230 95.306641 58.672119 95.072998 Q 59.083008 94.839355 59.620117 94.839355 Q 60.710449 94.839355 61.330811 95.682617 Q 61.951172 96.525879 61.951172 98.019043 Q 61.951172 99.485352 61.328125 100.320557 Q 60.705078 101.155762 59.620117 101.155762 Q 59.072266 101.155762 58.661377 100.922119 Q 58.250488 100.688477 58.014160 100.242676 Z M 60.914551 97.997559 Q 60.914551 96.848145 60.552002 96.262695 Q 60.189453 95.677246 59.475098 95.677246 Q 58.755371 95.677246 58.384766 96.265381 Q 58.014160 96.853516 58.014160 97.997559 Q 58.014160 99.136230 58.384766 99.727051 Q 58.755371 100.317871 59.475098 100.317871 Q 60.189453 100.317871 60.552002 99.732422 Q 60.914551 99.146973 60.914551 97.997559 Z " fill="rgb(0, 0, 0)" fill-opacity="1.000000" />
<path d="M 108.985352 92.594238 L 108.985352 103.594238 L 108.061523 103.594238 L 108.061523 92.594238 Z " fill="rgb(0, 0, 0)" fill-opacity="1.000000" />
<path d="M 255.985352 92.594238 L 255.985352 103.594238 L 255.061523 103.594238 L 255.061523 92.594238 Z " fill="rgb(0, 0, 0)" fill-opacity="1.000000" />
<path d="M 292.435547 93.254883 L 292.435547 94.355957 Q 291.941406 94.039062 291.444580 93.877930 Q 290.947754 93.716797 290.442871 93.716797 Q 289.674805 93.716797 289.229004 94.073975 Q 288.783203 94.431152 288.783203 95.038086 Q 288.783203 95.569824 289.075928 95.849121 Q 289.368652 96.128418 290.168945 96.316406 L 290.738281 96.445312 Q 291.866211 96.708496 292.381836 97.272461 Q 292.897461 97.836426 292.897461 98.808594 Q 292.897461 99.952637 292.188477 100.554199 Q 291.479492 101.155762 290.125977 101.155762 Q 289.562012 101.155762 288.992676 101.034912 Q 288.423340 100.914062 287.848633 100.672363 L 287.848633 99.517578 Q 288.466309 99.909668 289.016846 100.092285 Q 289.567383 100.274902 290.125977 100.274902 Q 290.947754 100.274902 291.404297 99.906982 Q 291.860840 99.539062 291.860840 98.878418 Q 291.860840 98.276855 291.546631 97.959961 Q 291.232422 97.643066 290.453613 97.471191 L 289.873535 97.336914 Q 288.756348 97.084473 288.251465 96.574219 Q 287.746582 96.063965 287.746582 95.204590 Q 287.746582 94.130371 288.468994 93.483154 Q 289.191406 92.835938 290.389160 92.835938 Q 290.851074 92.835938 291.361328 92.940674 Q 291.871582 93.045410 292.435547 93.254883 Z " fill="rgb(0, 0, 0)" fill-opacity="1.000000" />
<path d="M 300.015625 97.498047 L 300.015625 97.981445 L 295.734863 97.981445 L 295.734863 98.013672 Q 295.691895 99.243652 296.204834 99.780762 Q 296.717773 100.317871 297.652344 100.317871 Q 298.125000 100.317871 298.640625 100.167480 Q 299.156250 100.017090 299.741699 99.710938 L 299.741699 100.693848 Q 299.177734 100.924805 298.654053 101.040283 Q 298.130371 101.155762 297.641602 101.155762 Q 296.239746 101.155762 295.450195 100.315186 Q 294.660645 99.474609 294.660645 97.997559 Q 294.660645 96.558105 295.434082 95.698730 Q 296.207520 94.839355 297.496582 94.839355 Q 298.645996 94.839355 299.309326 95.618164 Q 299.972656 96.396973 300.015625 97.498047 Z M 299.027344 97.208008 Q 298.962891 96.584961 298.573486 96.131104 Q 298.184082 95.677246 297.453613 95.677246 Q 296.739258 95.677246 296.277344 96.149902 Q 295.815430 96.622559 295.772461 97.213379 Z " fill="rgb(0, 0, 0)" fill-opacity="1.000000" />
<path d="M 307.203613 96.225098 Q 306.886719 95.978027 306.559082 95.865234 Q 306.231445 95.752441 305.839355 95.752441 Q 304.915527 95.752441 304.426758 96.332520 Q 303.937988 96.912598 303.937988 98.008301 L 303.937988 101.000000 L 302.944336 101.000000 L 302.944336 94.984375 L 303.937988 94.984375 L 303.937988 96.160645 Q 304.185059 95.521484 304.697998 95.180420 Q 305.210938 94.839355 305.914551 94.839355 Q 306.279785 94.839355 306.596680 94.930664 Q 306.913574 95.021973 307.203613 95.215332 Z " fill="rgb(0, 0, 0)" fill-opacity="1.000000" />
<path d="M 308.537109 94.984375 L 309.562988 94.984375 L 311.308594 100.033203 L 313.059570 94.984375 L 314.085449 94.984375 L 311.947754 101.000000 L 310.674805 101.000000 Z " fill="rgb(0, 0, 0)" fill-opacity="1.000000" />
<path d="M 321.015625 97.498047 L 321.015625 97.981445 L 316.734863 97.981445 L 316.734863 98.013672 Q 316.691895 99.243652 317.204834 99.780762 Q 317.717773 100.317871 318.652344 100.317871 Q 319.125000 100.317871 319.640625 100.167480 Q 320.156250 100.017090 320.741699 99.710938 L 320.741699 100.693848 Q 320.177734 100.924805 319.654053 101.040283 Q 319.130371 101.155762 318.641602 101.155762 Q 317.239746 101.155762 316.450195 100.315186 Q 315.660645 99.474609 315.660645 97.997559 Q 315.660645 96.558105 316.434082 95.698730 Q 317.207520 94.839355 318.496582 94.839355 Q 319.645996 94.839355 320.309326 95.618164 Q 320.972656 96.396973 321.015625 97.498047 Z M 320.027344 97.208008 Q 319.962891 96.584961 319.573486 96.131104 Q 319.184082 95.677246 318.453613 95.677246 Q 317.739258 95.677246 317.277344 96.149902 Q 316.815430 96.622559 316.772461 97.213379 Z " fill="rgb(0, 0, 0)" fill-opacity="1.000000" />
<path d="M 328.203613 96.225098 Q 327.886719 95.978027 327.559082 95.865234 Q 327.231445 95.752441 326.839355 95.752441 Q 325.915527 95.752441 325.426758 96.332520 Q 324.937988 96.912598 324.937988 98.008301 L 324.937988 101.000000 L 323.944336 101.000000 L 323.944336 94.984375 L 324.937988 94.984375 L 324.937988 96.160645 Q 325.185059 95.521484 325.697998 95.180420 Q 326.210938 94.839355 326.914551 94.839355 Q 327.279785 94.839355 327.596680 94.930664 Q 327.913574 95.021973 328.203613 95.215332 Z " fill="rgb(0, 0, 0)" fill-opacity="1.000000" />
<path d="M 360.985352 92.594238 L 360.985352 103.594238 L 360.061523 103.594238 L 360.061523 92.594238 Z " fill="rgb(0, 0, 0)" fill-opacity="1.000000" />
<path d="M 48.015625 84.498047 L 48.015625 84.981445 L 43.734863 84.981445 L 43.734863 85.013672 Q 43.691895 86.243652 44.204834 86.780762 Q 44.717773 87.317871 45.652344 87.317871 Q 46.125000 87.317871 46.640625 87.167480 Q 47.156250 87.017090 47.741699 86.710938 L 47.741699 87.693848 Q 47.177734 87.924805 46.654053 88.040283 Q 46.130371 88.155762 45.641602 88.155762 Q 44.239746 88.155762 43.450195 87.315186 Q 42.660645 86.474609 42.660645 84.997559 Q 42.660645 83.558105 43.434082 82.698730 Q 44.207520 81.839355 45.496582 81.839355 Q 46.645996 81.839355 47.309326 82.618164 Q 47.972656 83.396973 48.015625 84.498047 Z M 47.027344 84.208008 Q 46.962891 83.584961 46.573486 83.131104 Q 46.184082 82.677246 45.453613 82.677246 Q 44.739258 82.677246 44.277344 83.149902 Q 43.815430 83.622559 43.772461 84.213379 Z " fill="rgb(0, 0, 0)" fill-opacity="1.000000" />
<path d="M 52.861816 85.824707 Q 52.861816 86.490723 53.106201 86.829102 Q 53.350586 87.167480 53.828613 87.167480 L 54.983398 87.167480 L 54.983398 88.000000 L 53.731934 88.000000 Q 52.845703 88.000000 52.359619 87.433350 Q 51.873535 86.866699 51.873535 85.824707 L 51.873535 80.383789 L 50.289062 80.383789 L 50.289062 79.610352 L 52.861816 79.610352 Z " fill="rgb(0, 0, 0)" fill-opacity="1.000000" />
<path d="M 59.770508 84.976074 L 59.442871 84.976074 Q 58.578125 84.976074 58.140381 85.279541 Q 57.702637 85.583008 57.702637 86.184570 Q 57.702637 86.727051 58.030273 87.027832 Q 58.357910 87.328613 58.937988 87.328613 Q 59.754395 87.328613 60.221680 86.761963 Q 60.688965 86.195312 60.694336 85.196289 L 60.694336 84.976074 Z M 61.687988 84.567871 L 61.687988 88.000000 L 60.694336 88.000000 L 60.694336 87.108398 Q 60.377441 87.645508 59.896729 87.900635 Q 59.416016 88.155762 58.728516 88.155762 Q 57.810059 88.155762 57.262207 87.637451 Q 56.714355 87.119141 56.714355 86.249023 Q 56.714355 85.244629 57.388428 84.723633 Q 58.062500 84.202637 59.367676 84.202637 L 60.694336 84.202637 L 60.694336 84.046875 Q 60.688965 83.327148 60.329102 83.002197 Q 59.969238 82.677246 59.179688 82.677246 Q 58.674805 82.677246 58.159180 82.822266 Q 57.643555 82.967285 57.154785 83.246582 L 57.154785 82.258301 Q 57.702637 82.048828 58.204834 81.944092 Q 58.707031 81.839355 59.179688 81.839355 Q 59.926270 81.839355 60.455322 82.059570 Q 60.984375 82.279785 61.312012 82.720215 Q 61.516113 82.988770 61.602051 83.383545 Q 61.687988 83.778320 61.687988 84.567871 Z " fill="rgb(0, 0, 0)" fill-opacity="1.000000" />
<path d="M 67.608398 86.066406 Q 67.361328 86.694824 66.979980 87.720703 Q 66.448242 89.138672 66.265625 89.450195 Q 66.018555 89.869141 65.647949 90.078613 Q 65.277344 90.288086 64.783203 90.288086 L 63.988281 90.288086 L 63.988281 89.460938 L 64.573730 89.460938 Q 65.008789 89.460938 65.255859 89.208496 Q 65.502930 88.956055 65.884277 87.903320 L 63.558594 81.984375 L 64.605957 81.984375 L 66.389160 86.689453 L 68.145508 81.984375 L 69.192871 81.984375 Z " fill="rgb(0, 0, 0)" fill-opacity="1.000000" />
<path d="M 108.985352 79.594238 L 108.985352 90.594238 L 108.061523 90.594238 L 108.061523 79.594238 Z " fill="rgb(0, 0, 0)" fill-opacity="1.000000" />
<path d="M 255.985352 79.594238 L 255.985352 90.594238 L 255.061523 90.594238 L 255.061523 79.594238 Z " fill="rgb(0, 0, 0)" fill-opacity="1.000000" />
<path d="M 285.929688 87.339355 Q 285.494629 87.742188 284.949463 87.948975 Q 284.404297 88.155762 283.770508 88.155762 Q 282.245117 88.155762 281.396484 87.062744 Q 280.547852 85.969727 280.547852 83.998535 Q 280.547852 82.032715 281.407227 80.934326 Q 282.266602 79.835938 283.797363 79.835938 Q 284.302246 79.835938 284.764160 79.978271 Q 285.226074 80.120605 285.655762 80.410645 L 285.655762 81.522461 Q 285.220703 81.108887 284.764160 80.912842 Q 284.307617 80.716797 283.797363 80.716797 Q 282.739258 80.716797 282.210205 81.535889 Q 281.681152 82.354980 281.681152 83.998535 Q 281.681152 85.668945 282.194092 86.471924 Q 282.707031 87.274902 283.770508 87.274902 Q 284.130371 87.274902 284.401611 87.191650 Q 284.672852 87.108398 284.893066 86.931152 L 284.893066 84.777344 L 283.727539 84.777344 L 283.727539 83.885742 L 285.929688 83.885742 Z " fill="rgb(0, 0, 0)" fill-opacity="1.000000" />
<path d="M 293.203613 83.225098 Q 292.886719 82.978027 292.559082 82.865234 Q 292.231445 82.752441 291.839355 82.752441 Q 290.915527 82.752441 290.426758 83.332520 Q 289.937988 83.912598 289.937988 85.008301 L 289.937988 88.000000 L 288.944336 88.000000 L 288.944336 81.984375 L 289.937988 81.984375 L 289.937988 83.160645 Q 290.185059 82.521484 290.697998 82.180420 Q 291.210938 81.839355 291.914551 81.839355 Q 292.279785 81.839355 292.596680 81.930664 Q 292.913574 82.021973 293.203613 82.215332 Z " fill="rgb(0, 0, 0)" fill-opacity="1.000000" />
<path d="M 297.770508 84.976074 L 297.442871 84.976074 Q 296.578125 84.976074 296.140381 85.279541 Q 295.702637 85.583008 295.702637 86.184570 Q 295.702637 86.727051 296.030273 87.027832 Q 296.357910 87.328613 296.937988 87.328613 Q 297.754395 87.328613 298.221680 86.761963 Q 298.688965 86.195312 298.694336 85.196289 L 298.694336 84.976074 Z M 299.687988 84.567871 L 299.687988 88.000000 L 298.694336 88.000000 L 298.694336 87.108398 Q 298.377441 87.645508 297.896729 87.900635 Q 297.416016 88.155762 296.728516 88.155762 Q 295.810059 88.155762 295.262207 87.637451 Q 294.714355 87.119141 294.714355 86.249023 Q 294.714355 85.244629 295.388428 84.723633 Q 296.062500 84.202637 297.367676 84.202637 L 298.694336 84.202637 L 298.694336 84.046875 Q 298.688965 83.327148 298.329102 83.002197 Q 297.969238 82.677246 297.179688 82.677246 Q 296.674805 82.677246 296.159180 82.822266 Q 295.643555 82.967285 295.154785 83.246582 L 295.154785 82.258301 Q 295.702637 82.048828 296.204834 81.944092 Q 296.707031 81.839355 297.179688 81.839355 Q 297.926270 81.839355 298.455322 82.059570 Q 298.984375 82.279785 299.312012 82.720215 Q 299.516113 82.988770 299.602051 83.383545 Q 299.687988 83.778320 299.687988 84.567871 Z " fill="rgb(0, 0, 0)" fill-opacity="1.000000" />
<path d="M 303.014160 87.242676 L 303.014160 90.288086 L 302.020508 90.288086 L 302.020508 81.984375 L 303.014160 81.984375 L 303.014160 82.752441 Q 303.261230 82.306641 303.672119 82.072998 Q 304.083008 81.839355 304.620117 81.839355 Q 305.710449 81.839355 306.330811 82.682617 Q 306.951172 83.525879 306.951172 85.019043 Q 306.951172 86.485352 306.328125 87.320557 Q 305.705078 88.155762 304.620117 88.155762 Q 304.072266 88.155762 303.661377 87.922119 Q 303.250488 87.688477 303.014160 87.242676 Z M 305.914551 84.997559 Q 305.914551 83.848145 305.552002 83.262695 Q 305.189453 82.677246 304.475098 82.677246 Q 303.755371 82.677246 303.384766 83.265381 Q 303.014160 83.853516 303.014160 84.997559 Q 303.014160 86.136230 303.384766 86.727051 Q 303.755371 87.317871 304.475098 87.317871 Q 305.189453 87.317871 305.552002 86.732422 Q 305.914551 86.146973 305.914551 84.997559 Z " fill="rgb(0, 0, 0)" fill-opacity="1.000000" />
<path d="M 313.645020 84.272461 L 313.645020 88.000000 L 312.651367 88.000000 L 312.651367 84.272461 Q 312.651367 83.461426 312.366699 83.080078 Q 312.082031 82.698730 311.475098 82.698730 Q 310.782227 82.698730 310.408936 83.190186 Q 310.035645 83.681641 310.035645 84.600098 L 310.035645 88.000000 L 309.047363 88.000000 L 309.047363 79.642578 L 310.035645 79.642578 L 310.035645 82.886719 Q 310.298828 82.371094 310.750000 82.105225 Q 311.201172 81.839355 311.818848 81.839355 Q 312.737305 81.839355 313.191162 82.443604 Q 313.645020 83.047852 313.645020 84.272461 Z " fill="rgb(0, 0, 0)" fill-opacity="1.000000" />
<path d="M 318.518066 88.145020 Q 318.480469 88.145020 318.410645 88.150391 Q 318.340820 88.155762 318.297852 88.155762 Q 316.955078 88.155762 316.291748 87.124512 Q 315.628418 86.093262 315.628418 83.998535 Q 315.628418 81.898438 316.291748 80.867188 Q 316.955078 79.835938 318.308594 79.835938 Q 319.667480 79.835938 320.330811 80.867188 Q 320.994141 81.898438 320.994141 83.998535 Q 320.994141 85.577637 320.626221 86.541748 Q 320.258301 87.505859 319.511719 87.892578 L 320.585938 88.913086 L 319.774902 89.450195 Z M 319.860840 83.998535 Q 319.860840 82.231445 319.498291 81.474121 Q 319.135742 80.716797 318.308594 80.716797 Q 317.486816 80.716797 317.124268 81.474121 Q 316.761719 82.231445 316.761719 83.998535 Q 316.761719 85.760254 317.124268 86.517578 Q 317.486816 87.274902 318.308594 87.274902 Q 319.135742 87.274902 319.498291 86.520264 Q 319.860840 85.765625 319.860840 83.998535 Z " fill="rgb(0, 0, 0)" fill-opacity="1.000000" />
<path d="M 323.154785 79.980957 L 324.245117 79.980957 L 324.245117 87.086914 L 328.117676 87.086914 L 328.117676 88.000000 L 323.154785 88.000000 Z " fill="rgb(0, 0, 0)" fill-opacity="1.000000" />
<path d="M 360.985352 79.594238 L 360.985352 90.594238 L 360.061523 90.594238 L 360.061523 79.594238 Z " fill="rgb(0, 0, 0)" fill-opacity="1.000000" />
<path d="M 108.985352 14.594238 L 108.985352 25.594238 L 108.061523 25.594238 L 108.061523 14.594238 Z " fill="rgb(0, 0, 0)" fill-opacity="1.000000" />
<path d="M 108.985352 27.594238 L 108.985352 38.594238 L 108.061523 38.594238 L 108.061523 27.594238 Z " fill="rgb(0, 0, 0)" fill-opacity="1.000000" />
<path d="M 108.985352 40.594238 L 108.985352 51.594238 L 108.061523 51.594238 L 108.061523 40.594238 Z " fill="rgb(0, 0, 0)" fill-opacity="1.000000" />
<path d="M 108.985352 53.594238 L 108.985352 64.594238 L 108.061523 64.594238 L 108.061523 53.594238 Z " fill="rgb(0, 0, 0)" fill-opacity="1.000000" />
<path d="M 108.985352 66.594238 L 108.985352 77.594238 L 108.061523 77.594238 L 108.061523 66.594238 Z " fill="rgb(0, 0, 0)" fill-opacity="1.000000" />
<path d="M 119.547852 32.111328 L 125.241211 32.111328 L 125.241211 33.019043 L 119.547852 33.019043 Z " fill="rgb(0, 0, 0)" fill-opacity="1.000000" />
<path d="M 126.547852 32.111328 L 132.241211 32.111328 L 132.241211 33.019043 L 126.547852 33.019043 Z " fill="rgb(0, 0, 0)" fill-opacity="1.000000" />
<path d="M 133.547852 32.111328 L 139.241211 32.111328 L 139.241211 33.019043 L 133.547852 33.019043 Z " fill="rgb(0, 0, 0)" fill-opacity="1.000000" />
<path d="M 140.547852 32.111328 L 146.241211 32.111328 L 146.241211 33.019043 L 140.547852 33.019043 Z " fill="rgb(0, 0, 0)" fill-opacity="1.000000" />
<path d="M 147.547852 32.111328 L 153.241211 32.111328 L 153.241211 33.019043 L 147.547852 33.019043 Z " fill="rgb(0, 0, 0)" fill-opacity="1.000000" />
<path d="M 154.547852 32.111328 L 160.241211 32.111328 L 160.241211 33.019043 L 154.547852 33.019043 Z " fill="rgb(0, 0, 0)" fill-opacity="1.000000" />
<path d="M 161.547852 32.111328 L 167.241211 32.111328 L 167.241211 33.019043 L 161.547852 33.019043 Z " fill="rgb(0, 0, 0)" fill-opacity="1.000000" />
<path d="M 168.547852 32.111328 L 174.241211 32.111328 L 174.241211 33.019043 L 168.547852 33.019043 Z " fill="rgb(0, 0, 0)" fill-opacity="1.000000" />
<path d="M 175.547852 32.111328 L 181.241211 32.111328 L 181.241211 33.019043 L 175.547852 33.019043 Z " fill="rgb(0, 0, 0)" fill-opacity="1.000000" />
<path d="M 182.547852 32.111328 L 188.241211 32.111328 L 188.241211 33.019043 L 182.547852 33.019043 Z " fill="rgb(0, 0, 0)" fill-opacity="1.000000" />
<path d="M 189.547852 32.111328 L 195.241211 32.111328 L 195.241211 33.019043 L 189.547852 33.019043 Z " fill="rgb(0, 0, 0)" fill-opacity="1.000000" />
<path d="M 196.547852 32.111328 L 202.241211 32.111328 L 202.241211 33.019043 L 196.547852 33.019043 Z " fill="rgb(0, 0, 0)" fill-opacity="1.000000" />
<path d="M 203.547852 32.111328 L 209.241211 32.111328 L 209.241211 33.019043 L 203.547852 33.019043 Z " fill="rgb(0, 0, 0)" fill-opacity="1.000000" />
<path d="M 210.547852 32.111328 L 216.241211 32.111328 L 216.241211 33.019043 L 210.547852 33.019043 Z " fill="rgb(0, 0, 0)" fill-opacity="1.000000" />
<path d="M 217.547852 32.111328 L 223.241211 32.111328 L 223.241211 33.019043 L 217.547852 33.019043 Z " fill="rgb(0, 0, 0)" fill-opacity="1.000000" />
<path d="M 224.547852 32.111328 L 230.241211 32.111328 L 230.241211 33.019043 L 224.547852 33.019043 Z " fill="rgb(0, 0, 0)" fill-opacity="1.000000" />
<path d="M 158.082031 45.213379 Q 158.500977 45.320801 158.796387 45.618896 Q 159.091797 45.916992 159.532227 46.808594 L 160.622559 49.000000 L 159.457031 49.000000 L 158.500977 46.975098 Q 158.087402 46.110352 157.757080 45.860596 Q 157.426758 45.610840 156.895020 45.610840 L 155.858398 45.610840 L 155.858398 49.000000 L 154.768066 49.000000 L 154.768066 40.980957 L 157.002441 40.980957 Q 158.323730 40.980957 159.027344 41.577148 Q 159.730957 42.173340 159.730957 43.301270 Q 159.730957 44.096191 159.298584 44.598389 Q 158.866211 45.100586 158.082031 45.213379 Z M 155.858398 41.872559 L 155.858398 44.719238 L 157.045410 44.719238 Q 157.824219 44.719238 158.205566 44.370117 Q 158.586914 44.020996 158.586914 43.301270 Q 158.586914 42.608398 158.181396 42.240479 Q 157.775879 41.872559 157.002441 41.872559 Z " fill="rgb(0, 0, 0)" fill-opacity="1.000000" />
<path d="M 255.985352 53.594238 L 255.985352 64.594238 L 255.061523 64.594238 L 255.061523 53.594238 Z " fill="rgb(0, 0, 0)" fill-opacity="1.000000" />
<path d="M 255.985352 66.594238 L 255.985352 77.594238 L 255.061523 77.594238 L 255.061523 66.594238 Z " fill="rgb(0, 0, 0)" fill-opacity="1.000000" />
<path d="M 360.985352 53.594238 L 360.985352 64.594238 L 360.061523 64.594238 L 360.061523 53.594238 Z " fill="rgb(0, 0, 0)" fill-opacity="1.000000" />
<path d="M 360.985352 66.594238 L 360.985352 77.594238 L 360.061523 77.594238 L 360.061523 66.594238 Z " fill="rgb(0, 0, 0)" fill-opacity="1.000000" />
<path d="M 167.015625 45.498047 L 167.015625 45.981445 L 162.734863 45.981445 L 162.734863 46.013672 Q 162.691895 47.243652 163.204834 47.780762 Q 163.717773 48.317871 164.652344 48.317871 Q 165.125000 48.317871 165.640625 48.167480 Q 166.156250 48.017090 166.741699 47.710938 L 166.741699 48.693848 Q 166.177734 48.924805 165.654053 49.040283 Q 165.130371 49.155762 164.641602 49.155762 Q 163.239746 49.155762 162.450195 48.315186 Q 161.660645 47.474609 161.660645 45.997559 Q 161.660645 44.558105 162.434082 43.698730 Q 163.207520 42.839355 164.496582 42.839355 Q 165.645996 42.839355 166.309326 43.618164 Q 166.972656 44.396973 167.015625 45.498047 Z M 166.027344 45.208008 Q 165.962891 44.584961 165.573486 44.131104 Q 165.184082 43.677246 164.453613 43.677246 Q 163.739258 43.677246 163.277344 44.149902 Q 162.815430 44.622559 162.772461 45.213379 Z " fill="rgb(0, 0, 0)" fill-opacity="1.000000" />
<path d="M 169.783203 46.019043 Q 169.783203 47.168457 170.145752 47.753906 Q 170.508301 48.339355 171.222656 48.339355 Q 171.937012 48.339355 172.304932 47.751221 Q 172.672852 47.163086 172.672852 46.019043 Q 172.672852 44.875000 172.304932 44.286865 Q 171.937012 43.698730 171.222656 43.698730 Q 170.508301 43.698730 170.145752 44.284180 Q 169.783203 44.869629 169.783203 46.019043 Z M 172.672852 48.253418 Q 172.431152 48.699219 172.020264 48.938232 Q 171.609375 49.177246 171.066895 49.177246 Q 169.987305 49.177246 169.361572 48.342041 Q 168.735840 47.506836 168.735840 46.040527 Q 168.735840 44.547363 169.358887 43.704102 Q 169.981934 42.860840 171.066895 42.860840 Q 171.604004 42.860840 172.014893 43.094482 Q 172.425781 43.328125 172.672852 43.773926 L 172.672852 43.005859 L 173.666504 43.005859 L 173.666504 51.309570 L 172.672852 51.309570 Z " fill="rgb(0, 0, 0)" fill-opacity="1.000000" />
<path d="M 176.047363 46.722656 L 176.047363 42.995117 L 177.035645 42.995117 L 177.035645 46.722656 Q 177.035645 47.533691 177.322998 47.915039 Q 177.610352 48.296387 178.211914 48.296387 Q 178.910156 48.296387 179.280762 47.804932 Q 179.651367 47.313477 179.651367 46.395020 L 179.651367 42.995117 L 180.645020 42.995117 L 180.645020 49.000000 L 179.651367 49.000000 L 179.651367 48.097656 Q 179.388184 48.618652 178.934326 48.887207 Q 178.480469 49.155762 177.873535 49.155762 Q 176.949707 49.155762 176.498535 48.551514 Q 176.047363 47.947266 176.047363 46.722656 Z " fill="rgb(0, 0, 0)" fill-opacity="1.000000" />
<path d="M 188.015625 45.498047 L 188.015625 45.981445 L 183.734863 45.981445 L 183.734863 46.013672 Q 183.691895 47.243652 184.204834 47.780762 Q 184.717773 48.317871 185.652344 48.317871 Q 186.125000 48.317871 186.640625 48.167480 Q 187.156250 48.017090 187.741699 47.710938 L 187.741699 48.693848 Q 187.177734 48.924805 186.654053 49.040283 Q 186.130371 49.155762 185.641602 49.155762 Q 184.239746 49.155762 183.450195 48.315186 Q 182.660645 47.474609 182.660645 45.997559 Q 182.660645 44.558105 183.434082 43.698730 Q 184.207520 42.839355 185.496582 42.839355 Q 186.645996 42.839355 187.309326 43.618164 Q 187.972656 44.396973 188.015625 45.498047 Z M 187.027344 45.208008 Q 186.962891 44.584961 186.573486 44.131104 Q 186.184082 43.677246 185.453613 43.677246 Q 184.739258 43.677246 184.277344 44.149902 Q 183.815430 44.622559 183.772461 45.213379 Z " fill="rgb(0, 0, 0)" fill-opacity="1.000000" />
<path d="M 194.226074 43.193848 L 194.226074 44.160645 Q 193.801758 43.913574 193.372070 43.790039 Q 192.942383 43.666504 192.496582 43.666504 Q 191.825195 43.666504 191.494873 43.884033 Q 191.164551 44.101562 191.164551 44.547363 Q 191.164551 44.950195 191.411621 45.148926 Q 191.658691 45.347656 192.641602 45.535645 L 193.039062 45.610840 Q 193.774902 45.750488 194.153564 46.169434 Q 194.532227 46.588379 194.532227 47.259766 Q 194.532227 48.151367 193.898438 48.653564 Q 193.264648 49.155762 192.136719 49.155762 Q 191.690918 49.155762 191.202148 49.061768 Q 190.713379 48.967773 190.144043 48.779785 L 190.144043 47.759277 Q 190.697266 48.043945 191.202148 48.186279 Q 191.707031 48.328613 192.158203 48.328613 Q 192.813477 48.328613 193.173340 48.062744 Q 193.533203 47.796875 193.533203 47.318848 Q 193.533203 46.631348 192.217285 46.368164 L 192.174316 46.357422 L 191.803711 46.282227 Q 190.949707 46.115723 190.557617 45.720947 Q 190.165527 45.326172 190.165527 44.644043 Q 190.165527 43.779297 190.750977 43.309326 Q 191.336426 42.839355 192.421387 42.839355 Q 192.904785 42.839355 193.350586 42.927979 Q 193.796387 43.016602 194.226074 43.193848 Z " fill="rgb(0, 0, 0)" fill-opacity="1.000000" />
<path d="M 199.297852 41.276367 L 199.297852 42.984375 L 201.542969 42.984375 L 201.542969 43.752441 L 199.297852 43.752441 L 199.297852 47.018066 Q 199.297852 47.684082 199.550293 47.947266 Q 199.802734 48.210449 200.431152 48.210449 L 201.542969 48.210449 L 201.542969 49.000000 L 200.334473 49.000000 Q 199.222656 49.000000 198.766113 48.554199 Q 198.309570 48.108398 198.309570 47.018066 L 198.309570 43.752441 L 196.703613 43.752441 L 196.703613 42.984375 L 198.309570 42.984375 L 198.309570 41.276367 Z " fill="rgb(0, 0, 0)" fill-opacity="1.000000" />
<path d="M 255.985352 40.594238 L 255.985352 51.594238 L 255.061523 51.594238 L 255.061523 40.594238 Z " fill="rgb(0, 0, 0)" fill-opacity="1.000000" />
<path d="M 360.985352 40.594238 L 360.985352 51.594238 L 360.061523 51.594238 L 360.061523 40.594238 Z " fill="rgb(0, 0, 0)" fill-opacity="1.000000" />
<path d="M 231.472656 30.838379 L 231.472656 29.860840 L 237.149902 32.105957 L 237.149902 32.997559 L 231.472656 35.242676 L 231.472656 34.259766 L 236.038086 32.557129 Z " fill="rgb(0, 0, 0)" fill-opacity="1.000000" />
<path d="M 255.985352 27.594238 L 255.985352 38.594238 L 255.061523 38.594238 L 255.061523 27.594238 Z " fill="rgb(0, 0, 0)" fill-opacity="1.000000" />
<path d="M 360.985352 27.594238 L 360.985352 38.594238 L 360.061523 38.594238 L 360.061523 27.594238 Z " fill="rgb(0, 0, 0)" fill-opacity="1.000000" />
<path d="M 255.985352 14.594238 L 255.985352 25.594238 L 255.061523 25.594238 L 255.061523 14.594238 Z " fill="rgb(0, 0, 0)" fill-opacity="1.000000" />
<path d="M 360.985352 14.594238 L 360.985352 25.594238 L 360.061523 25.594238 L 360.061523 14.594238 Z " fill="rgb(0, 0, 0)" fill-opacity="1.000000" />
<path d="M 7.547852 6.111328 L 13.241211 6.111328 L 13.241211 7.019043 L 7.547852 7.019043 Z " fill="rgb(0, 0, 0)" fill-opacity="1.000000" />
<path d="M 14.547852 6.111328 L 20.241211 6.111328 L 20.241211 7.019043 L 14.547852 7.019043 Z " fill="rgb(0, 0, 0)" fill-opacity="1.000000" />
<path d="M 21.547852 6.111328 L 27.241211 6.111328 L 27.241211 7.019043 L 21.547852 7.019043 Z " fill="rgb(0, 0, 0)" fill-opacity="1.000000" />
<path d="M 28.547852 6.111328 L 34.241211 6.111328 L 34.241211 7.019043 L 28.547852 7.019043 Z " fill="rgb(0, 0, 0)" fill-opacity="1.000000" />
<path d="M 35.547852 6.111328 L 41.241211 6.111328 L 41.241211 7.019043 L 35.547852 7.019043 Z " fill="rgb(0, 0, 0)" fill-opacity="1.000000" />
<path d="M 42.547852 6.111328 L 48.241211 6.111328 L 48.241211 7.019043 L 42.547852 7.019043 Z " fill="rgb(0, 0, 0)" fill-opacity="1.000000" />
<path d="M 49.547852 6.111328 L 55.241211 6.111328 L 55.241211 7.019043 L 49.547852 7.019043 Z " fill="rgb(0, 0, 0)" fill-opacity="1.000000" />
<path d="M 56.547852 6.111328 L 62.241211 6.111328 L 62.241211 7.019043 L 56.547852 7.019043 Z " fill="rgb(0, 0, 0)" fill-opacity="1.000000" />
<path d="M 63.547852 6.111328 L 69.241211 6.111328 L 69.241211 7.019043 L 63.547852 7.019043 Z " fill="rgb(0, 0, 0)" fill-opacity="1.000000" />
<path d="M 70.547852 6.111328 L 76.241211 6.111328 L 76.241211 7.019043 L 70.547852 7.019043 Z " fill="rgb(0, 0, 0)" fill-opacity="1.000000" />
<path d="M 77.547852 6.111328 L 83.241211 6.111328 L 83.241211 7.019043 L 77.547852 7.019043 Z " fill="rgb(0, 0, 0)" fill-opacity="1.000000" />
<path d="M 84.547852 6.111328 L 90.241211 6.111328 L 90.241211 7.019043 L 84.547852 7.019043 Z " fill="rgb(0, 0, 0)" fill-opacity="1.000000" />
<path d="M 91.547852 6.111328 L 97.241211 6.111328 L 97.241211 7.019043 L 91.547852 7.019043 Z " fill="rgb(0, 0, 0)" fill-opacity="1.000000" />
<path d="M 98.547852 6.111328 L 104.241211 6.111328 L 104.241211 7.019043 L 98.547852 7.019043 Z " fill="rgb(0, 0, 0)" fill-opacity="1.000000" />
<path d="M 108.867188 3.672852 L 108.867188 6.052246 L 111.257324 6.052246 L 111.257324 6.959961 L 108.867188 6.959961 L 108.867188 9.339355 L 107.964844 9.339355 L 107.964844 6.959961 L 105.580078 6.959961 L 105.580078 6.052246 L 107.964844 6.052246 L 107.964844 3.672852 Z " fill="rgb(0, 0, 0)" fill-opacity="1.000000" />
<path d="M 255.867188 3.672852 L 255.867188 6.052246 L 258.257324 6.052246 L 258.257324 6.959961 L 255.867188 6.959961 L 255.867188 9.339355 L 254.964844 9.339355 L 254.964844 6.959961 L 252.580078 6.959961 L 252.580078 6.052246 L 254.964844 6.052246 L 254.964844 3.672852 Z " fill="rgb(0, 0, 0)" fill-opacity="1.000000" />
<path d="M 259.547852 6.111328 L 265.241211 6.111328 L 265.241211 7.019043 L 259.547852 7.019043 Z " fill="rgb(0, 0, 0)" fill-opacity="1.000000" />
<path d="M 266.547852 6.111328 L 272.241211 6.111328 L 272.241211 7.019043 L 266.547852 7.019043 Z " fill="rgb(0, 0, 0)" fill-opacity="1.000000" />
<path d="M 273.547852 6.111328 L 279.241211 6.111328 L 279.241211 7.019043 L 273.547852 7.019043 Z " fill="rgb(0, 0, 0)" fill-opacity="1.000000" />
<path d="M 280.547852 6.111328 L 286.241211 6.111328 L 286.241211 7.019043 L 280.547852 7.019043 Z " fill="rgb(0, 0, 0)" fill-opacity="1.000000" />
<path d="M 287.547852 6.111328 L 293.241211 6.111328 L 293.241211 7.019043 L 287.547852 7.019043 Z " fill="rgb(0, 0, 0)" fill-opacity="1.000000" />
<path d="M 294.547852 6.111328 L 300.241211 6.111328 L 300.241211 7.019043 L 294.547852 7.019043 Z " fill="rgb(0, 0, 0)" fill-opacity="1.000000" />
<path d="M 301.547852 6.111328 L 307.241211 6.111328 L 307.241211 7.019043 L 301.547852 7.019043 Z " fill="rgb(0, 0, 0)" fill-opacity="1.000000" />
<path d="M 308.547852 6.111328 L 314.241211 6.111328 L 314.241211 7.019043 L 308.547852 7.019043 Z " fill="rgb(0, 0, 0)" fill-opacity="1.000000" />
<path d="M 315.547852 6.111328 L 321.241211 6.111328 L 321.241211 7.019043 L 315.547852 7.019043 Z " fill="rgb(0, 0, 0)" fill-opacity="1.000000" />
<path d="M 322.547852 6.111328 L 328.241211 6.111328 L 328.241211 7.019043 L 322.547852 7.019043 Z " fill="rgb(0, 0, 0)" fill-opacity="1.000000" />
<path d="M 329.547852 6.111328 L 335.241211 6.111328 L 335.241211 7.019043 L 329.547852 7.019043 Z " fill="rgb(0, 0, 0)" fill-opacity="1.000000" />
<path d="M 336.547852 6.111328 L 342.241211 6.111328 L 342.241211 7.019043 L 336.547852 7.019043 Z " fill="rgb(0, 0, 0)" fill-opacity="1.000000" />
<path d="M 343.547852 6.111328 L 349.241211 6.111328 L 349.241211 7.019043 L 343.547852 7.019043 Z " fill="rgb(0, 0, 0)" fill-opacity="1.000000" />
<path d="M 350.547852 6.111328 L 356.241211 6.111328 L 356.241211 7.019043 L 350.547852 7.019043 Z " fill="rgb(0, 0, 0)" fill-opacity="1.000000" />
<path d="M 360.867188 3.672852 L 360.867188 6.052246 L 363.257324 6.052246 L 363.257324 6.959961 L 360.867188 6.959961 L 360.867188 9.339355 L 359.964844 9.339355 L 359.964844 6.959961 L 357.580078 6.959961 L 357.580078 6.052246 L 359.964844 6.052246 L 359.964844 3.672852 Z " fill="rgb(0, 0, 0)" fill-opacity="1.000000" />
</svg>