<svg xmlns="http://www.w3.org/2000/svg" version="1.1" width="351" height="144">
<path d="M 4.082031 6.213379 Q 4.500977 6.320801 4.796387 6.618896 Q 5.091797 6.916992 5.532227 7.808594 L 6.622559 10.000000 L 5.457031 10.000000 L 4.500977 7.975098 Q 4.087402 7.110352 3.757080 6.860596 Q 3.426758 6.610840 2.895020 6.610840 L 1.858398 6.610840 L 1.858398 10.000000 L 0.768066 10.000000 L 0.768066 1.980957 L 3.002441 1.980957 Q 4.323730 1.980957 5.027344 2.577148 Q 5.730957 3.173340 5.730957 4.301270 Q 5.730957 5.096191 5.298584 5.598389 Q 4.866211 6.100586 4.082031 6.213379 Z M 1.858398 2.872559 L 1.858398 5.719238 L 3.045410 5.719238 Q 3.824219 5.719238 4.205566 5.370117 Q 4.586914 5.020996 4.586914 4.301270 Q 4.586914 3.608398 4.181396 3.240479 Q 3.775879 2.872559 3.002441 2.872559 Z " fill="rgb(0, 0, 0)" fill-opacity="1.000000" />
<path d="M 3.867188 16.672852 L 3.867188 19.052246 L 6.257324 19.052246 L 6.257324 19.959961 L 3.867188 19.959961 L 3.867188 22.339355 L 2.964844 22.339355 L 2.964844 19.959961 L 0.580078 19.959961 L 0.580078 19.052246 L 2.964844 19.052246 L 2.964844 16.672852 Z " fill="rgb(0, 0, 0)" fill-opacity="1.000000" />
<path d="M 3.985352 27.594238 L 3.985352 38.594238 L 3.061523 38.594238 L 3.061523 27.594238 Z " fill="rgb(0, 0, 0)" fill-opacity="1.000000" />
<path d="M 3.867188 42.672852 L 3.867188 45.052246 L 6.257324 45.052246 L 6.257324 45.959961 L 3.867188 45.959961 L 3.867188 48.339355 L 2.964844 48.339355 L 2.964844 45.959961 L 0.580078 45.959961 L 0.580078 45.052246 L 2.964844 45.052246 L 2.964844 42.672852 Z " fill="rgb(0, 0, 0)" fill-opacity="1.000000" />
<path d="M 4.082031 97.213379 Q 4.500977 97.320801 4.796387 97.618896 Q 5.091797 97.916992 5.532227 98.808594 L 6.622559 101.000000 L 5.457031 101.000000 L 4.500977 98.975098 Q 4.087402 98.110352 3.757080 97.860596 Q 3.426758 97.610840 2.895020 97.610840 L 1.858398 97.610840 L 1.858398 101.000000 L 0.768066 101.000000 L 0.768066 92.980957 L 3.002441 92.980957 Q 4.323730 92.980957 5.027344 93.577148 Q 5.730957 94.173340 5.730957 95.301270 Q 5.730957 96.096191 5.298584 96.598389 Q 4.866211 97.100586 4.082031 97.213379 Z M 1.858398 93.872559 L 1.858398 96.719238 L 3.045410 96.719238 Q 3.824219 96.719238 4.205566 96.370117 Q 4.586914 96.020996 4.586914 95.301270 Q 4.586914 94.608398 4.181396 94.240479 Q 3.775879 93.872559 3.002441 93.872559 Z " fill="rgb(0, 0, 0)" fill-opacity="1.000000" />
<path d="M 3.867188 107.672852 L 3.867188 110.052246 L 6.257324 110.052246 L 6.257324 110.959961 L 3.867188 110.959961 L 3.867188 113.339355 L 2.964844 113.339355 L 2.964844 110.959961 L 0.580078 110.959961 L 0.580078 110.052246 L 2.964844 110.052246 L 2.964844 107.672852 Z " fill="rgb(0, 0, 0)" fill-opacity="1.000000" />
<path d="M 3.985352 118.594238 L 3.985352 129.594238 L 3.061523 129.594238 L 3.061523 118.594238 Z " fill="rgb(0, 0, 0)" fill-opacity="1.000000" />
<path d="M 3.867188 133.672852 L 3.867188 136.052246 L 6.257324 136.052246 L 6.257324 136.959961 L 3.867188 136.959961 L 3.867188 139.339355 L 2.964844 139.339355 L 2.964844 136.959961 L 0.580078 136.959961 L 0.580078 136.052246 L 2.964844 136.052246 L 2.964844 133.672852 Z " fill="rgb(0, 0, 0)" fill-opacity="1.000000" />
<path d="M 7.547852 136.111328 L 13.241211 136.111328 L 13.241211 137.019043 L 7.547852 137.019043 Z " fill="rgb(0, 0, 0)" fill-opacity="1.000000" />
<path d="M 14.547852 136.111328 L 20.241211 136.111328 L 20.241211 137.019043 L 14.547852 137.019043 Z " fill="rgb(0, 0, 0)" fill-opacity="1.000000" />
<path d="M 21.547852 136.111328 L 27.241211 136.111328 L 27.241211 137.019043 L 21.547852 137.019043 Z " fill="rgb(0, 0, 0)" fill-opacity="1.000000" />
<path d="M 28.547852 136.111328 L 34.241211 136.111328 L 34.241211 137.019043 L 28.547852 137.019043 Z " fill="rgb(0, 0, 0)" fill-opacity="1.000000" />
<path d="M 35.547852 136.111328 L 41.241211 136.111328 L 41.241211 137.019043 L 35.547852 137.019043 Z " fill="rgb(0, 0, 0)" fill-opacity="1.000000" />
<path d="M 42.472656 134.838379 L 42.472656 133.860840 L 48.149902 136.105957 L 48.149902 136.997559 L 42.472656 139.242676 L 42.472656 138.259766 L 47.038086 136.557129 Z " fill="rgb(0, 0, 0)" fill-opacity="1.000000" />
<path d="M 49.547852 136.111328 L 55.241211 136.111328 L 55.241211 137.019043 L 49.547852 137.019043 Z " fill="rgb(0, 0, 0)" fill-opacity="1.000000" />
<path d="M 56.547852 136.111328 L 62.241211 136.111328 L 62.241211 137.019043 L 56.547852 137.019043 Z " fill="rgb(0, 0, 0)" fill-opacity="1.000000" />
<path d="M 63.547852 136.111328 L 69.241211 136.111328 L 69.241211 137.019043 L 63.547852 137.019043 Z " fill="rgb(0, 0, 0)" fill-opacity="1.000000" />
<path d="M 70.547852 136.111328 L 76.241211 136.111328 L 76.241211 137.019043 L 70.547852 137.019043 Z " fill="rgb(0, 0, 0)" fill-opacity="1.000000" />
<path d="M 77.547852 136.111328 L 83.241211 136.111328 L 83.241211 137.019043 L 77.547852 137.019043 Z " fill="rgb(0, 0, 0)" fill-opacity="1.000000" />
<path d="M 84.547852 136.111328 L 90.241211 136.111328 L 90.241211 137.019043 L 84.547852 137.019043 Z " fill="rgb(0, 0, 0)" fill-opacity="1.000000" />
<path d="M 91.547852 136.111328 L 97.241211 136.111328 L 97.241211 137.019043 L 91.547852 137.019043 Z " fill="rgb(0, 0, 0)" fill-opacity="1.000000" />
<path d="M 98.547852 136.111328 L 104.241211 136.111328 L 104.241211 137.019043 L 98.547852 137.019043 Z " fill="rgb(0, 0, 0)" fill-opacity="1.000000" />
<path d="M 105.547852 136.111328 L 111.241211 136.111328 L 111.241211 137.019043 L 105.547852 137.019043 Z " fill="rgb(0, 0, 0)" fill-opacity="1.000000" />
<path d="M 112.472656 134.838379 L 112.472656 133.860840 L 118.149902 136.105957 L 118.149902 136.997559 L 112.472656 139.242676 L 112.472656 138.259766 L 117.038086 136.557129 Z " fill="rgb(0, 0, 0)" fill-opacity="1.000000" />
<path d="M 119.547852 136.111328 L 125.241211 136.111328 L 125.241211 137.019043 L 119.547852 137.019043 Z " fill="rgb(0, 0, 0)" fill-opacity="1.000000" />
<path d="M 126.547852 136.111328 L 132.241211 136.111328 L 132.241211 137.019043 L 126.547852 137.019043 Z " fill="rgb(0, 0, 0)" fill-opacity="1.000000" />
<path d="M 133.547852 136.111328 L 139.241211 136.111328 L 139.241211 137.019043 L 133.547852 137.019043 Z " fill="rgb(0, 0, 0)" fill-opacity="1.000000" />
<path d="M 140.547852 136.111328 L 146.241211 136.111328 L 146.241211 137.019043 L 140.547852 137.019043 Z " fill="rgb(0, 0, 0)" fill-opacity="1.000000" />
<path d="M 147.547852 136.111328 L 153.241211 136.111328 L 153.241211 137.019043 L 147.547852 137.019043 Z " fill="rgb(0, 0, 0)" fill-opacity="1.000000" />
<path d="M 154.547852 136.111328 L 160.241211 136.111328 L 160.241211 137.019043 L 154.547852 137.019043 Z " fill="rgb(0, 0, 0)" fill-opacity="1.000000" />
<path d="M 161.472656 134.838379 L 161.472656 133.860840 L 167.149902 136.105957 L 167.149902 136.997559 L 161.472656 139.242676 L 161.472656 138.259766 L 166.038086 136.557129 Z " fill="rgb(0, 0, 0)" fill-opacity="1.000000" />
<path d="M 168.547852 136.111328 L 174.241211 136.111328 L 174.241211 137.019043 L 168.547852 137.019043 Z " fill="rgb(0, 0, 0)" fill-opacity="1.000000" />
<path d="M 175.547852 136.111328 L 181.241211 136.111328 L 181.241211 137.019043 L 175.547852 137.019043 Z " fill="rgb(0, 0, 0)" fill-opacity="1.000000" />
<path d="M 182.547852 136.111328 L 188.241211 136.111328 L 188.241211 137.019043 L 182.547852 137.019043 Z " fill="rgb(0, 0, 0)" fill-opacity="1.000000" />
<path d="M 189.547852 136.111328 L 195.241211 136.111328 L 195.241211 137.019043 L 189.547852 137.019043 Z " fill="rgb(0, 0, 0)" fill-opacity="1.000000" />
<path d="M 196.547852 136.111328 L 202.241211 136.111328 L 202.241211 137.019043 L 196.547852 137.019043 Z " fill="rgb(0, 0, 0)" fill-opacity="1.000000" />
<path d="M 203.547852 136.111328 L 209.241211 136.111328 L 209.241211 137.019043 L 203.547852 137.019043 Z " fill="rgb(0, 0, 0)" fill-opacity="1.000000" />
<path d="M 213.867188 133.672852 L 213.867188 136.052246 L 216.257324 136.052246 L 216.257324 136.959961 L 213.867188 136.959961 L 213.867188 139.339355 L 212.964844 139.339355 L 212.964844 136.959961 L 210.580078 136.959961 L 210.580078 136.052246 L 212.964844 136.052246 L 212.964844 133.672852 Z " fill="rgb(0, 0, 0)" fill-opacity="1.000000" />
<path d="M 8.251465 118.980957 L 12.972656 118.980957 L 12.972656 119.894043 L 9.341797 119.894043 L 9.341797 122.042480 L 12.634277 122.042480 L 12.634277 122.955566 L 9.341797 122.955566 L 9.341797 127.000000 L 8.251465 127.000000 Z " fill="rgb(0, 0, 0)" fill-opacity="1.000000" />
<path d="M 20.015625 123.498047 L 20.015625 123.981445 L 15.734863 123.981445 L 15.734863 124.013672 Q 15.691895 125.243652 16.204834 125.780762 Q 16.717773 126.317871 17.652344 126.317871 Q 18.125000 126.317871 18.640625 126.167480 Q 19.156250 126.017090 19.741699 125.710938 L 19.741699 126.693848 Q 19.177734 126.924805 18.654053 127.040283 Q 18.130371 127.155762 17.641602 127.155762 Q 16.239746 127.155762 15.450195 126.315186 Q 14.660645 125.474609 14.660645 123.997559 Q 14.660645 122.558105 15.434082 121.698730 Q 16.207520 120.839355 17.496582 120.839355 Q 18.645996 120.839355 19.309326 121.618164 Q 19.972656 122.396973 20.015625 123.498047 Z M 19.027344 123.208008 Q 18.962891 122.584961 18.573486 122.131104 Q 18.184082 121.677246 17.453613 121.677246 Q 16.739258 121.677246 16.277344 122.149902 Q 15.815430 122.622559 15.772461 123.213379 Z " fill="rgb(0, 0, 0)" fill-opacity="1.000000" />
<path d="M 24.297852 119.276367 L 24.297852 120.984375 L 26.542969 120.984375 L 26.542969 121.752441 L 24.297852 121.752441 L 24.297852 125.018066 Q 24.297852 125.684082 24.550293 125.947266 Q 24.802734 126.210449 25.431152 126.210449 L 26.542969 126.210449 L 26.542969 127.000000 L 25.334473 127.000000 Q 24.222656 127.000000 23.766113 126.554199 Q 23.309570 126.108398 23.309570 125.018066 L 23.309570 121.752441 L 21.703613 121.752441 L 21.703613 120.984375 L 23.309570 120.984375 L 23.309570 119.276367 Z " fill="rgb(0, 0, 0)" fill-opacity="1.000000" />
<path d="M 33.698730 126.693848 Q 33.301270 126.924805 32.879639 127.040283 Q 32.458008 127.155762 32.017578 127.155762 Q 30.621094 127.155762 29.834229 126.317871 Q 29.047363 125.479980 29.047363 123.997559 Q 29.047363 122.515137 29.834229 121.677246 Q 30.621094 120.839355 32.017578 120.839355 Q 32.452637 120.839355 32.866211 120.952148 Q 33.279785 121.064941 33.698730 121.301270 L 33.698730 122.337891 Q 33.306641 121.988770 32.911865 121.833008 Q 32.517090 121.677246 32.017578 121.677246 Q 31.088379 121.677246 30.588867 122.278809 Q 30.089355 122.880371 30.089355 123.997559 Q 30.089355 125.109375 30.591553 125.713623 Q 31.093750 126.317871 32.017578 126.317871 Q 32.533203 126.317871 32.941406 126.159424 Q 33.349609 126.000977 33.698730 125.667969 Z " fill="rgb(0, 0, 0)" fill-opacity="1.000000" />
<path d="M 40.645020 123.272461 L 40.645020 127.000000 L 39.651367 127.000000 L 39.651367 123.272461 Q 39.651367 122.461426 39.366699 122.080078 Q 39.082031 121.698730 38.475098 121.698730 Q 37.782227 121.698730 37.408936 122.190186 Q 37.035645 122.681641 37.035645 123.600098 L 37.035645 127.000000 L 36.047363 127.000000 L 36.047363 118.642578 L 37.035645 118.642578 L 37.035645 121.886719 Q 37.298828 121.371094 37.750000 121.105225 Q 38.201172 120.839355 38.818848 120.839355 Q 39.737305 120.839355 40.191162 121.443604 Q 40.645020 122.047852 40.645020 123.272461 Z " fill="rgb(0, 0, 0)" fill-opacity="1.000000" />
<path d="M 45.985352 118.594238 L 45.985352 129.594238 L 45.061523 129.594238 L 45.061523 118.594238 Z " fill="rgb(0, 0, 0)" fill-opacity="1.000000" />
<path d="M 49.102051 119.007812 L 50.584473 119.007812 L 53.721191 125.587402 L 53.721191 119.007812 L 54.875977 119.007812 L 54.875977 127.000000 L 53.393555 127.000000 L 50.256836 120.420410 L 50.256836 127.000000 L 49.102051 127.000000 Z " fill="rgb(0, 0, 0)" fill-opacity="1.000000" />
<path d="M 59.308594 121.677246 Q 58.556641 121.677246 58.169922 122.262695 Q 57.783203 122.848145 57.783203 123.997559 Q 57.783203 125.141602 58.169922 125.729736 Q 58.556641 126.317871 59.308594 126.317871 Q 60.065918 126.317871 60.452637 125.729736 Q 60.839355 125.141602 60.839355 123.997559 Q 60.839355 122.848145 60.452637 122.262695 Q 60.065918 121.677246 59.308594 121.677246 Z M 59.308594 120.839355 Q 60.560059 120.839355 61.223389 121.650391 Q 61.886719 122.461426 61.886719 123.997559 Q 61.886719 125.539062 61.226074 126.347412 Q 60.565430 127.155762 59.308594 127.155762 Q 58.057129 127.155762 57.396484 126.347412 Q 56.735840 125.539062 56.735840 123.997559 Q 56.735840 122.461426 57.396484 121.650391 Q 58.057129 120.839355 59.308594 120.839355 Z " fill="rgb(0, 0, 0)" fill-opacity="1.000000" />
<path d="M 69.203613 122.225098 Q 68.886719 121.978027 68.559082 121.865234 Q 68.231445 121.752441 67.839355 121.752441 Q 66.915527 121.752441 66.426758 122.332520 Q 65.937988 122.912598 65.937988 124.008301 L 65.937988 127.000000 L 64.944336 127.000000 L 64.944336 120.984375 L 65.937988 120.984375 L 65.937988 122.160645 Q 66.185059 121.521484 66.697998 121.180420 Q 67.210938 120.839355 67.914551 120.839355 Q 68.279785 120.839355 68.596680 120.930664 Q 68.913574 121.021973 69.203613 121.215332 Z " fill="rgb(0, 0, 0)" fill-opacity="1.000000" />
<path d="M 73.630859 121.596680 Q 73.813477 121.209961 74.095459 121.024658 Q 74.377441 120.839355 74.774902 120.839355 Q 75.500000 120.839355 75.798096 121.400635 Q 76.096191 121.961914 76.096191 123.514160 L 76.096191 127.000000 L 75.193848 127.000000 L 75.193848 123.557129 Q 75.193848 122.284180 75.051514 121.975342 Q 74.909180 121.666504 74.533203 121.666504 Q 74.103516 121.666504 73.945068 121.996826 Q 73.786621 122.327148 73.786621 123.557129 L 73.786621 127.000000 L 72.884277 127.000000 L 72.884277 123.557129 Q 72.884277 122.268066 72.731201 121.967285 Q 72.578125 121.666504 72.180664 121.666504 Q 71.788574 121.666504 71.635498 121.996826 Q 71.482422 122.327148 71.482422 123.557129 L 71.482422 127.000000 L 70.585449 127.000000 L 70.585449 120.984375 L 71.482422 120.984375 L 71.482422 121.500000 Q 71.659668 121.177734 71.925537 121.008545 Q 72.191406 120.839355 72.529785 120.839355 Q 72.937988 120.839355 73.209229 121.027344 Q 73.480469 121.215332 73.630859 121.596680 Z " fill="rgb(0, 0, 0)" fill-opacity="1.000000" />
<path d="M 80.770508 123.976074 L 80.442871 123.976074 Q 79.578125 123.976074 79.140381 124.279541 Q 78.702637 124.583008 78.702637 125.184570 Q 78.702637 125.727051 79.030273 126.027832 Q 79.357910 126.328613 79.937988 126.328613 Q 80.754395 126.328613 81.221680 125.761963 Q 81.688965 125.195312 81.694336 124.196289 L 81.694336 123.976074 Z M 82.687988 123.567871 L 82.687988 127.000000 L 81.694336 127.000000 L 81.694336 126.108398 Q 81.377441 126.645508 80.896729 126.900635 Q 80.416016 127.155762 79.728516 127.155762 Q 78.810059 127.155762 78.262207 126.637451 Q 77.714355 126.119141 77.714355 125.249023 Q 77.714355 124.244629 78.388428 123.723633 Q 79.062500 123.202637 80.367676 123.202637 L 81.694336 123.202637 L 81.694336 123.046875 Q 81.688965 122.327148 81.329102 122.002197 Q 80.969238 121.677246 80.179688 121.677246 Q 79.674805 121.677246 79.159180 121.822266 Q 78.643555 121.967285 78.154785 122.246582 L 78.154785 121.258301 Q 78.702637 121.048828 79.204834 120.944092 Q 79.707031 120.839355 80.179688 120.839355 Q 80.926270 120.839355 81.455322 121.059570 Q 81.984375 121.279785 82.312012 121.720215 Q 82.516113 121.988770 82.602051 122.383545 Q 82.687988 122.778320 82.687988 123.567871 Z " fill="rgb(0, 0, 0)" fill-opacity="1.000000" />
<path d="M 87.861816 124.824707 Q 87.861816 125.490723 88.106201 125.829102 Q 88.350586 126.167480 88.828613 126.167480 L 89.983398 126.167480 L 89.983398 127.000000 L 88.731934 127.000000 Q 87.845703 127.000000 87.359619 126.433350 Q 86.873535 125.866699 86.873535 124.824707 L 86.873535 119.383789 L 85.289062 119.383789 L 85.289062 118.610352 L 87.861816 118.610352 Z " fill="rgb(0, 0, 0)" fill-opacity="1.000000" />
<path d="M 92.697266 121.005859 L 95.227051 121.005859 L 95.227051 126.231934 L 97.187500 126.231934 L 97.187500 127.000000 L 92.278320 127.000000 L 92.278320 126.231934 L 94.238770 126.231934 L 94.238770 121.773926 L 92.697266 121.773926 Z M 94.238770 118.669434 L 95.227051 118.669434 L 95.227051 119.915527 L 94.238770 119.915527 Z " fill="rgb(0, 0, 0)" fill-opacity="1.000000" />
<path d="M 99.219238 120.973633 L 103.585938 120.973633 L 103.585938 121.875977 L 100.132324 126.194336 L 103.585938 126.194336 L 103.585938 127.000000 L 99.090332 127.000000 L 99.090332 126.086914 L 102.543945 121.763184 L 99.219238 121.763184 Z " fill="rgb(0, 0, 0)" fill-opacity="1.000000" />
<path d="M 111.015625 123.498047 L 111.015625 123.981445 L 106.734863 123.981445 L 106.734863 124.013672 Q 106.691895 125.243652 107.204834 125.780762 Q 107.717773 126.317871 108.652344 126.317871 Q 109.125000 126.317871 109.640625 126.167480 Q 110.156250 126.017090 110.741699 125.710938 L 110.741699 126.693848 Q 110.177734 126.924805 109.654053 127.040283 Q 109.130371 127.155762 108.641602 127.155762 Q 107.239746 127.155762 106.450195 126.315186 Q 105.660645 125.474609 105.660645 123.997559 Q 105.660645 122.558105 106.434082 121.698730 Q 107.207520 120.839355 108.496582 120.839355 Q 109.645996 120.839355 110.309326 121.618164 Q 110.972656 122.396973 111.015625 123.498047 Z M 110.027344 123.208008 Q 109.962891 122.584961 109.573486 122.131104 Q 109.184082 121.677246 108.453613 121.677246 Q 107.739258 121.677246 107.277344 122.149902 Q 106.815430 122.622559 106.772461 123.213379 Z " fill="rgb(0, 0, 0)" fill-opacity="1.000000" />
<path d="M 115.985352 118.594238 L 115.985352 129.594238 L 115.061523 129.594238 L 115.061523 118.594238 Z " fill="rgb(0, 0, 0)" fill-opacity="1.000000" />
<path d="M 123.082031 123.213379 Q 123.500977 123.320801 123.796387 123.618896 Q 124.091797 123.916992 124.532227 124.808594 L 125.622559 127.000000 L 124.457031 127.000000 L 123.500977 124.975098 Q 123.087402 124.110352 122.757080 123.860596 Q 122.426758 123.610840 121.895020 123.610840 L 120.858398 123.610840 L 120.858398 127.000000 L 119.768066 127.000000 L 119.768066 118.980957 L 122.002441 118.980957 Q 123.323730 118.980957 124.027344 119.577148 Q 124.730957 120.173340 124.730957 121.301270 Q 124.730957 122.096191 124.298584 122.598389 Q 123.866211 123.100586 123.082031 123.213379 Z M 120.858398 119.872559 L 120.858398 122.719238 L 122.045410 122.719238 Q 122.824219 122.719238 123.205566 122.370117 Q 123.586914 122.020996 123.586914 121.301270 Q 123.586914 120.608398 123.181396 120.240479 Q 122.775879 119.872559 122.002441 119.872559 Z " fill="rgb(0, 0, 0)" fill-opacity="1.000000" />
<path d="M 132.015625 123.498047 L 132.015625 123.981445 L 127.734863 123.981445 L 127.734863 124.013672 Q 127.691895 125.243652 128.204834 125.780762 Q 128.717773 126.317871 129.652344 126.317871 Q 130.125000 126.317871 130.640625 126.167480 Q 131.156250 126.017090 131.741699 125.710938 L 131.741699 126.693848 Q 131.177734 126.924805 130.654053 127.040283 Q 130.130371 127.155762 129.641602 127.155762 Q 128.239746 127.155762 127.450195 126.315186 Q 126.660645 125.474609 126.660645 123.997559 Q 126.660645 122.558105 127.434082 121.698730 Q 128.207520 120.839355 129.496582 120.839355 Q 130.645996 120.839355 131.309326 121.618164 Q 131.972656 122.396973 132.015625 123.498047 Z M 131.027344 123.208008 Q 130.962891 122.584961 130.573486 122.131104 Q 130.184082 121.677246 129.453613 121.677246 Q 128.739258 121.677246 128.277344 122.149902 Q 127.815430 122.622559 127.772461 123.213379 Z " fill="rgb(0, 0, 0)" fill-opacity="1.000000" />
<path d="M 138.645020 123.272461 L 138.645020 127.000000 L 137.651367 127.000000 L 137.651367 123.272461 Q 137.651367 122.461426 137.366699 122.080078 Q 137.082031 121.698730 136.475098 121.698730 Q 135.782227 121.698730 135.408936 122.190186 Q 135.035645 122.681641 135.035645 123.600098 L 135.035645 127.000000 L 134.047363 127.000000 L 134.047363 120.984375 L 135.035645 120.984375 L 135.035645 121.886719 Q 135.298828 121.371094 135.750000 121.105225 Q 136.201172 120.839355 136.818848 120.839355 Q 137.737305 120.839355 138.191162 121.443604 Q 138.645020 122.047852 138.645020 123.272461 Z " fill="rgb(0, 0, 0)" fill-opacity="1.000000" />
<path d="M 144.608398 121.752441 L 144.608398 118.642578 L 145.596680 118.642578 L 145.596680 127.000000 L 144.608398 127.000000 L 144.608398 126.242676 Q 144.361328 126.688477 143.950439 126.922119 Q 143.539551 127.155762 143.002441 127.155762 Q 141.912109 127.155762 141.286377 126.309814 Q 140.660645 125.463867 140.660645 123.976074 Q 140.660645 122.509766 141.289062 121.674561 Q 141.917480 120.839355 143.002441 120.839355 Q 143.544922 120.839355 143.958496 121.072998 Q 144.372070 121.306641 144.608398 121.752441 Z M 141.702637 123.997559 Q 141.702637 125.146973 142.067871 125.732422 Q 142.433105 126.317871 143.147461 126.317871 Q 143.861816 126.317871 144.235107 125.727051 Q 144.608398 125.136230 144.608398 123.997559 Q 144.608398 122.853516 144.235107 122.265381 Q 143.861816 121.677246 143.147461 121.677246 Q 142.433105 121.677246 142.067871 122.262695 Q 141.702637 122.848145 141.702637 123.997559 Z " fill="rgb(0, 0, 0)" fill-opacity="1.000000" />
<path d="M 153.015625 123.498047 L 153.015625 123.981445 L 148.734863 123.981445 L 148.734863 124.013672 Q 148.691895 125.243652 149.204834 125.780762 Q 149.717773 126.317871 150.652344 126.317871 Q 151.125000 126.317871 151.640625 126.167480 Q 152.156250 126.017090 152.741699 125.710938 L 152.741699 126.693848 Q 152.177734 126.924805 151.654053 127.040283 Q 151.130371 127.155762 150.641602 127.155762 Q 149.239746 127.155762 148.450195 126.315186 Q 147.660645 125.474609 147.660645 123.997559 Q 147.660645 122.558105 148.434082 121.698730 Q 149.207520 120.839355 150.496582 120.839355 Q 151.645996 120.839355 152.309326 121.618164 Q 152.972656 122.396973 153.015625 123.498047 Z M 152.027344 123.208008 Q 151.962891 122.584961 151.573486 122.131104 Q 151.184082 121.677246 150.453613 121.677246 Q 149.739258 121.677246 149.277344 122.149902 Q 148.815430 122.622559 148.772461 123.213379 Z " fill="rgb(0, 0, 0)" fill-opacity="1.000000" />
<path d="M 160.203613 122.225098 Q 159.886719 121.978027 159.559082 121.865234 Q 159.231445 121.752441 158.839355 121.752441 Q 157.915527 121.752441 157.426758 122.332520 Q 156.937988 122.912598 156.937988 124.008301 L 156.937988 127.000000 L 155.944336 127.000000 L 155.944336 120.984375 L 156.937988 120.984375 L 156.937988 122.160645 Q 157.185059 121.521484 157.697998 121.180420 Q 158.210938 120.839355 158.914551 120.839355 Q 159.279785 120.839355 159.596680 120.930664 Q 159.913574 121.021973 160.203613 121.215332 Z " fill="rgb(0, 0, 0)" fill-opacity="1.000000" />
<path d="M 164.985352 118.594238 L 164.985352 129.594238 L 164.061523 129.594238 L 164.061523 118.594238 Z " fill="rgb(0, 0, 0)" fill-opacity="1.000000" />
<path d="M 168.789551 123.922363 L 168.789551 118.980957 L 169.879883 118.980957 L 169.879883 124.416504 Q 169.879883 125.001953 169.912109 125.251709 Q 169.944336 125.501465 170.024902 125.635742 Q 170.196777 125.952637 170.521729 126.113770 Q 170.846680 126.274902 171.308594 126.274902 Q 171.775879 126.274902 172.098145 126.113770 Q 172.420410 125.952637 172.597656 125.635742 Q 172.678223 125.501465 172.710449 125.254395 Q 172.742676 125.007324 172.742676 124.427246 L 172.742676 118.980957 L 173.827637 118.980957 L 173.827637 123.922363 Q 173.827637 125.152344 173.674561 125.670654 Q 173.521484 126.188965 173.145508 126.527344 Q 172.791016 126.844238 172.334473 127.000000 Q 171.877930 127.155762 171.308594 127.155762 Q 170.744629 127.155762 170.288086 127.000000 Q 169.831543 126.844238 169.471680 126.527344 Q 169.101074 126.194336 168.945312 125.665283 Q 168.789551 125.136230 168.789551 123.922363 Z " fill="rgb(0, 0, 0)" fill-opacity="1.000000" />
<path d="M 177.014160 126.242676 L 177.014160 129.288086 L 176.020508 129.288086 L 176.020508 120.984375 L 177.014160 120.984375 L 177.014160 121.752441 Q 177.261230 121.306641 177.672119 121.072998 Q 178.083008 120.839355 178.620117 120.839355 Q 179.710449 120.839355 180.330811 121.682617 Q 180.951172 122.525879 180.951172 124.019043 Q 180.951172 125.485352 180.328125 126.320557 Q 179.705078 127.155762 178.620117 127.155762 Q 178.072266 127.155762 177.661377 126.922119 Q 177.250488 126.688477 177.014160 126.242676 Z M 179.914551 123.997559 Q 179.914551 122.848145 179.552002 122.262695 Q 179.189453 121.677246 178.475098 121.677246 Q 177.755371 121.677246 177.384766 122.265381 Q 177.014160 122.853516 177.014160 123.997559 Q 177.014160 125.136230 177.384766 125.727051 Q 177.755371 126.317871 178.475098 126.317871 Q 179.189453 126.317871 179.552002 125.732422 Q 179.914551 125.146973 179.914551 123.997559 Z " fill="rgb(0, 0, 0)" fill-opacity="1.000000" />
<path d="M 186.608398 121.752441 L 186.608398 118.642578 L 187.596680 118.642578 L 187.596680 127.000000 L 186.608398 127.000000 L 186.608398 126.242676 Q 186.361328 126.688477 185.950439 126.922119 Q 185.539551 127.155762 185.002441 127.155762 Q 183.912109 127.155762 183.286377 126.309814 Q 182.660645 125.463867 182.660645 123.976074 Q 182.660645 122.509766 183.289062 121.674561 Q 183.917480 120.839355 185.002441 120.839355 Q 185.544922 120.839355 185.958496 121.072998 Q 186.372070 121.306641 186.608398 121.752441 Z M 183.702637 123.997559 Q 183.702637 125.146973 184.067871 125.732422 Q 184.433105 126.317871 185.147461 126.317871 Q 185.861816 126.317871 186.235107 125.727051 Q 186.608398 125.136230 186.608398 123.997559 Q 186.608398 122.853516 186.235107 122.265381 Q 185.861816 121.677246 185.147461 121.677246 Q 184.433105 121.677246 184.067871 122.262695 Q 183.702637 122.848145 183.702637 123.997559 Z " fill="rgb(0, 0, 0)" fill-opacity="1.000000" />
<path d="M 192.770508 123.976074 L 192.442871 123.976074 Q 191.578125 123.976074 191.140381 124.279541 Q 190.702637 124.583008 190.702637 125.184570 Q 190.702637 125.727051 191.030273 126.027832 Q 191.357910 126.328613 191.937988 126.328613 Q 192.754395 126.328613 193.221680 125.761963 Q 193.688965 125.195312 193.694336 124.196289 L 193.694336 123.976074 Z M 194.687988 123.567871 L 194.687988 127.000000 L 193.694336 127.000000 L 193.694336 126.108398 Q 193.377441 126.645508 192.896729 126.900635 Q 192.416016 127.155762 191.728516 127.155762 Q 190.810059 127.155762 190.262207 126.637451 Q 189.714355 126.119141 189.714355 125.249023 Q 189.714355 124.244629 190.388428 123.723633 Q 191.062500 123.202637 192.367676 123.202637 L 193.694336 123.202637 L 193.694336 123.046875 Q 193.688965 122.327148 193.329102 122.002197 Q 192.969238 121.677246 192.179688 121.677246 Q 191.674805 121.677246 191.159180 121.822266 Q 190.643555 121.967285 190.154785 122.246582 L 190.154785 121.258301 Q 190.702637 121.048828 191.204834 120.944092 Q 191.707031 120.839355 192.179688 120.839355 Q 192.926270 120.839355 193.455322 121.059570 Q 193.984375 121.279785 194.312012 121.720215 Q 194.516113 121.988770 194.602051 122.383545 Q 194.687988 122.778320 194.687988 123.567871 Z " fill="rgb(0, 0, 0)" fill-opacity="1.000000" />
<path d="M 199.297852 119.276367 L 199.297852 120.984375 L 201.542969 120.984375 L 201.542969 121.752441 L 199.297852 121.752441 L 199.297852 125.018066 Q 199.297852 125.684082 199.550293 125.947266 Q 199.802734 126.210449 200.431152 126.210449 L 201.542969 126.210449 L 201.542969 127.000000 L 200.334473 127.000000 Q 199.222656 127.000000 198.766113 126.554199 Q 198.309570 126.108398 198.309570 125.018066 L 198.309570 121.752441 L 196.703613 121.752441 L 196.703613 120.984375 L 198.309570 120.984375 L 198.309570 119.276367 Z " fill="rgb(0, 0, 0)" fill-opacity="1.000000" />
<path d="M 209.015625 123.498047 L 209.015625 123.981445 L 204.734863 123.981445 L 204.734863 124.013672 Q 204.691895 125.243652 205.204834 125.780762 Q 205.717773 126.317871 206.652344 126.317871 Q 207.125000 126.317871 207.640625 126.167480 Q 208.156250 126.017090 208.741699 125.710938 L 208.741699 126.693848 Q 208.177734 126.924805 207.654053 127.040283 Q 207.130371 127.155762 206.641602 127.155762 Q 205.239746 127.155762 204.450195 126.315186 Q 203.660645 125.474609 203.660645 123.997559 Q 203.660645 122.558105 204.434082 121.698730 Q 205.207520 120.839355 206.496582 120.839355 Q 207.645996 120.839355 208.309326 121.618164 Q 208.972656 122.396973 209.015625 123.498047 Z M 208.027344 123.208008 Q 207.962891 122.584961 207.573486 122.131104 Q 207.184082 121.677246 206.453613 121.677246 Q 205.739258 121.677246 205.277344 122.149902 Q 204.815430 122.622559 204.772461 123.213379 Z " fill="rgb(0, 0, 0)" fill-opacity="1.000000" />
<path d="M 213.985352 118.594238 L 213.985352 129.594238 L 213.061523 129.594238 L 213.061523 118.594238 Z " fill="rgb(0, 0, 0)" fill-opacity="1.000000" />
<path d="M 7.547852 110.111328 L 13.241211 110.111328 L 13.241211 111.019043 L 7.547852 111.019043 Z " fill="rgb(0, 0, 0)" fill-opacity="1.000000" />
<path d="M 14.547852 110.111328 L 20.241211 110.111328 L 20.241211 111.019043 L 14.547852 111.019043 Z " fill="rgb(0, 0, 0)" fill-opacity="1.000000" />
<path d="M 21.547852 110.111328 L 27.241211 110.111328 L 27.241211 111.019043 L 21.547852 111.019043 Z " fill="rgb(0, 0, 0)" fill-opacity="1.000000" />
<path d="M 28.547852 110.111328 L 34.241211 110.111328 L 34.241211 111.019043 L 28.547852 111.019043 Z " fill="rgb(0, 0, 0)" fill-opacity="1.000000" />
<path d="M 35.547852 110.111328 L 41.241211 110.111328 L 41.241211 111.019043 L 35.547852 111.019043 Z " fill="rgb(0, 0, 0)" fill-opacity="1.000000" />
<path d="M 42.472656 108.838379 L 42.472656 107.860840 L 48.149902 110.105957 L 48.149902 110.997559 L 42.472656 113.242676 L 42.472656 112.259766 L 47.038086 110.557129 Z " fill="rgb(0, 0, 0)" fill-opacity="1.000000" />
<path d="M 49.547852 110.111328 L 55.241211 110.111328 L 55.241211 111.019043 L 49.547852 111.019043 Z " fill="rgb(0, 0, 0)" fill-opacity="1.000000" />
<path d="M 56.547852 110.111328 L 62.241211 110.111328 L 62.241211 111.019043 L 56.547852 111.019043 Z " fill="rgb(0, 0, 0)" fill-opacity="1.000000" />
<path d="M 63.547852 110.111328 L 69.241211 110.111328 L 69.241211 111.019043 L 63.547852 111.019043 Z " fill="rgb(0, 0, 0)" fill-opacity="1.000000" />
<path d="M 70.547852 110.111328 L 76.241211 110.111328 L 76.241211 111.019043 L 70.547852 111.019043 Z " fill="rgb(0, 0, 0)" fill-opacity="1.000000" />
<path d="M 77.547852 110.111328 L 83.241211 110.111328 L 83.241211 111.019043 L 77.547852 111.019043 Z " fill="rgb(0, 0, 0)" fill-opacity="1.000000" />
<path d="M 84.547852 110.111328 L 90.241211 110.111328 L 90.241211 111.019043 L 84.547852 111.019043 Z " fill="rgb(0, 0, 0)" fill-opacity="1.000000" />
<path d="M 91.547852 110.111328 L 97.241211 110.111328 L 97.241211 111.019043 L 91.547852 111.019043 Z " fill="rgb(0, 0, 0)" fill-opacity="1.000000" />
<path d="M 98.547852 110.111328 L 104.241211 110.111328 L 104.241211 111.019043 L 98.547852 111.019043 Z " fill="rgb(0, 0, 0)" fill-opacity="1.000000" />
<path d="M 105.547852 110.111328 L 111.241211 110.111328 L 111.241211 111.019043 L 105.547852 111.019043 Z " fill="rgb(0, 0, 0)" fill-opacity="1.000000" />
<path d="M 112.472656 108.838379 L 112.472656 107.860840 L 118.149902 110.105957 L 118.149902 110.997559 L 112.472656 113.242676 L 112.472656 112.259766 L 117.038086 110.557129 Z " fill="rgb(0, 0, 0)" fill-opacity="1.000000" />
<path d="M 119.547852 110.111328 L 125.241211 110.111328 L 125.241211 111.019043 L 119.547852 111.019043 Z " fill="rgb(0, 0, 0)" fill-opacity="1.000000" />
<path d="M 126.547852 110.111328 L 132.241211 110.111328 L 132.241211 111.019043 L 126.547852 111.019043 Z " fill="rgb(0, 0, 0)" fill-opacity="1.000000" />
<path d="M 133.547852 110.111328 L 139.241211 110.111328 L 139.241211 111.019043 L 133.547852 111.019043 Z " fill="rgb(0, 0, 0)" fill-opacity="1.000000" />
<path d="M 140.547852 110.111328 L 146.241211 110.111328 L 146.241211 111.019043 L 140.547852 111.019043 Z " fill="rgb(0, 0, 0)" fill-opacity="1.000000" />
<path d="M 147.547852 110.111328 L 153.241211 110.111328 L 153.241211 111.019043 L 147.547852 111.019043 Z " fill="rgb(0, 0, 0)" fill-opacity="1.000000" />
<path d="M 154.547852 110.111328 L 160.241211 110.111328 L 160.241211 111.019043 L 154.547852 111.019043 Z " fill="rgb(0, 0, 0)" fill-opacity="1.000000" />
<path d="M 161.472656 108.838379 L 161.472656 107.860840 L 167.149902 110.105957 L 167.149902 110.997559 L 161.472656 113.242676 L 161.472656 112.259766 L 166.038086 110.557129 Z " fill="rgb(0, 0, 0)" fill-opacity="1.000000" />
<path d="M 168.547852 110.111328 L 174.241211 110.111328 L 174.241211 111.019043 L 168.547852 111.019043 Z " fill="rgb(0, 0, 0)" fill-opacity="1.000000" />
<path d="M 175.547852 110.111328 L 181.241211 110.111328 L 181.241211 111.019043 L 175.547852 111.019043 Z " fill="rgb(0, 0, 0)" fill-opacity="1.000000" />
<path d="M 182.547852 110.111328 L 188.241211 110.111328 L 188.241211 111.019043 L 182.547852 111.019043 Z " fill="rgb(0, 0, 0)" fill-opacity="1.000000" />
<path d="M 189.547852 110.111328 L 195.241211 110.111328 L 195.241211 111.019043 L 189.547852 111.019043 Z " fill="rgb(0, 0, 0)" fill-opacity="1.000000" />
<path d="M 196.547852 110.111328 L 202.241211 110.111328 L 202.241211 111.019043 L 196.547852 111.019043 Z " fill="rgb(0, 0, 0)" fill-opacity="1.000000" />
<path d="M 203.547852 110.111328 L 209.241211 110.111328 L 209.241211 111.019043 L 203.547852 111.019043 Z " fill="rgb(0, 0, 0)" fill-opacity="1.000000" />
<path d="M 213.867188 107.672852 L 213.867188 110.052246 L 216.257324 110.052246 L 216.257324 110.959961 L 213.867188 110.959961 L 213.867188 113.339355 L 212.964844 113.339355 L 212.964844 110.959961 L 210.580078 110.959961 L 210.580078 110.052246 L 212.964844 110.052246 L 212.964844 107.672852 Z " fill="rgb(0, 0, 0)" fill-opacity="1.000000" />
<path d="M 13.015625 97.498047 L 13.015625 97.981445 L 8.734863 97.981445 L 8.734863 98.013672 Q 8.691895 99.243652 9.204834 99.780762 Q 9.717773 100.317871 10.652344 100.317871 Q 11.125000 100.317871 11.640625 100.167480 Q 12.156250 100.017090 12.741699 99.710938 L 12.741699 100.693848 Q 12.177734 100.924805 11.654053 101.040283 Q 11.130371 101.155762 10.641602 101.155762 Q 9.239746 101.155762 8.450195 100.315186 Q 7.660645 99.474609 7.660645 97.997559 Q 7.660645 96.558105 8.434082 95.698730 Q 9.207520 94.839355 10.496582 94.839355 Q 11.645996 94.839355 12.309326 95.618164 Q 12.972656 96.396973 13.015625 97.498047 Z M 12.027344 97.208008 Q 11.962891 96.584961 11.573486 96.131104 Q 11.184082 95.677246 10.453613 95.677246 Q 9.739258 95.677246 9.277344 96.149902 Q 8.815430 96.622559 8.772461 97.213379 Z " fill="rgb(0, 0, 0)" fill-opacity="1.000000" />
<path d="M 17.861816 98.824707 Q 17.861816 99.490723 18.106201 99.829102 Q 18.350586 100.167480 18.828613 100.167480 L 19.983398 100.167480 L 19.983398 101.000000 L 18.731934 101.000000 Q 17.845703 101.000000 17.359619 100.433350 Q 16.873535 99.866699 16.873535 98.824707 L 16.873535 93.383789 L 15.289062 93.383789 L 15.289062 92.610352 L 17.861816 92.610352 Z " fill="rgb(0, 0, 0)" fill-opacity="1.000000" />
<path d="M 24.770508 97.976074 L 24.442871 97.976074 Q 23.578125 97.976074 23.140381 98.279541 Q 22.702637 98.583008 22.702637 99.184570 Q 22.702637 99.727051 23.030273 100.027832 Q 23.357910 100.328613 23.937988 100.328613 Q 24.754395 100.328613 25.221680 99.761963 Q 25.688965 99.195312 25.694336 98.196289 L 25.694336 97.976074 Z M 26.687988 97.567871 L 26.687988 101.000000 L 25.694336 101.000000 L 25.694336 100.108398 Q 25.377441 100.645508 24.896729 100.900635 Q 24.416016 101.155762 23.728516 101.155762 Q 22.810059 101.155762 22.262207 100.637451 Q 21.714355 100.119141 21.714355 99.249023 Q 21.714355 98.244629 22.388428 97.723633 Q 23.062500 97.202637 24.367676 97.202637 L 25.694336 97.202637 L 25.694336 97.046875 Q 25.688965 96.327148 25.329102 96.002197 Q 24.969238 95.677246 24.179688 95.677246 Q 23.674805 95.677246 23.159180 95.822266 Q 22.643555 95.967285 22.154785 96.246582 L 22.154785 95.258301 Q 22.702637 95.048828 23.204834 94.944092 Q 23.707031 94.839355 24.179688 94.839355 Q 24.926270 94.839355 25.455322 95.059570 Q 25.984375 95.279785 26.312012 95.720215 Q 26.516113 95.988770 26.602051 96.383545 Q 26.687988 96.778320 26.687988 97.567871 Z " fill="rgb(0, 0, 0)" fill-opacity="1.000000" />
<path d="M 32.608398 99.066406 Q 32.361328 99.694824 31.979980 100.720703 Q 31.448242 102.138672 31.265625 102.450195 Q 31.018555 102.869141 30.647949 103.078613 Q 30.277344 103.288086 29.783203 103.288086 L 28.988281 103.288086 L 28.988281 102.460938 L 29.573730 102.460938 Q 30.008789 102.460938 30.255859 102.208496 Q 30.502930 101.956055 30.884277 100.903320 L 28.558594 94.984375 L 29.605957 94.984375 L 31.389160 99.689453 L 33.145508 94.984375 L 34.192871 94.984375 Z " fill="rgb(0, 0, 0)" fill-opacity="1.000000" />
<path d="M 44.003418 100.086914 L 47.687988 100.086914 L 47.687988 101.000000 L 42.816406 101.000000 L 42.816406 100.086914 Q 43.820801 99.028809 44.572754 98.217773 Q 45.324707 97.406738 45.609375 97.073730 Q 46.146484 96.418457 46.334473 96.012939 Q 46.522461 95.607422 46.522461 95.183105 Q 46.522461 94.511719 46.127686 94.130371 Q 45.732910 93.749023 45.045410 93.749023 Q 44.556641 93.749023 44.019531 93.926270 Q 43.482422 94.103516 42.880859 94.463379 L 42.880859 93.367676 Q 43.434082 93.104492 43.968506 92.970215 Q 44.502930 92.835938 45.023926 92.835938 Q 46.200195 92.835938 46.917236 93.461670 Q 47.634277 94.087402 47.634277 95.102539 Q 47.634277 95.618164 47.395264 96.133789 Q 47.156250 96.649414 46.619141 97.272461 Q 46.318359 97.621582 45.746338 98.239258 Q 45.174316 98.856934 44.003418 100.086914 Z " fill="rgb(0, 0, 0)" fill-opacity="1.000000" />
<path d="M 7.547852 45.111328 L 13.241211 45.111328 L 13.241211 46.019043 L 7.547852 46.019043 Z " fill="rgb(0, 0, 0)" fill-opacity="1.000000" />
<path d="M 14.547852 45.111328 L 20.241211 45.111328 L 20.241211 46.019043 L 14.547852 46.019043 Z " fill="rgb(0, 0, 0)" fill-opacity="1.000000" />
<path d="M 21.547852 45.111328 L 27.241211 45.111328 L 27.241211 46.019043 L 21.547852 46.019043 Z " fill="rgb(0, 0, 0)" fill-opacity="1.000000" />
<path d="M 28.547852 45.111328 L 34.241211 45.111328 L 34.241211 46.019043 L 28.547852 46.019043 Z " fill="rgb(0, 0, 0)" fill-opacity="1.000000" />
<path d="M 35.547852 45.111328 L 41.241211 45.111328 L 41.241211 46.019043 L 35.547852 46.019043 Z " fill="rgb(0, 0, 0)" fill-opacity="1.000000" />
<path d="M 42.547852 45.111328 L 48.241211 45.111328 L 48.241211 46.019043 L 42.547852 46.019043 Z " fill="rgb(0, 0, 0)" fill-opacity="1.000000" />
<path d="M 49.547852 45.111328 L 55.241211 45.111328 L 55.241211 46.019043 L 49.547852 46.019043 Z " fill="rgb(0, 0, 0)" fill-opacity="1.000000" />
<path d="M 56.547852 45.111328 L 62.241211 45.111328 L 62.241211 46.019043 L 56.547852 46.019043 Z " fill="rgb(0, 0, 0)" fill-opacity="1.000000" />
<path d="M 63.547852 45.111328 L 69.241211 45.111328 L 69.241211 46.019043 L 63.547852 46.019043 Z " fill="rgb(0, 0, 0)" fill-opacity="1.000000" />
<path d="M 70.547852 45.111328 L 76.241211 45.111328 L 76.241211 46.019043 L 70.547852 46.019043 Z " fill="rgb(0, 0, 0)" fill-opacity="1.000000" />
<path d="M 77.547852 45.111328 L 83.241211 45.111328 L 83.241211 46.019043 L 77.547852 46.019043 Z " fill="rgb(0, 0, 0)" fill-opacity="1.000000" />
<path d="M 84.547852 45.111328 L 90.241211 45.111328 L 90.241211 46.019043 L 84.547852 46.019043 Z " fill="rgb(0, 0, 0)" fill-opacity="1.000000" />
<path d="M 91.472656 43.838379 L 91.472656 42.860840 L 97.149902 45.105957 L 97.149902 45.997559 L 91.472656 48.242676 L 91.472656 47.259766 L 96.038086 45.557129 Z " fill="rgb(0, 0, 0)" fill-opacity="1.000000" />
<path d="M 98.547852 45.111328 L 104.241211 45.111328 L 104.241211 46.019043 L 98.547852 46.019043 Z " fill="rgb(0, 0, 0)" fill-opacity="1.000000" />
<path d="M 105.547852 45.111328 L 111.241211 45.111328 L 111.241211 46.019043 L 105.547852 46.019043 Z " fill="rgb(0, 0, 0)" fill-opacity="1.000000" />
<path d="M 112.547852 45.111328 L 118.241211 45.111328 L 118.241211 46.019043 L 112.547852 46.019043 Z " fill="rgb(0, 0, 0)" fill-opacity="1.000000" />
<path d="M 119.547852 45.111328 L 125.241211 45.111328 L 125.241211 46.019043 L 119.547852 46.019043 Z " fill="rgb(0, 0, 0)" fill-opacity="1.000000" />
<path d="M 126.547852 45.111328 L 132.241211 45.111328 L 132.241211 46.019043 L 126.547852 46.019043 Z " fill="rgb(0, 0, 0)" fill-opacity="1.000000" />
<path d="M 133.547852 45.111328 L 139.241211 45.111328 L 139.241211 46.019043 L 133.547852 46.019043 Z " fill="rgb(0, 0, 0)" fill-opacity="1.000000" />
<path d="M 140.547852 45.111328 L 146.241211 45.111328 L 146.241211 46.019043 L 140.547852 46.019043 Z " fill="rgb(0, 0, 0)" fill-opacity="1.000000" />
<path d="M 147.547852 45.111328 L 153.241211 45.111328 L 153.241211 46.019043 L 147.547852 46.019043 Z " fill="rgb(0, 0, 0)" fill-opacity="1.000000" />
<path d="M 154.547852 45.111328 L 160.241211 45.111328 L 160.241211 46.019043 L 154.547852 46.019043 Z " fill="rgb(0, 0, 0)" fill-opacity="1.000000" />
<path d="M 161.547852 45.111328 L 167.241211 45.111328 L 167.241211 46.019043 L 161.547852 46.019043 Z " fill="rgb(0, 0, 0)" fill-opacity="1.000000" />
<path d="M 168.547852 45.111328 L 174.241211 45.111328 L 174.241211 46.019043 L 168.547852 46.019043 Z " fill="rgb(0, 0, 0)" fill-opacity="1.000000" />
<path d="M 175.547852 45.111328 L 181.241211 45.111328 L 181.241211 46.019043 L 175.547852 46.019043 Z " fill="rgb(0, 0, 0)" fill-opacity="1.000000" />
<path d="M 182.547852 45.111328 L 188.241211 45.111328 L 188.241211 46.019043 L 182.547852 46.019043 Z " fill="rgb(0, 0, 0)" fill-opacity="1.000000" />
<path d="M 189.547852 45.111328 L 195.241211 45.111328 L 195.241211 46.019043 L 189.547852 46.019043 Z " fill="rgb(0, 0, 0)" fill-opacity="1.000000" />
<path d="M 196.547852 45.111328 L 202.241211 45.111328 L 202.241211 46.019043 L 196.547852 46.019043 Z " fill="rgb(0, 0, 0)" fill-opacity="1.000000" />
<path d="M 203.547852 45.111328 L 209.241211 45.111328 L 209.241211 46.019043 L 203.547852 46.019043 Z " fill="rgb(0, 0, 0)" fill-opacity="1.000000" />
<path d="M 210.547852 45.111328 L 216.241211 45.111328 L 216.241211 46.019043 L 210.547852 46.019043 Z " fill="rgb(0, 0, 0)" fill-opacity="1.000000" />
<path d="M 217.547852 45.111328 L 223.241211 45.111328 L 223.241211 46.019043 L 217.547852 46.019043 Z " fill="rgb(0, 0, 0)" fill-opacity="1.000000" />
<path d="M 224.547852 45.111328 L 230.241211 45.111328 L 230.241211 46.019043 L 224.547852 46.019043 Z " fill="rgb(0, 0, 0)" fill-opacity="1.000000" />
<path d="M 231.547852 45.111328 L 237.241211 45.111328 L 237.241211 46.019043 L 231.547852 46.019043 Z " fill="rgb(0, 0, 0)" fill-opacity="1.000000" />
<path d="M 238.547852 45.111328 L 244.241211 45.111328 L 244.241211 46.019043 L 238.547852 46.019043 Z " fill="rgb(0, 0, 0)" fill-opacity="1.000000" />
<path d="M 245.472656 43.838379 L 245.472656 42.860840 L 251.149902 45.105957 L 251.149902 45.997559 L 245.472656 48.242676 L 245.472656 47.259766 L 250.038086 45.557129 Z " fill="rgb(0, 0, 0)" fill-opacity="1.000000" />
<path d="M 252.547852 45.111328 L 258.241211 45.111328 L 258.241211 46.019043 L 252.547852 46.019043 Z " fill="rgb(0, 0, 0)" fill-opacity="1.000000" />
<path d="M 259.547852 45.111328 L 265.241211 45.111328 L 265.241211 46.019043 L 259.547852 46.019043 Z " fill="rgb(0, 0, 0)" fill-opacity="1.000000" />
<path d="M 266.547852 45.111328 L 272.241211 45.111328 L 272.241211 46.019043 L 266.547852 46.019043 Z " fill="rgb(0, 0, 0)" fill-opacity="1.000000" />
<path d="M 273.547852 45.111328 L 279.241211 45.111328 L 279.241211 46.019043 L 273.547852 46.019043 Z " fill="rgb(0, 0, 0)" fill-opacity="1.000000" />
<path d="M 280.547852 45.111328 L 286.241211 45.111328 L 286.241211 46.019043 L 280.547852 46.019043 Z " fill="rgb(0, 0, 0)" fill-opacity="1.000000" />
<path d="M 287.547852 45.111328 L 293.241211 45.111328 L 293.241211 46.019043 L 287.547852 46.019043 Z " fill="rgb(0, 0, 0)" fill-opacity="1.000000" />
<path d="M 294.472656 43.838379 L 294.472656 42.860840 L 300.149902 45.105957 L 300.149902 45.997559 L 294.472656 48.242676 L 294.472656 47.259766 L 299.038086 45.557129 Z " fill="rgb(0, 0, 0)" fill-opacity="1.000000" />
<path d="M 301.547852 45.111328 L 307.241211 45.111328 L 307.241211 46.019043 L 301.547852 46.019043 Z " fill="rgb(0, 0, 0)" fill-opacity="1.000000" />
<path d="M 308.547852 45.111328 L 314.241211 45.111328 L 314.241211 46.019043 L 308.547852 46.019043 Z " fill="rgb(0, 0, 0)" fill-opacity="1.000000" />
<path d="M 315.547852 45.111328 L 321.241211 45.111328 L 321.241211 46.019043 L 315.547852 46.019043 Z " fill="rgb(0, 0, 0)" fill-opacity="1.000000" />
<path d="M 322.547852 45.111328 L 328.241211 45.111328 L 328.241211 46.019043 L 322.547852 46.019043 Z " fill="rgb(0, 0, 0)" fill-opacity="1.000000" />
<path d="M 329.547852 45.111328 L 335.241211 45.111328 L 335.241211 46.019043 L 329.547852 46.019043 Z " fill="rgb(0, 0, 0)" fill-opacity="1.000000" />
<path d="M 336.547852 45.111328 L 342.241211 45.111328 L 342.241211 46.019043 L 336.547852 46.019043 Z " fill="rgb(0, 0, 0)" fill-opacity="1.000000" />
<path d="M 346.867188 42.672852 L 346.867188 45.052246 L 349.257324 45.052246 L 349.257324 45.959961 L 346.867188 45.959961 L 346.867188 48.339355 L 345.964844 48.339355 L 345.964844 45.959961 L 343.580078 45.959961 L 343.580078 45.052246 L 345.964844 45.052246 L 345.964844 42.672852 Z " fill="rgb(0, 0, 0)" fill-opacity="1.000000" />
<path d="M 29.251465 27.980957 L 33.972656 27.980957 L 33.972656 28.894043 L 30.341797 28.894043 L 30.341797 31.042480 L 33.634277 31.042480 L 33.634277 31.955566 L 30.341797 31.955566 L 30.341797 36.000000 L 29.251465 36.000000 Z " fill="rgb(0, 0, 0)" fill-opacity="1.000000" />
<path d="M 41.015625 32.498047 L 41.015625 32.981445 L 36.734863 32.981445 L 36.734863 33.013672 Q 36.691895 34.243652 37.204834 34.780762 Q 37.717773 35.317871 38.652344 35.317871 Q 39.125000 35.317871 39.640625 35.167480 Q 40.156250 35.017090 40.741699 34.710938 L 40.741699 35.693848 Q 40.177734 35.924805 39.654053 36.040283 Q 39.130371 36.155762 38.641602 36.155762 Q 37.239746 36.155762 36.450195 35.315186 Q 35.660645 34.474609 35.660645 32.997559 Q 35.660645 31.558105 36.434082 30.698730 Q 37.207520 29.839355 38.496582 29.839355 Q 39.645996 29.839355 40.309326 30.618164 Q 40.972656 31.396973 41.015625 32.498047 Z M 40.027344 32.208008 Q 39.962891 31.584961 39.573486 31.131104 Q 39.184082 30.677246 38.453613 30.677246 Q 37.739258 30.677246 37.277344 31.149902 Q 36.815430 31.622559 36.772461 32.213379 Z " fill="rgb(0, 0, 0)" fill-opacity="1.000000" />
<path d="M 45.297852 28.276367 L 45.297852 29.984375 L 47.542969 29.984375 L 47.542969 30.752441 L 45.297852 30.752441 L 45.297852 34.018066 Q 45.297852 34.684082 45.550293 34.947266 Q 45.802734 35.210449 46.431152 35.210449 L 47.542969 35.210449 L 47.542969 36.000000 L 46.334473 36.000000 Q 45.222656 36.000000 44.766113 35.554199 Q 44.309570 35.108398 44.309570 34.018066 L 44.309570 30.752441 L 42.703613 30.752441 L 42.703613 29.984375 L 44.309570 29.984375 L 44.309570 28.276367 Z " fill="rgb(0, 0, 0)" fill-opacity="1.000000" />
<path d="M 54.698730 35.693848 Q 54.301270 35.924805 53.879639 36.040283 Q 53.458008 36.155762 53.017578 36.155762 Q 51.621094 36.155762 50.834229 35.317871 Q 50.047363 34.479980 50.047363 32.997559 Q 50.047363 31.515137 50.834229 30.677246 Q 51.621094 29.839355 53.017578 29.839355 Q 53.452637 29.839355 53.866211 29.952148 Q 54.279785 30.064941 54.698730 30.301270 L 54.698730 31.337891 Q 54.306641 30.988770 53.911865 30.833008 Q 53.517090 30.677246 53.017578 30.677246 Q 52.088379 30.677246 51.588867 31.278809 Q 51.089355 31.880371 51.089355 32.997559 Q 51.089355 34.109375 51.591553 34.713623 Q 52.093750 35.317871 53.017578 35.317871 Q 53.533203 35.317871 53.941406 35.159424 Q 54.349609 35.000977 54.698730 34.667969 Z " fill="rgb(0, 0, 0)" fill-opacity="1.000000" />
<path d="M 61.645020 32.272461 L 61.645020 36.000000 L 60.651367 36.000000 L 60.651367 32.272461 Q 60.651367 31.461426 60.366699 31.080078 Q 60.082031 30.698730 59.475098 30.698730 Q 58.782227 30.698730 58.408936 31.190186 Q 58.035645 31.681641 58.035645 32.600098 L 58.035645 36.000000 L 57.047363 36.000000 L 57.047363 27.642578 L 58.035645 27.642578 L 58.035645 30.886719 Q 58.298828 30.371094 58.750000 30.105225 Q 59.201172 29.839355 59.818848 29.839355 Q 60.737305 29.839355 61.191162 30.443604 Q 61.645020 31.047852 61.645020 32.272461 Z " fill="rgb(0, 0, 0)" fill-opacity="1.000000" />
<path d="M 94.985352 27.594238 L 94.985352 38.594238 L 94.061523 38.594238 L 94.061523 27.594238 Z " fill="rgb(0, 0, 0)" fill-opacity="1.000000" />
<path d="M 105.102051 28.007812 L 106.584473 28.007812 L 109.721191 34.587402 L 109.721191 28.007812 L 110.875977 28.007812 L 110.875977 36.000000 L 109.393555 36.000000 L 106.256836 29.420410 L 106.256836 36.000000 L 105.102051 36.000000 Z " fill="rgb(0, 0, 0)" fill-opacity="1.000000" />
<path d="M 115.308594 30.677246 Q 114.556641 30.677246 114.169922 31.262695 Q 113.783203 31.848145 113.783203 32.997559 Q 113.783203 34.141602 114.169922 34.729736 Q 114.556641 35.317871 115.308594 35.317871 Q 116.065918 35.317871 116.452637 34.729736 Q 116.839355 34.141602 116.839355 32.997559 Q 116.839355 31.848145 116.452637 31.262695 Q 116.065918 30.677246 115.308594 30.677246 Z M 115.308594 29.839355 Q 116.560059 29.839355 117.223389 30.650391 Q 117.886719 31.461426 117.886719 32.997559 Q 117.886719 34.539062 117.226074 35.347412 Q 116.565430 36.155762 115.308594 36.155762 Q 114.057129 36.155762 113.396484 35.347412 Q 112.735840 34.539062 112.735840 32.997559 Q 112.735840 31.461426 113.396484 30.650391 Q 114.057129 29.839355 115.308594 29.839355 Z " fill="rgb(0, 0, 0)" fill-opacity="1.000000" />
<path d="M 125.203613 31.225098 Q 124.886719 30.978027 124.559082 30.865234 Q 124.231445 30.752441 123.839355 30.752441 Q 122.915527 30.752441 122.426758 31.332520 Q 121.937988 31.912598 121.937988 33.008301 L 121.937988 36.000000 L 120.944336 36.000000 L 120.944336 29.984375 L 121.937988 29.984375 L 121.937988 31.160645 Q 122.185059 30.521484 122.697998 30.180420 Q 123.210938 29.839355 123.914551 29.839355 Q 124.279785 29.839355 124.596680 29.930664 Q 124.913574 30.021973 125.203613 30.215332 Z " fill="rgb(0, 0, 0)" fill-opacity="1.000000" />
<path d="M 129.630859 30.596680 Q 129.813477 30.209961 130.095459 30.024658 Q 130.377441 29.839355 130.774902 29.839355 Q 131.500000 29.839355 131.798096 30.400635 Q 132.096191 30.961914 132.096191 32.514160 L 132.096191 36.000000 L 131.193848 36.000000 L 131.193848 32.557129 Q 131.193848 31.284180 131.051514 30.975342 Q 130.909180 30.666504 130.533203 30.666504 Q 130.103516 30.666504 129.945068 30.996826 Q 129.786621 31.327148 129.786621 32.557129 L 129.786621 36.000000 L 128.884277 36.000000 L 128.884277 32.557129 Q 128.884277 31.268066 128.731201 30.967285 Q 128.578125 30.666504 128.180664 30.666504 Q 127.788574 30.666504 127.635498 30.996826 Q 127.482422 31.327148 127.482422 32.557129 L 127.482422 36.000000 L 126.585449 36.000000 L 126.585449 29.984375 L 127.482422 29.984375 L 127.482422 30.500000 Q 127.659668 30.177734 127.925537 30.008545 Q 128.191406 29.839355 128.529785 29.839355 Q 128.937988 29.839355 129.209229 30.027344 Q 129.480469 30.215332 129.630859 30.596680 Z " fill="rgb(0, 0, 0)" fill-opacity="1.000000" />
<path d="M 136.770508 32.976074 L 136.442871 32.976074 Q 135.578125 32.976074 135.140381 33.279541 Q 134.702637 33.583008 134.702637 34.184570 Q 134.702637 34.727051 135.030273 35.027832 Q 135.357910 35.328613 135.937988 35.328613 Q 136.754395 35.328613 137.221680 34.761963 Q 137.688965 34.195312 137.694336 33.196289 L 137.694336 32.976074 Z M 138.687988 32.567871 L 138.687988 36.000000 L 137.694336 36.000000 L 137.694336 35.108398 Q 137.377441 35.645508 136.896729 35.900635 Q 136.416016 36.155762 135.728516 36.155762 Q 134.810059 36.155762 134.262207 35.637451 Q 133.714355 35.119141 133.714355 34.249023 Q 133.714355 33.244629 134.388428 32.723633 Q 135.062500 32.202637 136.367676 32.202637 L 137.694336 32.202637 L 137.694336 32.046875 Q 137.688965 31.327148 137.329102 31.002197 Q 136.969238 30.677246 136.179688 30.677246 Q 135.674805 30.677246 135.159180 30.822266 Q 134.643555 30.967285 134.154785 31.246582 L 134.154785 30.258301 Q 134.702637 30.048828 135.204834 29.944092 Q 135.707031 29.839355 136.179688 29.839355 Q 136.926270 29.839355 137.455322 30.059570 Q 137.984375 30.279785 138.312012 30.720215 Q 138.516113 30.988770 138.602051 31.383545 Q 138.687988 31.778320 138.687988 32.567871 Z " fill="rgb(0, 0, 0)" fill-opacity="1.000000" />
<path d="M 143.861816 33.824707 Q 143.861816 34.490723 144.106201 34.829102 Q 144.350586 35.167480 144.828613 35.167480 L 145.983398 35.167480 L 145.983398 36.000000 L 144.731934 36.000000 Q 143.845703 36.000000 143.359619 35.433350 Q 142.873535 34.866699 142.873535 33.824707 L 142.873535 28.383789 L 141.289062 28.383789 L 141.289062 27.610352 L 143.861816 27.610352 Z " fill="rgb(0, 0, 0)" fill-opacity="1.000000" />
<path d="M 148.697266 30.005859 L 151.227051 30.005859 L 151.227051 35.231934 L 153.187500 35.231934 L 153.187500 36.000000 L 148.278320 36.000000 L 148.278320 35.231934 L 150.238770 35.231934 L 150.238770 30.773926 L 148.697266 30.773926 Z M 150.238770 27.669434 L 151.227051 27.669434 L 151.227051 28.915527 L 150.238770 28.915527 Z " fill="rgb(0, 0, 0)" fill-opacity="1.000000" />
<path d="M 155.219238 29.973633 L 159.585938 29.973633 L 159.585938 30.875977 L 156.132324 35.194336 L 159.585938 35.194336 L 159.585938 36.000000 L 155.090332 36.000000 L 155.090332 35.086914 L 158.543945 30.763184 L 155.219238 30.763184 Z " fill="rgb(0, 0, 0)" fill-opacity="1.000000" />
<path d="M 167.015625 32.498047 L 167.015625 32.981445 L 162.734863 32.981445 L 162.734863 33.013672 Q 162.691895 34.243652 163.204834 34.780762 Q 163.717773 35.317871 164.652344 35.317871 Q 165.125000 35.317871 165.640625 35.167480 Q 166.156250 35.017090 166.741699 34.710938 L 166.741699 35.693848 Q 166.177734 35.924805 165.654053 36.040283 Q 165.130371 36.155762 164.641602 36.155762 Q 163.239746 36.155762 162.450195 35.315186 Q 161.660645 34.474609 161.660645 32.997559 Q 161.660645 31.558105 162.434082 30.698730 Q 163.207520 29.839355 164.496582 29.839355 Q 165.645996 29.839355 166.309326 30.618164 Q 166.972656 31.396973 167.015625 32.498047 Z M 166.027344 32.208008 Q 165.962891 31.584961 165.573486 31.131104 Q 165.184082 30.677246 164.453613 30.677246 Q 163.739258 30.677246 163.277344 31.149902 Q 162.815430 31.622559 162.772461 32.213379 Z " fill="rgb(0, 0, 0)" fill-opacity="1.000000" />
<path d="M 177.937988 31.128418 L 180.172363 34.130859 Q 180.381836 33.867676 180.483887 33.464844 Q 180.585938 33.062012 180.585938 32.503418 Q 180.585938 32.331543 180.569824 31.955566 L 180.564453 31.917969 L 181.445312 31.917969 L 181.445312 32.127441 Q 181.445312 32.992188 181.246582 33.644775 Q 181.047852 34.297363 180.645020 34.770020 L 181.558105 36.000000 L 180.414062 36.000000 L 179.995117 35.414551 Q 179.549316 35.790527 179.049805 35.973145 Q 178.550293 36.155762 177.980957 36.155762 Q 176.820801 36.155762 176.063477 35.433350 Q 175.306152 34.710938 175.306152 33.615234 Q 175.306152 32.879395 175.676758 32.250977 Q 176.047363 31.622559 176.793945 31.085449 Q 176.525391 30.698730 176.396484 30.328125 Q 176.267578 29.957520 176.267578 29.576172 Q 176.267578 28.770508 176.802002 28.303223 Q 177.336426 27.835938 178.265625 27.835938 Q 178.614746 27.835938 178.966553 27.900391 Q 179.318359 27.964844 179.694336 28.088379 L 179.694336 29.071289 Q 179.377441 28.861816 179.041748 28.762451 Q 178.706055 28.663086 178.335449 28.663086 Q 177.814453 28.663086 177.513672 28.907471 Q 177.212891 29.151855 177.212891 29.565430 Q 177.212891 29.882324 177.368652 30.228760 Q 177.524414 30.575195 177.937988 31.128418 Z M 177.234375 31.687012 Q 176.740234 32.079102 176.495850 32.516846 Q 176.251465 32.954590 176.251465 33.448730 Q 176.251465 34.259766 176.788574 34.794189 Q 177.325684 35.328613 178.158203 35.328613 Q 178.383789 35.328613 178.630859 35.264160 Q 178.877930 35.199707 179.114258 35.076172 Q 179.259277 34.995605 179.353271 34.933838 Q 179.447266 34.872070 179.533203 34.802246 Z " fill="rgb(0, 0, 0)" fill-opacity="1.000000" />
<path d="M 194.763184 35.715332 Q 194.349609 35.935547 193.914551 36.045654 Q 193.479492 36.155762 192.990723 36.155762 Q 191.449219 36.155762 190.597900 35.065430 Q 189.746582 33.975098 189.746582 31.998535 Q 189.746582 30.032715 190.603271 28.934326 Q 191.459961 27.835938 192.990723 27.835938 Q 193.479492 27.835938 193.914551 27.946045 Q 194.349609 28.056152 194.763184 28.276367 L 194.763184 29.388184 Q 194.365723 29.060547 193.909180 28.888672 Q 193.452637 28.716797 192.990723 28.716797 Q 191.932617 28.716797 191.406250 29.533203 Q 190.879883 30.349609 190.879883 31.998535 Q 190.879883 33.642090 191.406250 34.458496 Q 191.932617 35.274902 192.990723 35.274902 Q 193.463379 35.274902 193.917236 35.103027 Q 194.371094 34.931152 194.763184 34.603516 Z " fill="rgb(0, 0, 0)" fill-opacity="1.000000" />
<path d="M 199.308594 30.677246 Q 198.556641 30.677246 198.169922 31.262695 Q 197.783203 31.848145 197.783203 32.997559 Q 197.783203 34.141602 198.169922 34.729736 Q 198.556641 35.317871 199.308594 35.317871 Q 200.065918 35.317871 200.452637 34.729736 Q 200.839355 34.141602 200.839355 32.997559 Q 200.839355 31.848145 200.452637 31.262695 Q 200.065918 30.677246 199.308594 30.677246 Z M 199.308594 29.839355 Q 200.560059 29.839355 201.223389 30.650391 Q 201.886719 31.461426 201.886719 32.997559 Q 201.886719 34.539062 201.226074 35.347412 Q 200.565430 36.155762 199.308594 36.155762 Q 198.057129 36.155762 197.396484 35.347412 Q 196.735840 34.539062 196.735840 32.997559 Q 196.735840 31.461426 197.396484 30.650391 Q 198.057129 29.839355 199.308594 29.839355 Z " fill="rgb(0, 0, 0)" fill-opacity="1.000000" />
<path d="M 206.630859 30.596680 Q 206.813477 30.209961 207.095459 30.024658 Q 207.377441 29.839355 207.774902 29.839355 Q 208.500000 29.839355 208.798096 30.400635 Q 209.096191 30.961914 209.096191 32.514160 L 209.096191 36.000000 L 208.193848 36.000000 L 208.193848 32.557129 Q 208.193848 31.284180 208.051514 30.975342 Q 207.909180 30.666504 207.533203 30.666504 Q 207.103516 30.666504 206.945068 30.996826 Q 206.786621 31.327148 206.786621 32.557129 L 206.786621 36.000000 L 205.884277 36.000000 L 205.884277 32.557129 Q 205.884277 31.268066 205.731201 30.967285 Q 205.578125 30.666504 205.180664 30.666504 Q 204.788574 30.666504 204.635498 30.996826 Q 204.482422 31.327148 204.482422 32.557129 L 204.482422 36.000000 L 203.585449 36.000000 L 203.585449 29.984375 L 204.482422 29.984375 L 204.482422 30.500000 Q 204.659668 30.177734 204.925537 30.008545 Q 205.191406 29.839355 205.529785 29.839355 Q 205.937988 29.839355 206.209229 30.027344 Q 206.480469 30.215332 206.630859 30.596680 Z " fill="rgb(0, 0, 0)" fill-opacity="1.000000" />
<path d="M 212.014160 35.242676 L 212.014160 38.288086 L 211.020508 38.288086 L 211.020508 29.984375 L 212.014160 29.984375 L 212.014160 30.752441 Q 212.261230 30.306641 212.672119 30.072998 Q 213.083008 29.839355 213.620117 29.839355 Q 214.710449 29.839355 215.330811 30.682617 Q 215.951172 31.525879 215.951172 33.019043 Q 215.951172 34.485352 215.328125 35.320557 Q 214.705078 36.155762 213.620117 36.155762 Q 213.072266 36.155762 212.661377 35.922119 Q 212.250488 35.688477 212.014160 35.242676 Z M 214.914551 32.997559 Q 214.914551 31.848145 214.552002 31.262695 Q 214.189453 30.677246 213.475098 30.677246 Q 212.755371 30.677246 212.384766 31.265381 Q 212.014160 31.853516 212.014160 32.997559 Q 212.014160 34.136230 212.384766 34.727051 Q 212.755371 35.317871 213.475098 35.317871 Q 214.189453 35.317871 214.552002 34.732422 Q 214.914551 34.146973 214.914551 32.997559 Z " fill="rgb(0, 0, 0)" fill-opacity="1.000000" />
<path d="M 220.770508 32.976074 L 220.442871 32.976074 Q 219.578125 32.976074 219.140381 33.279541 Q 218.702637 33.583008 218.702637 34.184570 Q 218.702637 34.727051 219.030273 35.027832 Q 219.357910 35.328613 219.937988 35.328613 Q 220.754395 35.328613 221.221680 34.761963 Q 221.688965 34.195312 221.694336 33.196289 L 221.694336 32.976074 Z M 222.687988 32.567871 L 222.687988 36.000000 L 221.694336 36.000000 L 221.694336 35.108398 Q 221.377441 35.645508 220.896729 35.900635 Q 220.416016 36.155762 219.728516 36.155762 Q 218.810059 36.155762 218.262207 35.637451 Q 217.714355 35.119141 217.714355 34.249023 Q 217.714355 33.244629 218.388428 32.723633 Q 219.062500 32.202637 220.367676 32.202637 L 221.694336 32.202637 L 221.694336 32.046875 Q 221.688965 31.327148 221.329102 31.002197 Q 220.969238 30.677246 220.179688 30.677246 Q 219.674805 30.677246 219.159180 30.822266 Q 218.643555 30.967285 218.154785 31.246582 L 218.154785 30.258301 Q 218.702637 30.048828 219.204834 29.944092 Q 219.707031 29.839355 220.179688 29.839355 Q 220.926270 29.839355 221.455322 30.059570 Q 221.984375 30.279785 222.312012 30.720215 Q 222.516113 30.988770 222.602051 31.383545 Q 222.687988 31.778320 222.687988 32.567871 Z " fill="rgb(0, 0, 0)" fill-opacity="1.000000" />
<path d="M 230.203613 31.225098 Q 229.886719 30.978027 229.559082 30.865234 Q 229.231445 30.752441 228.839355 30.752441 Q 227.915527 30.752441 227.426758 31.332520 Q 226.937988 31.912598 226.937988 33.008301 L 226.937988 36.000000 L 225.944336 36.000000 L 225.944336 29.984375 L 226.937988 29.984375 L 226.937988 31.160645 Q 227.185059 30.521484 227.697998 30.180420 Q 228.210938 29.839355 228.914551 29.839355 Q 229.279785 29.839355 229.596680 29.930664 Q 229.913574 30.021973 230.203613 30.215332 Z " fill="rgb(0, 0, 0)" fill-opacity="1.000000" />
<path d="M 237.015625 32.498047 L 237.015625 32.981445 L 232.734863 32.981445 L 232.734863 33.013672 Q 232.691895 34.243652 233.204834 34.780762 Q 233.717773 35.317871 234.652344 35.317871 Q 235.125000 35.317871 235.640625 35.167480 Q 236.156250 35.017090 236.741699 34.710938 L 236.741699 35.693848 Q 236.177734 35.924805 235.654053 36.040283 Q 235.130371 36.155762 234.641602 36.155762 Q 233.239746 36.155762 232.450195 35.315186 Q 231.660645 34.474609 231.660645 32.997559 Q 231.660645 31.558105 232.434082 30.698730 Q 233.207520 29.839355 234.496582 29.839355 Q 235.645996 29.839355 236.309326 30.618164 Q 236.972656 31.396973 237.015625 32.498047 Z M 236.027344 32.208008 Q 235.962891 31.584961 235.573486 31.131104 Q 235.184082 30.677246 234.453613 30.677246 Q 233.739258 30.677246 233.277344 31.149902 Q 232.815430 31.622559 232.772461 32.213379 Z " fill="rgb(0, 0, 0)" fill-opacity="1.000000" />
<path d="M 248.985352 27.594238 L 248.985352 38.594238 L 248.061523 38.594238 L 248.061523 27.594238 Z " fill="rgb(0, 0, 0)" fill-opacity="1.000000" />
<path d="M 256.082031 32.213379 Q 256.500977 32.320801 256.796387 32.618896 Q 257.091797 32.916992 257.532227 33.808594 L 258.622559 36.000000 L 257.457031 36.000000 L 256.500977 33.975098 Q 256.087402 33.110352 255.757080 32.860596 Q 255.426758 32.610840 254.895020 32.610840 L 253.858398 32.610840 L 253.858398 36.000000 L 252.768066 36.000000 L 252.768066 27.980957 L 255.002441 27.980957 Q 256.323730 27.980957 257.027344 28.577148 Q 257.730957 29.173340 257.730957 30.301270 Q 257.730957 31.096191 257.298584 31.598389 Q 256.866211 32.100586 256.082031 32.213379 Z M 253.858398 28.872559 L 253.858398 31.719238 L 255.045410 31.719238 Q 255.824219 31.719238 256.205566 31.370117 Q 256.586914 31.020996 256.586914 30.301270 Q 256.586914 29.608398 256.181396 29.240479 Q 255.775879 28.872559 255.002441 28.872559 Z " fill="rgb(0, 0, 0)" fill-opacity="1.000000" />
<path d="M 265.015625 32.498047 L 265.015625 32.981445 L 260.734863 32.981445 L 260.734863 33.013672 Q 260.691895 34.243652 261.204834 34.780762 Q 261.717773 35.317871 262.652344 35.317871 Q 263.125000 35.317871 263.640625 35.167480 Q 264.156250 35.017090 264.741699 34.710938 L 264.741699 35.693848 Q 264.177734 35.924805 263.654053 36.040283 Q 263.130371 36.155762 262.641602 36.155762 Q 261.239746 36.155762 260.450195 35.315186 Q 259.660645 34.474609 259.660645 32.997559 Q 259.660645 31.558105 260.434082 30.698730 Q 261.207520 29.839355 262.496582 29.839355 Q 263.645996 29.839355 264.309326 30.618164 Q 264.972656 31.396973 265.015625 32.498047 Z M 264.027344 32.208008 Q 263.962891 31.584961 263.573486 31.131104 Q 263.184082 30.677246 262.453613 30.677246 Q 261.739258 30.677246 261.277344 31.149902 Q 260.815430 31.622559 260.772461 32.213379 Z " fill="rgb(0, 0, 0)" fill-opacity="1.000000" />
<path d="M 271.645020 32.272461 L 271.645020 36.000000 L 270.651367 36.000000 L 270.651367 32.272461 Q 270.651367 31.461426 270.366699 31.080078 Q 270.082031 30.698730 269.475098 30.698730 Q 268.782227 30.698730 268.408936 31.190186 Q 268.035645 31.681641 268.035645 32.600098 L 268.035645 36.000000 L 267.047363 36.000000 L 267.047363 29.984375 L 268.035645 29.984375 L 268.035645 30.886719 Q 268.298828 30.371094 268.750000 30.105225 Q 269.201172 29.839355 269.818848 29.839355 Q 270.737305 29.839355 271.191162 30.443604 Q 271.645020 31.047852 271.645020 32.272461 Z " fill="rgb(0, 0, 0)" fill-opacity="1.000000" />
<path d="M 277.608398 30.752441 L 277.608398 27.642578 L 278.596680 27.642578 L 278.596680 36.000000 L 277.608398 36.000000 L 277.608398 35.242676 Q 277.361328 35.688477 276.950439 35.922119 Q 276.539551 36.155762 276.002441 36.155762 Q 274.912109 36.155762 274.286377 35.309814 Q 273.660645 34.463867 273.660645 32.976074 Q 273.660645 31.509766 274.289062 30.674561 Q 274.917480 29.839355 276.002441 29.839355 Q 276.544922 29.839355 276.958496 30.072998 Q 277.372070 30.306641 277.608398 30.752441 Z M 274.702637 32.997559 Q 274.702637 34.146973 275.067871 34.732422 Q 275.433105 35.317871 276.147461 35.317871 Q 276.861816 35.317871 277.235107 34.727051 Q 277.608398 34.136230 277.608398 32.997559 Q 277.608398 31.853516 277.235107 31.265381 Q 276.861816 30.677246 276.147461 30.677246 Q 275.433105 30.677246 275.067871 31.262695 Q 274.702637 31.848145 274.702637 32.997559 Z " fill="rgb(0, 0, 0)" fill-opacity="1.000000" />
<path d="M 286.015625 32.498047 L 286.015625 32.981445 L 281.734863 32.981445 L 281.734863 33.013672 Q 281.691895 34.243652 282.204834 34.780762 Q 282.717773 35.317871 283.652344 35.317871 Q 284.125000 35.317871 284.640625 35.167480 Q 285.156250 35.017090 285.741699 34.710938 L 285.741699 35.693848 Q 285.177734 35.924805 284.654053 36.040283 Q 284.130371 36.155762 283.641602 36.155762 Q 282.239746 36.155762 281.450195 35.315186 Q 280.660645 34.474609 280.660645 32.997559 Q 280.660645 31.558105 281.434082 30.698730 Q 282.207520 29.839355 283.496582 29.839355 Q 284.645996 29.839355 285.309326 30.618164 Q 285.972656 31.396973 286.015625 32.498047 Z M 285.027344 32.208008 Q 284.962891 31.584961 284.573486 31.131104 Q 284.184082 30.677246 283.453613 30.677246 Q 282.739258 30.677246 282.277344 31.149902 Q 281.815430 31.622559 281.772461 32.213379 Z " fill="rgb(0, 0, 0)" fill-opacity="1.000000" />
<path d="M 293.203613 31.225098 Q 292.886719 30.978027 292.559082 30.865234 Q 292.231445 30.752441 291.839355 30.752441 Q 290.915527 30.752441 290.426758 31.332520 Q 289.937988 31.912598 289.937988 33.008301 L 289.937988 36.000000 L 288.944336 36.000000 L 288.944336 29.984375 L 289.937988 29.984375 L 289.937988 31.160645 Q 290.185059 30.521484 290.697998 30.180420 Q 291.210938 29.839355 291.914551 29.839355 Q 292.279785 29.839355 292.596680 29.930664 Q 292.913574 30.021973 293.203613 30.215332 Z " fill="rgb(0, 0, 0)" fill-opacity="1.000000" />
<path d="M 297.985352 27.594238 L 297.985352 38.594238 L 297.061523 38.594238 L 297.061523 27.594238 Z " fill="rgb(0, 0, 0)" fill-opacity="1.000000" />
<path d="M 301.789551 32.922363 L 301.789551 27.980957 L 302.879883 27.980957 L 302.879883 33.416504 Q 302.879883 34.001953 302.912109 34.251709 Q 302.944336 34.501465 303.024902 34.635742 Q 303.196777 34.952637 303.521729 35.113770 Q 303.846680 35.274902 304.308594 35.274902 Q 304.775879 35.274902 305.098145 35.113770 Q 305.420410 34.952637 305.597656 34.635742 Q 305.678223 34.501465 305.710449 34.254395 Q 305.742676 34.007324 305.742676 33.427246 L 305.742676 27.980957 L 306.827637 27.980957 L 306.827637 32.922363 Q 306.827637 34.152344 306.674561 34.670654 Q 306.521484 35.188965 306.145508 35.527344 Q 305.791016 35.844238 305.334473 36.000000 Q 304.877930 36.155762 304.308594 36.155762 Q 303.744629 36.155762 303.288086 36.000000 Q 302.831543 35.844238 302.471680 35.527344 Q 302.101074 35.194336 301.945312 34.665283 Q 301.789551 34.136230 301.789551 32.922363 Z " fill="rgb(0, 0, 0)" fill-opacity="1.000000" />
<path d="M 310.014160 35.242676 L 310.014160 38.288086 L 309.020508 38.288086 L 309.020508 29.984375 L 310.014160 29.984375 L 310.014160 30.752441 Q 310.261230 30.306641 310.672119 30.072998 Q 311.083008 29.839355 311.620117 29.839355 Q 312.710449 29.839355 313.330811 30.682617 Q 313.951172 31.525879 313.951172 33.019043 Q 313.951172 34.485352 313.328125 35.320557 Q 312.705078 36.155762 311.620117 36.155762 Q 311.072266 36.155762 310.661377 35.922119 Q 310.250488 35.688477 310.014160 35.242676 Z M 312.914551 32.997559 Q 312.914551 31.848145 312.552002 31.262695 Q 312.189453 30.677246 311.475098 30.677246 Q 310.755371 30.677246 310.384766 31.265381 Q 310.014160 31.853516 310.014160 32.997559 Q 310.014160 34.136230 310.384766 34.727051 Q 310.755371 35.317871 311.475098 35.317871 Q 312.189453 35.317871 312.552002 34.732422 Q 312.914551 34.146973 312.914551 32.997559 Z " fill="rgb(0, 0, 0)" fill-opacity="1.000000" />
<path d="M 319.608398 30.752441 L 319.608398 27.642578 L 320.596680 27.642578 L 320.596680 36.000000 L 319.608398 36.000000 L 319.608398 35.242676 Q 319.361328 35.688477 318.950439 35.922119 Q 318.539551 36.155762 318.002441 36.155762 Q 316.912109 36.155762 316.286377 35.309814 Q 315.660645 34.463867 315.660645 32.976074 Q 315.660645 31.509766 316.289062 30.674561 Q 316.917480 29.839355 318.002441 29.839355 Q 318.544922 29.839355 318.958496 30.072998 Q 319.372070 30.306641 319.608398 30.752441 Z M 316.702637 32.997559 Q 316.702637 34.146973 317.067871 34.732422 Q 317.433105 35.317871 318.147461 35.317871 Q 318.861816 35.317871 319.235107 34.727051 Q 319.608398 34.136230 319.608398 32.997559 Q 319.608398 31.853516 319.235107 31.265381 Q 318.861816 30.677246 318.147461 30.677246 Q 317.433105 30.677246 317.067871 31.262695 Q 316.702637 31.848145 316.702637 32.997559 Z " fill="rgb(0, 0, 0)" fill-opacity="1.000000" />
<path d="M 325.770508 32.976074 L 325.442871 32.976074 Q 324.578125 32.976074 324.140381 33.279541 Q 323.702637 33.583008 323.702637 34.184570 Q 323.702637 34.727051 324.030273 35.027832 Q 324.357910 35.328613 324.937988 35.328613 Q 325.754395 35.328613 326.221680 34.761963 Q 326.688965 34.195312 326.694336 33.196289 L 326.694336 32.976074 Z M 327.687988 32.567871 L 327.687988 36.000000 L 326.694336 36.000000 L 326.694336 35.108398 Q 326.377441 35.645508 325.896729 35.900635 Q 325.416016 36.155762 324.728516 36.155762 Q 323.810059 36.155762 323.262207 35.637451 Q 322.714355 35.119141 322.714355 34.249023 Q 322.714355 33.244629 323.388428 32.723633 Q 324.062500 32.202637 325.367676 32.202637 L 326.694336 32.202637 L 326.694336 32.046875 Q 326.688965 31.327148 326.329102 31.002197 Q 325.969238 30.677246 325.179688 30.677246 Q 324.674805 30.677246 324.159180 30.822266 Q 323.643555 30.967285 323.154785 31.246582 L 323.154785 30.258301 Q 323.702637 30.048828 324.204834 29.944092 Q 324.707031 29.839355 325.179688 29.839355 Q 325.926270 29.839355 326.455322 30.059570 Q 326.984375 30.279785 327.312012 30.720215 Q 327.516113 30.988770 327.602051 31.383545 Q 327.687988 31.778320 327.687988 32.567871 Z " fill="rgb(0, 0, 0)" fill-opacity="1.000000" />
<path d="M 332.297852 28.276367 L 332.297852 29.984375 L 334.542969 29.984375 L 334.542969 30.752441 L 332.297852 30.752441 L 332.297852 34.018066 Q 332.297852 34.684082 332.550293 34.947266 Q 332.802734 35.210449 333.431152 35.210449 L 334.542969 35.210449 L 334.542969 36.000000 L 333.334473 36.000000 Q 332.222656 36.000000 331.766113 35.554199 Q 331.309570 35.108398 331.309570 34.018066 L 331.309570 30.752441 L 329.703613 30.752441 L 329.703613 29.984375 L 331.309570 29.984375 L 331.309570 28.276367 Z " fill="rgb(0, 0, 0)" fill-opacity="1.000000" />
<path d="M 342.015625 32.498047 L 342.015625 32.981445 L 337.734863 32.981445 L 337.734863 33.013672 Q 337.691895 34.243652 338.204834 34.780762 Q 338.717773 35.317871 339.652344 35.317871 Q 340.125000 35.317871 340.640625 35.167480 Q 341.156250 35.017090 341.741699 34.710938 L 341.741699 35.693848 Q 341.177734 35.924805 340.654053 36.040283 Q 340.130371 36.155762 339.641602 36.155762 Q 338.239746 36.155762 337.450195 35.315186 Q 336.660645 34.474609 336.660645 32.997559 Q 336.660645 31.558105 337.434082 30.698730 Q 338.207520 29.839355 339.496582 29.839355 Q 340.645996 29.839355 341.309326 30.618164 Q 341.972656 31.396973 342.015625 32.498047 Z M 341.027344 32.208008 Q 340.962891 31.584961 340.573486 31.131104 Q 340.184082 30.677246 339.453613 30.677246 Q 338.739258 30.677246 338.277344 31.149902 Q 337.815430 31.622559 337.772461 32.213379 Z " fill="rgb(0, 0, 0)" fill-opacity="1.000000" />
<path d="M 346.985352 27.594238 L 346.985352 38.594238 L 346.061523 38.594238 L 346.061523 27.594238 Z " fill="rgb(0, 0, 0)" fill-opacity="1.000000" />
<path d="M 7.547852 19.111328 L 13.241211 19.111328 L 13.241211 20.019043 L 7.547852 20.019043 Z " fill="rgb(0, 0, 0)" fill-opacity="1.000000" />
<path d="M 14.547852 19.111328 L 20.241211 19.111328 L 20.241211 20.019043 L 14.547852 20.019043 Z " fill="rgb(0, 0, 0)" fill-opacity="1.000000" />
<path d="M 21.547852 19.111328 L 27.241211 19.111328 L 27.241211 20.019043 L 21.547852 20.019043 Z " fill="rgb(0, 0, 0)" fill-opacity="1.000000" />
<path d="M 28.547852 19.111328 L 34.241211 19.111328 L 34.241211 20.019043 L 28.547852 20.019043 Z " fill="rgb(0, 0, 0)" fill-opacity="1.000000" />
<path d="M 35.547852 19.111328 L 41.241211 19.111328 L 41.241211 20.019043 L 35.547852 20.019043 Z " fill="rgb(0, 0, 0)" fill-opacity="1.000000" />
<path d="M 42.547852 19.111328 L 48.241211 19.111328 L 48.241211 20.019043 L 42.547852 20.019043 Z " fill="rgb(0, 0, 0)" fill-opacity="1.000000" />
<path d="M 49.547852 19.111328 L 55.241211 19.111328 L 55.241211 20.019043 L 49.547852 20.019043 Z " fill="rgb(0, 0, 0)" fill-opacity="1.000000" />
<path d="M 56.547852 19.111328 L 62.241211 19.111328 L 62.241211 20.019043 L 56.547852 20.019043 Z " fill="rgb(0, 0, 0)" fill-opacity="1.000000" />
<path d="M 63.547852 19.111328 L 69.241211 19.111328 L 69.241211 20.019043 L 63.547852 20.019043 Z " fill="rgb(0, 0, 0)" fill-opacity="1.000000" />
<path d="M 70.547852 19.111328 L 76.241211 19.111328 L 76.241211 20.019043 L 70.547852 20.019043 Z " fill="rgb(0, 0, 0)" fill-opacity="1.000000" />
<path d="M 77.547852 19.111328 L 83.241211 19.111328 L 83.241211 20.019043 L 77.547852 20.019043 Z " fill="rgb(0, 0, 0)" fill-opacity="1.000000" />
<path d="M 84.547852 19.111328 L 90.241211 19.111328 L 90.241211 20.019043 L 84.547852 20.019043 Z " fill="rgb(0, 0, 0)" fill-opacity="1.000000" />
<path d="M 91.472656 17.838379 L 91.472656 16.860840 L 97.149902 19.105957 L 97.149902 19.997559 L 91.472656 22.242676 L 91.472656 21.259766 L 96.038086 19.557129 Z " fill="rgb(0, 0, 0)" fill-opacity="1.000000" />
<path d="M 98.547852 19.111328 L 104.241211 19.111328 L 104.241211 20.019043 L 98.547852 20.019043 Z " fill="rgb(0, 0, 0)" fill-opacity="1.000000" />
<path d="M 105.547852 19.111328 L 111.241211 19.111328 L 111.241211 20.019043 L 105.547852 20.019043 Z " fill="rgb(0, 0, 0)" fill-opacity="1.000000" />
<path d="M 112.547852 19.111328 L 118.241211 19.111328 L 118.241211 20.019043 L 112.547852 20.019043 Z " fill="rgb(0, 0, 0)" fill-opacity="1.000000" />
<path d="M 119.547852 19.111328 L 125.241211 19.111328 L 125.241211 20.019043 L 119.547852 20.019043 Z " fill="rgb(0, 0, 0)" fill-opacity="1.000000" />
<path d="M 126.547852 19.111328 L 132.241211 19.111328 L 132.241211 20.019043 L 126.547852 20.019043 Z " fill="rgb(0, 0, 0)" fill-opacity="1.000000" />
<path d="M 133.547852 19.111328 L 139.241211 19.111328 L 139.241211 20.019043 L 133.547852 20.019043 Z " fill="rgb(0, 0, 0)" fill-opacity="1.000000" />
<path d="M 140.547852 19.111328 L 146.241211 19.111328 L 146.241211 20.019043 L 140.547852 20.019043 Z " fill="rgb(0, 0, 0)" fill-opacity="1.000000" />
<path d="M 147.547852 19.111328 L 153.241211 19.111328 L 153.241211 20.019043 L 147.547852 20.019043 Z " fill="rgb(0, 0, 0)" fill-opacity="1.000000" />
<path d="M 154.547852 19.111328 L 160.241211 19.111328 L 160.241211 20.019043 L 154.547852 20.019043 Z " fill="rgb(0, 0, 0)" fill-opacity="1.000000" />
<path d="M 161.547852 19.111328 L 167.241211 19.111328 L 167.241211 20.019043 L 161.547852 20.019043 Z " fill="rgb(0, 0, 0)" fill-opacity="1.000000" />
<path d="M 168.547852 19.111328 L 174.241211 19.111328 L 174.241211 20.019043 L 168.547852 20.019043 Z " fill="rgb(0, 0, 0)" fill-opacity="1.000000" />
<path d="M 175.547852 19.111328 L 181.241211 19.111328 L 181.241211 20.019043 L 175.547852 20.019043 Z " fill="rgb(0, 0, 0)" fill-opacity="1.000000" />
<path d="M 182.547852 19.111328 L 188.241211 19.111328 L 188.241211 20.019043 L 182.547852 20.019043 Z " fill="rgb(0, 0, 0)" fill-opacity="1.000000" />
<path d="M 189.547852 19.111328 L 195.241211 19.111328 L 195.241211 20.019043 L 189.547852 20.019043 Z " fill="rgb(0, 0, 0)" fill-opacity="1.000000" />
<path d="M 196.547852 19.111328 L 202.241211 19.111328 L 202.241211 20.019043 L 196.547852 20.019043 Z " fill="rgb(0, 0, 0)" fill-opacity="1.000000" />
<path d="M 203.547852 19.111328 L 209.241211 19.111328 L 209.241211 20.019043 L 203.547852 20.019043 Z " fill="rgb(0, 0, 0)" fill-opacity="1.000000" />
<path d="M 210.547852 19.111328 L 216.241211 19.111328 L 216.241211 20.019043 L 210.547852 20.019043 Z " fill="rgb(0, 0, 0)" fill-opacity="1.000000" />
<path d="M 217.547852 19.111328 L 223.241211 19.111328 L 223.241211 20.019043 L 217.547852 20.019043 Z " fill="rgb(0, 0, 0)" fill-opacity="1.000000" />
<path d="M 224.547852 19.111328 L 230.241211 19.111328 L 230.241211 20.019043 L 224.547852 20.019043 Z " fill="rgb(0, 0, 0)" fill-opacity="1.000000" />
<path d="M 231.547852 19.111328 L 237.241211 19.111328 L 237.241211 20.019043 L 231.547852 20.019043 Z " fill="rgb(0, 0, 0)" fill-opacity="1.000000" />
<path d="M 238.547852 19.111328 L 244.241211 19.111328 L 244.241211 20.019043 L 238.547852 20.019043 Z " fill="rgb(0, 0, 0)" fill-opacity="1.000000" />
<path d="M 245.472656 17.838379 L 245.472656 16.860840 L 251.149902 19.105957 L 251.149902 19.997559 L 245.472656 22.242676 L 245.472656 21.259766 L 250.038086 19.557129 Z " fill="rgb(0, 0, 0)" fill-opacity="1.000000" />
<path d="M 252.547852 19.111328 L 258.241211 19.111328 L 258.241211 20.019043 L 252.547852 20.019043 Z " fill="rgb(0, 0, 0)" fill-opacity="1.000000" />
<path d="M 259.547852 19.111328 L 265.241211 19.111328 L 265.241211 20.019043 L 259.547852 20.019043 Z " fill="rgb(0, 0, 0)" fill-opacity="1.000000" />
<path d="M 266.547852 19.111328 L 272.241211 19.111328 L 272.241211 20.019043 L 266.547852 20.019043 Z " fill="rgb(0, 0, 0)" fill-opacity="1.000000" />
<path d="M 273.547852 19.111328 L 279.241211 19.111328 L 279.241211 20.019043 L 273.547852 20.019043 Z " fill="rgb(0, 0, 0)" fill-opacity="1.000000" />
<path d="M 280.547852 19.111328 L 286.241211 19.111328 L 286.241211 20.019043 L 280.547852 20.019043 Z " fill="rgb(0, 0, 0)" fill-opacity="1.000000" />
<path d="M 287.547852 19.111328 L 293.241211 19.111328 L 293.241211 20.019043 L 287.547852 20.019043 Z " fill="rgb(0, 0, 0)" fill-opacity="1.000000" />
<path d="M 294.472656 17.838379 L 294.472656 16.860840 L 300.149902 19.105957 L 300.149902 19.997559 L 294.472656 22.242676 L 294.472656 21.259766 L 299.038086 19.557129 Z " fill="rgb(0, 0, 0)" fill-opacity="1.000000" />
<path d="M 301.547852 19.111328 L 307.241211 19.111328 L 307.241211 20.019043 L 301.547852 20.019043 Z " fill="rgb(0, 0, 0)" fill-opacity="1.000000" />
<path d="M 308.547852 19.111328 L 314.241211 19.111328 L 314.241211 20.019043 L 308.547852 20.019043 Z " fill="rgb(0, 0, 0)" fill-opacity="1.000000" />
<path d="M 315.547852 19.111328 L 321.241211 19.111328 L 321.241211 20.019043 L 315.547852 20.019043 Z " fill="rgb(0, 0, 0)" fill-opacity="1.000000" />
<path d="M 322.547852 19.111328 L 328.241211 19.111328 L 328.241211 20.019043 L 322.547852 20.019043 Z " fill="rgb(0, 0, 0)" fill-opacity="1.000000" />
<path d="M 329.547852 19.111328 L 335.241211 19.111328 L 335.241211 20.019043 L 329.547852 20.019043 Z " fill="rgb(0, 0, 0)" fill-opacity="1.000000" />
<path d="M 336.547852 19.111328 L 342.241211 19.111328 L 342.241211 20.019043 L 336.547852 20.019043 Z " fill="rgb(0, 0, 0)" fill-opacity="1.000000" />
<path d="M 346.867188 16.672852 L 346.867188 19.052246 L 349.257324 19.052246 L 349.257324 19.959961 L 346.867188 19.959961 L 346.867188 22.339355 L 345.964844 22.339355 L 345.964844 19.959961 L 343.580078 19.959961 L 343.580078 19.052246 L 345.964844 19.052246 L 345.964844 16.672852 Z " fill="rgb(0, 0, 0)" fill-opacity="1.000000" />
<path d="M 13.015625 6.498047 L 13.015625 6.981445 L 8.734863 6.981445 L 8.734863 7.013672 Q 8.691895 8.243652 9.204834 8.780762 Q 9.717773 9.317871 10.652344 9.317871 Q 11.125000 9.317871 11.640625 9.167480 Q 12.156250 9.017090 12.741699 8.710938 L 12.741699 9.693848 Q 12.177734 9.924805 11.654053 10.040283 Q 11.130371 10.155762 10.641602 10.155762 Q 9.239746 10.155762 8.450195 9.315186 Q 7.660645 8.474609 7.660645 6.997559 Q 7.660645 5.558105 8.434082 4.698730 Q 9.207520 3.839355 10.496582 3.839355 Q 11.645996 3.839355 12.309326 4.618164 Q 12.972656 5.396973 13.015625 6.498047 Z M 12.027344 6.208008 Q 11.962891 5.584961 11.573486 5.131104 Q 11.184082 4.677246 10.453613 4.677246 Q 9.739258 4.677246 9.277344 5.149902 Q 8.815430 5.622559 8.772461 6.213379 Z " fill="rgb(0, 0, 0)" fill-opacity="1.000000" />
<path d="M 17.861816 7.824707 Q 17.861816 8.490723 18.106201 8.829102 Q 18.350586 9.167480 18.828613 9.167480 L 19.983398 9.167480 L 19.983398 10.000000 L 18.731934 10.000000 Q 17.845703 10.000000 17.359619 9.433350 Q 16.873535 8.866699 16.873535 7.824707 L 16.873535 2.383789 L 15.289062 2.383789 L 15.289062 1.610352 L 17.861816 1.610352 Z " fill="rgb(0, 0, 0)" fill-opacity="1.000000" />
<path d="M 24.770508 6.976074 L 24.442871 6.976074 Q 23.578125 6.976074 23.140381 7.279541 Q 22.702637 7.583008 22.702637 8.184570 Q 22.702637 8.727051 23.030273 9.027832 Q 23.357910 9.328613 23.937988 9.328613 Q 24.754395 9.328613 25.221680 8.761963 Q 25.688965 8.195312 25.694336 7.196289 L 25.694336 6.976074 Z M 26.687988 6.567871 L 26.687988 10.000000 L 25.694336 10.000000 L 25.694336 9.108398 Q 25.377441 9.645508 24.896729 9.900635 Q 24.416016 10.155762 23.728516 10.155762 Q 22.810059 10.155762 22.262207 9.637451 Q 21.714355 9.119141 21.714355 8.249023 Q 21.714355 7.244629 22.388428 6.723633 Q 23.062500 6.202637 24.367676 6.202637 L 25.694336 6.202637 L 25.694336 6.046875 Q 25.688965 5.327148 25.329102 5.002197 Q 24.969238 4.677246 24.179688 4.677246 Q 23.674805 4.677246 23.159180 4.822266 Q 22.643555 4.967285 22.154785 5.246582 L 22.154785 4.258301 Q 22.702637 4.048828 23.204834 3.944092 Q 23.707031 3.839355 24.179688 3.839355 Q 24.926270 3.839355 25.455322 4.059570 Q 25.984375 4.279785 26.312012 4.720215 Q 26.516113 4.988770 26.602051 5.383545 Q 26.687988 5.778320 26.687988 6.567871 Z " fill="rgb(0, 0, 0)" fill-opacity="1.000000" />
<path d="M 32.608398 8.066406 Q 32.361328 8.694824 31.979980 9.720703 Q 31.448242 11.138672 31.265625 11.450195 Q 31.018555 11.869141 30.647949 12.078613 Q 30.277344 12.288086 29.783203 12.288086 L 28.988281 12.288086 L 28.988281 11.460938 L 29.573730 11.460938 Q 30.008789 11.460938 30.255859 11.208496 Q 30.502930 10.956055 30.884277 9.903320 L 28.558594 3.984375 L 29.605957 3.984375 L 31.389160 8.689453 L 33.145508 3.984375 L 34.192871 3.984375 Z " fill="rgb(0, 0, 0)" fill-opacity="1.000000" />
<path d="M 43.450195 9.092285 L 45.136719 9.092285 L 45.136719 3.033691 L 43.117188 4.005859 L 43.117188 2.963867 L 45.125977 2.007812 L 46.210938 2.007812 L 46.210938 9.092285 L 47.875977 9.092285 L 47.875977 10.000000 L 43.450195 10.000000 Z " fill="rgb(0, 0, 0)" fill-opacity="1.000000" />
</svg>